<svg xmlns="http://www.w3.org/2000/svg" width="495.477" height="40.995" viewBox="0 0 495.477 40.995">
  <g id="Grupo_3978" data-name="Grupo 3978" transform="translate(-2046.006 -9137.052)">
    <g id="Grupo_3974" data-name="Grupo 3974" transform="translate(29 227)">
      <circle id="Elipse_68" data-name="Elipse 68" cx="18" cy="18" r="18" transform="translate(2017.006 8910.052)" fill="#98bd11" opacity="0.8"/>
      <g id="Grupo_2023" data-name="Grupo 2023">
        <path id="Trazado_9228" data-name="Trazado 9228" d="M2022.594,8923.728a13.142,13.142,0,0,0,0,8.649.972.972,0,0,0,.041.118,13.144,13.144,0,0,0,24.742,0,.82.82,0,0,0,.042-.118,13.142,13.142,0,0,0,0-8.649.9.9,0,0,0-.042-.118,13.144,13.144,0,0,0-24.742,0,.918.918,0,0,0-.041.118Zm12.412-6.936c.5,0,1.308.906,1.983,2.93a20.715,20.715,0,0,1,.776,3.321h-5.517a20.61,20.61,0,0,1,.776-3.321c.675-2.023,1.482-2.93,1.982-2.93Zm2.987,8.135c.091,1,.139,2.054.139,3.125s-.048,2.121-.139,3.125h-5.974c-.09-1-.138-2.052-.138-3.125s.048-2.121.138-3.125Zm8.274,3.125a11.193,11.193,0,0,1-.442,3.125h-5.942c.089-1.024.133-2.076.133-3.125s-.044-2.1-.133-3.125h5.942a11.2,11.2,0,0,1,.442,3.125Zm-11.261,11.262c-.5,0-1.307-.906-1.982-2.931a20.585,20.585,0,0,1-.776-3.321h5.517a20.69,20.69,0,0,1-.776,3.321c-.675,2.024-1.482,2.931-1.983,2.931Zm-4.877-8.137h-5.941a11.268,11.268,0,0,1,0-6.25h5.941c-.088,1.025-.132,2.076-.132,3.125s.044,2.1.132,3.125Zm-5.205,1.885h5.421a18.113,18.113,0,0,0,1.717,5.859,11.3,11.3,0,0,1-7.138-5.859Zm13.027,5.859a18.09,18.09,0,0,0,1.716-5.859h5.422a11.308,11.308,0,0,1-7.138,5.859Zm7.138-15.878h-5.422a18.1,18.1,0,0,0-1.716-5.86,11.316,11.316,0,0,1,7.138,5.86Zm-13.027-5.86a18.127,18.127,0,0,0-1.717,5.86h-5.421a11.311,11.311,0,0,1,7.138-5.86Zm0,0" fill="#fff"/>
      </g>
    </g>
    <path id="Trazado_17252" data-name="Trazado 17252" d="M5.7,17l1.156-5.406a6.426,6.426,0,0,0,.141-1.055A1.019,1.019,0,0,0,5.844,9.383a2.342,2.342,0,0,0-1.355.461,4.052,4.052,0,0,0-1.164,1.34A7.187,7.187,0,0,0,2.563,13.3L1.773,17H.461L3.039,4.844H4.352q-.141.641-.27,1.242T3.816,7.309q-.137.621-.3,1.3t-.371,1.477h.086A5.205,5.205,0,0,1,4.684,8.711,2.942,2.942,0,0,1,6.18,8.3a2.131,2.131,0,0,1,1.582.563,2.164,2.164,0,0,1,.559,1.594,6.349,6.349,0,0,1-.18,1.3q-.3,1.508-1.133,5.25Zm6.625-.914a4.227,4.227,0,0,0,1.125-.2v1.008a3.6,3.6,0,0,1-.656.188,3.361,3.361,0,0,1-.625.078,2.172,2.172,0,0,1-1.5-.465,1.765,1.765,0,0,1-.52-1.387,5.66,5.66,0,0,1,.141-1.172l.992-4.7H9.938l.109-.57,1.445-.609.977-1.781h.766L12.8,8.438h2.141l-.2.992H12.609L11.6,14.148a5.558,5.558,0,0,0-.141,1.031.928.928,0,0,0,.227.672A.839.839,0,0,0,12.32,16.086Zm5.188,0a4.227,4.227,0,0,0,1.125-.2v1.008a3.6,3.6,0,0,1-.656.188,3.361,3.361,0,0,1-.625.078,2.172,2.172,0,0,1-1.5-.465,1.765,1.765,0,0,1-.52-1.387,5.66,5.66,0,0,1,.141-1.172l.992-4.7H15.125l.109-.57L16.68,8.25l.977-1.781h.766l-.43,1.969h2.141l-.2.992H17.8l-1.008,4.719a5.558,5.558,0,0,0-.141,1.031.928.928,0,0,0,.227.672A.839.839,0,0,0,17.508,16.086Zm6.359,1.07a2.293,2.293,0,0,1-1.328-.391,2.537,2.537,0,0,1-.883-1.094h-.078l-.031.3q-.023.2-.082.547t-.895,4.328h-1.3L21.9,8.438h1.086l-.2,1.633h.063A3.837,3.837,0,0,1,25.75,8.3a2.055,2.055,0,0,1,1.688.762,3.309,3.309,0,0,1,.617,2.137,8.3,8.3,0,0,1-.539,3.039,5.046,5.046,0,0,1-1.492,2.152A3.341,3.341,0,0,1,23.867,17.156ZM25.32,9.383a2.26,2.26,0,0,0-1.527.742,5.292,5.292,0,0,0-1.234,1.867,6.071,6.071,0,0,0-.457,2.3,1.84,1.84,0,0,0,.434,1.316,1.647,1.647,0,0,0,1.254.457,2.066,2.066,0,0,0,1.441-.633,4.443,4.443,0,0,0,1.074-1.8,7.5,7.5,0,0,0,.406-2.48Q26.711,9.383,25.32,9.383Zm9.266,5.188a2.29,2.29,0,0,1-.863,1.9,3.834,3.834,0,0,1-2.434.684,5.191,5.191,0,0,1-2.383-.539V15.383a4.863,4.863,0,0,0,1.18.508,4.311,4.311,0,0,0,1.172.18,2.382,2.382,0,0,0,1.484-.391,1.215,1.215,0,0,0,.5-1,1.082,1.082,0,0,0-.273-.75,5.51,5.51,0,0,0-1.18-.836,4.752,4.752,0,0,1-1.437-1.117,2.061,2.061,0,0,1-.422-1.3,2.155,2.155,0,0,1,.789-1.738,3.132,3.132,0,0,1,2.078-.66,6.043,6.043,0,0,1,2.578.578l-.422,1.07-.437-.2A4.342,4.342,0,0,0,32.8,9.4a1.747,1.747,0,0,0-1.141.34,1.146,1.146,0,0,0-.137,1.629,4.894,4.894,0,0,0,1.145.8,6.655,6.655,0,0,1,1.2.8,2.323,2.323,0,0,1,.543.723A2.043,2.043,0,0,1,34.586,14.57Zm1.445,1.852a1.387,1.387,0,0,1,.316-.957,1.106,1.106,0,0,1,.871-.355.742.742,0,0,1,.543.2.83.83,0,0,1,.207.617,1.388,1.388,0,0,1-.312.926,1.046,1.046,0,0,1-.844.371.788.788,0,0,1-.57-.2A.8.8,0,0,1,36.031,16.422Zm1.25-6.891a1.4,1.4,0,0,1,.313-.957,1.094,1.094,0,0,1,.867-.355q.758,0,.758.813a1.349,1.349,0,0,1-.324.934,1.065,1.065,0,0,1-.832.363.779.779,0,0,1-.57-.207A.789.789,0,0,1,37.281,9.531Zm9.438-3.953L40.367,17H39.008L45.359,5.578Zm5.6,0L45.969,17H44.609L50.961,5.578ZM52.719,17H51.406l1.828-8.562h1.313ZM53.6,6.25a1.027,1.027,0,0,1,.25-.715.833.833,0,0,1,.648-.277.615.615,0,0,1,.688.7,1.06,1.06,0,0,1-.262.727.788.788,0,0,1-.605.3.722.722,0,0,1-.516-.191A.71.71,0,0,1,53.6,6.25ZM60,8.3a2.279,2.279,0,0,1,2.2,1.484h.078a18,18,0,0,1,.352-2.141l.609-2.8h1.3L61.953,17H60.867l.172-1.633h-.062A5.866,5.866,0,0,1,59.5,16.75a2.759,2.759,0,0,1-1.422.406,2.045,2.045,0,0,1-1.7-.766,3.329,3.329,0,0,1-.609-2.125,8.094,8.094,0,0,1,.563-3.062,5.107,5.107,0,0,1,1.52-2.148A3.368,3.368,0,0,1,60,8.3ZM58.516,16.07a2.276,2.276,0,0,0,1.516-.73,5.129,5.129,0,0,0,1.238-1.867,6.16,6.16,0,0,0,.457-2.316,1.87,1.87,0,0,0-.422-1.32,1.594,1.594,0,0,0-1.227-.453,2.09,2.09,0,0,0-1.465.645,4.531,4.531,0,0,0-1.086,1.813,7.361,7.361,0,0,0-.41,2.457Q57.117,16.07,58.516,16.07Zm6.063.352a1.387,1.387,0,0,1,.316-.957,1.106,1.106,0,0,1,.871-.355.742.742,0,0,1,.543.2.83.83,0,0,1,.207.617,1.388,1.388,0,0,1-.312.926,1.046,1.046,0,0,1-.844.371.788.788,0,0,1-.57-.2A.8.8,0,0,1,64.578,16.422Zm7.969.734a2.293,2.293,0,0,1-1.328-.391,2.537,2.537,0,0,1-.883-1.094h-.078l-.031.3q-.023.2-.082.547t-.895,4.328h-1.3L70.578,8.438h1.086l-.2,1.633h.063A3.837,3.837,0,0,1,74.43,8.3a2.055,2.055,0,0,1,1.688.762,3.309,3.309,0,0,1,.617,2.137,8.3,8.3,0,0,1-.539,3.039A5.046,5.046,0,0,1,74.7,16.387,3.341,3.341,0,0,1,72.547,17.156ZM74,9.383a2.26,2.26,0,0,0-1.527.742,5.292,5.292,0,0,0-1.234,1.867,6.071,6.071,0,0,0-.457,2.3,1.84,1.84,0,0,0,.434,1.316,1.647,1.647,0,0,0,1.254.457,2.066,2.066,0,0,0,1.441-.633,4.443,4.443,0,0,0,1.074-1.8,7.5,7.5,0,0,0,.406-2.48Q75.391,9.383,74,9.383Zm9.4-1.1a3.565,3.565,0,0,1,.938.109l-.281,1.172a3.434,3.434,0,0,0-.82-.1A2.17,2.17,0,0,0,81.9,9.93a4.1,4.1,0,0,0-1.086,1.3,6.623,6.623,0,0,0-.684,1.848L79.3,17H77.984l1.828-8.562H80.9l-.172,1.586H80.8a7.677,7.677,0,0,1,.93-1.066,2.948,2.948,0,0,1,.77-.5A2.211,2.211,0,0,1,83.4,8.281Zm3.984,8.875a2.988,2.988,0,0,1-2.258-.852,3.26,3.26,0,0,1-.82-2.359,7.031,7.031,0,0,1,.582-2.816,5.212,5.212,0,0,1,1.543-2.1,3.363,3.363,0,0,1,2.117-.75,2.685,2.685,0,0,1,1.8.52,1.813,1.813,0,0,1,.6,1.449,2.476,2.476,0,0,1-1.3,2.207,7.1,7.1,0,0,1-3.711.8H85.68l-.031.625a2.418,2.418,0,0,0,.48,1.6,1.832,1.832,0,0,0,1.488.574,3.864,3.864,0,0,0,1.012-.141,7.746,7.746,0,0,0,1.293-.516v1.141a7.081,7.081,0,0,1-1.3.48A5.261,5.261,0,0,1,87.383,17.156ZM88.469,9.4a2.087,2.087,0,0,0-1.512.734,4.8,4.8,0,0,0-1.082,2.039h.094a6.378,6.378,0,0,0,2.73-.465,1.459,1.459,0,0,0,.949-1.348.913.913,0,0,0-.285-.687A1.255,1.255,0,0,0,88.469,9.4Zm8.7,5.172a2.29,2.29,0,0,1-.863,1.9,3.834,3.834,0,0,1-2.434.684,5.191,5.191,0,0,1-2.383-.539V15.383a4.863,4.863,0,0,0,1.18.508,4.311,4.311,0,0,0,1.172.18,2.382,2.382,0,0,0,1.484-.391,1.215,1.215,0,0,0,.5-1,1.082,1.082,0,0,0-.273-.75,5.51,5.51,0,0,0-1.18-.836,4.752,4.752,0,0,1-1.437-1.117,2.061,2.061,0,0,1-.422-1.3A2.155,2.155,0,0,1,93.3,8.941a3.132,3.132,0,0,1,2.078-.66,6.043,6.043,0,0,1,2.578.578l-.422,1.07-.437-.2A4.342,4.342,0,0,0,95.383,9.4a1.747,1.747,0,0,0-1.141.34,1.146,1.146,0,0,0-.137,1.629,4.894,4.894,0,0,0,1.145.8,6.655,6.655,0,0,1,1.2.8,2.323,2.323,0,0,1,.543.723A2.043,2.043,0,0,1,97.172,14.57ZM100.055,17H98.742l1.828-8.562h1.313Zm.883-10.75a1.027,1.027,0,0,1,.25-.715.833.833,0,0,1,.648-.277.615.615,0,0,1,.688.7,1.06,1.06,0,0,1-.262.727.788.788,0,0,1-.605.3.722.722,0,0,1-.516-.191A.71.71,0,0,1,100.938,6.25Zm6.4,2.047a2.279,2.279,0,0,1,2.2,1.484h.078a18,18,0,0,1,.352-2.141l.609-2.8h1.3L109.289,17H108.2l.172-1.633h-.062a5.866,5.866,0,0,1-1.477,1.383,2.759,2.759,0,0,1-1.422.406,2.045,2.045,0,0,1-1.7-.766,3.329,3.329,0,0,1-.609-2.125,8.094,8.094,0,0,1,.563-3.062,5.107,5.107,0,0,1,1.52-2.148A3.368,3.368,0,0,1,107.336,8.3Zm-1.484,7.773a2.276,2.276,0,0,0,1.516-.73,5.129,5.129,0,0,0,1.238-1.867,6.16,6.16,0,0,0,.457-2.316,1.87,1.87,0,0,0-.422-1.32,1.594,1.594,0,0,0-1.227-.453,2.09,2.09,0,0,0-1.465.645,4.531,4.531,0,0,0-1.086,1.813,7.361,7.361,0,0,0-.41,2.457Q104.453,16.07,105.852,16.07Zm9.57,1.086a2.988,2.988,0,0,1-2.258-.852,3.26,3.26,0,0,1-.82-2.359,7.031,7.031,0,0,1,.582-2.816,5.212,5.212,0,0,1,1.543-2.1,3.363,3.363,0,0,1,2.117-.75,2.685,2.685,0,0,1,1.8.52,1.813,1.813,0,0,1,.6,1.449,2.476,2.476,0,0,1-1.3,2.207,7.1,7.1,0,0,1-3.711.8h-.258l-.031.625a2.418,2.418,0,0,0,.48,1.6,1.832,1.832,0,0,0,1.488.574,3.864,3.864,0,0,0,1.012-.141,7.746,7.746,0,0,0,1.293-.516v1.141a7.081,7.081,0,0,1-1.3.48A5.261,5.261,0,0,1,115.422,17.156ZM116.508,9.4a2.087,2.087,0,0,0-1.512.734,4.8,4.8,0,0,0-1.082,2.039h.094a6.378,6.378,0,0,0,2.73-.465,1.459,1.459,0,0,0,.949-1.348.913.913,0,0,0-.285-.687A1.255,1.255,0,0,0,116.508,9.4Zm8.656,7.6,1.156-5.406a7.126,7.126,0,0,0,.156-1.125,1.109,1.109,0,0,0-.277-.789,1.164,1.164,0,0,0-.887-.3,2.316,2.316,0,0,0-1.355.469,4.171,4.171,0,0,0-1.164,1.336,7.029,7.029,0,0,0-.762,2.1L121.242,17H119.93l1.828-8.562h1.086l-.172,1.586h.078A5.219,5.219,0,0,1,124.2,8.676a2.911,2.911,0,0,1,1.449-.395,2.187,2.187,0,0,1,1.566.543,1.99,1.99,0,0,1,.574,1.52,6.413,6.413,0,0,1-.18,1.406L126.492,17Zm7.492.156a3.18,3.18,0,0,1-2.352-.836,3.191,3.191,0,0,1-.836-2.359,7.108,7.108,0,0,1,.578-2.883,4.894,4.894,0,0,1,1.6-2.059,3.815,3.815,0,0,1,2.293-.738,5.725,5.725,0,0,1,2.094.4l-.367,1.1a4.42,4.42,0,0,0-1.711-.4,2.449,2.449,0,0,0-1.6.6,3.936,3.936,0,0,0-1.133,1.664,6.4,6.4,0,0,0-.41,2.316,2.187,2.187,0,0,0,.52,1.555,1.869,1.869,0,0,0,1.434.555,3.542,3.542,0,0,0,1.063-.156,9.742,9.742,0,0,0,.984-.367v1.117A4.691,4.691,0,0,1,132.656,17.156ZM137.68,17h-1.312L138.2,8.438h1.313Zm.883-10.75a1.027,1.027,0,0,1,.25-.715.833.833,0,0,1,.648-.277.615.615,0,0,1,.688.7,1.06,1.06,0,0,1-.262.727.788.788,0,0,1-.605.3.722.722,0,0,1-.516-.191A.71.71,0,0,1,138.563,6.25Zm6.4,2.031a2.208,2.208,0,0,1,1.281.387,2.513,2.513,0,0,1,.875,1.113h.086l.523-1.344h.992L146.9,17h-1.039l.2-1.633H146a3.853,3.853,0,0,1-2.945,1.789,2.059,2.059,0,0,1-1.7-.773,3.305,3.305,0,0,1-.617-2.117,8.065,8.065,0,0,1,.555-3.016,5.21,5.21,0,0,1,1.531-2.18A3.331,3.331,0,0,1,144.961,8.281Zm-1.484,7.789a2.2,2.2,0,0,0,1.508-.723,5.355,5.355,0,0,0,1.219-1.883,6.162,6.162,0,0,0,.469-2.324,1.821,1.821,0,0,0-.437-1.281,1.486,1.486,0,0,0-1.148-.477,2.151,2.151,0,0,0-1.512.672,4.533,4.533,0,0,0-1.1,1.82,7.336,7.336,0,0,0-.4,2.422,2.048,2.048,0,0,0,.367,1.332A1.267,1.267,0,0,0,143.477,16.07Zm5.867.352a1.387,1.387,0,0,1,.316-.957,1.106,1.106,0,0,1,.871-.355.742.742,0,0,1,.543.2.83.83,0,0,1,.207.617,1.388,1.388,0,0,1-.312.926,1.046,1.046,0,0,1-.844.371.788.788,0,0,1-.57-.2A.8.8,0,0,1,149.344,16.422Zm12.3-7.984-.2.836-1.648.188a2.2,2.2,0,0,1,.32,1.234,3.169,3.169,0,0,1-.91,2.379,3.338,3.338,0,0,1-2.434.887,2.618,2.618,0,0,1-.656-.062q-1.086.414-1.086,1.023a.414.414,0,0,0,.258.426,3.118,3.118,0,0,0,.75.168l.914.109a4.071,4.071,0,0,1,2.051.688,1.835,1.835,0,0,1,.637,1.516,2.551,2.551,0,0,1-1.141,2.227,5.594,5.594,0,0,1-3.211.789,4.237,4.237,0,0,1-2.375-.574,1.839,1.839,0,0,1-.859-1.621,2.012,2.012,0,0,1,.563-1.422,4.38,4.38,0,0,1,1.82-1.023,1.018,1.018,0,0,1-.609-.945,1.245,1.245,0,0,1,.4-.926,4.108,4.108,0,0,1,1.109-.723,2.054,2.054,0,0,1-1.117-1.875,3.433,3.433,0,0,1,.934-2.484,3.17,3.17,0,0,1,2.387-.969,4.708,4.708,0,0,1,1.2.156Zm-8.32,10.086a1.1,1.1,0,0,0,.508.953,2.654,2.654,0,0,0,1.508.352,4.215,4.215,0,0,0,2.223-.5,1.563,1.563,0,0,0,.8-1.4.876.876,0,0,0-.422-.766,3.385,3.385,0,0,0-1.437-.391l-1.242-.125a2.819,2.819,0,0,0-1.437.688A1.606,1.606,0,0,0,153.328,18.523Zm2.172-6.836a1.361,1.361,0,0,0,.352,1.012,1.329,1.329,0,0,0,.977.348,1.811,1.811,0,0,0,1.078-.328,2.086,2.086,0,0,0,.707-.9,3.13,3.13,0,0,0,.246-1.246,1.3,1.3,0,0,0-.344-.977,1.351,1.351,0,0,0-.984-.336,1.827,1.827,0,0,0-1.066.316,2.077,2.077,0,0,0-.711.883A2.973,2.973,0,0,0,155.5,11.688Zm10.594-3.359a3.127,3.127,0,0,1,2.344.879,3.31,3.31,0,0,1,.859,2.418,6.93,6.93,0,0,1-.562,2.773,4.8,4.8,0,0,1-1.523,2.016,3.56,3.56,0,0,1-2.172.711,3.114,3.114,0,0,1-2.352-.883,3.331,3.331,0,0,1-.852-2.414,6.914,6.914,0,0,1,.57-2.793,4.734,4.734,0,0,1,1.539-2.008A3.587,3.587,0,0,1,166.094,8.328Zm1.844,3.117a2.134,2.134,0,0,0-.488-1.457,1.669,1.669,0,0,0-1.324-.559,2.287,2.287,0,0,0-1.527.578,3.721,3.721,0,0,0-1.047,1.605,6.688,6.688,0,0,0-.371,2.285,2.3,2.3,0,0,0,.5,1.582,1.807,1.807,0,0,0,1.426.559,2.154,2.154,0,0,0,1.461-.57,3.725,3.725,0,0,0,1.012-1.621A7.335,7.335,0,0,0,167.938,11.445ZM171.469,17l-.977-8.562H171.8l.5,4.789q.188,2.016.188,2.828h.047q.992-2.148,1.4-2.9l2.539-4.719h1.391L173.25,17Zm5.344-.578a1.387,1.387,0,0,1,.316-.957,1.106,1.106,0,0,1,.871-.355.742.742,0,0,1,.543.2.83.83,0,0,1,.207.617,1.388,1.388,0,0,1-.312.926,1.046,1.046,0,0,1-.844.371.788.788,0,0,1-.57-.2A.8.8,0,0,1,176.813,16.422Zm7.664.734a3.18,3.18,0,0,1-2.352-.836,3.191,3.191,0,0,1-.836-2.359,7.108,7.108,0,0,1,.578-2.883,4.894,4.894,0,0,1,1.6-2.059,3.815,3.815,0,0,1,2.293-.738,5.725,5.725,0,0,1,2.094.4l-.367,1.1a4.42,4.42,0,0,0-1.711-.4,2.449,2.449,0,0,0-1.6.6,3.936,3.936,0,0,0-1.133,1.664,6.4,6.4,0,0,0-.41,2.316,2.187,2.187,0,0,0,.52,1.555,1.869,1.869,0,0,0,1.434.555,3.542,3.542,0,0,0,1.063-.156,9.742,9.742,0,0,0,.984-.367v1.117A4.691,4.691,0,0,1,184.477,17.156Zm8.273-8.828a3.127,3.127,0,0,1,2.344.879,3.31,3.31,0,0,1,.859,2.418,6.93,6.93,0,0,1-.562,2.773,4.8,4.8,0,0,1-1.523,2.016,3.56,3.56,0,0,1-2.172.711,3.114,3.114,0,0,1-2.352-.883,3.331,3.331,0,0,1-.852-2.414,6.914,6.914,0,0,1,.57-2.793A4.734,4.734,0,0,1,190.6,9.027,3.587,3.587,0,0,1,192.75,8.328Zm1.844,3.117a2.134,2.134,0,0,0-.488-1.457,1.669,1.669,0,0,0-1.324-.559,2.287,2.287,0,0,0-1.527.578,3.721,3.721,0,0,0-1.047,1.605,6.688,6.688,0,0,0-.371,2.285,2.3,2.3,0,0,0,.5,1.582,1.807,1.807,0,0,0,1.426.559,2.154,2.154,0,0,0,1.461-.57,3.725,3.725,0,0,0,1.012-1.621A7.335,7.335,0,0,0,194.594,11.445Zm9.086-5.867L197.328,17h-1.359L202.32,5.578Zm8.781,4.57a7.635,7.635,0,0,1-.82,3.6,5.738,5.738,0,0,1-2.344,2.406,7.252,7.252,0,0,1-3.57.844h-2.75l2.414-11.422h2.672a4.335,4.335,0,0,1,3.277,1.168A4.727,4.727,0,0,1,212.461,10.148Zm-6.648,5.7a5.3,5.3,0,0,0,2.773-.715,4.69,4.69,0,0,0,1.832-2.02,6.72,6.72,0,0,0,.637-2.984,3.6,3.6,0,0,0-.8-2.543,3.07,3.07,0,0,0-2.359-.863H206.5l-1.953,9.125Zm12.172-7.523a3.127,3.127,0,0,1,2.344.879,3.31,3.31,0,0,1,.859,2.418,6.93,6.93,0,0,1-.562,2.773,4.8,4.8,0,0,1-1.523,2.016,3.56,3.56,0,0,1-2.172.711,3.114,3.114,0,0,1-2.352-.883,3.331,3.331,0,0,1-.852-2.414,6.914,6.914,0,0,1,.57-2.793,4.734,4.734,0,0,1,1.539-2.008A3.587,3.587,0,0,1,217.984,8.328Zm1.844,3.117a2.134,2.134,0,0,0-.488-1.457,1.669,1.669,0,0,0-1.324-.559,2.287,2.287,0,0,0-1.527.578,3.721,3.721,0,0,0-1.047,1.605,6.688,6.688,0,0,0-.371,2.285,2.3,2.3,0,0,0,.5,1.582,1.807,1.807,0,0,0,1.426.559,2.154,2.154,0,0,0,1.461-.57,3.725,3.725,0,0,0,1.012-1.621A7.335,7.335,0,0,0,219.828,11.445Zm6.063,5.711a3.18,3.18,0,0,1-2.352-.836,3.191,3.191,0,0,1-.836-2.359,7.108,7.108,0,0,1,.578-2.883,4.894,4.894,0,0,1,1.6-2.059,3.815,3.815,0,0,1,2.293-.738,5.725,5.725,0,0,1,2.094.4l-.367,1.1a4.42,4.42,0,0,0-1.711-.4,2.449,2.449,0,0,0-1.6.6,3.936,3.936,0,0,0-1.133,1.664,6.4,6.4,0,0,0-.41,2.316,2.187,2.187,0,0,0,.52,1.555A1.869,1.869,0,0,0,226,16.07a3.542,3.542,0,0,0,1.063-.156,9.742,9.742,0,0,0,.984-.367v1.117A4.691,4.691,0,0,1,225.891,17.156Zm6.773-8.719-1.172,5.43a5.861,5.861,0,0,0-.141,1.086A1,1,0,0,0,232.5,16.07a2.323,2.323,0,0,0,1.352-.469,4.166,4.166,0,0,0,1.172-1.344,7.209,7.209,0,0,0,.773-2.109l.781-3.711h1.3L236.07,17h-1.086l.172-1.586h-.094a5.13,5.13,0,0,1-1.461,1.359,2.944,2.944,0,0,1-1.437.383,2.184,2.184,0,0,1-1.57-.543,2.04,2.04,0,0,1-.57-1.551,7.325,7.325,0,0,1,.172-1.344l1.141-5.281ZM243.813,17l1.156-5.406a6.426,6.426,0,0,0,.141-1.055,1.336,1.336,0,0,0-.242-.852,1,1,0,0,0-.828-.3,2.1,2.1,0,0,0-1.277.469,4.079,4.079,0,0,0-1.094,1.34,7.727,7.727,0,0,0-.73,2.1L240.148,17h-1.312l1.828-8.562h1.086l-.172,1.586h.078a4.895,4.895,0,0,1,1.355-1.336,2.672,2.672,0,0,1,1.395-.406,1.774,1.774,0,0,1,1.359.508,2.322,2.322,0,0,1,.563,1.414h.063a5.018,5.018,0,0,1,1.43-1.449,2.867,2.867,0,0,1,1.531-.473,2.1,2.1,0,0,1,1.535.531,2.068,2.068,0,0,1,.543,1.547,7.434,7.434,0,0,1-.172,1.391L250.133,17H248.8l1.156-5.406a7.1,7.1,0,0,0,.156-1.141A.984.984,0,0,0,249,9.383a2.1,2.1,0,0,0-1.25.453,3.946,3.946,0,0,0-1.082,1.285,7.02,7.02,0,0,0-.707,1.973L245.125,17Zm12.359.156a2.988,2.988,0,0,1-2.258-.852,3.26,3.26,0,0,1-.82-2.359,7.031,7.031,0,0,1,.582-2.816,5.212,5.212,0,0,1,1.543-2.1,3.363,3.363,0,0,1,2.117-.75,2.685,2.685,0,0,1,1.8.52,1.813,1.813,0,0,1,.6,1.449,2.476,2.476,0,0,1-1.3,2.207,7.1,7.1,0,0,1-3.711.8h-.258l-.031.625a2.418,2.418,0,0,0,.48,1.6,1.832,1.832,0,0,0,1.488.574,3.864,3.864,0,0,0,1.012-.141,7.746,7.746,0,0,0,1.293-.516v1.141a7.081,7.081,0,0,1-1.3.48A5.261,5.261,0,0,1,256.172,17.156ZM257.258,9.4a2.087,2.087,0,0,0-1.512.734,4.8,4.8,0,0,0-1.082,2.039h.094a6.378,6.378,0,0,0,2.73-.465,1.459,1.459,0,0,0,.949-1.348.913.913,0,0,0-.285-.687A1.255,1.255,0,0,0,257.258,9.4Zm8.656,7.6,1.156-5.406a7.127,7.127,0,0,0,.156-1.125,1.109,1.109,0,0,0-.277-.789,1.164,1.164,0,0,0-.887-.3,2.316,2.316,0,0,0-1.355.469,4.171,4.171,0,0,0-1.164,1.336,7.029,7.029,0,0,0-.762,2.1L261.992,17H260.68l1.828-8.562h1.086l-.172,1.586h.078a5.219,5.219,0,0,1,1.449-1.348,2.911,2.911,0,0,1,1.449-.395,2.187,2.187,0,0,1,1.566.543,1.99,1.99,0,0,1,.574,1.52,6.414,6.414,0,0,1-.18,1.406L267.242,17Zm6.625-.914a4.227,4.227,0,0,0,1.125-.2v1.008a3.6,3.6,0,0,1-.656.188,3.361,3.361,0,0,1-.625.078,2.172,2.172,0,0,1-1.5-.465,1.765,1.765,0,0,1-.52-1.387,5.66,5.66,0,0,1,.141-1.172l.992-4.7h-1.344l.109-.57,1.445-.609.977-1.781h.766l-.43,1.969h2.141l-.2.992h-2.133l-1.008,4.719a5.558,5.558,0,0,0-.141,1.031.928.928,0,0,0,.227.672A.839.839,0,0,0,272.539,16.086Zm7.844-1.516a2.29,2.29,0,0,1-.863,1.9,3.834,3.834,0,0,1-2.434.684,5.191,5.191,0,0,1-2.383-.539V15.383a4.864,4.864,0,0,0,1.18.508,4.311,4.311,0,0,0,1.172.18,2.382,2.382,0,0,0,1.484-.391,1.215,1.215,0,0,0,.5-1,1.082,1.082,0,0,0-.273-.75,5.51,5.51,0,0,0-1.18-.836,4.752,4.752,0,0,1-1.437-1.117,2.061,2.061,0,0,1-.422-1.3,2.155,2.155,0,0,1,.789-1.738,3.132,3.132,0,0,1,2.078-.66,6.043,6.043,0,0,1,2.578.578l-.422,1.07-.437-.2a4.342,4.342,0,0,0-1.719-.336,1.747,1.747,0,0,0-1.141.34,1.146,1.146,0,0,0-.137,1.629,4.894,4.894,0,0,0,1.145.8,6.655,6.655,0,0,1,1.2.8,2.323,2.323,0,0,1,.543.723A2.043,2.043,0,0,1,280.383,14.57Zm8.086-8.992L282.117,17h-1.359l6.352-11.422ZM4.594,39H3.25l1.531-7.133q.461-2.039.688-2.8a6.017,6.017,0,0,1-1.086.867l-1.391.859L2.367,29.8l3.508-2.219H7.039Zm12.555-8.078a12.461,12.461,0,0,1-.437,3.176,10.3,10.3,0,0,1-1.152,2.813,4.648,4.648,0,0,1-1.73,1.7,4.9,4.9,0,0,1-2.359.547,6.186,6.186,0,0,1-1.891-.266V37.656a5.849,5.849,0,0,0,1.922.367,3.252,3.252,0,0,0,2.555-1.1,7.573,7.573,0,0,0,1.477-3.445h-.078a2.86,2.86,0,0,1-1.035.926,2.947,2.947,0,0,1-1.41.34,2.653,2.653,0,0,1-2.039-.77,3.188,3.188,0,0,1-.719-2.254,4.784,4.784,0,0,1,.5-2.191,3.755,3.755,0,0,1,3.434-2.113,2.738,2.738,0,0,1,2.184.895A3.876,3.876,0,0,1,17.148,30.922Zm-3.008-2.4a2.3,2.3,0,0,0-1.883.883,3.5,3.5,0,0,0-.711,2.266,2.276,2.276,0,0,0,.426,1.484,1.551,1.551,0,0,0,1.27.516,2.658,2.658,0,0,0,1.094-.223,2.329,2.329,0,0,0,.848-.637,2.735,2.735,0,0,0,.508-.891,3.743,3.743,0,0,0,.16-1.18,2.59,2.59,0,0,0-.461-1.621A1.5,1.5,0,0,0,14.141,28.523Zm12.016,2.555a13.7,13.7,0,0,1-.613,4.211,6.61,6.61,0,0,1-1.672,2.887,3.5,3.5,0,0,1-2.457.98,2.462,2.462,0,0,1-2.109-1,4.815,4.815,0,0,1-.734-2.887,12.557,12.557,0,0,1,.641-4.02A6.8,6.8,0,0,1,20.9,28.371a3.437,3.437,0,0,1,2.4-.973Q26.156,27.4,26.156,31.078Zm-2.93-2.555a2.131,2.131,0,0,0-1.633.9,6.908,6.908,0,0,0-1.215,2.523,11.945,11.945,0,0,0-.465,3.309A4.4,4.4,0,0,0,20.3,37.32a1.327,1.327,0,0,0,1.258.719,2.107,2.107,0,0,0,1.633-.891,6.715,6.715,0,0,0,1.176-2.562,13.813,13.813,0,0,0,.441-3.539Q24.813,28.523,23.227,28.523ZM33.555,39H26.531l.242-1.148,3.633-3.281q.8-.727,1.379-1.277a9.361,9.361,0,0,0,.961-1.039,3.815,3.815,0,0,0,.563-.969,2.966,2.966,0,0,0,.184-1.066,1.627,1.627,0,0,0-.469-1.227,1.755,1.755,0,0,0-1.273-.453,3.226,3.226,0,0,0-1.176.223,5.34,5.34,0,0,0-1.27.754l-.641-.9a5.04,5.04,0,0,1,3.227-1.2,3.217,3.217,0,0,1,2.176.691,2.381,2.381,0,0,1,.8,1.9,4.035,4.035,0,0,1-.309,1.594,5.875,5.875,0,0,1-1.023,1.539,26.123,26.123,0,0,1-2.3,2.2l-2.75,2.4V37.8h5.3Zm6.289,0H38.5l1.531-7.133q.461-2.039.688-2.8a6.017,6.017,0,0,1-1.086.867l-1.391.859-.625-.992,3.508-2.219h1.164ZM52.4,30.922a12.461,12.461,0,0,1-.437,3.176,10.3,10.3,0,0,1-1.152,2.813,4.648,4.648,0,0,1-1.73,1.7,4.9,4.9,0,0,1-2.359.547,6.186,6.186,0,0,1-1.891-.266V37.656a5.849,5.849,0,0,0,1.922.367,3.252,3.252,0,0,0,2.555-1.1,7.573,7.573,0,0,0,1.477-3.445H50.7a2.86,2.86,0,0,1-1.035.926,2.947,2.947,0,0,1-1.41.34,2.653,2.653,0,0,1-2.039-.77,3.188,3.188,0,0,1-.719-2.254,4.784,4.784,0,0,1,.5-2.191,3.755,3.755,0,0,1,3.434-2.113,2.738,2.738,0,0,1,2.184.895A3.876,3.876,0,0,1,52.4,30.922Zm-3.008-2.4a2.3,2.3,0,0,0-1.883.883,3.5,3.5,0,0,0-.711,2.266,2.276,2.276,0,0,0,.426,1.484,1.551,1.551,0,0,0,1.27.516,2.658,2.658,0,0,0,1.094-.223,2.329,2.329,0,0,0,.848-.637,2.735,2.735,0,0,0,.508-.891,3.743,3.743,0,0,0,.16-1.18,2.59,2.59,0,0,0-.461-1.621A1.5,1.5,0,0,0,49.391,28.523Zm8.352,13.008H51.406l.234-1.094h6.336Zm4.445-7.281L61.18,39H59.852l2.414-11.422h2.5q3.484,0,3.484,2.859a3.412,3.412,0,0,1-2.875,3.508L67.242,39H65.789l-1.633-4.75Zm1.148-5.508q-.8,3.859-.906,4.367h1.313a3.58,3.58,0,0,0,2.32-.664,2.321,2.321,0,0,0,.813-1.906,1.66,1.66,0,0,0-.527-1.371,2.739,2.739,0,0,0-1.715-.426Zm8.789,10.414a2.988,2.988,0,0,1-2.258-.852,3.26,3.26,0,0,1-.82-2.359,7.031,7.031,0,0,1,.582-2.816,5.212,5.212,0,0,1,1.543-2.1,3.363,3.363,0,0,1,2.117-.75,2.685,2.685,0,0,1,1.8.52,1.813,1.813,0,0,1,.6,1.449,2.476,2.476,0,0,1-1.3,2.207,7.1,7.1,0,0,1-3.711.8h-.258l-.031.625a2.418,2.418,0,0,0,.48,1.6,1.832,1.832,0,0,0,1.488.574,3.864,3.864,0,0,0,1.012-.141,7.746,7.746,0,0,0,1.293-.516v1.141a7.081,7.081,0,0,1-1.3.48A5.261,5.261,0,0,1,72.125,39.156ZM73.211,31.4a2.087,2.087,0,0,0-1.512.734,4.8,4.8,0,0,0-1.082,2.039h.094a6.378,6.378,0,0,0,2.73-.465,1.459,1.459,0,0,0,.949-1.348.913.913,0,0,0-.285-.687A1.255,1.255,0,0,0,73.211,31.4Zm8.7,5.172a2.29,2.29,0,0,1-.863,1.9,3.834,3.834,0,0,1-2.434.684,5.191,5.191,0,0,1-2.383-.539V37.383a4.864,4.864,0,0,0,1.18.508,4.31,4.31,0,0,0,1.172.18,2.382,2.382,0,0,0,1.484-.391,1.215,1.215,0,0,0,.5-1,1.082,1.082,0,0,0-.273-.75,5.51,5.51,0,0,0-1.18-.836,4.752,4.752,0,0,1-1.437-1.117,2.061,2.061,0,0,1-.422-1.3,2.155,2.155,0,0,1,.789-1.738,3.132,3.132,0,0,1,2.078-.66,6.043,6.043,0,0,1,2.578.578l-.422,1.07-.437-.2a4.342,4.342,0,0,0-1.719-.336,1.747,1.747,0,0,0-1.141.34,1.146,1.146,0,0,0-.137,1.629,4.894,4.894,0,0,0,1.145.8,6.655,6.655,0,0,1,1.2.8,2.323,2.323,0,0,1,.543.723A2.043,2.043,0,0,1,81.914,36.57Zm6.133-6.242a3.127,3.127,0,0,1,2.344.879,3.31,3.31,0,0,1,.859,2.418,6.93,6.93,0,0,1-.562,2.773,4.8,4.8,0,0,1-1.523,2.016,3.56,3.56,0,0,1-2.172.711,3.114,3.114,0,0,1-2.352-.883,3.331,3.331,0,0,1-.852-2.414,6.914,6.914,0,0,1,.57-2.793A4.734,4.734,0,0,1,85.9,31.027,3.587,3.587,0,0,1,88.047,30.328Zm1.844,3.117a2.134,2.134,0,0,0-.488-1.457,1.669,1.669,0,0,0-1.324-.559,2.287,2.287,0,0,0-1.527.578A3.721,3.721,0,0,0,85.5,33.613a6.687,6.687,0,0,0-.371,2.285,2.3,2.3,0,0,0,.5,1.582,1.807,1.807,0,0,0,1.426.559,2.154,2.154,0,0,0,1.461-.57,3.725,3.725,0,0,0,1.012-1.621A7.335,7.335,0,0,0,89.891,33.445ZM93.758,39H92.445l2.594-12.156h1.313Zm5.828-8.562-1.172,5.43a5.861,5.861,0,0,0-.141,1.086,1,1,0,0,0,1.148,1.117,2.323,2.323,0,0,0,1.352-.469,4.166,4.166,0,0,0,1.172-1.344,7.21,7.21,0,0,0,.773-2.109l.781-3.711h1.3L102.992,39h-1.086l.172-1.586h-.094a5.13,5.13,0,0,1-1.461,1.359,2.944,2.944,0,0,1-1.437.383,2.184,2.184,0,0,1-1.57-.543,2.04,2.04,0,0,1-.57-1.551,7.324,7.324,0,0,1,.172-1.344l1.141-5.281Zm9.664,8.719a2.907,2.907,0,0,1-3.187-3.2,7.108,7.108,0,0,1,.578-2.883,4.894,4.894,0,0,1,1.6-2.059,3.815,3.815,0,0,1,2.293-.738,5.725,5.725,0,0,1,2.094.4l-.367,1.1a4.42,4.42,0,0,0-1.711-.4,2.449,2.449,0,0,0-1.6.6,3.936,3.936,0,0,0-1.133,1.664,6.4,6.4,0,0,0-.41,2.316,2.187,2.187,0,0,0,.52,1.555,1.869,1.869,0,0,0,1.434.555,3.542,3.542,0,0,0,1.063-.156,9.741,9.741,0,0,0,.984-.367v1.117A4.691,4.691,0,0,1,109.25,39.156ZM114.273,39h-1.312l1.828-8.562H116.1Zm.883-10.75a1.027,1.027,0,0,1,.25-.715.833.833,0,0,1,.648-.277.615.615,0,0,1,.688.7,1.06,1.06,0,0,1-.262.727.788.788,0,0,1-.605.3.722.722,0,0,1-.516-.191A.71.71,0,0,1,115.156,28.25Zm6.43,2.078a3.127,3.127,0,0,1,2.344.879,3.31,3.31,0,0,1,.859,2.418,6.93,6.93,0,0,1-.562,2.773,4.8,4.8,0,0,1-1.523,2.016,3.56,3.56,0,0,1-2.172.711,3.114,3.114,0,0,1-2.352-.883,3.331,3.331,0,0,1-.852-2.414,6.914,6.914,0,0,1,.57-2.793,4.734,4.734,0,0,1,1.539-2.008A3.587,3.587,0,0,1,121.586,30.328Zm1.844,3.117a2.134,2.134,0,0,0-.488-1.457,1.669,1.669,0,0,0-1.324-.559,2.287,2.287,0,0,0-1.527.578,3.721,3.721,0,0,0-1.047,1.605,6.687,6.687,0,0,0-.371,2.285,2.3,2.3,0,0,0,.5,1.582,1.807,1.807,0,0,0,1.426.559,2.154,2.154,0,0,0,1.461-.57,3.725,3.725,0,0,0,1.012-1.621A7.335,7.335,0,0,0,123.43,33.445Zm7.8,5.555,1.156-5.406a7.125,7.125,0,0,0,.156-1.125,1.109,1.109,0,0,0-.277-.789,1.164,1.164,0,0,0-.887-.3,2.316,2.316,0,0,0-1.355.469,4.171,4.171,0,0,0-1.164,1.336,7.029,7.029,0,0,0-.762,2.1L127.313,39H126l1.828-8.562h1.086l-.172,1.586h.078a5.219,5.219,0,0,1,1.449-1.348,2.911,2.911,0,0,1,1.449-.395,2.187,2.187,0,0,1,1.566.543,1.99,1.99,0,0,1,.574,1.52,6.413,6.413,0,0,1-.18,1.406L132.563,39Zm12.07-7.922a13.7,13.7,0,0,1-.613,4.211,6.61,6.61,0,0,1-1.672,2.887,3.5,3.5,0,0,1-2.457.98,2.462,2.462,0,0,1-2.109-1,4.815,4.815,0,0,1-.734-2.887,12.557,12.557,0,0,1,.641-4.02,6.8,6.8,0,0,1,1.691-2.883,3.437,3.437,0,0,1,2.4-.973Q143.3,27.4,143.3,31.078Zm-2.93-2.555a2.131,2.131,0,0,0-1.633.9,6.908,6.908,0,0,0-1.215,2.523,11.945,11.945,0,0,0-.465,3.309,4.4,4.4,0,0,0,.391,2.063,1.327,1.327,0,0,0,1.258.719,2.107,2.107,0,0,0,1.633-.891,6.715,6.715,0,0,0,1.176-2.562,13.813,13.813,0,0,0,.441-3.539Q141.961,28.523,140.375,28.523Zm11.594,1.422a2.921,2.921,0,0,1-.789,2.066,3.8,3.8,0,0,1-2.187,1.1v.07a2.53,2.53,0,0,1,1.523.832,2.427,2.427,0,0,1,.555,1.629,3.444,3.444,0,0,1-.484,1.832,3.25,3.25,0,0,1-1.414,1.238,5.074,5.074,0,0,1-2.211.445,7.226,7.226,0,0,1-3.008-.617V37.258a7.12,7.12,0,0,0,1.555.59,6.122,6.122,0,0,0,1.484.207,2.875,2.875,0,0,0,1.969-.621,2.151,2.151,0,0,0,.7-1.7,1.927,1.927,0,0,0-.617-1.551,2.564,2.564,0,0,0-1.719-.527H146.3l.242-1.117h1.086a3.323,3.323,0,0,0,2.141-.68,2.162,2.162,0,0,0,.852-1.773,1.483,1.483,0,0,0-.453-1.141,1.729,1.729,0,0,0-1.227-.422,3.682,3.682,0,0,0-1.227.211,6.211,6.211,0,0,0-1.367.727l-.625-.922a5.461,5.461,0,0,1,3.313-1.125,3.152,3.152,0,0,1,2.164.68A2.35,2.35,0,0,1,151.969,29.945ZM156.992,39h-1.344l1.531-7.133q.461-2.039.688-2.8a6.017,6.017,0,0,1-1.086.867l-1.391.859-.625-.992,3.508-2.219h1.164Zm11.336,0H161.3l.242-1.148,3.633-3.281q.8-.727,1.379-1.277a9.362,9.362,0,0,0,.961-1.039,3.815,3.815,0,0,0,.563-.969,2.966,2.966,0,0,0,.184-1.066,1.627,1.627,0,0,0-.469-1.227,1.755,1.755,0,0,0-1.273-.453,3.226,3.226,0,0,0-1.176.223,5.34,5.34,0,0,0-1.27.754l-.641-.9a5.04,5.04,0,0,1,3.227-1.2,3.217,3.217,0,0,1,2.176.691,2.381,2.381,0,0,1,.8,1.9,4.035,4.035,0,0,1-.309,1.594,5.875,5.875,0,0,1-1.023,1.539,26.123,26.123,0,0,1-2.3,2.2l-2.75,2.4V37.8h5.3Zm8.109,0H170.7l2.414-11.422h5.742l-.25,1.2H174.18l-.766,3.664h4.117l-.227,1.188h-4.133l-.891,4.188H176.7Zm7.508-2.43a2.29,2.29,0,0,1-.863,1.9,3.834,3.834,0,0,1-2.434.684,5.191,5.191,0,0,1-2.383-.539V37.383a4.863,4.863,0,0,0,1.18.508,4.31,4.31,0,0,0,1.172.18,2.382,2.382,0,0,0,1.484-.391,1.215,1.215,0,0,0,.5-1,1.082,1.082,0,0,0-.273-.75,5.51,5.51,0,0,0-1.18-.836,4.752,4.752,0,0,1-1.437-1.117,2.061,2.061,0,0,1-.422-1.3,2.155,2.155,0,0,1,.789-1.738,3.132,3.132,0,0,1,2.078-.66,6.043,6.043,0,0,1,2.578.578l-.422,1.07-.437-.2a4.342,4.342,0,0,0-1.719-.336,1.747,1.747,0,0,0-1.141.34,1.146,1.146,0,0,0-.137,1.629,4.894,4.894,0,0,0,1.145.8,6.655,6.655,0,0,1,1.2.8,2.323,2.323,0,0,1,.543.723A2.043,2.043,0,0,1,183.945,36.57Zm4.2,1.516a4.227,4.227,0,0,0,1.125-.2v1.008a3.6,3.6,0,0,1-.656.188,3.361,3.361,0,0,1-.625.078,2.172,2.172,0,0,1-1.5-.465,1.765,1.765,0,0,1-.52-1.387,5.66,5.66,0,0,1,.141-1.172l.992-4.7h-1.344l.109-.57,1.445-.609.977-1.781h.766l-.43,1.969h2.141l-.2.992H188.43l-1.008,4.719a5.558,5.558,0,0,0-.141,1.031.928.928,0,0,0,.227.672A.839.839,0,0,0,188.141,38.086Zm7.094-7.8a2.208,2.208,0,0,1,1.281.387,2.513,2.513,0,0,1,.875,1.113h.086L198,30.438h.992L197.172,39h-1.039l.2-1.633h-.062a3.853,3.853,0,0,1-2.945,1.789,2.059,2.059,0,0,1-1.7-.773,3.305,3.305,0,0,1-.617-2.117,8.065,8.065,0,0,1,.555-3.016,5.21,5.21,0,0,1,1.531-2.18A3.331,3.331,0,0,1,195.234,30.281ZM193.75,38.07a2.2,2.2,0,0,0,1.508-.723,5.355,5.355,0,0,0,1.219-1.883,6.162,6.162,0,0,0,.469-2.324,1.821,1.821,0,0,0-.437-1.281,1.486,1.486,0,0,0-1.148-.477,2.151,2.151,0,0,0-1.512.672,4.533,4.533,0,0,0-1.1,1.82,7.336,7.336,0,0,0-.4,2.422,2.048,2.048,0,0,0,.367,1.332A1.267,1.267,0,0,0,193.75,38.07Zm11.227.93,1.156-5.406a7.125,7.125,0,0,0,.156-1.125,1.109,1.109,0,0,0-.277-.789,1.164,1.164,0,0,0-.887-.3,2.316,2.316,0,0,0-1.355.469,4.171,4.171,0,0,0-1.164,1.336,7.029,7.029,0,0,0-.762,2.1L201.055,39h-1.312l1.828-8.562h1.086l-.172,1.586h.078a5.219,5.219,0,0,1,1.449-1.348,2.911,2.911,0,0,1,1.449-.395,2.187,2.187,0,0,1,1.566.543,1.99,1.99,0,0,1,.574,1.52,6.413,6.413,0,0,1-.18,1.406L206.3,39Zm8.531-8.7a2.279,2.279,0,0,1,2.2,1.484h.078a18,18,0,0,1,.352-2.141l.609-2.8h1.3L215.461,39h-1.086l.172-1.633h-.062a5.866,5.866,0,0,1-1.477,1.383,2.759,2.759,0,0,1-1.422.406,2.045,2.045,0,0,1-1.7-.766,3.329,3.329,0,0,1-.609-2.125,8.094,8.094,0,0,1,.563-3.062,5.107,5.107,0,0,1,1.52-2.148A3.368,3.368,0,0,1,213.508,30.3Zm-1.484,7.773a2.276,2.276,0,0,0,1.516-.73,5.129,5.129,0,0,0,1.238-1.867,6.16,6.16,0,0,0,.457-2.316,1.87,1.87,0,0,0-.422-1.32,1.594,1.594,0,0,0-1.227-.453,2.09,2.09,0,0,0-1.465.645,4.531,4.531,0,0,0-1.086,1.813,7.361,7.361,0,0,0-.41,2.457Q210.625,38.07,212.023,38.07Zm10.719-7.789a2.208,2.208,0,0,1,1.281.387,2.513,2.513,0,0,1,.875,1.113h.086l.523-1.344h.992L224.68,39h-1.039l.2-1.633h-.062a3.853,3.853,0,0,1-2.945,1.789,2.059,2.059,0,0,1-1.7-.773,3.305,3.305,0,0,1-.617-2.117,8.065,8.065,0,0,1,.555-3.016,5.21,5.21,0,0,1,1.531-2.18A3.331,3.331,0,0,1,222.742,30.281Zm-1.484,7.789a2.2,2.2,0,0,0,1.508-.723,5.355,5.355,0,0,0,1.219-1.883,6.162,6.162,0,0,0,.469-2.324,1.821,1.821,0,0,0-.437-1.281,1.486,1.486,0,0,0-1.148-.477,2.151,2.151,0,0,0-1.512.672,4.533,4.533,0,0,0-1.1,1.82,7.336,7.336,0,0,0-.4,2.422,2.048,2.048,0,0,0,.367,1.332A1.267,1.267,0,0,0,221.258,38.07Zm11.406-7.789a3.565,3.565,0,0,1,.938.109l-.281,1.172a3.434,3.434,0,0,0-.82-.1,2.17,2.17,0,0,0-1.332.469,4.1,4.1,0,0,0-1.086,1.3,6.623,6.623,0,0,0-.684,1.848L228.563,39H227.25l1.828-8.562h1.086l-.172,1.586h.078a7.676,7.676,0,0,1,.93-1.066,2.948,2.948,0,0,1,.77-.5A2.211,2.211,0,0,1,232.664,30.281Zm3.984,8.875a2.988,2.988,0,0,1-2.258-.852,3.26,3.26,0,0,1-.82-2.359,7.031,7.031,0,0,1,.582-2.816,5.212,5.212,0,0,1,1.543-2.1,3.363,3.363,0,0,1,2.117-.75,2.685,2.685,0,0,1,1.8.52,1.813,1.813,0,0,1,.6,1.449,2.476,2.476,0,0,1-1.3,2.207,7.1,7.1,0,0,1-3.711.8h-.258l-.031.625a2.418,2.418,0,0,0,.48,1.6,1.832,1.832,0,0,0,1.488.574,3.864,3.864,0,0,0,1.012-.141,7.746,7.746,0,0,0,1.293-.516v1.141a7.081,7.081,0,0,1-1.3.48A5.261,5.261,0,0,1,236.648,39.156Zm1.086-7.758a2.087,2.087,0,0,0-1.512.734,4.8,4.8,0,0,0-1.082,2.039h.094a6.378,6.378,0,0,0,2.73-.465,1.459,1.459,0,0,0,.949-1.348.912.912,0,0,0-.285-.687A1.255,1.255,0,0,0,237.734,31.4Zm8.7,5.172a2.29,2.29,0,0,1-.863,1.9,3.834,3.834,0,0,1-2.434.684,5.191,5.191,0,0,1-2.383-.539V37.383a4.863,4.863,0,0,0,1.18.508,4.31,4.31,0,0,0,1.172.18,2.382,2.382,0,0,0,1.484-.391,1.215,1.215,0,0,0,.5-1,1.082,1.082,0,0,0-.273-.75,5.51,5.51,0,0,0-1.18-.836,4.752,4.752,0,0,1-1.437-1.117,2.061,2.061,0,0,1-.422-1.3,2.155,2.155,0,0,1,.789-1.738,3.132,3.132,0,0,1,2.078-.66,6.043,6.043,0,0,1,2.578.578l-.422,1.07-.437-.2a4.342,4.342,0,0,0-1.719-.336,1.747,1.747,0,0,0-1.141.34,1.146,1.146,0,0,0-.137,1.629,4.894,4.894,0,0,0,1.145.8,6.655,6.655,0,0,1,1.2.8,2.323,2.323,0,0,1,.543.723A2.043,2.043,0,0,1,246.438,36.57ZM252.828,39l-1.3-10.125h-.062q-.055.563-.223,1.543t-.293,1.559L249.469,39H248.2l2.414-11.422h1.906l1.164,9.406h.07l5.148-9.406h2.078L258.617,39h-1.359q.984-4.609,1.508-7.074t.734-3.066h-.047L253.852,39Zm9.883,0H261.4l1.828-8.562h1.313Zm.883-10.75a1.027,1.027,0,0,1,.25-.715.832.832,0,0,1,.648-.277.615.615,0,0,1,.688.7,1.06,1.06,0,0,1-.262.727.788.788,0,0,1-.605.3.722.722,0,0,1-.516-.191A.71.71,0,0,1,263.594,28.25ZM270.7,39l1.156-5.406a7.127,7.127,0,0,0,.156-1.125,1.109,1.109,0,0,0-.277-.789,1.164,1.164,0,0,0-.887-.3,2.316,2.316,0,0,0-1.355.469,4.171,4.171,0,0,0-1.164,1.336,7.029,7.029,0,0,0-.762,2.1L266.773,39h-1.312l1.828-8.562h1.086l-.172,1.586h.078a5.219,5.219,0,0,1,1.449-1.348,2.911,2.911,0,0,1,1.449-.395,2.187,2.187,0,0,1,1.566.543,1.99,1.99,0,0,1,.574,1.52,6.414,6.414,0,0,1-.18,1.406L272.023,39Zm5.313,0H274.7l1.828-8.562h1.313Zm.883-10.75a1.027,1.027,0,0,1,.25-.715.832.832,0,0,1,.648-.277.615.615,0,0,1,.688.7,1.06,1.06,0,0,1-.262.727.788.788,0,0,1-.605.3.722.722,0,0,1-.516-.191A.71.71,0,0,1,276.891,28.25ZM283.734,39l1.156-5.406a6.426,6.426,0,0,0,.141-1.055,1.336,1.336,0,0,0-.242-.852,1,1,0,0,0-.828-.3,2.1,2.1,0,0,0-1.277.469,4.079,4.079,0,0,0-1.094,1.34,7.727,7.727,0,0,0-.73,2.1L280.07,39h-1.312l1.828-8.562h1.086l-.172,1.586h.078a4.895,4.895,0,0,1,1.355-1.336,2.672,2.672,0,0,1,1.395-.406,1.774,1.774,0,0,1,1.359.508,2.321,2.321,0,0,1,.563,1.414h.063a5.018,5.018,0,0,1,1.43-1.449,2.867,2.867,0,0,1,1.531-.473,2.1,2.1,0,0,1,1.535.531,2.069,2.069,0,0,1,.543,1.547,7.433,7.433,0,0,1-.172,1.391L290.055,39h-1.328l1.156-5.406a7.1,7.1,0,0,0,.156-1.141.984.984,0,0,0-1.117-1.07,2.1,2.1,0,0,0-1.25.453,3.946,3.946,0,0,0-1.082,1.285,7.02,7.02,0,0,0-.707,1.973L285.047,39Zm13.539-8.672a3.127,3.127,0,0,1,2.344.879,3.31,3.31,0,0,1,.859,2.418,6.93,6.93,0,0,1-.562,2.773,4.8,4.8,0,0,1-1.523,2.016,3.56,3.56,0,0,1-2.172.711,3.114,3.114,0,0,1-2.352-.883,3.331,3.331,0,0,1-.852-2.414,6.914,6.914,0,0,1,.57-2.793,4.734,4.734,0,0,1,1.539-2.008A3.587,3.587,0,0,1,297.273,30.328Zm1.844,3.117a2.133,2.133,0,0,0-.488-1.457,1.669,1.669,0,0,0-1.324-.559,2.287,2.287,0,0,0-1.527.578,3.721,3.721,0,0,0-1.047,1.605,6.687,6.687,0,0,0-.371,2.285,2.3,2.3,0,0,0,.5,1.582,1.807,1.807,0,0,0,1.426.559,2.154,2.154,0,0,0,1.461-.57,3.725,3.725,0,0,0,1.012-1.621A7.335,7.335,0,0,0,299.117,33.445Zm7.852,3.125a2.29,2.29,0,0,1-.863,1.9,3.834,3.834,0,0,1-2.434.684,5.191,5.191,0,0,1-2.383-.539V37.383a4.864,4.864,0,0,0,1.18.508,4.31,4.31,0,0,0,1.172.18,2.382,2.382,0,0,0,1.484-.391,1.215,1.215,0,0,0,.5-1,1.082,1.082,0,0,0-.273-.75,5.51,5.51,0,0,0-1.18-.836,4.752,4.752,0,0,1-1.437-1.117,2.061,2.061,0,0,1-.422-1.3,2.155,2.155,0,0,1,.789-1.738,3.132,3.132,0,0,1,2.078-.66,6.043,6.043,0,0,1,2.578.578l-.422,1.07-.437-.2a4.342,4.342,0,0,0-1.719-.336,1.747,1.747,0,0,0-1.141.34,1.146,1.146,0,0,0-.137,1.629,4.894,4.894,0,0,0,1.145.8,6.655,6.655,0,0,1,1.2.8,2.323,2.323,0,0,1,.543.723A2.043,2.043,0,0,1,306.969,36.57Zm8.242-.883a3.139,3.139,0,0,1-1.1,2.559,4.711,4.711,0,0,1-3.09.91,8.3,8.3,0,0,1-1.457-.113,4.625,4.625,0,0,1-1.184-.379V37.336a5.694,5.694,0,0,0,2.656.656,3.139,3.139,0,0,0,2.008-.59,1.957,1.957,0,0,0,.742-1.621,1.575,1.575,0,0,0-.41-1.074,6.236,6.236,0,0,0-1.527-1.1,4.851,4.851,0,0,1-1.637-1.328,2.7,2.7,0,0,1-.457-1.57,3.037,3.037,0,0,1,1.031-2.379,3.925,3.925,0,0,1,2.711-.918,6.639,6.639,0,0,1,1.441.148,6.488,6.488,0,0,1,1.41.508l-.516,1.172a4.8,4.8,0,0,0-1.156-.469,4.579,4.579,0,0,0-1.18-.172,2.506,2.506,0,0,0-1.684.543,1.835,1.835,0,0,0-.637,1.473,1.782,1.782,0,0,0,.133.723,1.719,1.719,0,0,0,.422.566,7.11,7.11,0,0,0,1.109.742,9.4,9.4,0,0,1,1.551,1.078,2.557,2.557,0,0,1,.816,1.961Zm4.742,3.469A2.988,2.988,0,0,1,317.7,38.3a3.26,3.26,0,0,1-.82-2.359,7.03,7.03,0,0,1,.582-2.816,5.212,5.212,0,0,1,1.543-2.1,3.363,3.363,0,0,1,2.117-.75,2.685,2.685,0,0,1,1.8.52,1.813,1.813,0,0,1,.6,1.449,2.476,2.476,0,0,1-1.3,2.207,7.1,7.1,0,0,1-3.711.8h-.258l-.031.625a2.418,2.418,0,0,0,.48,1.6,1.832,1.832,0,0,0,1.488.574,3.864,3.864,0,0,0,1.012-.141,7.746,7.746,0,0,0,1.293-.516v1.141a7.081,7.081,0,0,1-1.3.48A5.261,5.261,0,0,1,319.953,39.156Zm1.086-7.758a2.087,2.087,0,0,0-1.512.734,4.8,4.8,0,0,0-1.082,2.039h.094a6.378,6.378,0,0,0,2.73-.465,1.459,1.459,0,0,0,.949-1.348.913.913,0,0,0-.285-.687A1.255,1.255,0,0,0,321.039,31.4Zm11.555-.961-.2.836-1.648.188a2.2,2.2,0,0,1,.32,1.234,3.169,3.169,0,0,1-.91,2.379,3.338,3.338,0,0,1-2.434.887,2.618,2.618,0,0,1-.656-.062q-1.086.414-1.086,1.023a.414.414,0,0,0,.258.426,3.118,3.118,0,0,0,.75.168l.914.109a4.071,4.071,0,0,1,2.051.688,1.835,1.835,0,0,1,.637,1.516,2.551,2.551,0,0,1-1.141,2.227,5.594,5.594,0,0,1-3.211.789,4.237,4.237,0,0,1-2.375-.574,1.839,1.839,0,0,1-.859-1.621,2.012,2.012,0,0,1,.563-1.422,4.381,4.381,0,0,1,1.82-1.023,1.018,1.018,0,0,1-.609-.945,1.245,1.245,0,0,1,.4-.926,4.107,4.107,0,0,1,1.109-.723,2.054,2.054,0,0,1-1.117-1.875,3.432,3.432,0,0,1,.934-2.484,3.17,3.17,0,0,1,2.387-.969,4.709,4.709,0,0,1,1.2.156Zm-8.32,10.086a1.1,1.1,0,0,0,.508.953,2.654,2.654,0,0,0,1.508.352,4.215,4.215,0,0,0,2.223-.5,1.563,1.563,0,0,0,.8-1.4.876.876,0,0,0-.422-.766,3.385,3.385,0,0,0-1.437-.391l-1.242-.125a2.819,2.819,0,0,0-1.437.688A1.606,1.606,0,0,0,324.273,40.523Zm2.172-6.836A1.361,1.361,0,0,0,326.8,34.7a1.329,1.329,0,0,0,.977.348,1.811,1.811,0,0,0,1.078-.328,2.086,2.086,0,0,0,.707-.9,3.13,3.13,0,0,0,.246-1.246,1.3,1.3,0,0,0-.344-.977,1.351,1.351,0,0,0-.984-.336,1.827,1.827,0,0,0-1.066.316,2.077,2.077,0,0,0-.711.883A2.973,2.973,0,0,0,326.445,33.688Zm9.094-3.25-1.172,5.43a5.861,5.861,0,0,0-.141,1.086,1,1,0,0,0,1.148,1.117,2.323,2.323,0,0,0,1.352-.469,4.166,4.166,0,0,0,1.172-1.344,7.21,7.21,0,0,0,.773-2.109l.781-3.711h1.3L338.945,39h-1.086l.172-1.586h-.094a5.13,5.13,0,0,1-1.461,1.359,2.944,2.944,0,0,1-1.437.383,2.184,2.184,0,0,1-1.57-.543,2.04,2.04,0,0,1-.57-1.551,7.323,7.323,0,0,1,.172-1.344l1.141-5.281Zm11.586-.156a3.565,3.565,0,0,1,.938.109l-.281,1.172a3.434,3.434,0,0,0-.82-.1,2.17,2.17,0,0,0-1.332.469,4.1,4.1,0,0,0-1.086,1.3,6.623,6.623,0,0,0-.684,1.848L343.023,39h-1.312l1.828-8.562h1.086l-.172,1.586h.078a7.677,7.677,0,0,1,.93-1.066,2.948,2.948,0,0,1,.77-.5A2.211,2.211,0,0,1,347.125,30.281ZM349.359,39h-1.312l1.828-8.562h1.313Zm.883-10.75a1.027,1.027,0,0,1,.25-.715.832.832,0,0,1,.648-.277.615.615,0,0,1,.688.7,1.06,1.06,0,0,1-.262.727.788.788,0,0,1-.605.3.722.722,0,0,1-.516-.191A.71.71,0,0,1,350.242,28.25Zm6.4,2.047a2.279,2.279,0,0,1,2.2,1.484h.078a17.992,17.992,0,0,1,.352-2.141l.609-2.8h1.3L358.594,39h-1.086l.172-1.633h-.062a5.866,5.866,0,0,1-1.477,1.383,2.759,2.759,0,0,1-1.422.406,2.045,2.045,0,0,1-1.7-.766,3.329,3.329,0,0,1-.609-2.125,8.094,8.094,0,0,1,.563-3.062,5.107,5.107,0,0,1,1.52-2.148A3.368,3.368,0,0,1,356.641,30.3Zm-1.484,7.773a2.276,2.276,0,0,0,1.516-.73,5.129,5.129,0,0,0,1.238-1.867,6.16,6.16,0,0,0,.457-2.316,1.87,1.87,0,0,0-.422-1.32,1.594,1.594,0,0,0-1.227-.453,2.09,2.09,0,0,0-1.465.645,4.531,4.531,0,0,0-1.086,1.813,7.361,7.361,0,0,0-.41,2.457Q353.758,38.07,355.156,38.07Zm10.719-7.789a2.208,2.208,0,0,1,1.281.387,2.513,2.513,0,0,1,.875,1.113h.086l.523-1.344h.992L367.813,39h-1.039l.2-1.633h-.062a3.853,3.853,0,0,1-2.945,1.789,2.059,2.059,0,0,1-1.7-.773,3.305,3.305,0,0,1-.617-2.117,8.066,8.066,0,0,1,.555-3.016,5.21,5.21,0,0,1,1.531-2.18A3.331,3.331,0,0,1,365.875,30.281Zm-1.484,7.789a2.2,2.2,0,0,0,1.508-.723,5.355,5.355,0,0,0,1.219-1.883,6.162,6.162,0,0,0,.469-2.324,1.821,1.821,0,0,0-.437-1.281A1.486,1.486,0,0,0,366,31.383a2.151,2.151,0,0,0-1.512.672,4.533,4.533,0,0,0-1.1,1.82,7.336,7.336,0,0,0-.4,2.422,2.048,2.048,0,0,0,.367,1.332A1.267,1.267,0,0,0,364.391,38.07ZM374.914,30.3a2.279,2.279,0,0,1,2.2,1.484h.078a17.992,17.992,0,0,1,.352-2.141l.609-2.8h1.3L376.867,39h-1.086l.172-1.633h-.062a5.866,5.866,0,0,1-1.477,1.383,2.759,2.759,0,0,1-1.422.406,2.045,2.045,0,0,1-1.7-.766,3.329,3.329,0,0,1-.609-2.125,8.094,8.094,0,0,1,.563-3.062,5.107,5.107,0,0,1,1.52-2.148A3.368,3.368,0,0,1,374.914,30.3ZM373.43,38.07a2.276,2.276,0,0,0,1.516-.73,5.129,5.129,0,0,0,1.238-1.867,6.16,6.16,0,0,0,.457-2.316,1.87,1.87,0,0,0-.422-1.32,1.594,1.594,0,0,0-1.227-.453,2.09,2.09,0,0,0-1.465.645,4.531,4.531,0,0,0-1.086,1.813,7.361,7.361,0,0,0-.41,2.457Q372.031,38.07,373.43,38.07Zm12.859-2.383a3.139,3.139,0,0,1-1.1,2.559,4.711,4.711,0,0,1-3.09.91,8.3,8.3,0,0,1-1.457-.113,4.625,4.625,0,0,1-1.184-.379V37.336a5.694,5.694,0,0,0,2.656.656,3.139,3.139,0,0,0,2.008-.59,1.957,1.957,0,0,0,.742-1.621,1.575,1.575,0,0,0-.41-1.074,6.236,6.236,0,0,0-1.527-1.1,4.851,4.851,0,0,1-1.637-1.328,2.7,2.7,0,0,1-.457-1.57,3.037,3.037,0,0,1,1.031-2.379,3.925,3.925,0,0,1,2.711-.918,6.639,6.639,0,0,1,1.441.148,6.488,6.488,0,0,1,1.41.508l-.516,1.172a4.8,4.8,0,0,0-1.156-.469,4.579,4.579,0,0,0-1.18-.172,2.506,2.506,0,0,0-1.684.543,1.835,1.835,0,0,0-.637,1.473,1.782,1.782,0,0,0,.133.723,1.719,1.719,0,0,0,.422.566,7.11,7.11,0,0,0,1.109.742,9.4,9.4,0,0,1,1.551,1.078,2.557,2.557,0,0,1,.816,1.961Zm5.891-5.406a2.208,2.208,0,0,1,1.281.387,2.513,2.513,0,0,1,.875,1.113h.086l.523-1.344h.992L394.117,39h-1.039l.2-1.633h-.062a3.853,3.853,0,0,1-2.945,1.789,2.059,2.059,0,0,1-1.7-.773,3.305,3.305,0,0,1-.617-2.117,8.066,8.066,0,0,1,.555-3.016,5.21,5.21,0,0,1,1.531-2.18A3.331,3.331,0,0,1,392.18,30.281ZM390.7,38.07a2.2,2.2,0,0,0,1.508-.723,5.355,5.355,0,0,0,1.219-1.883,6.162,6.162,0,0,0,.469-2.324,1.821,1.821,0,0,0-.437-1.281,1.486,1.486,0,0,0-1.148-.477,2.151,2.151,0,0,0-1.512.672,4.533,4.533,0,0,0-1.1,1.82,7.336,7.336,0,0,0-.4,2.422,2.048,2.048,0,0,0,.367,1.332A1.267,1.267,0,0,0,390.7,38.07Zm7.289.93h-1.312l2.594-12.156h1.313Zm5.828-8.562-1.172,5.43a5.861,5.861,0,0,0-.141,1.086,1,1,0,0,0,1.148,1.117A2.323,2.323,0,0,0,405,37.6a4.166,4.166,0,0,0,1.172-1.344,7.21,7.21,0,0,0,.773-2.109l.781-3.711h1.3L407.219,39h-1.086l.172-1.586h-.094a5.13,5.13,0,0,1-1.461,1.359,2.944,2.944,0,0,1-1.437.383,2.184,2.184,0,0,1-1.57-.543,2.04,2.04,0,0,1-.57-1.551,7.323,7.323,0,0,1,.172-1.344l1.141-5.281Zm10.7-.141a2.279,2.279,0,0,1,2.2,1.484h.078a17.992,17.992,0,0,1,.352-2.141l.609-2.8h1.3L416.469,39h-1.086l.172-1.633h-.062a5.866,5.866,0,0,1-1.477,1.383,2.759,2.759,0,0,1-1.422.406,2.045,2.045,0,0,1-1.7-.766,3.329,3.329,0,0,1-.609-2.125,8.094,8.094,0,0,1,.563-3.062,5.107,5.107,0,0,1,1.52-2.148A3.368,3.368,0,0,1,414.516,30.3Zm-1.484,7.773a2.276,2.276,0,0,0,1.516-.73,5.129,5.129,0,0,0,1.238-1.867,6.16,6.16,0,0,0,.457-2.316,1.87,1.87,0,0,0-.422-1.32,1.594,1.594,0,0,0-1.227-.453,2.09,2.09,0,0,0-1.465.645,4.531,4.531,0,0,0-1.086,1.813,7.361,7.361,0,0,0-.41,2.457Q411.633,38.07,413.031,38.07Zm6.063.352a1.387,1.387,0,0,1,.316-.957,1.106,1.106,0,0,1,.871-.355.742.742,0,0,1,.543.2.83.83,0,0,1,.207.617,1.388,1.388,0,0,1-.312.926,1.046,1.046,0,0,1-.844.371.788.788,0,0,1-.57-.2A.8.8,0,0,1,419.094,38.422Zm7.969.734a2.293,2.293,0,0,1-1.328-.391,2.537,2.537,0,0,1-.883-1.094h-.078l-.031.3q-.023.2-.082.547t-.895,4.328h-1.3l2.625-12.406h1.086l-.2,1.633h.063a3.837,3.837,0,0,1,2.906-1.773,2.055,2.055,0,0,1,1.688.762,3.309,3.309,0,0,1,.617,2.137,8.3,8.3,0,0,1-.539,3.039,5.046,5.046,0,0,1-1.492,2.152A3.341,3.341,0,0,1,427.063,39.156Zm1.453-7.773a2.26,2.26,0,0,0-1.527.742,5.292,5.292,0,0,0-1.234,1.867,6.071,6.071,0,0,0-.457,2.3,1.84,1.84,0,0,0,.434,1.316,1.647,1.647,0,0,0,1.254.457,2.066,2.066,0,0,0,1.441-.633,4.443,4.443,0,0,0,1.074-1.8,7.5,7.5,0,0,0,.406-2.48Q429.906,31.383,428.516,31.383Zm8.516-1.086a2.279,2.279,0,0,1,2.2,1.484h.078a17.992,17.992,0,0,1,.352-2.141l.609-2.8h1.3L438.984,39H437.9l.172-1.633h-.062a5.866,5.866,0,0,1-1.477,1.383,2.759,2.759,0,0,1-1.422.406,2.045,2.045,0,0,1-1.7-.766,3.329,3.329,0,0,1-.609-2.125,8.094,8.094,0,0,1,.563-3.062,5.107,5.107,0,0,1,1.52-2.148A3.368,3.368,0,0,1,437.031,30.3Zm-1.484,7.773a2.276,2.276,0,0,0,1.516-.73,5.129,5.129,0,0,0,1.238-1.867,6.16,6.16,0,0,0,.457-2.316,1.87,1.87,0,0,0-.422-1.32,1.594,1.594,0,0,0-1.227-.453,2.09,2.09,0,0,0-1.465.645,4.531,4.531,0,0,0-1.086,1.813,7.361,7.361,0,0,0-.41,2.457Q434.148,38.07,435.547,38.07Zm4.914,4.773a2.764,2.764,0,0,1-.977-.164v-1.1a2.748,2.748,0,0,0,.875.172,1.032,1.032,0,0,0,.914-.484,4.137,4.137,0,0,0,.516-1.383l1.773-8.453h-1.508l.1-.523,1.609-.516.18-.781a4.629,4.629,0,0,1,1-2.207,2.541,2.541,0,0,1,1.887-.645,4.05,4.05,0,0,1,.766.09,3.549,3.549,0,0,1,.7.2l-.336,1.008a3.04,3.04,0,0,0-1.07-.227,1.377,1.377,0,0,0-1.043.379,3.009,3.009,0,0,0-.59,1.387l-.2.844h1.859l-.2.992h-1.852l-1.812,8.578a4.475,4.475,0,0,1-.937,2.156A2.167,2.167,0,0,1,440.461,42.844Z" transform="translate(2093.187 9135.203)" fill="#006bd9"/>
  </g>
</svg>
