<svg xmlns="http://www.w3.org/2000/svg" width="662.969" height="38.086" viewBox="0 0 662.969 38.086">
  <g id="Grupo_3977" data-name="Grupo 3977" transform="translate(-2046.006 -9063.96)">
    <g id="Grupo_3973" data-name="Grupo 3973" transform="translate(29 227)">
      <circle id="Elipse_67" data-name="Elipse 67" cx="18" cy="18" r="18" transform="translate(2017.006 8837.329)" fill="#98bd11" opacity="0.8"/>
      <g id="Grupo_2021" data-name="Grupo 2021">
        <path id="Trazado_9227" data-name="Trazado 9227" d="M2022.594,8851a13.142,13.142,0,0,0,0,8.649.972.972,0,0,0,.041.118,13.145,13.145,0,0,0,24.742,0,.82.82,0,0,0,.042-.118,13.142,13.142,0,0,0,0-8.649.917.917,0,0,0-.042-.119,13.145,13.145,0,0,0-24.742,0,.932.932,0,0,0-.041.119Zm12.412-6.936c.5,0,1.308.905,1.983,2.93a20.665,20.665,0,0,1,.776,3.321h-5.517a20.56,20.56,0,0,1,.776-3.321c.675-2.024,1.482-2.93,1.982-2.93Zm2.987,8.135c.091,1,.139,2.053.139,3.126s-.048,2.12-.139,3.125h-5.974c-.09-1-.138-2.053-.138-3.125s.048-2.121.138-3.126Zm8.274,3.126a11.2,11.2,0,0,1-.442,3.125h-5.942c.089-1.026.133-2.076.133-3.125s-.044-2.1-.133-3.126h5.942a11.2,11.2,0,0,1,.442,3.126Zm-11.261,11.26c-.5,0-1.307-.906-1.982-2.93a20.634,20.634,0,0,1-.776-3.321h5.517a20.74,20.74,0,0,1-.776,3.321c-.675,2.023-1.482,2.93-1.983,2.93Zm-4.877-8.135h-5.941a11.271,11.271,0,0,1,0-6.251h5.941c-.088,1.026-.132,2.076-.132,3.126s.044,2.1.132,3.125Zm-5.205,1.884h5.421a18.134,18.134,0,0,0,1.717,5.86,11.314,11.314,0,0,1-7.138-5.86Zm13.027,5.86a18.111,18.111,0,0,0,1.716-5.86h5.422a11.319,11.319,0,0,1-7.138,5.86Zm7.138-15.879h-5.422a18.1,18.1,0,0,0-1.716-5.86,11.313,11.313,0,0,1,7.138,5.86Zm-13.027-5.86a18.119,18.119,0,0,0-1.717,5.86h-5.421a11.308,11.308,0,0,1,7.138-5.86Zm0,0" fill="#fff"/>
      </g>
    </g>
    <path id="Trazado_17251" data-name="Trazado 17251" d="M5.7,17l1.156-5.406a6.426,6.426,0,0,0,.141-1.055A1.019,1.019,0,0,0,5.844,9.383a2.342,2.342,0,0,0-1.355.461,4.052,4.052,0,0,0-1.164,1.34A7.187,7.187,0,0,0,2.563,13.3L1.773,17H.461L3.039,4.844H4.352q-.141.641-.27,1.242T3.816,7.309q-.137.621-.3,1.3t-.371,1.477h.086A5.205,5.205,0,0,1,4.684,8.711,2.942,2.942,0,0,1,6.18,8.3a2.131,2.131,0,0,1,1.582.563,2.164,2.164,0,0,1,.559,1.594,6.349,6.349,0,0,1-.18,1.3q-.3,1.508-1.133,5.25Zm6.625-.914a4.227,4.227,0,0,0,1.125-.2v1.008a3.6,3.6,0,0,1-.656.188,3.361,3.361,0,0,1-.625.078,2.172,2.172,0,0,1-1.5-.465,1.765,1.765,0,0,1-.52-1.387,5.66,5.66,0,0,1,.141-1.172l.992-4.7H9.938l.109-.57,1.445-.609.977-1.781h.766L12.8,8.438h2.141l-.2.992H12.609L11.6,14.148a5.558,5.558,0,0,0-.141,1.031.928.928,0,0,0,.227.672A.839.839,0,0,0,12.32,16.086Zm5.188,0a4.227,4.227,0,0,0,1.125-.2v1.008a3.6,3.6,0,0,1-.656.188,3.361,3.361,0,0,1-.625.078,2.172,2.172,0,0,1-1.5-.465,1.765,1.765,0,0,1-.52-1.387,5.66,5.66,0,0,1,.141-1.172l.992-4.7H15.125l.109-.57L16.68,8.25l.977-1.781h.766l-.43,1.969h2.141l-.2.992H17.8l-1.008,4.719a5.558,5.558,0,0,0-.141,1.031.928.928,0,0,0,.227.672A.839.839,0,0,0,17.508,16.086Zm6.359,1.07a2.293,2.293,0,0,1-1.328-.391,2.537,2.537,0,0,1-.883-1.094h-.078l-.031.3q-.023.2-.082.547t-.895,4.328h-1.3L21.9,8.438h1.086l-.2,1.633h.063A3.837,3.837,0,0,1,25.75,8.3a2.055,2.055,0,0,1,1.688.762,3.309,3.309,0,0,1,.617,2.137,8.3,8.3,0,0,1-.539,3.039,5.046,5.046,0,0,1-1.492,2.152A3.341,3.341,0,0,1,23.867,17.156ZM25.32,9.383a2.26,2.26,0,0,0-1.527.742,5.292,5.292,0,0,0-1.234,1.867,6.071,6.071,0,0,0-.457,2.3,1.84,1.84,0,0,0,.434,1.316,1.647,1.647,0,0,0,1.254.457,2.066,2.066,0,0,0,1.441-.633,4.443,4.443,0,0,0,1.074-1.8,7.5,7.5,0,0,0,.406-2.48Q26.711,9.383,25.32,9.383Zm9.266,5.188a2.29,2.29,0,0,1-.863,1.9,3.834,3.834,0,0,1-2.434.684,5.191,5.191,0,0,1-2.383-.539V15.383a4.863,4.863,0,0,0,1.18.508,4.311,4.311,0,0,0,1.172.18,2.382,2.382,0,0,0,1.484-.391,1.215,1.215,0,0,0,.5-1,1.082,1.082,0,0,0-.273-.75,5.51,5.51,0,0,0-1.18-.836,4.752,4.752,0,0,1-1.437-1.117,2.061,2.061,0,0,1-.422-1.3,2.155,2.155,0,0,1,.789-1.738,3.132,3.132,0,0,1,2.078-.66,6.043,6.043,0,0,1,2.578.578l-.422,1.07-.437-.2A4.342,4.342,0,0,0,32.8,9.4a1.747,1.747,0,0,0-1.141.34,1.146,1.146,0,0,0-.137,1.629,4.894,4.894,0,0,0,1.145.8,6.655,6.655,0,0,1,1.2.8,2.323,2.323,0,0,1,.543.723A2.043,2.043,0,0,1,34.586,14.57Zm1.445,1.852a1.387,1.387,0,0,1,.316-.957,1.106,1.106,0,0,1,.871-.355.742.742,0,0,1,.543.2.83.83,0,0,1,.207.617,1.388,1.388,0,0,1-.312.926,1.046,1.046,0,0,1-.844.371.788.788,0,0,1-.57-.2A.8.8,0,0,1,36.031,16.422Zm1.25-6.891a1.4,1.4,0,0,1,.313-.957,1.094,1.094,0,0,1,.867-.355q.758,0,.758.813a1.349,1.349,0,0,1-.324.934,1.065,1.065,0,0,1-.832.363.779.779,0,0,1-.57-.207A.789.789,0,0,1,37.281,9.531Zm9.438-3.953L40.367,17H39.008L45.359,5.578Zm5.6,0L45.969,17H44.609L50.961,5.578ZM55.2,17.156a2.293,2.293,0,0,1-1.328-.391,2.537,2.537,0,0,1-.883-1.094h-.078l-.031.3q-.023.2-.082.547t-.895,4.328h-1.3L53.234,8.438H54.32l-.2,1.633h.063A3.837,3.837,0,0,1,57.086,8.3a2.055,2.055,0,0,1,1.688.762,3.309,3.309,0,0,1,.617,2.137,8.3,8.3,0,0,1-.539,3.039,5.046,5.046,0,0,1-1.492,2.152A3.341,3.341,0,0,1,55.2,17.156Zm1.453-7.773a2.26,2.26,0,0,0-1.527.742,5.292,5.292,0,0,0-1.234,1.867,6.071,6.071,0,0,0-.457,2.3,1.84,1.84,0,0,0,.434,1.316,1.647,1.647,0,0,0,1.254.457,2.066,2.066,0,0,0,1.441-.633,4.443,4.443,0,0,0,1.074-1.8,7.5,7.5,0,0,0,.406-2.48Q58.047,9.383,56.656,9.383ZM65.2,8.328a3.127,3.127,0,0,1,2.344.879,3.31,3.31,0,0,1,.859,2.418,6.93,6.93,0,0,1-.562,2.773,4.8,4.8,0,0,1-1.523,2.016,3.56,3.56,0,0,1-2.172.711,3.114,3.114,0,0,1-2.352-.883,3.331,3.331,0,0,1-.852-2.414,6.914,6.914,0,0,1,.57-2.793,4.734,4.734,0,0,1,1.539-2.008A3.587,3.587,0,0,1,65.2,8.328Zm1.844,3.117a2.134,2.134,0,0,0-.488-1.457,1.669,1.669,0,0,0-1.324-.559,2.287,2.287,0,0,0-1.527.578,3.721,3.721,0,0,0-1.047,1.605,6.688,6.688,0,0,0-.371,2.285,2.3,2.3,0,0,0,.5,1.582,1.807,1.807,0,0,0,1.426.559,2.154,2.154,0,0,0,1.461-.57,3.725,3.725,0,0,0,1.012-1.621A7.335,7.335,0,0,0,67.047,11.445Zm7.984-3.164a3.565,3.565,0,0,1,.938.109l-.281,1.172a3.434,3.434,0,0,0-.82-.1,2.17,2.17,0,0,0-1.332.469,4.1,4.1,0,0,0-1.086,1.3,6.623,6.623,0,0,0-.684,1.848L70.93,17H69.617l1.828-8.562h1.086l-.172,1.586h.078a7.677,7.677,0,0,1,.93-1.066,2.948,2.948,0,0,1,.77-.5A2.211,2.211,0,0,1,75.031,8.281Zm3.547,7.8a4.227,4.227,0,0,0,1.125-.2v1.008a3.6,3.6,0,0,1-.656.188,3.361,3.361,0,0,1-.625.078,2.172,2.172,0,0,1-1.5-.465,1.765,1.765,0,0,1-.52-1.387,5.66,5.66,0,0,1,.141-1.172l.992-4.7H76.2l.109-.57L77.75,8.25l.977-1.781h.766l-.43,1.969H81.2L81,9.43H78.867l-1.008,4.719a5.558,5.558,0,0,0-.141,1.031.928.928,0,0,0,.227.672A.839.839,0,0,0,78.578,16.086Zm7.094-7.8a2.208,2.208,0,0,1,1.281.387,2.513,2.513,0,0,1,.875,1.113h.086l.523-1.344h.992L87.609,17H86.57l.2-1.633h-.062a3.853,3.853,0,0,1-2.945,1.789,2.059,2.059,0,0,1-1.7-.773,3.305,3.305,0,0,1-.617-2.117A8.066,8.066,0,0,1,82,11.25a5.21,5.21,0,0,1,1.531-2.18A3.331,3.331,0,0,1,85.672,8.281ZM84.188,16.07a2.2,2.2,0,0,0,1.508-.723,5.355,5.355,0,0,0,1.219-1.883,6.162,6.162,0,0,0,.469-2.324,1.821,1.821,0,0,0-.437-1.281A1.486,1.486,0,0,0,85.8,9.383a2.151,2.151,0,0,0-1.512.672,4.533,4.533,0,0,0-1.1,1.82,7.336,7.336,0,0,0-.4,2.422,2.048,2.048,0,0,0,.367,1.332A1.267,1.267,0,0,0,84.188,16.07Zm7.289.93H90.164L92.758,4.844H94.07Zm2.641-.578a1.387,1.387,0,0,1,.316-.957,1.106,1.106,0,0,1,.871-.355.742.742,0,0,1,.543.2.83.83,0,0,1,.207.617,1.388,1.388,0,0,1-.312.926,1.046,1.046,0,0,1-.844.371.788.788,0,0,1-.57-.2A.8.8,0,0,1,94.117,16.422Zm7.969.734a2.293,2.293,0,0,1-1.328-.391,2.537,2.537,0,0,1-.883-1.094H99.8l-.031.3q-.023.2-.082.547t-.895,4.328h-1.3l2.625-12.406H101.2L101,10.07h.063A3.837,3.837,0,0,1,103.969,8.3a2.055,2.055,0,0,1,1.688.762,3.309,3.309,0,0,1,.617,2.137,8.3,8.3,0,0,1-.539,3.039,5.046,5.046,0,0,1-1.492,2.152A3.341,3.341,0,0,1,102.086,17.156Zm1.453-7.773a2.26,2.26,0,0,0-1.527.742,5.292,5.292,0,0,0-1.234,1.867,6.071,6.071,0,0,0-.457,2.3,1.84,1.84,0,0,0,.434,1.316,1.647,1.647,0,0,0,1.254.457,2.066,2.066,0,0,0,1.441-.633,4.443,4.443,0,0,0,1.074-1.8,7.5,7.5,0,0,0,.406-2.48Q104.93,9.383,103.539,9.383Zm8.547-1.055a3.127,3.127,0,0,1,2.344.879,3.31,3.31,0,0,1,.859,2.418,6.93,6.93,0,0,1-.562,2.773,4.8,4.8,0,0,1-1.523,2.016,3.56,3.56,0,0,1-2.172.711,3.114,3.114,0,0,1-2.352-.883,3.331,3.331,0,0,1-.852-2.414,6.914,6.914,0,0,1,.57-2.793,4.734,4.734,0,0,1,1.539-2.008A3.587,3.587,0,0,1,112.086,8.328Zm1.844,3.117a2.134,2.134,0,0,0-.488-1.457,1.669,1.669,0,0,0-1.324-.559,2.287,2.287,0,0,0-1.527.578,3.721,3.721,0,0,0-1.047,1.605,6.687,6.687,0,0,0-.371,2.285,2.3,2.3,0,0,0,.5,1.582,1.807,1.807,0,0,0,1.426.559,2.154,2.154,0,0,0,1.461-.57,3.725,3.725,0,0,0,1.012-1.621A7.335,7.335,0,0,0,113.93,11.445Zm7.852,3.125a2.29,2.29,0,0,1-.863,1.9,3.834,3.834,0,0,1-2.434.684,5.191,5.191,0,0,1-2.383-.539V15.383a4.863,4.863,0,0,0,1.18.508,4.311,4.311,0,0,0,1.172.18,2.382,2.382,0,0,0,1.484-.391,1.215,1.215,0,0,0,.5-1,1.082,1.082,0,0,0-.273-.75,5.51,5.51,0,0,0-1.18-.836,4.752,4.752,0,0,1-1.437-1.117,2.061,2.061,0,0,1-.422-1.3,2.155,2.155,0,0,1,.789-1.738,3.132,3.132,0,0,1,2.078-.66,6.043,6.043,0,0,1,2.578.578l-.422,1.07-.437-.2a4.342,4.342,0,0,0-1.719-.336,1.747,1.747,0,0,0-1.141.34,1.146,1.146,0,0,0-.137,1.629,4.894,4.894,0,0,0,1.145.8,6.655,6.655,0,0,1,1.2.8,2.323,2.323,0,0,1,.543.723A2.043,2.043,0,0,1,121.781,14.57ZM124.664,17h-1.312l1.828-8.562h1.313Zm.883-10.75a1.027,1.027,0,0,1,.25-.715.833.833,0,0,1,.648-.277.615.615,0,0,1,.688.7,1.06,1.06,0,0,1-.262.727.788.788,0,0,1-.605.3.722.722,0,0,1-.516-.191A.71.71,0,0,1,125.547,6.25Zm5.664,10.906a2.293,2.293,0,0,1-1.328-.391A2.537,2.537,0,0,1,129,15.672h-.078l-.031.3q-.023.2-.082.547t-.895,4.328h-1.3l2.625-12.406h1.086l-.2,1.633h.063A3.837,3.837,0,0,1,133.094,8.3a2.055,2.055,0,0,1,1.688.762A3.309,3.309,0,0,1,135.4,11.2a8.3,8.3,0,0,1-.539,3.039,5.046,5.046,0,0,1-1.492,2.152A3.341,3.341,0,0,1,131.211,17.156Zm1.453-7.773a2.26,2.26,0,0,0-1.527.742,5.292,5.292,0,0,0-1.234,1.867,6.071,6.071,0,0,0-.457,2.3,1.84,1.84,0,0,0,.434,1.316,1.647,1.647,0,0,0,1.254.457,2.066,2.066,0,0,0,1.441-.633,4.443,4.443,0,0,0,1.074-1.8,7.5,7.5,0,0,0,.406-2.48Q134.055,9.383,132.664,9.383Zm7.367,7.773a2.988,2.988,0,0,1-2.258-.852,3.26,3.26,0,0,1-.82-2.359,7.031,7.031,0,0,1,.582-2.816,5.212,5.212,0,0,1,1.543-2.1,3.363,3.363,0,0,1,2.117-.75,2.685,2.685,0,0,1,1.8.52,1.813,1.813,0,0,1,.6,1.449,2.476,2.476,0,0,1-1.3,2.207,7.1,7.1,0,0,1-3.711.8h-.258l-.031.625a2.418,2.418,0,0,0,.48,1.6,1.832,1.832,0,0,0,1.488.574,3.864,3.864,0,0,0,1.012-.141,7.746,7.746,0,0,0,1.293-.516v1.141a7.081,7.081,0,0,1-1.3.48A5.261,5.261,0,0,1,140.031,17.156ZM141.117,9.4a2.087,2.087,0,0,0-1.512.734,4.8,4.8,0,0,0-1.082,2.039h.094a6.378,6.378,0,0,0,2.73-.465,1.459,1.459,0,0,0,.949-1.348.913.913,0,0,0-.285-.687A1.255,1.255,0,0,0,141.117,9.4Zm7.953-1.1a2.279,2.279,0,0,1,2.2,1.484h.078a18,18,0,0,1,.352-2.141l.609-2.8h1.3L151.023,17h-1.086l.172-1.633h-.062a5.867,5.867,0,0,1-1.477,1.383,2.759,2.759,0,0,1-1.422.406,2.045,2.045,0,0,1-1.7-.766,3.329,3.329,0,0,1-.609-2.125,8.094,8.094,0,0,1,.563-3.062,5.107,5.107,0,0,1,1.52-2.148A3.368,3.368,0,0,1,149.07,8.3Zm-1.484,7.773a2.276,2.276,0,0,0,1.516-.73,5.129,5.129,0,0,0,1.238-1.867,6.16,6.16,0,0,0,.457-2.316,1.87,1.87,0,0,0-.422-1.32,1.594,1.594,0,0,0-1.227-.453,2.09,2.09,0,0,0-1.465.645A4.531,4.531,0,0,0,146.6,11.84a7.361,7.361,0,0,0-.41,2.457Q146.188,16.07,147.586,16.07Zm7.5.93h-1.312L155.6,8.438h1.313Zm.883-10.75a1.027,1.027,0,0,1,.25-.715.833.833,0,0,1,.648-.277.615.615,0,0,1,.688.7,1.06,1.06,0,0,1-.262.727.788.788,0,0,1-.605.3.722.722,0,0,1-.516-.191A.71.71,0,0,1,155.969,6.25Zm6.4,2.031a2.208,2.208,0,0,1,1.281.387,2.513,2.513,0,0,1,.875,1.113h.086l.523-1.344h.992L164.3,17h-1.039l.2-1.633h-.062a3.853,3.853,0,0,1-2.945,1.789,2.059,2.059,0,0,1-1.7-.773,3.305,3.305,0,0,1-.617-2.117,8.065,8.065,0,0,1,.555-3.016,5.21,5.21,0,0,1,1.531-2.18A3.331,3.331,0,0,1,162.367,8.281Zm-1.484,7.789a2.2,2.2,0,0,0,1.508-.723,5.355,5.355,0,0,0,1.219-1.883,6.162,6.162,0,0,0,.469-2.324,1.821,1.821,0,0,0-.437-1.281,1.486,1.486,0,0,0-1.148-.477,2.151,2.151,0,0,0-1.512.672,4.533,4.533,0,0,0-1.1,1.82,7.336,7.336,0,0,0-.4,2.422,2.048,2.048,0,0,0,.367,1.332A1.267,1.267,0,0,0,160.883,16.07Zm5.867.352a1.387,1.387,0,0,1,.316-.957,1.106,1.106,0,0,1,.871-.355.742.742,0,0,1,.543.2.83.83,0,0,1,.207.617,1.388,1.388,0,0,1-.312.926,1.046,1.046,0,0,1-.844.371.788.788,0,0,1-.57-.2A.8.8,0,0,1,166.75,16.422Zm7.664.734a3.18,3.18,0,0,1-2.352-.836,3.191,3.191,0,0,1-.836-2.359,7.108,7.108,0,0,1,.578-2.883,4.894,4.894,0,0,1,1.6-2.059,3.815,3.815,0,0,1,2.293-.738,5.725,5.725,0,0,1,2.094.4l-.367,1.1a4.42,4.42,0,0,0-1.711-.4,2.449,2.449,0,0,0-1.6.6,3.936,3.936,0,0,0-1.133,1.664,6.4,6.4,0,0,0-.41,2.316,2.187,2.187,0,0,0,.52,1.555,1.869,1.869,0,0,0,1.434.555,3.542,3.542,0,0,0,1.063-.156,9.742,9.742,0,0,0,.984-.367v1.117A4.691,4.691,0,0,1,174.414,17.156Zm8.273-8.828a3.127,3.127,0,0,1,2.344.879,3.31,3.31,0,0,1,.859,2.418,6.93,6.93,0,0,1-.562,2.773,4.8,4.8,0,0,1-1.523,2.016,3.56,3.56,0,0,1-2.172.711,3.114,3.114,0,0,1-2.352-.883,3.331,3.331,0,0,1-.852-2.414,6.914,6.914,0,0,1,.57-2.793,4.734,4.734,0,0,1,1.539-2.008A3.587,3.587,0,0,1,182.688,8.328Zm1.844,3.117a2.134,2.134,0,0,0-.488-1.457,1.669,1.669,0,0,0-1.324-.559,2.287,2.287,0,0,0-1.527.578,3.721,3.721,0,0,0-1.047,1.605,6.688,6.688,0,0,0-.371,2.285,2.3,2.3,0,0,0,.5,1.582,1.807,1.807,0,0,0,1.426.559,2.154,2.154,0,0,0,1.461-.57,3.725,3.725,0,0,0,1.012-1.621A7.335,7.335,0,0,0,184.531,11.445Zm9.086-5.867L187.266,17h-1.359l6.352-11.422ZM198.734,17l-.25-4.7q-.031-.734-.031-1.344V9.734h-.07l-.391.922-.648,1.477L195.07,17h-1.578l-.336-8.562h1.281l.141,4.641v.688q0,1.148-.062,2.1h.047q.367-.969,1.07-2.516l2.3-4.914h1.422l.289,4.641q.047,1.313.047,2.047v.414l-.016.328h.047q.219-.672.648-1.707T202.9,8.438h1.391L200.336,17Zm9.234.156a2.293,2.293,0,0,1-1.328-.391,2.537,2.537,0,0,1-.883-1.094h-.078l-.031.3q-.023.2-.082.547t-.895,4.328h-1.3L206,8.438h1.086l-.2,1.633h.063A3.837,3.837,0,0,1,209.852,8.3a2.055,2.055,0,0,1,1.688.762,3.309,3.309,0,0,1,.617,2.137,8.3,8.3,0,0,1-.539,3.039,5.046,5.046,0,0,1-1.492,2.152A3.341,3.341,0,0,1,207.969,17.156Zm1.453-7.773a2.26,2.26,0,0,0-1.527.742,5.292,5.292,0,0,0-1.234,1.867,6.071,6.071,0,0,0-.457,2.3,1.84,1.84,0,0,0,.434,1.316,1.647,1.647,0,0,0,1.254.457,2.066,2.066,0,0,0,1.441-.633,4.443,4.443,0,0,0,1.074-1.8,7.5,7.5,0,0,0,.406-2.48Q210.813,9.383,209.422,9.383Zm3.953,3.953.273-1.234h3.742l-.266,1.234Zm8.516,3.82a3.18,3.18,0,0,1-2.352-.836,3.191,3.191,0,0,1-.836-2.359,7.108,7.108,0,0,1,.578-2.883,4.894,4.894,0,0,1,1.6-2.059,3.815,3.815,0,0,1,2.293-.738,5.725,5.725,0,0,1,2.094.4l-.367,1.1a4.42,4.42,0,0,0-1.711-.4,2.449,2.449,0,0,0-1.6.6,3.936,3.936,0,0,0-1.133,1.664,6.4,6.4,0,0,0-.41,2.316,2.187,2.187,0,0,0,.52,1.555A1.869,1.869,0,0,0,222,16.07a3.542,3.542,0,0,0,1.063-.156,9.742,9.742,0,0,0,.984-.367v1.117A4.691,4.691,0,0,1,221.891,17.156Zm8.273-8.828a3.127,3.127,0,0,1,2.344.879,3.31,3.31,0,0,1,.859,2.418A6.93,6.93,0,0,1,232.8,14.4a4.8,4.8,0,0,1-1.523,2.016,3.56,3.56,0,0,1-2.172.711,3.114,3.114,0,0,1-2.352-.883,3.331,3.331,0,0,1-.852-2.414,6.914,6.914,0,0,1,.57-2.793,4.734,4.734,0,0,1,1.539-2.008A3.587,3.587,0,0,1,230.164,8.328Zm1.844,3.117a2.134,2.134,0,0,0-.488-1.457A1.669,1.669,0,0,0,230.2,9.43a2.287,2.287,0,0,0-1.527.578,3.721,3.721,0,0,0-1.047,1.605,6.688,6.688,0,0,0-.371,2.285,2.3,2.3,0,0,0,.5,1.582,1.807,1.807,0,0,0,1.426.559,2.154,2.154,0,0,0,1.461-.57,3.725,3.725,0,0,0,1.012-1.621A7.335,7.335,0,0,0,232.008,11.445Zm7.8,5.555,1.156-5.406a7.125,7.125,0,0,0,.156-1.125,1.109,1.109,0,0,0-.277-.789,1.164,1.164,0,0,0-.887-.3,2.316,2.316,0,0,0-1.355.469,4.171,4.171,0,0,0-1.164,1.336,7.029,7.029,0,0,0-.762,2.1L235.891,17h-1.312l1.828-8.562h1.086l-.172,1.586h.078a5.219,5.219,0,0,1,1.449-1.348,2.911,2.911,0,0,1,1.449-.395,2.187,2.187,0,0,1,1.566.543,1.99,1.99,0,0,1,.574,1.52,6.413,6.413,0,0,1-.18,1.406L241.141,17Zm6.625-.914a4.227,4.227,0,0,0,1.125-.2v1.008a3.6,3.6,0,0,1-.656.188,3.361,3.361,0,0,1-.625.078,2.172,2.172,0,0,1-1.5-.465,1.765,1.765,0,0,1-.52-1.387,5.66,5.66,0,0,1,.141-1.172l.992-4.7h-1.344l.109-.57,1.445-.609.977-1.781h.766l-.43,1.969h2.141l-.2.992h-2.133l-1.008,4.719a5.558,5.558,0,0,0-.141,1.031.928.928,0,0,0,.227.672A.839.839,0,0,0,246.438,16.086Zm5.945,1.07a2.988,2.988,0,0,1-2.258-.852,3.26,3.26,0,0,1-.82-2.359,7.031,7.031,0,0,1,.582-2.816,5.212,5.212,0,0,1,1.543-2.1,3.363,3.363,0,0,1,2.117-.75,2.685,2.685,0,0,1,1.8.52,1.813,1.813,0,0,1,.6,1.449,2.476,2.476,0,0,1-1.3,2.207,7.1,7.1,0,0,1-3.711.8h-.258l-.031.625a2.418,2.418,0,0,0,.48,1.6,1.832,1.832,0,0,0,1.488.574,3.864,3.864,0,0,0,1.012-.141,7.746,7.746,0,0,0,1.293-.516v1.141a7.081,7.081,0,0,1-1.3.48A5.261,5.261,0,0,1,252.383,17.156ZM253.469,9.4a2.087,2.087,0,0,0-1.512.734,4.8,4.8,0,0,0-1.082,2.039h.094a6.378,6.378,0,0,0,2.73-.465,1.459,1.459,0,0,0,.949-1.348.913.913,0,0,0-.285-.687A1.255,1.255,0,0,0,253.469,9.4Zm8.656,7.6,1.156-5.406a7.127,7.127,0,0,0,.156-1.125,1.109,1.109,0,0,0-.277-.789,1.164,1.164,0,0,0-.887-.3,2.316,2.316,0,0,0-1.355.469,4.171,4.171,0,0,0-1.164,1.336,7.029,7.029,0,0,0-.762,2.1L258.2,17h-1.312l1.828-8.562H259.8l-.172,1.586h.078a5.219,5.219,0,0,1,1.449-1.348,2.911,2.911,0,0,1,1.449-.395,2.187,2.187,0,0,1,1.566.543,1.99,1.99,0,0,1,.574,1.52,6.414,6.414,0,0,1-.18,1.406L263.453,17Zm6.625-.914a4.227,4.227,0,0,0,1.125-.2v1.008a3.6,3.6,0,0,1-.656.188,3.361,3.361,0,0,1-.625.078,2.172,2.172,0,0,1-1.5-.465,1.765,1.765,0,0,1-.52-1.387,5.66,5.66,0,0,1,.141-1.172l.992-4.7h-1.344l.109-.57,1.445-.609.977-1.781h.766l-.43,1.969h2.141l-.2.992h-2.133l-1.008,4.719a5.558,5.558,0,0,0-.141,1.031.928.928,0,0,0,.227.672A.839.839,0,0,0,268.75,16.086Zm9.078-10.508L271.477,17h-1.359l6.352-11.422Zm2.148,2.859-1.172,5.43a5.861,5.861,0,0,0-.141,1.086,1,1,0,0,0,1.148,1.117,2.323,2.323,0,0,0,1.352-.469,4.166,4.166,0,0,0,1.172-1.344,7.21,7.21,0,0,0,.773-2.109l.781-3.711h1.3L283.383,17H282.3l.172-1.586h-.094a5.13,5.13,0,0,1-1.461,1.359,2.944,2.944,0,0,1-1.437.383,2.184,2.184,0,0,1-1.57-.543,2.04,2.04,0,0,1-.57-1.551,7.323,7.323,0,0,1,.172-1.344l1.141-5.281Zm9.969,8.719a2.293,2.293,0,0,1-1.328-.391,2.537,2.537,0,0,1-.883-1.094h-.078l-.031.3q-.023.2-.082.547t-.895,4.328h-1.3l2.625-12.406h1.086l-.2,1.633h.063A3.837,3.837,0,0,1,291.828,8.3a2.055,2.055,0,0,1,1.688.762,3.309,3.309,0,0,1,.617,2.137,8.3,8.3,0,0,1-.539,3.039,5.046,5.046,0,0,1-1.492,2.152A3.341,3.341,0,0,1,289.945,17.156ZM291.4,9.383a2.26,2.26,0,0,0-1.527.742,5.292,5.292,0,0,0-1.234,1.867,6.071,6.071,0,0,0-.457,2.3,1.84,1.84,0,0,0,.434,1.316,1.647,1.647,0,0,0,1.254.457,2.066,2.066,0,0,0,1.441-.633,4.443,4.443,0,0,0,1.074-1.8,7.5,7.5,0,0,0,.406-2.48Q292.789,9.383,291.4,9.383ZM296.68,17h-1.312l2.594-12.156h1.313Zm7.328-8.672a3.127,3.127,0,0,1,2.344.879,3.31,3.31,0,0,1,.859,2.418,6.93,6.93,0,0,1-.562,2.773,4.8,4.8,0,0,1-1.523,2.016,3.56,3.56,0,0,1-2.172.711,3.114,3.114,0,0,1-2.352-.883,3.331,3.331,0,0,1-.852-2.414,6.914,6.914,0,0,1,.57-2.793,4.734,4.734,0,0,1,1.539-2.008A3.587,3.587,0,0,1,304.008,8.328Zm1.844,3.117a2.133,2.133,0,0,0-.488-1.457,1.669,1.669,0,0,0-1.324-.559,2.287,2.287,0,0,0-1.527.578,3.721,3.721,0,0,0-1.047,1.605,6.687,6.687,0,0,0-.371,2.285,2.3,2.3,0,0,0,.5,1.582,1.807,1.807,0,0,0,1.426.559,2.154,2.154,0,0,0,1.461-.57,3.725,3.725,0,0,0,1.012-1.621A7.335,7.335,0,0,0,305.852,11.445Zm7.1-3.164a2.208,2.208,0,0,1,1.281.387,2.513,2.513,0,0,1,.875,1.113h.086l.523-1.344h.992L314.891,17h-1.039l.2-1.633h-.062a3.853,3.853,0,0,1-2.945,1.789,2.059,2.059,0,0,1-1.7-.773,3.305,3.305,0,0,1-.617-2.117,8.066,8.066,0,0,1,.555-3.016,5.21,5.21,0,0,1,1.531-2.18A3.331,3.331,0,0,1,312.953,8.281Zm-1.484,7.789a2.2,2.2,0,0,0,1.508-.723,5.355,5.355,0,0,0,1.219-1.883,6.162,6.162,0,0,0,.469-2.324,1.821,1.821,0,0,0-.437-1.281,1.486,1.486,0,0,0-1.148-.477,2.151,2.151,0,0,0-1.512.672,4.533,4.533,0,0,0-1.1,1.82,7.336,7.336,0,0,0-.4,2.422,2.048,2.048,0,0,0,.367,1.332A1.267,1.267,0,0,0,311.469,16.07ZM321.992,8.3a2.279,2.279,0,0,1,2.2,1.484h.078a17.992,17.992,0,0,1,.352-2.141l.609-2.8h1.3L323.945,17h-1.086l.172-1.633h-.062a5.866,5.866,0,0,1-1.477,1.383,2.759,2.759,0,0,1-1.422.406,2.045,2.045,0,0,1-1.7-.766,3.329,3.329,0,0,1-.609-2.125,8.094,8.094,0,0,1,.563-3.062,5.107,5.107,0,0,1,1.52-2.148A3.368,3.368,0,0,1,321.992,8.3Zm-1.484,7.773a2.276,2.276,0,0,0,1.516-.73,5.129,5.129,0,0,0,1.238-1.867,6.16,6.16,0,0,0,.457-2.316,1.87,1.87,0,0,0-.422-1.32,1.594,1.594,0,0,0-1.227-.453,2.09,2.09,0,0,0-1.465.645,4.531,4.531,0,0,0-1.086,1.813,7.361,7.361,0,0,0-.41,2.457Q319.109,16.07,320.508,16.07Zm11.469-1.5a2.29,2.29,0,0,1-.863,1.9,3.834,3.834,0,0,1-2.434.684,5.191,5.191,0,0,1-2.383-.539V15.383a4.864,4.864,0,0,0,1.18.508,4.311,4.311,0,0,0,1.172.18,2.382,2.382,0,0,0,1.484-.391,1.215,1.215,0,0,0,.5-1,1.082,1.082,0,0,0-.273-.75,5.51,5.51,0,0,0-1.18-.836,4.752,4.752,0,0,1-1.437-1.117,2.061,2.061,0,0,1-.422-1.3,2.155,2.155,0,0,1,.789-1.738,3.132,3.132,0,0,1,2.078-.66,6.043,6.043,0,0,1,2.578.578l-.422,1.07-.437-.2a4.342,4.342,0,0,0-1.719-.336,1.747,1.747,0,0,0-1.141.34,1.146,1.146,0,0,0-.137,1.629,4.894,4.894,0,0,0,1.145.8,6.655,6.655,0,0,1,1.2.8,2.323,2.323,0,0,1,.543.723A2.043,2.043,0,0,1,331.977,14.57Zm8.086-8.992L333.711,17h-1.359L338.7,5.578ZM345.8,17h-7.023l.242-1.148,3.633-3.281q.8-.727,1.379-1.277A9.359,9.359,0,0,0,345,10.254a3.816,3.816,0,0,0,.563-.969,2.966,2.966,0,0,0,.184-1.066,1.627,1.627,0,0,0-.469-1.227A1.755,1.755,0,0,0,344,6.539a3.226,3.226,0,0,0-1.176.223,5.34,5.34,0,0,0-1.27.754l-.641-.9a5.04,5.04,0,0,1,3.227-1.2,3.217,3.217,0,0,1,2.176.691,2.381,2.381,0,0,1,.8,1.9,4.036,4.036,0,0,1-.309,1.594,5.874,5.874,0,0,1-1.023,1.539,26.125,26.125,0,0,1-2.3,2.2l-2.75,2.4V15.8h5.3Zm10.227-7.922a13.7,13.7,0,0,1-.613,4.211,6.61,6.61,0,0,1-1.672,2.887,3.5,3.5,0,0,1-2.457.98,2.462,2.462,0,0,1-2.109-1,4.815,4.815,0,0,1-.734-2.887,12.556,12.556,0,0,1,.641-4.02,6.8,6.8,0,0,1,1.691-2.883,3.437,3.437,0,0,1,2.4-.973Q356.031,5.4,356.031,9.078ZM353.1,6.523a2.131,2.131,0,0,0-1.633.9,6.908,6.908,0,0,0-1.215,2.523,11.945,11.945,0,0,0-.465,3.309,4.4,4.4,0,0,0,.391,2.063,1.327,1.327,0,0,0,1.258.719,2.107,2.107,0,0,0,1.633-.891,6.715,6.715,0,0,0,1.176-2.562,13.813,13.813,0,0,0,.441-3.539Q354.688,6.523,353.1,6.523ZM360.906,17h-1.344l1.531-7.133q.461-2.039.688-2.8a6.017,6.017,0,0,1-1.086.867l-1.391.859L358.68,7.8l3.508-2.219h1.164Zm12.555-8.078a12.461,12.461,0,0,1-.437,3.176,10.3,10.3,0,0,1-1.152,2.813,4.648,4.648,0,0,1-1.73,1.7,4.9,4.9,0,0,1-2.359.547,6.185,6.185,0,0,1-1.891-.266V15.656a5.848,5.848,0,0,0,1.922.367,3.252,3.252,0,0,0,2.555-1.1,7.573,7.573,0,0,0,1.477-3.445h-.078a2.86,2.86,0,0,1-1.035.926,2.947,2.947,0,0,1-1.41.34,2.653,2.653,0,0,1-2.039-.77,3.188,3.188,0,0,1-.719-2.254,4.784,4.784,0,0,1,.5-2.191A3.755,3.755,0,0,1,370.5,5.414a2.738,2.738,0,0,1,2.184.895A3.876,3.876,0,0,1,373.461,8.922Zm-3.008-2.4a2.3,2.3,0,0,0-1.883.883,3.5,3.5,0,0,0-.711,2.266,2.276,2.276,0,0,0,.426,1.484,1.551,1.551,0,0,0,1.27.516,2.658,2.658,0,0,0,1.094-.223,2.329,2.329,0,0,0,.848-.637A2.735,2.735,0,0,0,372,9.922a3.742,3.742,0,0,0,.16-1.18,2.59,2.59,0,0,0-.461-1.621A1.5,1.5,0,0,0,370.453,6.523Zm10.461-.945L374.563,17H373.2l6.352-11.422Zm7.156,3.5a13.7,13.7,0,0,1-.613,4.211,6.61,6.61,0,0,1-1.672,2.887,3.5,3.5,0,0,1-2.457.98,2.462,2.462,0,0,1-2.109-1,4.815,4.815,0,0,1-.734-2.887,12.556,12.556,0,0,1,.641-4.02,6.8,6.8,0,0,1,1.691-2.883,3.437,3.437,0,0,1,2.4-.973Q388.07,5.4,388.07,9.078Zm-2.93-2.555a2.131,2.131,0,0,0-1.633.9,6.908,6.908,0,0,0-1.215,2.523,11.945,11.945,0,0,0-.465,3.309,4.4,4.4,0,0,0,.391,2.063,1.327,1.327,0,0,0,1.258.719,2.107,2.107,0,0,0,1.633-.891,6.715,6.715,0,0,0,1.176-2.562,13.813,13.813,0,0,0,.441-3.539Q386.727,6.523,385.141,6.523Zm11.594,1.422a2.922,2.922,0,0,1-.789,2.066,3.8,3.8,0,0,1-2.187,1.1v.07a2.53,2.53,0,0,1,1.523.832,2.427,2.427,0,0,1,.555,1.629,3.444,3.444,0,0,1-.484,1.832,3.25,3.25,0,0,1-1.414,1.238,5.074,5.074,0,0,1-2.211.445,7.226,7.226,0,0,1-3.008-.617V15.258a7.12,7.12,0,0,0,1.555.59,6.122,6.122,0,0,0,1.484.207,2.875,2.875,0,0,0,1.969-.621,2.151,2.151,0,0,0,.7-1.7,1.927,1.927,0,0,0-.617-1.551,2.564,2.564,0,0,0-1.719-.527H391.07l.242-1.117H392.4a3.323,3.323,0,0,0,2.141-.68,2.162,2.162,0,0,0,.852-1.773,1.483,1.483,0,0,0-.453-1.141,1.729,1.729,0,0,0-1.227-.422,3.682,3.682,0,0,0-1.227.211,6.211,6.211,0,0,0-1.367.727l-.625-.922A5.46,5.46,0,0,1,393.8,5.414a3.152,3.152,0,0,1,2.164.68A2.35,2.35,0,0,1,396.734,7.945Zm7.406-2.367L397.789,17H396.43l6.352-11.422Zm2.578,11.578a3.18,3.18,0,0,1-2.352-.836,3.191,3.191,0,0,1-.836-2.359,7.108,7.108,0,0,1,.578-2.883,4.894,4.894,0,0,1,1.6-2.059A3.815,3.815,0,0,1,408,8.281a5.725,5.725,0,0,1,2.094.4l-.367,1.1a4.42,4.42,0,0,0-1.711-.4,2.449,2.449,0,0,0-1.6.6,3.936,3.936,0,0,0-1.133,1.664,6.4,6.4,0,0,0-.41,2.316,2.187,2.187,0,0,0,.52,1.555,1.868,1.868,0,0,0,1.434.555,3.542,3.542,0,0,0,1.063-.156,9.739,9.739,0,0,0,.984-.367v1.117A4.691,4.691,0,0,1,406.719,17.156Zm8.242-8.875a2.208,2.208,0,0,1,1.281.387,2.513,2.513,0,0,1,.875,1.113h.086l.523-1.344h.992L416.9,17h-1.039l.2-1.633H416a3.853,3.853,0,0,1-2.945,1.789,2.059,2.059,0,0,1-1.7-.773,3.305,3.305,0,0,1-.617-2.117,8.066,8.066,0,0,1,.555-3.016,5.21,5.21,0,0,1,1.531-2.18A3.331,3.331,0,0,1,414.961,8.281Zm-1.484,7.789a2.2,2.2,0,0,0,1.508-.723,5.355,5.355,0,0,0,1.219-1.883,6.162,6.162,0,0,0,.469-2.324,1.821,1.821,0,0,0-.437-1.281,1.486,1.486,0,0,0-1.148-.477,2.151,2.151,0,0,0-1.512.672,4.533,4.533,0,0,0-1.1,1.82,7.336,7.336,0,0,0-.4,2.422,2.048,2.048,0,0,0,.367,1.332A1.267,1.267,0,0,0,413.477,16.07Zm11.406-7.789a3.565,3.565,0,0,1,.938.109l-.281,1.172a3.434,3.434,0,0,0-.82-.1,2.17,2.17,0,0,0-1.332.469,4.1,4.1,0,0,0-1.086,1.3,6.623,6.623,0,0,0-.684,1.848L420.781,17h-1.312L421.3,8.438h1.086l-.172,1.586h.078a7.677,7.677,0,0,1,.93-1.066,2.948,2.948,0,0,1,.77-.5A2.211,2.211,0,0,1,424.883,8.281Zm3.547,7.8a4.227,4.227,0,0,0,1.125-.2v1.008a3.6,3.6,0,0,1-.656.188,3.361,3.361,0,0,1-.625.078,2.172,2.172,0,0,1-1.5-.465,1.765,1.765,0,0,1-.52-1.387,5.66,5.66,0,0,1,.141-1.172l.992-4.7h-1.344l.109-.57L427.6,8.25l.977-1.781h.766l-.43,1.969h2.141l-.2.992h-2.133l-1.008,4.719a5.558,5.558,0,0,0-.141,1.031.928.928,0,0,0,.227.672A.839.839,0,0,0,428.43,16.086ZM432.3,17h-1.312l1.828-8.562h1.313Zm.883-10.75a1.027,1.027,0,0,1,.25-.715.832.832,0,0,1,.648-.277.615.615,0,0,1,.688.7,1.06,1.06,0,0,1-.262.727.788.788,0,0,1-.605.3.722.722,0,0,1-.516-.191A.71.71,0,0,1,433.188,6.25ZM436.352,17h-1.312l2.594-12.156h1.313Zm4.063,0H439.1L441.7,4.844h1.313Zm7.3-8.719a2.208,2.208,0,0,1,1.281.387,2.513,2.513,0,0,1,.875,1.113h.086l.523-1.344h.992L449.648,17h-1.039l.2-1.633h-.062a3.853,3.853,0,0,1-2.945,1.789,2.059,2.059,0,0,1-1.7-.773,3.305,3.305,0,0,1-.617-2.117,8.066,8.066,0,0,1,.555-3.016,5.21,5.21,0,0,1,1.531-2.18A3.331,3.331,0,0,1,447.711,8.281Zm-1.484,7.789a2.2,2.2,0,0,0,1.508-.723,5.355,5.355,0,0,0,1.219-1.883,6.162,6.162,0,0,0,.469-2.324,1.821,1.821,0,0,0-.437-1.281,1.486,1.486,0,0,0-1.148-.477,2.151,2.151,0,0,0-1.512.672,4.533,4.533,0,0,0-1.1,1.82,7.336,7.336,0,0,0-.4,2.422,2.048,2.048,0,0,0,.367,1.332A1.267,1.267,0,0,0,446.227,16.07Zm5.961-2.734.273-1.234H456.2l-.266,1.234ZM458.523,17h-1.312l1.828-8.562h1.313Zm.883-10.75a1.027,1.027,0,0,1,.25-.715.832.832,0,0,1,.648-.277.615.615,0,0,1,.688.7,1.06,1.06,0,0,1-.262.727.788.788,0,0,1-.605.3.722.722,0,0,1-.516-.191A.71.71,0,0,1,459.406,6.25ZM465.8,8.3A2.279,2.279,0,0,1,468,9.781h.078a17.992,17.992,0,0,1,.352-2.141l.609-2.8h1.3L467.758,17h-1.086l.172-1.633h-.062A5.866,5.866,0,0,1,465.3,16.75a2.759,2.759,0,0,1-1.422.406,2.045,2.045,0,0,1-1.7-.766,3.329,3.329,0,0,1-.609-2.125,8.094,8.094,0,0,1,.563-3.062,5.107,5.107,0,0,1,1.52-2.148A3.368,3.368,0,0,1,465.8,8.3ZM464.32,16.07a2.276,2.276,0,0,0,1.516-.73,5.129,5.129,0,0,0,1.238-1.867,6.16,6.16,0,0,0,.457-2.316,1.87,1.87,0,0,0-.422-1.32,1.594,1.594,0,0,0-1.227-.453,2.09,2.09,0,0,0-1.465.645,4.531,4.531,0,0,0-1.086,1.813,7.361,7.361,0,0,0-.41,2.457Q462.922,16.07,464.32,16.07Zm9.57,1.086a2.988,2.988,0,0,1-2.258-.852,3.26,3.26,0,0,1-.82-2.359,7.03,7.03,0,0,1,.582-2.816,5.212,5.212,0,0,1,1.543-2.1,3.363,3.363,0,0,1,2.117-.75,2.685,2.685,0,0,1,1.8.52,1.813,1.813,0,0,1,.6,1.449,2.476,2.476,0,0,1-1.3,2.207,7.1,7.1,0,0,1-3.711.8h-.258l-.031.625a2.418,2.418,0,0,0,.48,1.6,1.832,1.832,0,0,0,1.488.574,3.864,3.864,0,0,0,1.012-.141,7.746,7.746,0,0,0,1.293-.516v1.141a7.081,7.081,0,0,1-1.3.48A5.261,5.261,0,0,1,473.891,17.156ZM474.977,9.4a2.087,2.087,0,0,0-1.512.734,4.8,4.8,0,0,0-1.082,2.039h.094a6.378,6.378,0,0,0,2.73-.465,1.459,1.459,0,0,0,.949-1.348.913.913,0,0,0-.285-.687A1.255,1.255,0,0,0,474.977,9.4Zm8.656,7.6,1.156-5.406a7.127,7.127,0,0,0,.156-1.125,1.109,1.109,0,0,0-.277-.789,1.164,1.164,0,0,0-.887-.3,2.316,2.316,0,0,0-1.355.469,4.171,4.171,0,0,0-1.164,1.336,7.029,7.029,0,0,0-.762,2.1L479.711,17H478.4l1.828-8.562h1.086l-.172,1.586h.078a5.219,5.219,0,0,1,1.449-1.348,2.911,2.911,0,0,1,1.449-.395,2.187,2.187,0,0,1,1.566.543,1.99,1.99,0,0,1,.574,1.52,6.414,6.414,0,0,1-.18,1.406L484.961,17Zm6.625-.914a4.227,4.227,0,0,0,1.125-.2v1.008a3.6,3.6,0,0,1-.656.188,3.361,3.361,0,0,1-.625.078,2.172,2.172,0,0,1-1.5-.465,1.765,1.765,0,0,1-.52-1.387,5.66,5.66,0,0,1,.141-1.172l.992-4.7h-1.344l.109-.57,1.445-.609.977-1.781h.766l-.43,1.969h2.141l-.2.992h-2.133l-1.008,4.719a5.558,5.558,0,0,0-.141,1.031.928.928,0,0,0,.227.672A.839.839,0,0,0,490.258,16.086Zm3.875.914H492.82l1.828-8.562h1.313Zm.883-10.75a1.027,1.027,0,0,1,.25-.715.832.832,0,0,1,.648-.277.615.615,0,0,1,.688.7,1.06,1.06,0,0,1-.262.727.788.788,0,0,1-.605.3.722.722,0,0,1-.516-.191A.71.71,0,0,1,495.016,6.25Zm.594,14.594a2.764,2.764,0,0,1-.977-.164v-1.1a2.748,2.748,0,0,0,.875.172,1.032,1.032,0,0,0,.914-.484,4.137,4.137,0,0,0,.516-1.383l1.773-8.453H497.2l.1-.523,1.609-.516.18-.781a4.629,4.629,0,0,1,1-2.207,2.541,2.541,0,0,1,1.887-.645,4.05,4.05,0,0,1,.766.09,3.549,3.549,0,0,1,.7.2l-.336,1.008a3.04,3.04,0,0,0-1.07-.227A1.377,1.377,0,0,0,501,6.207a3.009,3.009,0,0,0-.59,1.387l-.2.844h1.859l-.2.992h-1.852l-1.812,8.578a4.475,4.475,0,0,1-.937,2.156A2.167,2.167,0,0,1,495.609,20.844ZM503.219,17h-1.312l1.828-8.562h1.313ZM504.1,6.25a1.027,1.027,0,0,1,.25-.715A.832.832,0,0,1,505,5.258a.615.615,0,0,1,.688.7,1.06,1.06,0,0,1-.262.727.788.788,0,0,1-.605.3.722.722,0,0,1-.516-.191A.71.71,0,0,1,504.1,6.25Zm5.375,10.906a3.18,3.18,0,0,1-2.352-.836,3.191,3.191,0,0,1-.836-2.359,7.108,7.108,0,0,1,.578-2.883,4.894,4.894,0,0,1,1.6-2.059,3.815,3.815,0,0,1,2.293-.738,5.726,5.726,0,0,1,2.094.4l-.367,1.1a4.42,4.42,0,0,0-1.711-.4,2.449,2.449,0,0,0-1.6.6,3.936,3.936,0,0,0-1.133,1.664,6.4,6.4,0,0,0-.41,2.316,2.187,2.187,0,0,0,.52,1.555,1.868,1.868,0,0,0,1.434.555,3.542,3.542,0,0,0,1.063-.156,9.739,9.739,0,0,0,.984-.367v1.117A4.691,4.691,0,0,1,509.477,17.156Zm8.242-8.875A2.208,2.208,0,0,1,519,8.668a2.513,2.513,0,0,1,.875,1.113h.086l.523-1.344h.992L519.656,17h-1.039l.2-1.633h-.062a3.853,3.853,0,0,1-2.945,1.789,2.059,2.059,0,0,1-1.7-.773,3.305,3.305,0,0,1-.617-2.117,8.065,8.065,0,0,1,.555-3.016,5.21,5.21,0,0,1,1.531-2.18A3.331,3.331,0,0,1,517.719,8.281Zm-1.484,7.789a2.2,2.2,0,0,0,1.508-.723,5.355,5.355,0,0,0,1.219-1.883,6.162,6.162,0,0,0,.469-2.324,1.821,1.821,0,0,0-.437-1.281,1.486,1.486,0,0,0-1.148-.477,2.151,2.151,0,0,0-1.512.672,4.533,4.533,0,0,0-1.1,1.82,7.336,7.336,0,0,0-.4,2.422,2.048,2.048,0,0,0,.367,1.332A1.267,1.267,0,0,0,516.234,16.07Zm9.484,1.086a3.18,3.18,0,0,1-2.352-.836,3.19,3.19,0,0,1-.836-2.359,7.108,7.108,0,0,1,.578-2.883,4.894,4.894,0,0,1,1.6-2.059A3.815,3.815,0,0,1,527,8.281a5.725,5.725,0,0,1,2.094.4l-.367,1.1a4.42,4.42,0,0,0-1.711-.4,2.449,2.449,0,0,0-1.6.6,3.936,3.936,0,0,0-1.133,1.664,6.4,6.4,0,0,0-.41,2.316,2.186,2.186,0,0,0,.52,1.555,1.869,1.869,0,0,0,1.434.555,3.542,3.542,0,0,0,1.063-.156,9.745,9.745,0,0,0,.984-.367v1.117A4.691,4.691,0,0,1,525.719,17.156ZM530.742,17H529.43l1.828-8.562h1.313Zm.883-10.75a1.027,1.027,0,0,1,.25-.715.833.833,0,0,1,.648-.277.615.615,0,0,1,.688.7,1.06,1.06,0,0,1-.262.727.788.788,0,0,1-.605.3.722.722,0,0,1-.516-.191A.71.71,0,0,1,531.625,6.25Zm6.43,2.078a3.127,3.127,0,0,1,2.344.879,3.31,3.31,0,0,1,.859,2.418A6.93,6.93,0,0,1,540.7,14.4a4.8,4.8,0,0,1-1.523,2.016,3.56,3.56,0,0,1-2.172.711,3.114,3.114,0,0,1-2.352-.883,3.331,3.331,0,0,1-.852-2.414,6.914,6.914,0,0,1,.57-2.793,4.734,4.734,0,0,1,1.539-2.008A3.587,3.587,0,0,1,538.055,8.328Zm1.844,3.117a2.134,2.134,0,0,0-.488-1.457,1.669,1.669,0,0,0-1.324-.559,2.287,2.287,0,0,0-1.527.578,3.721,3.721,0,0,0-1.047,1.605,6.688,6.688,0,0,0-.371,2.285,2.3,2.3,0,0,0,.5,1.582,1.807,1.807,0,0,0,1.426.559,2.154,2.154,0,0,0,1.461-.57,3.725,3.725,0,0,0,1.012-1.621A7.335,7.335,0,0,0,539.9,11.445ZM547.7,17l1.156-5.406a7.123,7.123,0,0,0,.156-1.125,1.109,1.109,0,0,0-.277-.789,1.164,1.164,0,0,0-.887-.3,2.316,2.316,0,0,0-1.355.469,4.171,4.171,0,0,0-1.164,1.336,7.029,7.029,0,0,0-.762,2.1L543.781,17h-1.312L544.3,8.438h1.086l-.172,1.586h.078a5.219,5.219,0,0,1,1.449-1.348,2.911,2.911,0,0,1,1.449-.395,2.187,2.187,0,0,1,1.566.543,1.99,1.99,0,0,1,.574,1.52,6.412,6.412,0,0,1-.18,1.406L549.031,17Zm3.969-3.664.273-1.234h3.742l-.266,1.234Zm8.82,3.82a2.293,2.293,0,0,1-1.328-.391,2.537,2.537,0,0,1-.883-1.094H558.2l-.031.3q-.023.2-.082.547t-.895,4.328h-1.3l2.625-12.406h1.086l-.2,1.633h.063A3.837,3.837,0,0,1,562.375,8.3a2.055,2.055,0,0,1,1.688.762,3.309,3.309,0,0,1,.617,2.137,8.3,8.3,0,0,1-.539,3.039,5.046,5.046,0,0,1-1.492,2.152A3.341,3.341,0,0,1,560.492,17.156Zm1.453-7.773a2.26,2.26,0,0,0-1.527.742,5.292,5.292,0,0,0-1.234,1.867,6.071,6.071,0,0,0-.457,2.3,1.84,1.84,0,0,0,.434,1.316,1.647,1.647,0,0,0,1.254.457,2.066,2.066,0,0,0,1.441-.633,4.443,4.443,0,0,0,1.074-1.8,7.5,7.5,0,0,0,.406-2.48Q563.336,9.383,561.945,9.383Zm7.367,7.773a2.988,2.988,0,0,1-2.258-.852,3.26,3.26,0,0,1-.82-2.359,7.031,7.031,0,0,1,.582-2.816,5.212,5.212,0,0,1,1.543-2.1,3.363,3.363,0,0,1,2.117-.75,2.685,2.685,0,0,1,1.8.52,1.813,1.813,0,0,1,.6,1.449,2.476,2.476,0,0,1-1.3,2.207,7.1,7.1,0,0,1-3.711.8h-.258l-.031.625a2.418,2.418,0,0,0,.48,1.6,1.832,1.832,0,0,0,1.488.574,3.864,3.864,0,0,0,1.012-.141,7.745,7.745,0,0,0,1.293-.516v1.141a7.081,7.081,0,0,1-1.3.48A5.261,5.261,0,0,1,569.313,17.156ZM570.4,9.4a2.087,2.087,0,0,0-1.512.734,4.8,4.8,0,0,0-1.082,2.039h.094a6.378,6.378,0,0,0,2.73-.465,1.459,1.459,0,0,0,.949-1.348.912.912,0,0,0-.285-.687A1.255,1.255,0,0,0,570.4,9.4Zm4.719,7.6H573.8L576.4,4.844h1.313Zm4.078,0h-1.312l1.828-8.562h1.313Zm.883-10.75a1.027,1.027,0,0,1,.25-.715.833.833,0,0,1,.648-.277.615.615,0,0,1,.688.7,1.06,1.06,0,0,1-.262.727.788.788,0,0,1-.605.3.722.722,0,0,1-.516-.191A.71.71,0,0,1,580.078,6.25Zm10,2.188-.2.836-1.648.188a2.2,2.2,0,0,1,.32,1.234,3.169,3.169,0,0,1-.91,2.379,3.338,3.338,0,0,1-2.434.887,2.619,2.619,0,0,1-.656-.062q-1.086.414-1.086,1.023a.414.414,0,0,0,.258.426,3.118,3.118,0,0,0,.75.168l.914.109a4.071,4.071,0,0,1,2.051.688,1.835,1.835,0,0,1,.637,1.516,2.551,2.551,0,0,1-1.141,2.227,5.594,5.594,0,0,1-3.211.789,4.237,4.237,0,0,1-2.375-.574,1.839,1.839,0,0,1-.859-1.621,2.012,2.012,0,0,1,.563-1.422,4.38,4.38,0,0,1,1.82-1.023,1.018,1.018,0,0,1-.609-.945,1.245,1.245,0,0,1,.4-.926,4.108,4.108,0,0,1,1.109-.723,2.054,2.054,0,0,1-1.117-1.875,3.433,3.433,0,0,1,.934-2.484,3.17,3.17,0,0,1,2.387-.969,4.708,4.708,0,0,1,1.2.156Zm-8.32,10.086a1.1,1.1,0,0,0,.508.953,2.654,2.654,0,0,0,1.508.352,4.215,4.215,0,0,0,2.223-.5,1.563,1.563,0,0,0,.8-1.4.876.876,0,0,0-.422-.766,3.385,3.385,0,0,0-1.437-.391l-1.242-.125a2.819,2.819,0,0,0-1.437.688A1.606,1.606,0,0,0,581.758,18.523Zm2.172-6.836a1.361,1.361,0,0,0,.352,1.012,1.328,1.328,0,0,0,.977.348,1.811,1.811,0,0,0,1.078-.328,2.086,2.086,0,0,0,.707-.9,3.13,3.13,0,0,0,.246-1.246,1.3,1.3,0,0,0-.344-.977,1.351,1.351,0,0,0-.984-.336,1.827,1.827,0,0,0-1.066.316,2.077,2.077,0,0,0-.711.883A2.974,2.974,0,0,0,583.93,11.688Zm11.445-3.406a3.565,3.565,0,0,1,.938.109l-.281,1.172a3.434,3.434,0,0,0-.82-.1,2.17,2.17,0,0,0-1.332.469,4.1,4.1,0,0,0-1.086,1.3,6.623,6.623,0,0,0-.684,1.848L591.273,17h-1.312l1.828-8.562h1.086l-.172,1.586h.078a7.675,7.675,0,0,1,.93-1.066,2.948,2.948,0,0,1,.77-.5A2.211,2.211,0,0,1,595.375,8.281Zm5.164.047a3.127,3.127,0,0,1,2.344.879,3.31,3.31,0,0,1,.859,2.418,6.93,6.93,0,0,1-.562,2.773,4.8,4.8,0,0,1-1.523,2.016,3.56,3.56,0,0,1-2.172.711,3.114,3.114,0,0,1-2.352-.883,3.331,3.331,0,0,1-.852-2.414,6.914,6.914,0,0,1,.57-2.793,4.734,4.734,0,0,1,1.539-2.008A3.587,3.587,0,0,1,600.539,8.328Zm1.844,3.117a2.134,2.134,0,0,0-.488-1.457,1.669,1.669,0,0,0-1.324-.559,2.287,2.287,0,0,0-1.527.578A3.721,3.721,0,0,0,598,11.613a6.688,6.688,0,0,0-.371,2.285,2.3,2.3,0,0,0,.5,1.582,1.807,1.807,0,0,0,1.426.559,2.154,2.154,0,0,0,1.461-.57,3.725,3.725,0,0,0,1.012-1.621A7.335,7.335,0,0,0,602.383,11.445Zm7.852,3.125a2.29,2.29,0,0,1-.863,1.9,3.834,3.834,0,0,1-2.434.684,5.191,5.191,0,0,1-2.383-.539V15.383a4.863,4.863,0,0,0,1.18.508,4.311,4.311,0,0,0,1.172.18,2.381,2.381,0,0,0,1.484-.391,1.215,1.215,0,0,0,.5-1,1.082,1.082,0,0,0-.273-.75,5.51,5.51,0,0,0-1.18-.836A4.753,4.753,0,0,1,606,11.977a2.061,2.061,0,0,1-.422-1.3,2.155,2.155,0,0,1,.789-1.738,3.132,3.132,0,0,1,2.078-.66,6.043,6.043,0,0,1,2.578.578L610.6,9.93l-.437-.2a4.342,4.342,0,0,0-1.719-.336,1.747,1.747,0,0,0-1.141.34,1.146,1.146,0,0,0-.137,1.629,4.893,4.893,0,0,0,1.145.8,6.654,6.654,0,0,1,1.2.8,2.323,2.323,0,0,1,.543.723A2.043,2.043,0,0,1,610.234,14.57Zm1.539-1.234.273-1.234h3.742l-.266,1.234ZM4.258,39.156a2.293,2.293,0,0,1-1.328-.391,2.537,2.537,0,0,1-.883-1.094H1.969l-.031.3q-.023.2-.082.547T.961,42.844h-1.3L2.289,30.438H3.375l-.2,1.633h.063A3.837,3.837,0,0,1,6.141,30.3a2.055,2.055,0,0,1,1.688.762A3.309,3.309,0,0,1,8.445,33.2a8.3,8.3,0,0,1-.539,3.039,5.046,5.046,0,0,1-1.492,2.152A3.341,3.341,0,0,1,4.258,39.156Zm1.453-7.773a2.26,2.26,0,0,0-1.527.742,5.292,5.292,0,0,0-1.234,1.867,6.071,6.071,0,0,0-.457,2.3,1.84,1.84,0,0,0,.434,1.316,1.647,1.647,0,0,0,1.254.457,2.066,2.066,0,0,0,1.441-.633,4.443,4.443,0,0,0,1.074-1.8,7.5,7.5,0,0,0,.406-2.48Q7.1,31.383,5.711,31.383Zm9.4-1.1a3.565,3.565,0,0,1,.938.109l-.281,1.172a3.434,3.434,0,0,0-.82-.1,2.17,2.17,0,0,0-1.332.469,4.1,4.1,0,0,0-1.086,1.3,6.623,6.623,0,0,0-.684,1.848L11.008,39H9.7l1.828-8.562h1.086l-.172,1.586h.078a7.677,7.677,0,0,1,.93-1.066,2.948,2.948,0,0,1,.77-.5A2.211,2.211,0,0,1,15.109,30.281Zm3.984,8.875a2.988,2.988,0,0,1-2.258-.852,3.26,3.26,0,0,1-.82-2.359,7.031,7.031,0,0,1,.582-2.816,5.212,5.212,0,0,1,1.543-2.1,3.363,3.363,0,0,1,2.117-.75,2.685,2.685,0,0,1,1.8.52,1.813,1.813,0,0,1,.6,1.449,2.476,2.476,0,0,1-1.3,2.207,7.1,7.1,0,0,1-3.711.8h-.258l-.031.625a2.418,2.418,0,0,0,.48,1.6,1.832,1.832,0,0,0,1.488.574,3.864,3.864,0,0,0,1.012-.141,7.746,7.746,0,0,0,1.293-.516v1.141a7.081,7.081,0,0,1-1.3.48A5.261,5.261,0,0,1,19.094,39.156ZM20.18,31.4a2.087,2.087,0,0,0-1.512.734,4.8,4.8,0,0,0-1.082,2.039h.094a6.378,6.378,0,0,0,2.73-.465,1.459,1.459,0,0,0,.949-1.348.913.913,0,0,0-.285-.687A1.255,1.255,0,0,0,20.18,31.4ZM24.563,39l-.977-8.562H24.9l.5,4.789q.188,2.016.188,2.828h.047q.992-2.148,1.4-2.9l2.539-4.719h1.391L26.344,39Zm9.492.156A2.988,2.988,0,0,1,31.8,38.3a3.26,3.26,0,0,1-.82-2.359,7.031,7.031,0,0,1,.582-2.816,5.212,5.212,0,0,1,1.543-2.1,3.363,3.363,0,0,1,2.117-.75,2.685,2.685,0,0,1,1.8.52,1.813,1.813,0,0,1,.6,1.449,2.476,2.476,0,0,1-1.3,2.207,7.1,7.1,0,0,1-3.711.8h-.258l-.031.625a2.418,2.418,0,0,0,.48,1.6,1.832,1.832,0,0,0,1.488.574,3.864,3.864,0,0,0,1.012-.141,7.746,7.746,0,0,0,1.293-.516v1.141a7.081,7.081,0,0,1-1.3.48A5.261,5.261,0,0,1,34.055,39.156ZM35.141,31.4a2.087,2.087,0,0,0-1.512.734,4.8,4.8,0,0,0-1.082,2.039h.094a6.378,6.378,0,0,0,2.73-.465,1.459,1.459,0,0,0,.949-1.348.913.913,0,0,0-.285-.687A1.255,1.255,0,0,0,35.141,31.4ZM43.8,39l1.156-5.406a7.126,7.126,0,0,0,.156-1.125,1.109,1.109,0,0,0-.277-.789,1.164,1.164,0,0,0-.887-.3,2.316,2.316,0,0,0-1.355.469,4.171,4.171,0,0,0-1.164,1.336,7.029,7.029,0,0,0-.762,2.1L39.875,39H38.563l1.828-8.562h1.086L41.3,32.023h.078a5.219,5.219,0,0,1,1.449-1.348,2.911,2.911,0,0,1,1.449-.395,2.187,2.187,0,0,1,1.566.543,1.99,1.99,0,0,1,.574,1.52,6.413,6.413,0,0,1-.18,1.406L45.125,39Zm7.492.156a2.907,2.907,0,0,1-3.187-3.2,7.108,7.108,0,0,1,.578-2.883,4.894,4.894,0,0,1,1.6-2.059,3.815,3.815,0,0,1,2.293-.738,5.725,5.725,0,0,1,2.094.4l-.367,1.1a4.42,4.42,0,0,0-1.711-.4,2.449,2.449,0,0,0-1.6.6,3.936,3.936,0,0,0-1.133,1.664,6.4,6.4,0,0,0-.41,2.316,2.187,2.187,0,0,0,.52,1.555,1.869,1.869,0,0,0,1.434.555,3.542,3.542,0,0,0,1.063-.156,9.742,9.742,0,0,0,.984-.367v1.117A4.691,4.691,0,0,1,51.289,39.156ZM56.313,39H55l1.828-8.562h1.313ZM57.2,28.25a1.027,1.027,0,0,1,.25-.715.833.833,0,0,1,.648-.277.615.615,0,0,1,.688.7,1.06,1.06,0,0,1-.262.727.788.788,0,0,1-.605.3.722.722,0,0,1-.516-.191A.71.71,0,0,1,57.2,28.25Zm6.43,2.078a3.127,3.127,0,0,1,2.344.879,3.31,3.31,0,0,1,.859,2.418,6.93,6.93,0,0,1-.562,2.773,4.8,4.8,0,0,1-1.523,2.016,3.56,3.56,0,0,1-2.172.711,3.114,3.114,0,0,1-2.352-.883,3.331,3.331,0,0,1-.852-2.414,6.914,6.914,0,0,1,.57-2.793,4.734,4.734,0,0,1,1.539-2.008A3.587,3.587,0,0,1,63.625,30.328Zm1.844,3.117a2.134,2.134,0,0,0-.488-1.457,1.669,1.669,0,0,0-1.324-.559,2.287,2.287,0,0,0-1.527.578,3.721,3.721,0,0,0-1.047,1.605,6.688,6.688,0,0,0-.371,2.285,2.3,2.3,0,0,0,.5,1.582,1.807,1.807,0,0,0,1.426.559,2.154,2.154,0,0,0,1.461-.57,3.725,3.725,0,0,0,1.012-1.621A7.335,7.335,0,0,0,65.469,33.445ZM73.273,39l1.156-5.406a7.126,7.126,0,0,0,.156-1.125,1.109,1.109,0,0,0-.277-.789,1.164,1.164,0,0,0-.887-.3,2.316,2.316,0,0,0-1.355.469A4.171,4.171,0,0,0,70.9,33.188a7.029,7.029,0,0,0-.762,2.1L69.352,39H68.039l1.828-8.562h1.086l-.172,1.586h.078a5.219,5.219,0,0,1,1.449-1.348,2.911,2.911,0,0,1,1.449-.395,2.187,2.187,0,0,1,1.566.543,1.99,1.99,0,0,1,.574,1.52,6.413,6.413,0,0,1-.18,1.406L74.6,39Zm3.969-3.664.273-1.234h3.742l-.266,1.234Zm10.3,1.234a2.29,2.29,0,0,1-.863,1.9,3.834,3.834,0,0,1-2.434.684,5.191,5.191,0,0,1-2.383-.539V37.383a4.864,4.864,0,0,0,1.18.508,4.31,4.31,0,0,0,1.172.18A2.382,2.382,0,0,0,85.7,37.68a1.215,1.215,0,0,0,.5-1,1.082,1.082,0,0,0-.273-.75,5.51,5.51,0,0,0-1.18-.836,4.752,4.752,0,0,1-1.437-1.117,2.061,2.061,0,0,1-.422-1.3,2.155,2.155,0,0,1,.789-1.738,3.132,3.132,0,0,1,2.078-.66,6.043,6.043,0,0,1,2.578.578l-.422,1.07-.437-.2a4.342,4.342,0,0,0-1.719-.336,1.747,1.747,0,0,0-1.141.34,1.146,1.146,0,0,0-.137,1.629,4.894,4.894,0,0,0,1.145.8,6.655,6.655,0,0,1,1.2.8,2.323,2.323,0,0,1,.543.723A2.043,2.043,0,0,1,87.547,36.57Zm6.852,0a2.29,2.29,0,0,1-.863,1.9,3.834,3.834,0,0,1-2.434.684,5.191,5.191,0,0,1-2.383-.539V37.383a4.864,4.864,0,0,0,1.18.508,4.31,4.31,0,0,0,1.172.18,2.382,2.382,0,0,0,1.484-.391,1.215,1.215,0,0,0,.5-1,1.082,1.082,0,0,0-.273-.75,5.51,5.51,0,0,0-1.18-.836,4.752,4.752,0,0,1-1.437-1.117,2.061,2.061,0,0,1-.422-1.3,2.155,2.155,0,0,1,.789-1.738,3.132,3.132,0,0,1,2.078-.66,6.043,6.043,0,0,1,2.578.578l-.422,1.07-.437-.2a4.342,4.342,0,0,0-1.719-.336,1.747,1.747,0,0,0-1.141.34,1.146,1.146,0,0,0-.137,1.629,4.894,4.894,0,0,0,1.145.8,6.655,6.655,0,0,1,1.2.8,2.323,2.323,0,0,1,.543.723A2.043,2.043,0,0,1,94.4,36.57Zm4.2,1.516a4.227,4.227,0,0,0,1.125-.2v1.008a3.6,3.6,0,0,1-.656.188,3.361,3.361,0,0,1-.625.078,2.172,2.172,0,0,1-1.5-.465,1.765,1.765,0,0,1-.52-1.387,5.66,5.66,0,0,1,.141-1.172l.992-4.7H96.211l.109-.57,1.445-.609.977-1.781h.766l-.43,1.969h2.141l-.2.992H98.883l-1.008,4.719a5.558,5.558,0,0,0-.141,1.031.928.928,0,0,0,.227.672A.839.839,0,0,0,98.594,38.086Zm2.531-2.75L101.4,34.1h3.742l-.266,1.234Zm9.555-5.055a2.208,2.208,0,0,1,1.281.387,2.513,2.513,0,0,1,.875,1.113h.086l.523-1.344h.992L112.617,39h-1.039l.2-1.633h-.062a3.853,3.853,0,0,1-2.945,1.789,2.059,2.059,0,0,1-1.7-.773,3.305,3.305,0,0,1-.617-2.117,8.066,8.066,0,0,1,.555-3.016,5.21,5.21,0,0,1,1.531-2.18A3.331,3.331,0,0,1,110.68,30.281ZM109.2,38.07a2.2,2.2,0,0,0,1.508-.723,5.355,5.355,0,0,0,1.219-1.883,6.162,6.162,0,0,0,.469-2.324,1.821,1.821,0,0,0-.437-1.281,1.486,1.486,0,0,0-1.148-.477,2.151,2.151,0,0,0-1.512.672,4.533,4.533,0,0,0-1.1,1.82,7.336,7.336,0,0,0-.4,2.422,2.048,2.048,0,0,0,.367,1.332A1.267,1.267,0,0,0,109.2,38.07Zm14.125-7.633-.2.836-1.648.188a2.2,2.2,0,0,1,.32,1.234,3.169,3.169,0,0,1-.91,2.379,3.338,3.338,0,0,1-2.434.887,2.618,2.618,0,0,1-.656-.062q-1.086.414-1.086,1.023a.414.414,0,0,0,.258.426,3.118,3.118,0,0,0,.75.168l.914.109a4.071,4.071,0,0,1,2.051.688,1.835,1.835,0,0,1,.637,1.516,2.551,2.551,0,0,1-1.141,2.227,5.594,5.594,0,0,1-3.211.789,4.237,4.237,0,0,1-2.375-.574,1.839,1.839,0,0,1-.859-1.621,2.012,2.012,0,0,1,.563-1.422,4.38,4.38,0,0,1,1.82-1.023,1.018,1.018,0,0,1-.609-.945,1.245,1.245,0,0,1,.4-.926,4.107,4.107,0,0,1,1.109-.723,2.054,2.054,0,0,1-1.117-1.875,3.433,3.433,0,0,1,.934-2.484,3.17,3.17,0,0,1,2.387-.969,4.708,4.708,0,0,1,1.2.156ZM115,40.523a1.1,1.1,0,0,0,.508.953,2.654,2.654,0,0,0,1.508.352,4.215,4.215,0,0,0,2.223-.5,1.563,1.563,0,0,0,.8-1.4.876.876,0,0,0-.422-.766,3.385,3.385,0,0,0-1.437-.391l-1.242-.125a2.819,2.819,0,0,0-1.437.688A1.606,1.606,0,0,0,115,40.523Zm2.172-6.836a1.361,1.361,0,0,0,.352,1.012,1.329,1.329,0,0,0,.977.348,1.811,1.811,0,0,0,1.078-.328,2.086,2.086,0,0,0,.707-.9,3.13,3.13,0,0,0,.246-1.246,1.3,1.3,0,0,0-.344-.977,1.351,1.351,0,0,0-.984-.336,1.827,1.827,0,0,0-1.066.316,2.077,2.077,0,0,0-.711.883A2.973,2.973,0,0,0,117.172,33.688Zm11.445-3.406a3.565,3.565,0,0,1,.938.109l-.281,1.172a3.434,3.434,0,0,0-.82-.1,2.17,2.17,0,0,0-1.332.469,4.1,4.1,0,0,0-1.086,1.3,6.623,6.623,0,0,0-.684,1.848L124.516,39H123.2l1.828-8.562h1.086l-.172,1.586h.078a7.677,7.677,0,0,1,.93-1.066,2.948,2.948,0,0,1,.77-.5A2.211,2.211,0,0,1,128.617,30.281ZM130.852,39h-1.312l1.828-8.562h1.313Zm.883-10.75a1.027,1.027,0,0,1,.25-.715.833.833,0,0,1,.648-.277.615.615,0,0,1,.688.7,1.06,1.06,0,0,1-.262.727.788.788,0,0,1-.605.3.722.722,0,0,1-.516-.191A.71.71,0,0,1,131.734,28.25Zm5.359,10.906a2.907,2.907,0,0,1-3.187-3.2,7.108,7.108,0,0,1,.578-2.883,4.894,4.894,0,0,1,1.6-2.059,3.815,3.815,0,0,1,2.293-.738,5.725,5.725,0,0,1,2.094.4l-.367,1.1a4.42,4.42,0,0,0-1.711-.4,2.449,2.449,0,0,0-1.6.6,3.936,3.936,0,0,0-1.133,1.664,6.4,6.4,0,0,0-.41,2.316,2.187,2.187,0,0,0,.52,1.555,1.869,1.869,0,0,0,1.434.555,3.542,3.542,0,0,0,1.063-.156,9.742,9.742,0,0,0,.984-.367v1.117A4.691,4.691,0,0,1,137.094,39.156Zm6.773-8.719-1.172,5.43a5.861,5.861,0,0,0-.141,1.086A1,1,0,0,0,143.7,38.07a2.323,2.323,0,0,0,1.352-.469,4.166,4.166,0,0,0,1.172-1.344A7.209,7.209,0,0,0,147,34.148l.781-3.711h1.3L147.273,39h-1.086l.172-1.586h-.094a5.13,5.13,0,0,1-1.461,1.359,2.944,2.944,0,0,1-1.437.383,2.184,2.184,0,0,1-1.57-.543,2.04,2.04,0,0,1-.57-1.551,7.325,7.325,0,0,1,.172-1.344l1.141-5.281ZM151.336,39h-1.312l2.594-12.156h1.313Zm5.391-.914a4.227,4.227,0,0,0,1.125-.2v1.008a3.6,3.6,0,0,1-.656.188,3.361,3.361,0,0,1-.625.078,2.172,2.172,0,0,1-1.5-.465,1.765,1.765,0,0,1-.52-1.387,5.66,5.66,0,0,1,.141-1.172l.992-4.7h-1.344l.109-.57,1.445-.609.977-1.781h.766l-.43,1.969h2.141l-.2.992h-2.133l-1.008,4.719a5.558,5.558,0,0,0-.141,1.031.928.928,0,0,0,.227.672A.839.839,0,0,0,156.727,38.086Zm5.625-7.648-1.172,5.43a5.861,5.861,0,0,0-.141,1.086,1,1,0,0,0,1.148,1.117,2.323,2.323,0,0,0,1.352-.469,4.166,4.166,0,0,0,1.172-1.344,7.209,7.209,0,0,0,.773-2.109l.781-3.711h1.3L165.758,39h-1.086l.172-1.586h-.094a5.13,5.13,0,0,1-1.461,1.359,2.944,2.944,0,0,1-1.437.383,2.184,2.184,0,0,1-1.57-.543,2.04,2.04,0,0,1-.57-1.551,7.325,7.325,0,0,1,.172-1.344l1.141-5.281Zm11.586-.156a3.565,3.565,0,0,1,.938.109l-.281,1.172a3.434,3.434,0,0,0-.82-.1,2.17,2.17,0,0,0-1.332.469,4.1,4.1,0,0,0-1.086,1.3,6.623,6.623,0,0,0-.684,1.848L169.836,39h-1.312l1.828-8.562h1.086l-.172,1.586h.078a7.676,7.676,0,0,1,.93-1.066,2.948,2.948,0,0,1,.77-.5A2.211,2.211,0,0,1,173.938,30.281Zm5.133,0a2.208,2.208,0,0,1,1.281.387,2.513,2.513,0,0,1,.875,1.113h.086l.523-1.344h.992L181.008,39h-1.039l.2-1.633h-.062a3.853,3.853,0,0,1-2.945,1.789,2.059,2.059,0,0,1-1.7-.773,3.305,3.305,0,0,1-.617-2.117,8.065,8.065,0,0,1,.555-3.016,5.21,5.21,0,0,1,1.531-2.18A3.331,3.331,0,0,1,179.07,30.281Zm-1.484,7.789a2.2,2.2,0,0,0,1.508-.723,5.355,5.355,0,0,0,1.219-1.883,6.162,6.162,0,0,0,.469-2.324,1.821,1.821,0,0,0-.437-1.281,1.486,1.486,0,0,0-1.148-.477,2.151,2.151,0,0,0-1.512.672,4.533,4.533,0,0,0-1.1,1.82,7.336,7.336,0,0,0-.4,2.422,2.048,2.048,0,0,0,.367,1.332A1.267,1.267,0,0,0,177.586,38.07Zm5.867.352a1.387,1.387,0,0,1,.316-.957,1.106,1.106,0,0,1,.871-.355.742.742,0,0,1,.543.2.83.83,0,0,1,.207.617,1.388,1.388,0,0,1-.312.926,1.046,1.046,0,0,1-.844.371.788.788,0,0,1-.57-.2A.8.8,0,0,1,183.453,38.422Zm7.969.734a2.293,2.293,0,0,1-1.328-.391,2.537,2.537,0,0,1-.883-1.094h-.078l-.031.3q-.023.2-.082.547t-.895,4.328h-1.3l2.625-12.406h1.086l-.2,1.633h.063A3.837,3.837,0,0,1,193.3,30.3a2.055,2.055,0,0,1,1.688.762,3.309,3.309,0,0,1,.617,2.137,8.3,8.3,0,0,1-.539,3.039,5.046,5.046,0,0,1-1.492,2.152A3.341,3.341,0,0,1,191.422,39.156Zm1.453-7.773a2.26,2.26,0,0,0-1.527.742,5.292,5.292,0,0,0-1.234,1.867,6.071,6.071,0,0,0-.457,2.3,1.84,1.84,0,0,0,.434,1.316,1.647,1.647,0,0,0,1.254.457,2.066,2.066,0,0,0,1.441-.633,4.443,4.443,0,0,0,1.074-1.8,7.5,7.5,0,0,0,.406-2.48Q194.266,31.383,192.875,31.383Zm8.516-1.086a2.279,2.279,0,0,1,2.2,1.484h.078a18,18,0,0,1,.352-2.141l.609-2.8h1.3L203.344,39h-1.086l.172-1.633h-.062a5.866,5.866,0,0,1-1.477,1.383,2.759,2.759,0,0,1-1.422.406,2.045,2.045,0,0,1-1.7-.766,3.329,3.329,0,0,1-.609-2.125,8.094,8.094,0,0,1,.563-3.062,5.107,5.107,0,0,1,1.52-2.148A3.368,3.368,0,0,1,201.391,30.3Zm-1.484,7.773a2.276,2.276,0,0,0,1.516-.73,5.129,5.129,0,0,0,1.238-1.867,6.16,6.16,0,0,0,.457-2.316,1.87,1.87,0,0,0-.422-1.32,1.594,1.594,0,0,0-1.227-.453,2.09,2.09,0,0,0-1.465.645,4.531,4.531,0,0,0-1.086,1.813,7.361,7.361,0,0,0-.41,2.457Q198.508,38.07,199.906,38.07Zm4.914,4.773a2.764,2.764,0,0,1-.977-.164v-1.1a2.748,2.748,0,0,0,.875.172,1.032,1.032,0,0,0,.914-.484,4.137,4.137,0,0,0,.516-1.383l1.773-8.453h-1.508l.1-.523,1.609-.516.18-.781a4.629,4.629,0,0,1,1-2.207,2.541,2.541,0,0,1,1.887-.645,4.05,4.05,0,0,1,.766.09,3.55,3.55,0,0,1,.7.2l-.336,1.008a3.04,3.04,0,0,0-1.07-.227,1.377,1.377,0,0,0-1.043.379,3.009,3.009,0,0,0-.59,1.387l-.2.844h1.859l-.2.992h-1.852l-1.812,8.578a4.475,4.475,0,0,1-.937,2.156A2.167,2.167,0,0,1,204.82,42.844Z" transform="translate(2093.187 9059.202)" fill="#006bd9"/>
  </g>
</svg>
