<svg xmlns="http://www.w3.org/2000/svg" width="629.274" height="36" viewBox="0 0 629.274 36">
  <g id="Grupo_3967" data-name="Grupo 3967" transform="translate(-2048.006 -7565.418)">
    <g id="Grupo_3964" data-name="Grupo 3964" transform="translate(31 256)">
      <circle id="Elipse_62" data-name="Elipse 62" cx="18" cy="18" r="18" transform="translate(2017.006 7309.418)" fill="#98bd11" opacity="0.8"/>
      <g id="Grupo_1981" data-name="Grupo 1981">
        <path id="Trazado_8991" data-name="Trazado 8991" d="M2022.594,7323.093a13.142,13.142,0,0,0,0,8.649.9.9,0,0,0,.041.119,13.144,13.144,0,0,0,24.742,0,.767.767,0,0,0,.042-.119,13.142,13.142,0,0,0,0-8.649.979.979,0,0,0-.042-.118,13.144,13.144,0,0,0-24.742,0,1,1,0,0,0-.041.118Zm12.412-6.936c.5,0,1.308.906,1.983,2.93a20.74,20.74,0,0,1,.776,3.321h-5.517a20.634,20.634,0,0,1,.776-3.321c.675-2.024,1.482-2.93,1.982-2.93Zm2.987,8.136c.091,1,.139,2.052.139,3.125s-.048,2.121-.139,3.125h-5.974c-.09-1-.138-2.052-.138-3.125s.048-2.121.138-3.125Zm8.274,3.125a11.193,11.193,0,0,1-.442,3.125h-5.942c.089-1.025.133-2.076.133-3.125s-.044-2.1-.133-3.125h5.942a11.2,11.2,0,0,1,.442,3.125Zm-11.261,11.26c-.5,0-1.307-.906-1.982-2.93a20.578,20.578,0,0,1-.776-3.32h5.517a20.708,20.708,0,0,1-.776,3.32c-.675,2.024-1.482,2.93-1.983,2.93Zm-4.877-8.135h-5.941a11.268,11.268,0,0,1,0-6.25h5.941c-.088,1.025-.132,2.076-.132,3.125s.044,2.1.132,3.125Zm-5.205,1.885h5.421a18.121,18.121,0,0,0,1.717,5.859,11.31,11.31,0,0,1-7.138-5.859Zm13.027,5.859a18.1,18.1,0,0,0,1.716-5.859h5.422a11.315,11.315,0,0,1-7.138,5.859Zm7.138-15.879h-5.422a18.1,18.1,0,0,0-1.716-5.859,11.314,11.314,0,0,1,7.138,5.859Zm-13.027-5.859a18.12,18.12,0,0,0-1.717,5.859h-5.421a11.309,11.309,0,0,1,7.138-5.859Zm0,0" fill="#fff"/>
      </g>
    </g>
    <path id="Trazado_17247" data-name="Trazado 17247" d="M5.7,17l1.156-5.406a6.426,6.426,0,0,0,.141-1.055A1.019,1.019,0,0,0,5.844,9.383a2.342,2.342,0,0,0-1.355.461,4.052,4.052,0,0,0-1.164,1.34A7.187,7.187,0,0,0,2.563,13.3L1.773,17H.461L3.039,4.844H4.352q-.141.641-.27,1.242T3.816,7.309q-.137.621-.3,1.3t-.371,1.477h.086A5.205,5.205,0,0,1,4.684,8.711,2.942,2.942,0,0,1,6.18,8.3a2.131,2.131,0,0,1,1.582.563,2.164,2.164,0,0,1,.559,1.594,6.349,6.349,0,0,1-.18,1.3q-.3,1.508-1.133,5.25Zm6.625-.914a4.227,4.227,0,0,0,1.125-.2v1.008a3.6,3.6,0,0,1-.656.188,3.361,3.361,0,0,1-.625.078,2.172,2.172,0,0,1-1.5-.465,1.765,1.765,0,0,1-.52-1.387,5.66,5.66,0,0,1,.141-1.172l.992-4.7H9.938l.109-.57,1.445-.609.977-1.781h.766L12.8,8.438h2.141l-.2.992H12.609L11.6,14.148a5.558,5.558,0,0,0-.141,1.031.928.928,0,0,0,.227.672A.839.839,0,0,0,12.32,16.086Zm5.188,0a4.227,4.227,0,0,0,1.125-.2v1.008a3.6,3.6,0,0,1-.656.188,3.361,3.361,0,0,1-.625.078,2.172,2.172,0,0,1-1.5-.465,1.765,1.765,0,0,1-.52-1.387,5.66,5.66,0,0,1,.141-1.172l.992-4.7H15.125l.109-.57L16.68,8.25l.977-1.781h.766l-.43,1.969h2.141l-.2.992H17.8l-1.008,4.719a5.558,5.558,0,0,0-.141,1.031.928.928,0,0,0,.227.672A.839.839,0,0,0,17.508,16.086Zm6.359,1.07a2.293,2.293,0,0,1-1.328-.391,2.537,2.537,0,0,1-.883-1.094h-.078l-.031.3q-.023.2-.082.547t-.895,4.328h-1.3L21.9,8.438h1.086l-.2,1.633h.063A3.837,3.837,0,0,1,25.75,8.3a2.055,2.055,0,0,1,1.688.762,3.309,3.309,0,0,1,.617,2.137,8.3,8.3,0,0,1-.539,3.039,5.046,5.046,0,0,1-1.492,2.152A3.341,3.341,0,0,1,23.867,17.156ZM25.32,9.383a2.26,2.26,0,0,0-1.527.742,5.292,5.292,0,0,0-1.234,1.867,6.071,6.071,0,0,0-.457,2.3,1.84,1.84,0,0,0,.434,1.316,1.647,1.647,0,0,0,1.254.457,2.066,2.066,0,0,0,1.441-.633,4.443,4.443,0,0,0,1.074-1.8,7.5,7.5,0,0,0,.406-2.48Q26.711,9.383,25.32,9.383Zm3.859,7.039a1.387,1.387,0,0,1,.316-.957,1.106,1.106,0,0,1,.871-.355.742.742,0,0,1,.543.2.83.83,0,0,1,.207.617,1.388,1.388,0,0,1-.312.926,1.046,1.046,0,0,1-.844.371.788.788,0,0,1-.57-.2A.8.8,0,0,1,29.18,16.422Zm1.25-6.891a1.4,1.4,0,0,1,.313-.957,1.094,1.094,0,0,1,.867-.355q.758,0,.758.813a1.349,1.349,0,0,1-.324.934,1.065,1.065,0,0,1-.832.363.779.779,0,0,1-.57-.207A.789.789,0,0,1,30.43,9.531Zm9.438-3.953L33.516,17H32.156L38.508,5.578Zm5.6,0L39.117,17H37.758L44.109,5.578ZM50.586,17l-.25-4.7q-.031-.734-.031-1.344V9.734h-.07l-.391.922L49.2,12.133,46.922,17H45.344l-.336-8.562h1.281l.141,4.641v.688q0,1.148-.062,2.1h.047q.367-.969,1.07-2.516l2.3-4.914h1.422l.289,4.641q.047,1.313.047,2.047v.414l-.016.328h.047q.219-.672.648-1.707T54.75,8.438h1.391L52.188,17Zm11.469,0-.25-4.7q-.031-.734-.031-1.344V9.734H61.7l-.391.922-.648,1.477L58.391,17H56.813l-.336-8.562h1.281l.141,4.641v.688q0,1.148-.062,2.1h.047q.367-.969,1.07-2.516l2.3-4.914H62.68l.289,4.641q.047,1.313.047,2.047v.414L63,15.867h.047q.219-.672.648-1.707t2.523-5.723h1.391L63.656,17Zm11.469,0-.25-4.7q-.031-.734-.031-1.344V9.734h-.07l-.391.922-.648,1.477L69.859,17H68.281l-.336-8.562h1.281l.141,4.641v.688q0,1.148-.062,2.1h.047q.367-.969,1.07-2.516l2.3-4.914h1.422l.289,4.641q.047,1.313.047,2.047v.414l-.016.328h.047q.219-.672.648-1.707t2.523-5.723h1.391L75.125,17Zm4.672-.578a1.387,1.387,0,0,1,.316-.957,1.106,1.106,0,0,1,.871-.355.742.742,0,0,1,.543.2.83.83,0,0,1,.207.617,1.388,1.388,0,0,1-.312.926,1.046,1.046,0,0,1-.844.371.788.788,0,0,1-.57-.2A.8.8,0,0,1,78.2,16.422Zm7.664.734a3.18,3.18,0,0,1-2.352-.836,3.191,3.191,0,0,1-.836-2.359,7.108,7.108,0,0,1,.578-2.883,4.894,4.894,0,0,1,1.6-2.059,3.815,3.815,0,0,1,2.293-.738,5.725,5.725,0,0,1,2.094.4l-.367,1.1a4.42,4.42,0,0,0-1.711-.4,2.449,2.449,0,0,0-1.6.6,3.936,3.936,0,0,0-1.133,1.664,6.4,6.4,0,0,0-.41,2.316,2.187,2.187,0,0,0,.52,1.555,1.869,1.869,0,0,0,1.434.555,3.542,3.542,0,0,0,1.063-.156,9.741,9.741,0,0,0,.984-.367v1.117A4.691,4.691,0,0,1,85.859,17.156ZM94.1,8.281a2.208,2.208,0,0,1,1.281.387,2.513,2.513,0,0,1,.875,1.113h.086l.523-1.344h.992L96.039,17H95l.2-1.633h-.062A3.853,3.853,0,0,1,92.2,17.156a2.059,2.059,0,0,1-1.7-.773,3.305,3.305,0,0,1-.617-2.117,8.066,8.066,0,0,1,.555-3.016,5.21,5.21,0,0,1,1.531-2.18A3.331,3.331,0,0,1,94.1,8.281ZM92.617,16.07a2.2,2.2,0,0,0,1.508-.723,5.355,5.355,0,0,0,1.219-1.883,6.162,6.162,0,0,0,.469-2.324,1.821,1.821,0,0,0-.437-1.281,1.486,1.486,0,0,0-1.148-.477,2.151,2.151,0,0,0-1.512.672,4.533,4.533,0,0,0-1.1,1.82,7.336,7.336,0,0,0-.4,2.422,2.048,2.048,0,0,0,.367,1.332A1.267,1.267,0,0,0,92.617,16.07Zm11.227.93L105,11.594a7.126,7.126,0,0,0,.156-1.125,1.109,1.109,0,0,0-.277-.789,1.164,1.164,0,0,0-.887-.3,2.316,2.316,0,0,0-1.355.469,4.171,4.171,0,0,0-1.164,1.336,7.029,7.029,0,0,0-.762,2.1L99.922,17H98.609l1.828-8.562h1.086l-.172,1.586h.078a5.219,5.219,0,0,1,1.449-1.348,2.911,2.911,0,0,1,1.449-.395,2.187,2.187,0,0,1,1.566.543,1.99,1.99,0,0,1,.574,1.52,6.413,6.413,0,0,1-.18,1.406L105.172,17Zm7.063-8.562-1.172,5.43a5.861,5.861,0,0,0-.141,1.086,1,1,0,0,0,1.148,1.117,2.323,2.323,0,0,0,1.352-.469,4.166,4.166,0,0,0,1.172-1.344,7.21,7.21,0,0,0,.773-2.109l.781-3.711h1.3L114.313,17h-1.086l.172-1.586H113.3a5.13,5.13,0,0,1-1.461,1.359,2.944,2.944,0,0,1-1.437.383,2.184,2.184,0,0,1-1.57-.543,2.04,2.04,0,0,1-.57-1.551,7.324,7.324,0,0,1,.172-1.344l1.141-5.281ZM122.313,17l1.156-5.406a7.126,7.126,0,0,0,.156-1.125,1.109,1.109,0,0,0-.277-.789,1.164,1.164,0,0,0-.887-.3,2.316,2.316,0,0,0-1.355.469,4.171,4.171,0,0,0-1.164,1.336,7.029,7.029,0,0,0-.762,2.1L118.391,17h-1.312l1.828-8.562h1.086l-.172,1.586h.078a5.219,5.219,0,0,1,1.449-1.348,2.911,2.911,0,0,1,1.449-.395,2.187,2.187,0,0,1,1.566.543,1.99,1.99,0,0,1,.574,1.52,6.413,6.413,0,0,1-.18,1.406L123.641,17Zm5.313,0h-1.312l1.828-8.562h1.313Zm.883-10.75a1.027,1.027,0,0,1,.25-.715.833.833,0,0,1,.648-.277.615.615,0,0,1,.688.7,1.06,1.06,0,0,1-.262.727.788.788,0,0,1-.605.3.722.722,0,0,1-.516-.191A.71.71,0,0,1,128.508,6.25ZM133,16.086a4.227,4.227,0,0,0,1.125-.2v1.008a3.6,3.6,0,0,1-.656.188,3.361,3.361,0,0,1-.625.078,2.172,2.172,0,0,1-1.5-.465,1.765,1.765,0,0,1-.52-1.387,5.66,5.66,0,0,1,.141-1.172l.992-4.7h-1.344l.109-.57,1.445-.609.977-1.781h.766l-.43,1.969h2.141l-.2.992h-2.133l-1.008,4.719a5.558,5.558,0,0,0-.141,1.031.928.928,0,0,0,.227.672A.839.839,0,0,0,133,16.086Zm5.945,1.07a2.988,2.988,0,0,1-2.258-.852,3.26,3.26,0,0,1-.82-2.359,7.031,7.031,0,0,1,.582-2.816,5.212,5.212,0,0,1,1.543-2.1,3.363,3.363,0,0,1,2.117-.75,2.685,2.685,0,0,1,1.8.52,1.813,1.813,0,0,1,.6,1.449,2.476,2.476,0,0,1-1.3,2.207,7.1,7.1,0,0,1-3.711.8h-.258l-.031.625a2.418,2.418,0,0,0,.48,1.6,1.832,1.832,0,0,0,1.488.574,3.864,3.864,0,0,0,1.012-.141,7.746,7.746,0,0,0,1.293-.516v1.141a7.081,7.081,0,0,1-1.3.48A5.261,5.261,0,0,1,138.945,17.156ZM140.031,9.4a2.087,2.087,0,0,0-1.512.734,4.8,4.8,0,0,0-1.082,2.039h.094a6.378,6.378,0,0,0,2.73-.465,1.459,1.459,0,0,0,.949-1.348.913.913,0,0,0-.285-.687A1.255,1.255,0,0,0,140.031,9.4Zm3.3,7.023a1.387,1.387,0,0,1,.316-.957,1.106,1.106,0,0,1,.871-.355.742.742,0,0,1,.543.2.83.83,0,0,1,.207.617,1.388,1.388,0,0,1-.312.926,1.046,1.046,0,0,1-.844.371.788.788,0,0,1-.57-.2A.8.8,0,0,1,143.328,16.422Zm8.734-8.094a3.127,3.127,0,0,1,2.344.879,3.31,3.31,0,0,1,.859,2.418A6.93,6.93,0,0,1,154.7,14.4a4.8,4.8,0,0,1-1.523,2.016,3.56,3.56,0,0,1-2.172.711,3.114,3.114,0,0,1-2.352-.883,3.331,3.331,0,0,1-.852-2.414,6.914,6.914,0,0,1,.57-2.793,4.734,4.734,0,0,1,1.539-2.008A3.587,3.587,0,0,1,152.063,8.328Zm1.844,3.117a2.134,2.134,0,0,0-.488-1.457,1.669,1.669,0,0,0-1.324-.559,2.287,2.287,0,0,0-1.527.578,3.721,3.721,0,0,0-1.047,1.605,6.688,6.688,0,0,0-.371,2.285,2.3,2.3,0,0,0,.5,1.582,1.807,1.807,0,0,0,1.426.559,2.154,2.154,0,0,0,1.461-.57,3.725,3.725,0,0,0,1.012-1.621A7.335,7.335,0,0,0,153.906,11.445Zm7.984-3.164a3.565,3.565,0,0,1,.938.109l-.281,1.172a3.434,3.434,0,0,0-.82-.1,2.17,2.17,0,0,0-1.332.469,4.1,4.1,0,0,0-1.086,1.3,6.623,6.623,0,0,0-.684,1.848L157.789,17h-1.312L158.3,8.438h1.086l-.172,1.586h.078a7.676,7.676,0,0,1,.93-1.066,2.948,2.948,0,0,1,.77-.5A2.211,2.211,0,0,1,161.891,8.281Zm8.9.156-.2.836-1.648.188a2.2,2.2,0,0,1,.32,1.234,3.169,3.169,0,0,1-.91,2.379,3.338,3.338,0,0,1-2.434.887,2.618,2.618,0,0,1-.656-.062q-1.086.414-1.086,1.023a.414.414,0,0,0,.258.426,3.118,3.118,0,0,0,.75.168l.914.109a4.071,4.071,0,0,1,2.051.688,1.835,1.835,0,0,1,.637,1.516,2.551,2.551,0,0,1-1.141,2.227,5.594,5.594,0,0,1-3.211.789,4.237,4.237,0,0,1-2.375-.574,1.839,1.839,0,0,1-.859-1.621,2.012,2.012,0,0,1,.563-1.422,4.38,4.38,0,0,1,1.82-1.023,1.018,1.018,0,0,1-.609-.945,1.245,1.245,0,0,1,.4-.926,4.108,4.108,0,0,1,1.109-.723,2.054,2.054,0,0,1-1.117-1.875A3.433,3.433,0,0,1,164.3,9.25a3.17,3.17,0,0,1,2.387-.969,4.708,4.708,0,0,1,1.2.156Zm-8.32,10.086a1.1,1.1,0,0,0,.508.953,2.654,2.654,0,0,0,1.508.352,4.215,4.215,0,0,0,2.223-.5,1.563,1.563,0,0,0,.8-1.4.876.876,0,0,0-.422-.766,3.385,3.385,0,0,0-1.437-.391l-1.242-.125a2.819,2.819,0,0,0-1.437.688A1.606,1.606,0,0,0,162.469,18.523Zm2.172-6.836a1.361,1.361,0,0,0,.352,1.012,1.329,1.329,0,0,0,.977.348,1.811,1.811,0,0,0,1.078-.328,2.086,2.086,0,0,0,.707-.9A3.13,3.13,0,0,0,168,10.57a1.3,1.3,0,0,0-.344-.977,1.351,1.351,0,0,0-.984-.336,1.827,1.827,0,0,0-1.066.316,2.077,2.077,0,0,0-.711.883A2.973,2.973,0,0,0,164.641,11.688Zm12.547-6.109L170.836,17h-1.359l6.352-11.422ZM182.3,17l-.25-4.7q-.031-.734-.031-1.344V9.734h-.07l-.391.922-.648,1.477L178.641,17h-1.578l-.336-8.562h1.281l.141,4.641v.688q0,1.148-.062,2.1h.047q.367-.969,1.07-2.516l2.3-4.914h1.422l.289,4.641q.047,1.313.047,2.047v.414l-.016.328h.047q.219-.672.648-1.707t2.523-5.723h1.391L183.906,17Zm9.234.156a2.293,2.293,0,0,1-1.328-.391,2.537,2.537,0,0,1-.883-1.094h-.078l-.031.3q-.023.2-.082.547t-.895,4.328h-1.3L189.57,8.438h1.086l-.2,1.633h.063A3.837,3.837,0,0,1,193.422,8.3a2.055,2.055,0,0,1,1.688.762,3.309,3.309,0,0,1,.617,2.137,8.3,8.3,0,0,1-.539,3.039,5.046,5.046,0,0,1-1.492,2.152A3.341,3.341,0,0,1,191.539,17.156Zm1.453-7.773a2.26,2.26,0,0,0-1.527.742,5.292,5.292,0,0,0-1.234,1.867,6.071,6.071,0,0,0-.457,2.3,1.84,1.84,0,0,0,.434,1.316,1.647,1.647,0,0,0,1.254.457,2.066,2.066,0,0,0,1.441-.633,4.443,4.443,0,0,0,1.074-1.8,7.5,7.5,0,0,0,.406-2.48Q194.383,9.383,192.992,9.383Zm3.953,3.953.273-1.234h3.742l-.266,1.234Zm8.516,3.82a3.18,3.18,0,0,1-2.352-.836,3.191,3.191,0,0,1-.836-2.359,7.108,7.108,0,0,1,.578-2.883,4.894,4.894,0,0,1,1.6-2.059,3.815,3.815,0,0,1,2.293-.738,5.725,5.725,0,0,1,2.094.4l-.367,1.1a4.42,4.42,0,0,0-1.711-.4,2.449,2.449,0,0,0-1.6.6,3.936,3.936,0,0,0-1.133,1.664,6.4,6.4,0,0,0-.41,2.316,2.187,2.187,0,0,0,.52,1.555,1.869,1.869,0,0,0,1.434.555,3.542,3.542,0,0,0,1.063-.156,9.742,9.742,0,0,0,.984-.367v1.117A4.691,4.691,0,0,1,205.461,17.156Zm8.273-8.828a3.127,3.127,0,0,1,2.344.879,3.31,3.31,0,0,1,.859,2.418,6.93,6.93,0,0,1-.562,2.773,4.8,4.8,0,0,1-1.523,2.016,3.56,3.56,0,0,1-2.172.711,3.114,3.114,0,0,1-2.352-.883,3.331,3.331,0,0,1-.852-2.414,6.914,6.914,0,0,1,.57-2.793,4.734,4.734,0,0,1,1.539-2.008A3.587,3.587,0,0,1,213.734,8.328Zm1.844,3.117a2.134,2.134,0,0,0-.488-1.457,1.669,1.669,0,0,0-1.324-.559,2.287,2.287,0,0,0-1.527.578,3.721,3.721,0,0,0-1.047,1.605,6.688,6.688,0,0,0-.371,2.285,2.3,2.3,0,0,0,.5,1.582,1.807,1.807,0,0,0,1.426.559,2.154,2.154,0,0,0,1.461-.57,3.725,3.725,0,0,0,1.012-1.621A7.335,7.335,0,0,0,215.578,11.445Zm7.8,5.555,1.156-5.406a7.125,7.125,0,0,0,.156-1.125,1.109,1.109,0,0,0-.277-.789,1.164,1.164,0,0,0-.887-.3,2.316,2.316,0,0,0-1.355.469,4.171,4.171,0,0,0-1.164,1.336,7.029,7.029,0,0,0-.762,2.1L219.461,17h-1.312l1.828-8.562h1.086l-.172,1.586h.078a5.219,5.219,0,0,1,1.449-1.348,2.911,2.911,0,0,1,1.449-.395,2.187,2.187,0,0,1,1.566.543,1.99,1.99,0,0,1,.574,1.52,6.413,6.413,0,0,1-.18,1.406L224.711,17Zm6.625-.914a4.227,4.227,0,0,0,1.125-.2v1.008a3.6,3.6,0,0,1-.656.188,3.361,3.361,0,0,1-.625.078,2.172,2.172,0,0,1-1.5-.465,1.765,1.765,0,0,1-.52-1.387,5.66,5.66,0,0,1,.141-1.172l.992-4.7h-1.344l.109-.57,1.445-.609.977-1.781h.766l-.43,1.969h2.141l-.2.992H230.3l-1.008,4.719a5.558,5.558,0,0,0-.141,1.031.928.928,0,0,0,.227.672A.839.839,0,0,0,230.008,16.086Zm5.945,1.07A2.988,2.988,0,0,1,233.7,16.3a3.26,3.26,0,0,1-.82-2.359,7.031,7.031,0,0,1,.582-2.816A5.212,5.212,0,0,1,235,9.031a3.363,3.363,0,0,1,2.117-.75,2.685,2.685,0,0,1,1.8.52,1.813,1.813,0,0,1,.6,1.449,2.476,2.476,0,0,1-1.3,2.207,7.1,7.1,0,0,1-3.711.8h-.258l-.031.625a2.418,2.418,0,0,0,.48,1.6,1.832,1.832,0,0,0,1.488.574,3.864,3.864,0,0,0,1.012-.141,7.746,7.746,0,0,0,1.293-.516v1.141a7.081,7.081,0,0,1-1.3.48A5.261,5.261,0,0,1,235.953,17.156ZM237.039,9.4a2.087,2.087,0,0,0-1.512.734,4.8,4.8,0,0,0-1.082,2.039h.094a6.378,6.378,0,0,0,2.73-.465,1.459,1.459,0,0,0,.949-1.348.913.913,0,0,0-.285-.687A1.255,1.255,0,0,0,237.039,9.4ZM245.7,17l1.156-5.406a7.125,7.125,0,0,0,.156-1.125,1.109,1.109,0,0,0-.277-.789,1.164,1.164,0,0,0-.887-.3,2.316,2.316,0,0,0-1.355.469,4.171,4.171,0,0,0-1.164,1.336,7.029,7.029,0,0,0-.762,2.1L241.773,17h-1.312l1.828-8.562h1.086l-.172,1.586h.078a5.219,5.219,0,0,1,1.449-1.348,2.911,2.911,0,0,1,1.449-.395,2.187,2.187,0,0,1,1.566.543,1.99,1.99,0,0,1,.574,1.52,6.413,6.413,0,0,1-.18,1.406L247.023,17Zm6.625-.914a4.227,4.227,0,0,0,1.125-.2v1.008a3.6,3.6,0,0,1-.656.188,3.361,3.361,0,0,1-.625.078,2.172,2.172,0,0,1-1.5-.465,1.765,1.765,0,0,1-.52-1.387,5.66,5.66,0,0,1,.141-1.172l.992-4.7h-1.344l.109-.57,1.445-.609.977-1.781h.766l-.43,1.969h2.141l-.2.992h-2.133L251.6,14.148a5.558,5.558,0,0,0-.141,1.031.928.928,0,0,0,.227.672A.839.839,0,0,0,252.32,16.086ZM261.4,5.578,255.047,17h-1.359l6.352-11.422Zm2.148,2.859-1.172,5.43a5.861,5.861,0,0,0-.141,1.086,1,1,0,0,0,1.148,1.117,2.323,2.323,0,0,0,1.352-.469,4.166,4.166,0,0,0,1.172-1.344,7.21,7.21,0,0,0,.773-2.109l.781-3.711h1.3L266.953,17h-1.086l.172-1.586h-.094a5.13,5.13,0,0,1-1.461,1.359,2.944,2.944,0,0,1-1.437.383,2.184,2.184,0,0,1-1.57-.543,2.04,2.04,0,0,1-.57-1.551,7.323,7.323,0,0,1,.172-1.344l1.141-5.281Zm9.969,8.719a2.293,2.293,0,0,1-1.328-.391,2.537,2.537,0,0,1-.883-1.094h-.078l-.031.3q-.023.2-.082.547t-.895,4.328h-1.3l2.625-12.406h1.086l-.2,1.633h.063A3.837,3.837,0,0,1,275.4,8.3a2.055,2.055,0,0,1,1.688.762A3.309,3.309,0,0,1,277.7,11.2a8.3,8.3,0,0,1-.539,3.039,5.046,5.046,0,0,1-1.492,2.152A3.341,3.341,0,0,1,273.516,17.156Zm1.453-7.773a2.26,2.26,0,0,0-1.527.742,5.292,5.292,0,0,0-1.234,1.867,6.071,6.071,0,0,0-.457,2.3,1.84,1.84,0,0,0,.434,1.316,1.647,1.647,0,0,0,1.254.457,2.066,2.066,0,0,0,1.441-.633,4.443,4.443,0,0,0,1.074-1.8,7.5,7.5,0,0,0,.406-2.48Q276.359,9.383,274.969,9.383ZM280.25,17h-1.312l2.594-12.156h1.313Zm7.328-8.672a3.127,3.127,0,0,1,2.344.879,3.31,3.31,0,0,1,.859,2.418,6.93,6.93,0,0,1-.562,2.773,4.8,4.8,0,0,1-1.523,2.016,3.56,3.56,0,0,1-2.172.711,3.114,3.114,0,0,1-2.352-.883,3.331,3.331,0,0,1-.852-2.414,6.914,6.914,0,0,1,.57-2.793,4.734,4.734,0,0,1,1.539-2.008A3.587,3.587,0,0,1,287.578,8.328Zm1.844,3.117a2.133,2.133,0,0,0-.488-1.457,1.669,1.669,0,0,0-1.324-.559,2.287,2.287,0,0,0-1.527.578,3.721,3.721,0,0,0-1.047,1.605,6.687,6.687,0,0,0-.371,2.285,2.3,2.3,0,0,0,.5,1.582,1.807,1.807,0,0,0,1.426.559,2.154,2.154,0,0,0,1.461-.57,3.725,3.725,0,0,0,1.012-1.621A7.335,7.335,0,0,0,289.422,11.445Zm7.1-3.164a2.208,2.208,0,0,1,1.281.387,2.513,2.513,0,0,1,.875,1.113h.086l.523-1.344h.992L298.461,17h-1.039l.2-1.633h-.062a3.853,3.853,0,0,1-2.945,1.789,2.059,2.059,0,0,1-1.7-.773,3.305,3.305,0,0,1-.617-2.117,8.066,8.066,0,0,1,.555-3.016,5.21,5.21,0,0,1,1.531-2.18A3.331,3.331,0,0,1,296.523,8.281Zm-1.484,7.789a2.2,2.2,0,0,0,1.508-.723,5.355,5.355,0,0,0,1.219-1.883,6.162,6.162,0,0,0,.469-2.324,1.821,1.821,0,0,0-.437-1.281,1.486,1.486,0,0,0-1.148-.477,2.151,2.151,0,0,0-1.512.672,4.533,4.533,0,0,0-1.1,1.82,7.336,7.336,0,0,0-.4,2.422,2.048,2.048,0,0,0,.367,1.332A1.267,1.267,0,0,0,295.039,16.07ZM305.563,8.3a2.279,2.279,0,0,1,2.2,1.484h.078a17.992,17.992,0,0,1,.352-2.141l.609-2.8h1.3L307.516,17H306.43l.172-1.633h-.062a5.866,5.866,0,0,1-1.477,1.383,2.759,2.759,0,0,1-1.422.406,2.045,2.045,0,0,1-1.7-.766,3.329,3.329,0,0,1-.609-2.125A8.094,8.094,0,0,1,301.9,11.2a5.107,5.107,0,0,1,1.52-2.148A3.368,3.368,0,0,1,305.563,8.3Zm-1.484,7.773a2.276,2.276,0,0,0,1.516-.73,5.129,5.129,0,0,0,1.238-1.867,6.16,6.16,0,0,0,.457-2.316,1.87,1.87,0,0,0-.422-1.32,1.594,1.594,0,0,0-1.227-.453,2.09,2.09,0,0,0-1.465.645,4.531,4.531,0,0,0-1.086,1.813,7.361,7.361,0,0,0-.41,2.457Q302.68,16.07,304.078,16.07Zm11.469-1.5a2.29,2.29,0,0,1-.863,1.9,3.834,3.834,0,0,1-2.434.684,5.191,5.191,0,0,1-2.383-.539V15.383a4.864,4.864,0,0,0,1.18.508,4.311,4.311,0,0,0,1.172.18,2.382,2.382,0,0,0,1.484-.391,1.215,1.215,0,0,0,.5-1,1.082,1.082,0,0,0-.273-.75,5.51,5.51,0,0,0-1.18-.836,4.752,4.752,0,0,1-1.437-1.117,2.061,2.061,0,0,1-.422-1.3,2.155,2.155,0,0,1,.789-1.738,3.132,3.132,0,0,1,2.078-.66,6.043,6.043,0,0,1,2.578.578l-.422,1.07-.437-.2a4.342,4.342,0,0,0-1.719-.336,1.747,1.747,0,0,0-1.141.34,1.146,1.146,0,0,0-.137,1.629,4.894,4.894,0,0,0,1.145.8,6.655,6.655,0,0,1,1.2.8,2.323,2.323,0,0,1,.543.723A2.043,2.043,0,0,1,315.547,14.57Zm8.086-8.992L317.281,17h-1.359l6.352-11.422ZM329.375,17h-7.023l.242-1.148,3.633-3.281q.8-.727,1.379-1.277a9.359,9.359,0,0,0,.961-1.039,3.816,3.816,0,0,0,.563-.969,2.966,2.966,0,0,0,.184-1.066,1.627,1.627,0,0,0-.469-1.227,1.755,1.755,0,0,0-1.273-.453,3.226,3.226,0,0,0-1.176.223,5.34,5.34,0,0,0-1.27.754l-.641-.9a5.04,5.04,0,0,1,3.227-1.2,3.217,3.217,0,0,1,2.176.691,2.381,2.381,0,0,1,.8,1.9,4.036,4.036,0,0,1-.309,1.594,5.874,5.874,0,0,1-1.023,1.539,26.125,26.125,0,0,1-2.3,2.2l-2.75,2.4V15.8h5.3ZM339.6,9.078a13.7,13.7,0,0,1-.613,4.211,6.61,6.61,0,0,1-1.672,2.887,3.5,3.5,0,0,1-2.457.98,2.462,2.462,0,0,1-2.109-1,4.815,4.815,0,0,1-.734-2.887,12.556,12.556,0,0,1,.641-4.02,6.8,6.8,0,0,1,1.691-2.883,3.437,3.437,0,0,1,2.4-.973Q339.6,5.4,339.6,9.078Zm-2.93-2.555a2.131,2.131,0,0,0-1.633.9,6.908,6.908,0,0,0-1.215,2.523,11.945,11.945,0,0,0-.465,3.309,4.4,4.4,0,0,0,.391,2.063,1.327,1.327,0,0,0,1.258.719,2.107,2.107,0,0,0,1.633-.891,6.715,6.715,0,0,0,1.176-2.562,13.813,13.813,0,0,0,.441-3.539Q338.258,6.523,336.672,6.523ZM344.477,17h-1.344l1.531-7.133q.461-2.039.688-2.8a6.017,6.017,0,0,1-1.086.867l-1.391.859L342.25,7.8l3.508-2.219h1.164Zm8.891-6.977a3.106,3.106,0,0,1,2.262.816,2.936,2.936,0,0,1,.84,2.207,4.223,4.223,0,0,1-.57,2.211,3.546,3.546,0,0,1-1.594,1.426,5.691,5.691,0,0,1-2.406.473,5.079,5.079,0,0,1-2.578-.617V15.258a4.889,4.889,0,0,0,2.609.8,3.363,3.363,0,0,0,2.328-.75,2.668,2.668,0,0,0,.836-2.094,2.106,2.106,0,0,0-.574-1.559,2.159,2.159,0,0,0-1.6-.574,5.758,5.758,0,0,0-.758.051,9.307,9.307,0,0,0-1.086.238l-.578-.445,1.539-5.344h5.219L357,6.773h-4.078l-.992,3.43A5.6,5.6,0,0,1,353.367,10.023Zm11.117-4.445L358.133,17h-1.359l6.352-11.422Zm7.156,3.5a13.7,13.7,0,0,1-.613,4.211,6.61,6.61,0,0,1-1.672,2.887,3.5,3.5,0,0,1-2.457.98,2.462,2.462,0,0,1-2.109-1,4.815,4.815,0,0,1-.734-2.887,12.556,12.556,0,0,1,.641-4.02,6.8,6.8,0,0,1,1.691-2.883,3.437,3.437,0,0,1,2.4-.973Q371.641,5.4,371.641,9.078Zm-2.93-2.555a2.131,2.131,0,0,0-1.633.9,6.908,6.908,0,0,0-1.215,2.523,11.945,11.945,0,0,0-.465,3.309,4.4,4.4,0,0,0,.391,2.063,1.327,1.327,0,0,0,1.258.719,2.107,2.107,0,0,0,1.633-.891,6.715,6.715,0,0,0,1.176-2.562,13.813,13.813,0,0,0,.441-3.539Q370.3,6.523,368.711,6.523Zm11.547,2.4a12.461,12.461,0,0,1-.437,3.176,10.3,10.3,0,0,1-1.152,2.813,4.648,4.648,0,0,1-1.73,1.7,4.9,4.9,0,0,1-2.359.547,6.185,6.185,0,0,1-1.891-.266V15.656a5.848,5.848,0,0,0,1.922.367,3.252,3.252,0,0,0,2.555-1.1,7.573,7.573,0,0,0,1.477-3.445h-.078a2.86,2.86,0,0,1-1.035.926,2.947,2.947,0,0,1-1.41.34,2.653,2.653,0,0,1-2.039-.77,3.188,3.188,0,0,1-.719-2.254,4.784,4.784,0,0,1,.5-2.191A3.755,3.755,0,0,1,377.3,5.414a2.738,2.738,0,0,1,2.184.895A3.876,3.876,0,0,1,380.258,8.922Zm-3.008-2.4a2.3,2.3,0,0,0-1.883.883,3.5,3.5,0,0,0-.711,2.266,2.276,2.276,0,0,0,.426,1.484,1.551,1.551,0,0,0,1.27.516,2.658,2.658,0,0,0,1.094-.223,2.329,2.329,0,0,0,.848-.637,2.735,2.735,0,0,0,.508-.891,3.742,3.742,0,0,0,.16-1.18,2.59,2.59,0,0,0-.461-1.621A1.5,1.5,0,0,0,377.25,6.523Zm10.461-.945L381.359,17H380l6.352-11.422ZM390.93,17h-1.344l1.531-7.133q.461-2.039.688-2.8a6.017,6.017,0,0,1-1.086.867l-1.391.859L388.7,7.8l3.508-2.219h1.164Zm9.086,2.531H393.68l.234-1.094h6.336ZM406.734,17l-1.3-10.125h-.062q-.055.563-.223,1.543t-.293,1.559L403.375,17h-1.266l2.414-11.422h1.906l1.164,9.406h.07l5.148-9.406h2.078L412.523,17h-1.359q.984-4.609,1.508-7.074t.734-3.066h-.047L407.758,17Zm13.133-8.672a3.127,3.127,0,0,1,2.344.879,3.31,3.31,0,0,1,.859,2.418,6.93,6.93,0,0,1-.562,2.773,4.8,4.8,0,0,1-1.523,2.016,3.56,3.56,0,0,1-2.172.711,3.114,3.114,0,0,1-2.352-.883,3.331,3.331,0,0,1-.852-2.414,6.914,6.914,0,0,1,.57-2.793,4.734,4.734,0,0,1,1.539-2.008A3.587,3.587,0,0,1,419.867,8.328Zm1.844,3.117a2.133,2.133,0,0,0-.488-1.457A1.669,1.669,0,0,0,419.9,9.43a2.287,2.287,0,0,0-1.527.578,3.721,3.721,0,0,0-1.047,1.605,6.687,6.687,0,0,0-.371,2.285,2.3,2.3,0,0,0,.5,1.582,1.807,1.807,0,0,0,1.426.559,2.154,2.154,0,0,0,1.461-.57,3.725,3.725,0,0,0,1.012-1.621A7.335,7.335,0,0,0,421.711,11.445Zm7.1-3.148a2.279,2.279,0,0,1,2.2,1.484h.078a17.992,17.992,0,0,1,.352-2.141l.609-2.8h1.3L430.766,17H429.68l.172-1.633h-.062a5.866,5.866,0,0,1-1.477,1.383,2.759,2.759,0,0,1-1.422.406,2.045,2.045,0,0,1-1.7-.766,3.329,3.329,0,0,1-.609-2.125,8.094,8.094,0,0,1,.563-3.062,5.107,5.107,0,0,1,1.52-2.148A3.368,3.368,0,0,1,428.813,8.3Zm-1.484,7.773a2.276,2.276,0,0,0,1.516-.73,5.129,5.129,0,0,0,1.238-1.867,6.16,6.16,0,0,0,.457-2.316,1.87,1.87,0,0,0-.422-1.32,1.594,1.594,0,0,0-1.227-.453,2.09,2.09,0,0,0-1.465.645,4.531,4.531,0,0,0-1.086,1.813,7.361,7.361,0,0,0-.41,2.457Q425.93,16.07,427.328,16.07Zm9.25-7.633-1.172,5.43a5.861,5.861,0,0,0-.141,1.086,1,1,0,0,0,1.148,1.117,2.323,2.323,0,0,0,1.352-.469,4.166,4.166,0,0,0,1.172-1.344,7.21,7.21,0,0,0,.773-2.109l.781-3.711h1.3L439.984,17H438.9l.172-1.586h-.094a5.13,5.13,0,0,1-1.461,1.359,2.944,2.944,0,0,1-1.437.383,2.184,2.184,0,0,1-1.57-.543,2.04,2.04,0,0,1-.57-1.551,7.323,7.323,0,0,1,.172-1.344l1.141-5.281ZM444.047,17h-1.312l2.594-12.156h1.313Zm6.148.156a2.988,2.988,0,0,1-2.258-.852,3.26,3.26,0,0,1-.82-2.359,7.03,7.03,0,0,1,.582-2.816,5.212,5.212,0,0,1,1.543-2.1,3.363,3.363,0,0,1,2.117-.75,2.685,2.685,0,0,1,1.8.52,1.813,1.813,0,0,1,.6,1.449,2.476,2.476,0,0,1-1.3,2.207,7.1,7.1,0,0,1-3.711.8h-.258l-.031.625a2.418,2.418,0,0,0,.48,1.6,1.832,1.832,0,0,0,1.488.574,3.864,3.864,0,0,0,1.012-.141,7.746,7.746,0,0,0,1.293-.516v1.141a7.081,7.081,0,0,1-1.3.48A5.261,5.261,0,0,1,450.2,17.156ZM451.281,9.4a2.087,2.087,0,0,0-1.512.734,4.8,4.8,0,0,0-1.082,2.039h.094a6.378,6.378,0,0,0,2.73-.465,1.459,1.459,0,0,0,.949-1.348.913.913,0,0,0-.285-.687A1.255,1.255,0,0,0,451.281,9.4Zm7.828,10.133h-6.336l.234-1.094h6.336Zm7.453-13.953q3.375,0,3.375,2.625a2.684,2.684,0,0,1-.68,1.859,3.271,3.271,0,0,1-1.914.984v.078a2.559,2.559,0,0,1,1.379.863,2.316,2.316,0,0,1,.48,1.473,3.132,3.132,0,0,1-1.187,2.6,4.976,4.976,0,0,1-3.18.941h-3.617l2.414-11.422Zm-2.625,4.891h1.938a3.065,3.065,0,0,0,1.945-.57,1.87,1.87,0,0,0,.727-1.555,1.441,1.441,0,0,0-.52-1.215,2.677,2.677,0,0,0-1.637-.4h-1.648Zm-1.148,5.4h2.078a3.317,3.317,0,0,0,2.172-.629,2.181,2.181,0,0,0,.758-1.777,1.7,1.7,0,0,0-.582-1.387,2.571,2.571,0,0,0-1.676-.48H463.7Zm11.172,1.289A2.988,2.988,0,0,1,471.7,16.3a3.26,3.26,0,0,1-.82-2.359,7.03,7.03,0,0,1,.582-2.816,5.212,5.212,0,0,1,1.543-2.1,3.363,3.363,0,0,1,2.117-.75,2.685,2.685,0,0,1,1.8.52,1.813,1.813,0,0,1,.6,1.449,2.476,2.476,0,0,1-1.3,2.207,7.1,7.1,0,0,1-3.711.8h-.258l-.031.625a2.418,2.418,0,0,0,.48,1.6,1.832,1.832,0,0,0,1.488.574,3.864,3.864,0,0,0,1.012-.141A7.746,7.746,0,0,0,476.5,15.4v1.141a7.081,7.081,0,0,1-1.3.48A5.261,5.261,0,0,1,473.961,17.156ZM475.047,9.4a2.087,2.087,0,0,0-1.512.734,4.8,4.8,0,0,0-1.082,2.039h.094a6.378,6.378,0,0,0,2.73-.465,1.459,1.459,0,0,0,.949-1.348.913.913,0,0,0-.285-.687A1.255,1.255,0,0,0,475.047,9.4Zm8.7,5.172a2.29,2.29,0,0,1-.863,1.9,3.834,3.834,0,0,1-2.434.684,5.191,5.191,0,0,1-2.383-.539V15.383a4.864,4.864,0,0,0,1.18.508,4.311,4.311,0,0,0,1.172.18,2.382,2.382,0,0,0,1.484-.391,1.215,1.215,0,0,0,.5-1,1.082,1.082,0,0,0-.273-.75,5.51,5.51,0,0,0-1.18-.836,4.752,4.752,0,0,1-1.437-1.117,2.061,2.061,0,0,1-.422-1.3,2.155,2.155,0,0,1,.789-1.738,3.132,3.132,0,0,1,2.078-.66,6.043,6.043,0,0,1,2.578.578l-.422,1.07-.437-.2a4.342,4.342,0,0,0-1.719-.336,1.747,1.747,0,0,0-1.141.34,1.146,1.146,0,0,0-.137,1.629,4.894,4.894,0,0,0,1.145.8,6.655,6.655,0,0,1,1.2.8,2.323,2.323,0,0,1,.543.723A2.043,2.043,0,0,1,483.75,14.57Zm4.2,1.516a4.227,4.227,0,0,0,1.125-.2v1.008a3.6,3.6,0,0,1-.656.188,3.361,3.361,0,0,1-.625.078,2.172,2.172,0,0,1-1.5-.465,1.765,1.765,0,0,1-.52-1.387,5.66,5.66,0,0,1,.141-1.172l.992-4.7h-1.344l.109-.57,1.445-.609.977-1.781h.766l-.43,1.969h2.141l-.2.992h-2.133l-1.008,4.719a5.558,5.558,0,0,0-.141,1.031.928.928,0,0,0,.227.672A.839.839,0,0,0,487.945,16.086ZM499.1,8.523a3.566,3.566,0,0,1-1.281,2.961,5.919,5.919,0,0,1-3.758,1.023h-1.055L492.047,17h-1.328l2.414-11.422h2.578a3.789,3.789,0,0,1,2.531.738A2.75,2.75,0,0,1,499.1,8.523Zm-5.852,2.844h1.039a3.986,3.986,0,0,0,2.563-.711,2.53,2.53,0,0,0,.875-2.086,1.7,1.7,0,0,0-.543-1.41,2.651,2.651,0,0,0-1.668-.434h-1.273Zm11.727-3.086a3.565,3.565,0,0,1,.938.109l-.281,1.172a3.434,3.434,0,0,0-.82-.1,2.17,2.17,0,0,0-1.332.469,4.1,4.1,0,0,0-1.086,1.3,6.623,6.623,0,0,0-.684,1.848L500.875,17h-1.312l1.828-8.562h1.086l-.172,1.586h.078a7.677,7.677,0,0,1,.93-1.066,2.948,2.948,0,0,1,.77-.5A2.211,2.211,0,0,1,504.977,8.281Zm5.133,0a2.208,2.208,0,0,1,1.281.387,2.513,2.513,0,0,1,.875,1.113h.086l.523-1.344h.992L512.047,17h-1.039l.2-1.633h-.062a3.853,3.853,0,0,1-2.945,1.789,2.059,2.059,0,0,1-1.7-.773,3.305,3.305,0,0,1-.617-2.117,8.066,8.066,0,0,1,.555-3.016,5.21,5.21,0,0,1,1.531-2.18A3.331,3.331,0,0,1,510.109,8.281Zm-1.484,7.789a2.2,2.2,0,0,0,1.508-.723,5.355,5.355,0,0,0,1.219-1.883,6.162,6.162,0,0,0,.469-2.324,1.821,1.821,0,0,0-.437-1.281,1.486,1.486,0,0,0-1.148-.477,2.151,2.151,0,0,0-1.512.672,4.533,4.533,0,0,0-1.1,1.82,7.336,7.336,0,0,0-.4,2.422,2.048,2.048,0,0,0,.367,1.332A1.267,1.267,0,0,0,508.625,16.07Zm9.484,1.086a3.18,3.18,0,0,1-2.352-.836,3.19,3.19,0,0,1-.836-2.359,7.108,7.108,0,0,1,.578-2.883,4.894,4.894,0,0,1,1.6-2.059,3.815,3.815,0,0,1,2.293-.738,5.725,5.725,0,0,1,2.094.4l-.367,1.1a4.42,4.42,0,0,0-1.711-.4,2.449,2.449,0,0,0-1.6.6,3.936,3.936,0,0,0-1.133,1.664,6.4,6.4,0,0,0-.41,2.316,2.186,2.186,0,0,0,.52,1.555,1.869,1.869,0,0,0,1.434.555,3.542,3.542,0,0,0,1.063-.156,9.745,9.745,0,0,0,.984-.367v1.117A4.691,4.691,0,0,1,518.109,17.156Zm6.336-1.07a4.227,4.227,0,0,0,1.125-.2v1.008a3.6,3.6,0,0,1-.656.188,3.361,3.361,0,0,1-.625.078,2.172,2.172,0,0,1-1.5-.465,1.765,1.765,0,0,1-.52-1.387,5.66,5.66,0,0,1,.141-1.172l.992-4.7h-1.344l.109-.57,1.445-.609.977-1.781h.766l-.43,1.969h2.141l-.2.992h-2.133l-1.008,4.719a5.558,5.558,0,0,0-.141,1.031.928.928,0,0,0,.227.672A.839.839,0,0,0,524.445,16.086ZM528.32,17h-1.312l1.828-8.562h1.313ZM529.2,6.25a1.027,1.027,0,0,1,.25-.715.833.833,0,0,1,.648-.277.615.615,0,0,1,.688.7,1.06,1.06,0,0,1-.262.727.788.788,0,0,1-.605.3.722.722,0,0,1-.516-.191A.71.71,0,0,1,529.2,6.25Zm5.359,10.906a3.18,3.18,0,0,1-2.352-.836,3.19,3.19,0,0,1-.836-2.359,7.108,7.108,0,0,1,.578-2.883,4.894,4.894,0,0,1,1.6-2.059,3.815,3.815,0,0,1,2.293-.738,5.725,5.725,0,0,1,2.094.4l-.367,1.1a4.42,4.42,0,0,0-1.711-.4,2.449,2.449,0,0,0-1.6.6,3.936,3.936,0,0,0-1.133,1.664,6.4,6.4,0,0,0-.41,2.316,2.186,2.186,0,0,0,.52,1.555,1.869,1.869,0,0,0,1.434.555,3.542,3.542,0,0,0,1.063-.156,9.745,9.745,0,0,0,.984-.367v1.117A4.691,4.691,0,0,1,534.563,17.156Zm7.094,0A2.988,2.988,0,0,1,539.4,16.3a3.26,3.26,0,0,1-.82-2.359,7.031,7.031,0,0,1,.582-2.816,5.212,5.212,0,0,1,1.543-2.1,3.363,3.363,0,0,1,2.117-.75,2.685,2.685,0,0,1,1.8.52,1.813,1.813,0,0,1,.6,1.449,2.476,2.476,0,0,1-1.3,2.207,7.1,7.1,0,0,1-3.711.8h-.258l-.031.625a2.418,2.418,0,0,0,.48,1.6,1.832,1.832,0,0,0,1.488.574,3.864,3.864,0,0,0,1.012-.141A7.745,7.745,0,0,0,544.2,15.4v1.141a7.081,7.081,0,0,1-1.3.48A5.261,5.261,0,0,1,541.656,17.156ZM542.742,9.4a2.087,2.087,0,0,0-1.512.734,4.8,4.8,0,0,0-1.082,2.039h.094a6.378,6.378,0,0,0,2.73-.465,1.459,1.459,0,0,0,.949-1.348.912.912,0,0,0-.285-.687A1.255,1.255,0,0,0,542.742,9.4Zm8.7,5.172a2.29,2.29,0,0,1-.863,1.9,3.834,3.834,0,0,1-2.434.684,5.191,5.191,0,0,1-2.383-.539V15.383a4.863,4.863,0,0,0,1.18.508,4.311,4.311,0,0,0,1.172.18,2.381,2.381,0,0,0,1.484-.391,1.215,1.215,0,0,0,.5-1,1.082,1.082,0,0,0-.273-.75,5.51,5.51,0,0,0-1.18-.836,4.753,4.753,0,0,1-1.437-1.117,2.061,2.061,0,0,1-.422-1.3,2.155,2.155,0,0,1,.789-1.738,3.132,3.132,0,0,1,2.078-.66,6.043,6.043,0,0,1,2.578.578l-.422,1.07-.437-.2a4.342,4.342,0,0,0-1.719-.336,1.747,1.747,0,0,0-1.141.34,1.146,1.146,0,0,0-.137,1.629,4.893,4.893,0,0,0,1.145.8,6.654,6.654,0,0,1,1.2.8,2.323,2.323,0,0,1,.543.723A2.043,2.043,0,0,1,551.445,14.57Zm1.445,1.852a1.387,1.387,0,0,1,.316-.957,1.106,1.106,0,0,1,.871-.355.742.742,0,0,1,.543.2.83.83,0,0,1,.207.617,1.388,1.388,0,0,1-.312.926,1.046,1.046,0,0,1-.844.371.788.788,0,0,1-.57-.2A.8.8,0,0,1,552.891,16.422Zm7.969.734a2.293,2.293,0,0,1-1.328-.391,2.537,2.537,0,0,1-.883-1.094h-.078l-.031.3q-.023.2-.082.547t-.895,4.328h-1.3l2.625-12.406h1.086l-.2,1.633h.063A3.837,3.837,0,0,1,562.742,8.3a2.055,2.055,0,0,1,1.688.762,3.309,3.309,0,0,1,.617,2.137,8.3,8.3,0,0,1-.539,3.039,5.046,5.046,0,0,1-1.492,2.152A3.341,3.341,0,0,1,560.859,17.156Zm1.453-7.773a2.26,2.26,0,0,0-1.527.742,5.292,5.292,0,0,0-1.234,1.867,6.071,6.071,0,0,0-.457,2.3,1.84,1.84,0,0,0,.434,1.316,1.647,1.647,0,0,0,1.254.457,2.066,2.066,0,0,0,1.441-.633,4.443,4.443,0,0,0,1.074-1.8,7.5,7.5,0,0,0,.406-2.48Q563.7,9.383,562.313,9.383ZM570.828,8.3a2.279,2.279,0,0,1,2.2,1.484h.078a18,18,0,0,1,.352-2.141l.609-2.8h1.3L572.781,17H571.7l.172-1.633H571.8a5.867,5.867,0,0,1-1.477,1.383,2.759,2.759,0,0,1-1.422.406,2.045,2.045,0,0,1-1.7-.766,3.329,3.329,0,0,1-.609-2.125,8.094,8.094,0,0,1,.563-3.062,5.108,5.108,0,0,1,1.52-2.148A3.368,3.368,0,0,1,570.828,8.3Zm-1.484,7.773a2.276,2.276,0,0,0,1.516-.73,5.129,5.129,0,0,0,1.238-1.867,6.16,6.16,0,0,0,.457-2.316,1.87,1.87,0,0,0-.422-1.32,1.594,1.594,0,0,0-1.227-.453,2.09,2.09,0,0,0-1.465.645,4.531,4.531,0,0,0-1.086,1.813,7.361,7.361,0,0,0-.41,2.457Q567.945,16.07,569.344,16.07Zm4.914,4.773a2.764,2.764,0,0,1-.977-.164v-1.1a2.748,2.748,0,0,0,.875.172,1.032,1.032,0,0,0,.914-.484,4.136,4.136,0,0,0,.516-1.383l1.773-8.453h-1.508l.1-.523,1.609-.516.18-.781a4.629,4.629,0,0,1,1-2.207,2.541,2.541,0,0,1,1.887-.645,4.05,4.05,0,0,1,.766.09,3.55,3.55,0,0,1,.7.2l-.336,1.008a3.04,3.04,0,0,0-1.07-.227,1.377,1.377,0,0,0-1.043.379,3.009,3.009,0,0,0-.59,1.387l-.2.844h1.859l-.2.992h-1.852l-1.812,8.578a4.475,4.475,0,0,1-.937,2.156A2.167,2.167,0,0,1,574.258,20.844Z" transform="translate(2095.187 7573.568)" fill="#006bd9"/>
  </g>
</svg>
