<svg xmlns="http://www.w3.org/2000/svg" width="771.327" height="56.383" viewBox="0 0 771.327 56.383">
  <g id="Grupo_3966" data-name="Grupo 3966" transform="translate(-2047.599 -7455.412)">
    <g id="Grupo_3963" data-name="Grupo 3963" transform="translate(2047.599 7455.695)">
      <circle id="Elipse_61" data-name="Elipse 61" cx="18" cy="18" r="18" fill="#98bd11" opacity="0.8"/>
      <g id="Grupo_1979" data-name="Grupo 1979" transform="translate(4.856 4.854)">
        <path id="Trazado_8990" data-name="Trazado 8990" d="M2022.594,7250.371a13.141,13.141,0,0,0,0,8.649.972.972,0,0,0,.041.118,13.145,13.145,0,0,0,24.742,0,.82.82,0,0,0,.042-.118,13.141,13.141,0,0,0,0-8.649.917.917,0,0,0-.042-.119,13.144,13.144,0,0,0-24.742,0,.932.932,0,0,0-.041.119Zm12.412-6.936c.5,0,1.308.906,1.983,2.93a20.671,20.671,0,0,1,.776,3.321h-5.517a20.566,20.566,0,0,1,.776-3.321c.675-2.024,1.482-2.93,1.982-2.93Zm2.987,8.135c.091,1,.139,2.053.139,3.125s-.048,2.121-.139,3.125h-5.974c-.09-1-.138-2.052-.138-3.125s.048-2.121.138-3.125Zm8.274,3.125a11.19,11.19,0,0,1-.442,3.125h-5.942c.089-1.025.133-2.076.133-3.125s-.044-2.1-.133-3.125h5.942a11.2,11.2,0,0,1,.442,3.125Zm-11.261,11.261c-.5,0-1.307-.906-1.982-2.93a20.615,20.615,0,0,1-.776-3.321h5.517a20.721,20.721,0,0,1-.776,3.321c-.675,2.024-1.482,2.93-1.983,2.93Zm-4.877-8.136h-5.941a11.268,11.268,0,0,1,0-6.25h5.941c-.088,1.025-.132,2.076-.132,3.125s.044,2.1.132,3.125Zm-5.205,1.885h5.421a18.117,18.117,0,0,0,1.717,5.859,11.307,11.307,0,0,1-7.138-5.859Zm13.027,5.859a18.094,18.094,0,0,0,1.716-5.859h5.422a11.312,11.312,0,0,1-7.138,5.859Zm7.138-15.878h-5.422a18.089,18.089,0,0,0-1.716-5.86,11.31,11.31,0,0,1,7.138,5.86Zm-13.027-5.86a18.112,18.112,0,0,0-1.717,5.86h-5.421a11.306,11.306,0,0,1,7.138-5.86Zm0,0" transform="translate(-2021.862 -7241.55)" fill="#fff"/>
      </g>
    </g>
    <path id="Trazado_17246" data-name="Trazado 17246" d="M5.7,17l1.157-5.406A6.421,6.421,0,0,0,7,10.539,1.019,1.019,0,0,0,5.848,9.383a2.344,2.344,0,0,0-1.356.461,4.053,4.053,0,0,0-1.165,1.34A7.184,7.184,0,0,0,2.564,13.3L1.774,17H.461L3.041,4.844H4.354q-.141.641-.27,1.242T3.819,7.309q-.137.621-.3,1.3T3.15,10.086h.086a5.207,5.207,0,0,1,1.45-1.375,2.946,2.946,0,0,1,1.5-.414,2.133,2.133,0,0,1,1.583.563,2.163,2.163,0,0,1,.559,1.594,6.344,6.344,0,0,1-.18,1.3q-.3,1.508-1.134,5.25Zm6.63-.914a4.232,4.232,0,0,0,1.126-.2v1.008a3.606,3.606,0,0,1-.657.188,3.366,3.366,0,0,1-.625.078,2.175,2.175,0,0,1-1.5-.465,1.765,1.765,0,0,1-.52-1.387,5.656,5.656,0,0,1,.141-1.172l.993-4.7H9.944l.109-.57L11.5,8.25l.977-1.781h.766l-.43,1.969h2.142l-.2.992H12.618L11.61,14.148a5.554,5.554,0,0,0-.141,1.031.928.928,0,0,0,.227.672A.84.84,0,0,0,12.329,16.086Zm5.191,0a4.232,4.232,0,0,0,1.126-.2v1.008a3.606,3.606,0,0,1-.657.188,3.366,3.366,0,0,1-.625.078,2.175,2.175,0,0,1-1.5-.465,1.765,1.765,0,0,1-.52-1.387,5.656,5.656,0,0,1,.141-1.172l.993-4.7H15.136l.109-.57,1.446-.609.977-1.781h.766L18,8.438h2.142l-.2.992H17.809L16.8,14.148a5.554,5.554,0,0,0-.141,1.031.928.928,0,0,0,.227.672A.84.84,0,0,0,17.52,16.086Zm6.364,1.07a2.3,2.3,0,0,1-1.329-.391,2.537,2.537,0,0,1-.883-1.094h-.078l-.031.3q-.023.2-.082.547t-.9,4.328h-1.3L21.914,8.438H23l-.2,1.633h.063A3.84,3.84,0,0,1,25.768,8.3a2.057,2.057,0,0,1,1.689.762,3.308,3.308,0,0,1,.618,2.137,8.294,8.294,0,0,1-.539,3.039,5.046,5.046,0,0,1-1.493,2.152A3.345,3.345,0,0,1,23.884,17.156Zm1.454-7.773a2.262,2.262,0,0,0-1.528.742,5.292,5.292,0,0,0-1.235,1.867,6.068,6.068,0,0,0-.457,2.3,1.84,1.84,0,0,0,.434,1.316,1.649,1.649,0,0,0,1.255.457,2.068,2.068,0,0,0,1.442-.633,4.442,4.442,0,0,0,1.075-1.8,7.492,7.492,0,0,0,.407-2.48Q26.73,9.383,25.338,9.383Zm9.272,5.188a2.29,2.29,0,0,1-.864,1.9,3.838,3.838,0,0,1-2.435.684,5.2,5.2,0,0,1-2.385-.539V15.383a4.869,4.869,0,0,0,1.181.508,4.316,4.316,0,0,0,1.173.18,2.385,2.385,0,0,0,1.485-.391,1.214,1.214,0,0,0,.5-1,1.082,1.082,0,0,0-.274-.75,5.514,5.514,0,0,0-1.181-.836,4.755,4.755,0,0,1-1.439-1.117,2.06,2.06,0,0,1-.422-1.3,2.155,2.155,0,0,1,.79-1.738,3.135,3.135,0,0,1,2.08-.66,6.051,6.051,0,0,1,2.58.578l-.422,1.07-.438-.2A4.348,4.348,0,0,0,32.82,9.4a1.749,1.749,0,0,0-1.141.34,1.145,1.145,0,0,0-.137,1.629,4.9,4.9,0,0,0,1.145.8,6.66,6.66,0,0,1,1.2.8,2.323,2.323,0,0,1,.543.723A2.042,2.042,0,0,1,34.611,14.57Zm1.446,1.852a1.386,1.386,0,0,1,.317-.957,1.107,1.107,0,0,1,.872-.355.743.743,0,0,1,.543.2A.829.829,0,0,1,38,15.93a1.387,1.387,0,0,1-.313.926,1.047,1.047,0,0,1-.844.371.789.789,0,0,1-.571-.2A.8.8,0,0,1,36.057,16.422Zm1.251-6.891a1.4,1.4,0,0,1,.313-.957,1.1,1.1,0,0,1,.868-.355q.758,0,.758.813a1.349,1.349,0,0,1-.324.934,1.066,1.066,0,0,1-.833.363.78.78,0,0,1-.571-.207A.789.789,0,0,1,37.308,9.531Zm9.444-3.953L40.4,17h-1.36L45.392,5.578Zm5.606,0L46,17h-1.36L51,5.578ZM57.479,17l-.25-4.7q-.031-.734-.031-1.344V9.734h-.07l-.391.922-.649,1.477L53.812,17H52.233L51.9,8.438h1.282l.141,4.641v.688q0,1.148-.063,2.1H53.3q.367-.969,1.071-2.516l2.306-4.914H58.1l.289,4.641q.047,1.313.047,2.047v.414l-.016.328h.047q.219-.672.649-1.707t2.525-5.723h1.392L59.081,17Zm11.477,0-.25-4.7q-.031-.734-.031-1.344V9.734H68.6l-.391.922-.649,1.477L65.289,17H63.71l-.336-8.562h1.282l.141,4.641v.688q0,1.148-.063,2.1h.047q.367-.969,1.071-2.516l2.306-4.914h1.423l.289,4.641q.047,1.313.047,2.047v.414l-.016.328h.047q.219-.672.649-1.707t2.525-5.723h1.392L70.558,17Zm11.477,0-.25-4.7q-.031-.734-.031-1.344V9.734h-.07l-.391.922-.649,1.477L76.766,17H75.187l-.336-8.562h1.282l.141,4.641v.688q0,1.148-.063,2.1h.047q.367-.969,1.071-2.516l2.306-4.914h1.423l.289,4.641q.047,1.313.047,2.047v.414l-.016.328h.047q.219-.672.649-1.707T84.6,8.438h1.392L82.035,17Zm4.675-.578a1.386,1.386,0,0,1,.317-.957,1.107,1.107,0,0,1,.872-.355.743.743,0,0,1,.543.2.829.829,0,0,1,.207.617,1.387,1.387,0,0,1-.313.926,1.047,1.047,0,0,1-.844.371.789.789,0,0,1-.571-.2A.8.8,0,0,1,85.108,16.422ZM94.263,17l1.157-5.406a6.421,6.421,0,0,0,.141-1.055,1.336,1.336,0,0,0-.242-.852,1,1,0,0,0-.829-.3,2.1,2.1,0,0,0-1.278.469,4.08,4.08,0,0,0-1.095,1.34,7.723,7.723,0,0,0-.731,2.1L90.6,17H89.283l1.829-8.562H92.2l-.172,1.586h.078a4.9,4.9,0,0,1,1.356-1.336,2.676,2.676,0,0,1,1.4-.406,1.776,1.776,0,0,1,1.36.508A2.321,2.321,0,0,1,96.78,10.2h.063a5.02,5.02,0,0,1,1.431-1.449,2.871,2.871,0,0,1,1.532-.473,2.106,2.106,0,0,1,1.536.531,2.068,2.068,0,0,1,.543,1.547,7.428,7.428,0,0,1-.172,1.391L100.588,17H99.259l1.157-5.406a7.1,7.1,0,0,0,.156-1.141.985.985,0,0,0-1.118-1.07,2.1,2.1,0,0,0-1.251.453,3.947,3.947,0,0,0-1.083,1.285,7.016,7.016,0,0,0-.708,1.973L95.576,17Zm10.3,0h-1.313l1.829-8.562h1.313Zm.883-10.75a1.027,1.027,0,0,1,.25-.715.833.833,0,0,1,.649-.277.615.615,0,0,1,.688.7,1.059,1.059,0,0,1-.262.727.789.789,0,0,1-.606.3.723.723,0,0,1-.516-.191A.71.71,0,0,1,105.443,6.25ZM112.55,17l1.157-5.406a7.121,7.121,0,0,0,.156-1.125,1.109,1.109,0,0,0-.278-.789,1.165,1.165,0,0,0-.887-.3,2.319,2.319,0,0,0-1.356.469,4.172,4.172,0,0,0-1.165,1.336,7.026,7.026,0,0,0-.762,2.1L108.625,17h-1.313l1.829-8.562h1.087l-.172,1.586h.078a5.221,5.221,0,0,1,1.45-1.348,2.915,2.915,0,0,1,1.45-.395,2.19,2.19,0,0,1,1.568.543,1.99,1.99,0,0,1,.575,1.52A6.409,6.409,0,0,1,115,11.75L113.879,17Zm8.537-8.719a2.21,2.21,0,0,1,1.282.387,2.513,2.513,0,0,1,.876,1.113h.086l.524-1.344h.993L123.026,17h-1.04l.2-1.633h-.063a3.856,3.856,0,0,1-2.947,1.789,2.061,2.061,0,0,1-1.7-.773,3.3,3.3,0,0,1-.618-2.117,8.06,8.06,0,0,1,.555-3.016,5.21,5.21,0,0,1,1.532-2.18A3.335,3.335,0,0,1,121.087,8.281ZM119.6,16.07a2.2,2.2,0,0,0,1.509-.723,5.355,5.355,0,0,0,1.22-1.883,6.158,6.158,0,0,0,.469-2.324,1.82,1.82,0,0,0-.438-1.281,1.487,1.487,0,0,0-1.149-.477,2.153,2.153,0,0,0-1.513.672,4.532,4.532,0,0,0-1.1,1.82,7.331,7.331,0,0,0-.4,2.422,2.047,2.047,0,0,0,.367,1.332A1.268,1.268,0,0,0,119.6,16.07Zm10.977.93,1.157-5.406a6.42,6.42,0,0,0,.141-1.055,1.336,1.336,0,0,0-.242-.852,1,1,0,0,0-.829-.3,2.1,2.1,0,0,0-1.278.469,4.08,4.08,0,0,0-1.095,1.34,7.723,7.723,0,0,0-.731,2.1L126.912,17H125.6l1.829-8.562h1.087l-.172,1.586h.078a4.9,4.9,0,0,1,1.356-1.336,2.676,2.676,0,0,1,1.4-.406,1.776,1.776,0,0,1,1.36.508A2.321,2.321,0,0,1,133.1,10.2h.063a5.02,5.02,0,0,1,1.431-1.449,2.871,2.871,0,0,1,1.532-.473,2.106,2.106,0,0,1,1.536.531,2.068,2.068,0,0,1,.543,1.547,7.43,7.43,0,0,1-.172,1.391L136.9,17h-1.329l1.157-5.406a7.1,7.1,0,0,0,.156-1.141.985.985,0,0,0-1.118-1.07,2.1,2.1,0,0,0-1.251.453,3.947,3.947,0,0,0-1.083,1.285,7.016,7.016,0,0,0-.708,1.973L131.892,17Zm12.783.156a2.281,2.281,0,0,1-1.333-.4,2.437,2.437,0,0,1-.864-1.086h-.078L140.539,17h-.977l2.58-12.156h1.313q-.4,1.891-.614,2.895t-.59,2.348h.07a5.7,5.7,0,0,1,1.435-1.355,2.756,2.756,0,0,1,1.458-.434,2.078,2.078,0,0,1,1.72.773,3.317,3.317,0,0,1,.618,2.125,8.312,8.312,0,0,1-.536,3.02,5.058,5.058,0,0,1-1.493,2.164A3.34,3.34,0,0,1,143.361,17.156Zm1.454-7.773a2.262,2.262,0,0,0-1.528.742,5.291,5.291,0,0,0-1.235,1.867,6.067,6.067,0,0,0-.457,2.3,1.84,1.84,0,0,0,.434,1.316,1.648,1.648,0,0,0,1.255.457,2.068,2.068,0,0,0,1.442-.633,4.442,4.442,0,0,0,1.075-1.8,7.492,7.492,0,0,0,.407-2.48Q146.207,9.383,144.815,9.383Zm5.3,7.617H148.8l1.829-8.562h1.313ZM151,6.25a1.026,1.026,0,0,1,.25-.715.833.833,0,0,1,.649-.277.615.615,0,0,1,.688.7,1.059,1.059,0,0,1-.262.727.789.789,0,0,1-.606.3.723.723,0,0,1-.516-.191A.71.71,0,0,1,151,6.25Zm5.254,10.906a2.991,2.991,0,0,1-2.259-.852,3.258,3.258,0,0,1-.821-2.359,7.026,7.026,0,0,1,.582-2.816,5.213,5.213,0,0,1,1.544-2.1,3.367,3.367,0,0,1,2.119-.75,2.689,2.689,0,0,1,1.8.52,1.812,1.812,0,0,1,.6,1.449,2.476,2.476,0,0,1-1.3,2.207,7.112,7.112,0,0,1-3.714.8h-.258l-.031.625a2.416,2.416,0,0,0,.481,1.6,1.834,1.834,0,0,0,1.489.574,3.87,3.87,0,0,0,1.012-.141,7.754,7.754,0,0,0,1.294-.516v1.141a7.089,7.089,0,0,1-1.3.48A5.268,5.268,0,0,1,156.253,17.156ZM157.34,9.4a2.089,2.089,0,0,0-1.513.734,4.8,4.8,0,0,0-1.083,2.039h.094a6.386,6.386,0,0,0,2.732-.465,1.459,1.459,0,0,0,.95-1.348.912.912,0,0,0-.285-.687A1.257,1.257,0,0,0,157.34,9.4ZM166,17l1.157-5.406a7.12,7.12,0,0,0,.156-1.125,1.109,1.109,0,0,0-.278-.789,1.165,1.165,0,0,0-.887-.3,2.319,2.319,0,0,0-1.356.469,4.172,4.172,0,0,0-1.165,1.336,7.026,7.026,0,0,0-.762,2.1L162.078,17h-1.313l1.829-8.562h1.087l-.172,1.586h.078a5.221,5.221,0,0,1,1.45-1.348,2.915,2.915,0,0,1,1.45-.395,2.19,2.19,0,0,1,1.568.543,1.99,1.99,0,0,1,.575,1.52,6.409,6.409,0,0,1-.18,1.406L167.331,17Zm6.63-.914a4.233,4.233,0,0,0,1.126-.2v1.008a3.606,3.606,0,0,1-.657.188,3.366,3.366,0,0,1-.625.078,2.175,2.175,0,0,1-1.5-.465,1.765,1.765,0,0,1-.52-1.387,5.656,5.656,0,0,1,.141-1.172l.993-4.7h-1.345l.109-.57L171.8,8.25l.977-1.781h.766l-.43,1.969h2.142l-.2.992h-2.134l-1.009,4.719a5.555,5.555,0,0,0-.141,1.031.928.928,0,0,0,.227.672A.84.84,0,0,0,172.632,16.086Zm5.95,1.07a2.991,2.991,0,0,1-2.259-.852,3.258,3.258,0,0,1-.821-2.359,7.026,7.026,0,0,1,.582-2.816,5.212,5.212,0,0,1,1.544-2.1,3.367,3.367,0,0,1,2.119-.75,2.689,2.689,0,0,1,1.8.52,1.812,1.812,0,0,1,.6,1.449,2.476,2.476,0,0,1-1.3,2.207,7.112,7.112,0,0,1-3.714.8h-.258l-.031.625a2.416,2.416,0,0,0,.481,1.6,1.834,1.834,0,0,0,1.489.574,3.87,3.87,0,0,0,1.012-.141,7.755,7.755,0,0,0,1.294-.516v1.141a7.089,7.089,0,0,1-1.3.48A5.268,5.268,0,0,1,178.582,17.156ZM179.668,9.4a2.089,2.089,0,0,0-1.513.734,4.8,4.8,0,0,0-1.083,2.039h.094a6.386,6.386,0,0,0,2.732-.465,1.459,1.459,0,0,0,.95-1.348.912.912,0,0,0-.285-.687A1.257,1.257,0,0,0,179.668,9.4Zm3.3,7.023a1.386,1.386,0,0,1,.317-.957,1.107,1.107,0,0,1,.872-.355.743.743,0,0,1,.543.2.829.829,0,0,1,.207.617,1.387,1.387,0,0,1-.313.926,1.047,1.047,0,0,1-.844.371.789.789,0,0,1-.571-.2A.8.8,0,0,1,182.968,16.422Zm12.314-7.984-.2.836-1.65.188a2.194,2.194,0,0,1,.321,1.234,3.168,3.168,0,0,1-.911,2.379,3.342,3.342,0,0,1-2.435.887,2.622,2.622,0,0,1-.657-.062q-1.087.414-1.087,1.023a.414.414,0,0,0,.258.426,3.122,3.122,0,0,0,.751.168l.915.109a4.076,4.076,0,0,1,2.052.688,1.835,1.835,0,0,1,.637,1.516,2.55,2.55,0,0,1-1.141,2.227,5.6,5.6,0,0,1-3.213.789,4.243,4.243,0,0,1-2.377-.574,1.839,1.839,0,0,1-.86-1.621,2.012,2.012,0,0,1,.563-1.422,4.384,4.384,0,0,1,1.822-1.023,1.018,1.018,0,0,1-.61-.945,1.245,1.245,0,0,1,.4-.926,4.111,4.111,0,0,1,1.11-.723,2.054,2.054,0,0,1-1.118-1.875,3.431,3.431,0,0,1,.934-2.484,3.174,3.174,0,0,1,2.388-.969,4.715,4.715,0,0,1,1.2.156Zm-8.326,10.086a1.1,1.1,0,0,0,.508.953,2.657,2.657,0,0,0,1.509.352,4.221,4.221,0,0,0,2.224-.5,1.563,1.563,0,0,0,.8-1.4.875.875,0,0,0-.422-.766,3.389,3.389,0,0,0-1.439-.391l-1.243-.125a2.822,2.822,0,0,0-1.439.688A1.605,1.605,0,0,0,186.955,18.523Zm2.173-6.836a1.361,1.361,0,0,0,.352,1.012,1.33,1.33,0,0,0,.977.348,1.813,1.813,0,0,0,1.079-.328,2.086,2.086,0,0,0,.708-.9,3.128,3.128,0,0,0,.246-1.246,1.3,1.3,0,0,0-.344-.977,1.352,1.352,0,0,0-.985-.336,1.829,1.829,0,0,0-1.067.316,2.077,2.077,0,0,0-.711.883A2.971,2.971,0,0,0,189.128,11.688Zm10.6-3.359a3.131,3.131,0,0,1,2.345.879,3.309,3.309,0,0,1,.86,2.418,6.926,6.926,0,0,1-.563,2.773,4.8,4.8,0,0,1-1.525,2.016,3.564,3.564,0,0,1-2.173.711,3.118,3.118,0,0,1-2.353-.883,3.33,3.33,0,0,1-.852-2.414,6.91,6.91,0,0,1,.571-2.793,4.734,4.734,0,0,1,1.54-2.008A3.591,3.591,0,0,1,199.73,8.328Zm1.845,3.117a2.133,2.133,0,0,0-.489-1.457,1.671,1.671,0,0,0-1.325-.559,2.289,2.289,0,0,0-1.528.578,3.721,3.721,0,0,0-1.048,1.605,6.683,6.683,0,0,0-.371,2.285,2.3,2.3,0,0,0,.5,1.582,1.809,1.809,0,0,0,1.427.559,2.157,2.157,0,0,0,1.462-.57,3.724,3.724,0,0,0,1.012-1.621A7.33,7.33,0,0,0,201.575,11.445ZM205.109,17l-.977-8.562h1.313l.5,4.789q.188,2.016.188,2.828h.047q.993-2.148,1.4-2.9l2.541-4.719h1.392L206.891,17Zm5.348-.578a1.386,1.386,0,0,1,.317-.957,1.107,1.107,0,0,1,.872-.355.743.743,0,0,1,.543.2.829.829,0,0,1,.207.617,1.387,1.387,0,0,1-.313.926,1.047,1.047,0,0,1-.844.371.789.789,0,0,1-.571-.2A.8.8,0,0,1,210.456,16.422Zm7.67.734a3.183,3.183,0,0,1-2.353-.836,3.189,3.189,0,0,1-.837-2.359,7.1,7.1,0,0,1,.579-2.883,4.895,4.895,0,0,1,1.6-2.059,3.819,3.819,0,0,1,2.295-.738,5.733,5.733,0,0,1,2.1.4l-.367,1.1a4.426,4.426,0,0,0-1.712-.4,2.451,2.451,0,0,0-1.6.6,3.936,3.936,0,0,0-1.134,1.664,6.4,6.4,0,0,0-.41,2.316,2.186,2.186,0,0,0,.52,1.555,1.871,1.871,0,0,0,1.435.555,3.547,3.547,0,0,0,1.063-.156,9.753,9.753,0,0,0,.985-.367v1.117A4.7,4.7,0,0,1,218.126,17.156Zm8.279-8.828a3.131,3.131,0,0,1,2.345.879,3.309,3.309,0,0,1,.86,2.418,6.926,6.926,0,0,1-.563,2.773,4.8,4.8,0,0,1-1.525,2.016,3.564,3.564,0,0,1-2.173.711A3.118,3.118,0,0,1,223,16.242a3.33,3.33,0,0,1-.852-2.414,6.91,6.91,0,0,1,.571-2.793,4.734,4.734,0,0,1,1.54-2.008A3.591,3.591,0,0,1,226.405,8.328Zm1.845,3.117a2.133,2.133,0,0,0-.489-1.457,1.671,1.671,0,0,0-1.325-.559,2.289,2.289,0,0,0-1.528.578,3.721,3.721,0,0,0-1.048,1.605,6.683,6.683,0,0,0-.371,2.285,2.3,2.3,0,0,0,.5,1.582,1.809,1.809,0,0,0,1.427.559,2.157,2.157,0,0,0,1.462-.57,3.724,3.724,0,0,0,1.012-1.621A7.33,7.33,0,0,0,228.25,11.445Zm9.092-5.867L230.987,17h-1.36l6.356-11.422Zm.4,11.422h-1.313l1.829-8.562h1.313Zm.883-10.75a1.026,1.026,0,0,1,.25-.715.833.833,0,0,1,.649-.277.615.615,0,0,1,.688.7,1.059,1.059,0,0,1-.262.727.789.789,0,0,1-.606.3.723.723,0,0,1-.516-.191A.71.71,0,0,1,238.625,6.25ZM245.732,17l1.157-5.406a7.12,7.12,0,0,0,.156-1.125,1.109,1.109,0,0,0-.278-.789,1.165,1.165,0,0,0-.887-.3,2.319,2.319,0,0,0-1.356.469,4.172,4.172,0,0,0-1.165,1.336,7.026,7.026,0,0,0-.762,2.1L241.807,17h-1.313l1.829-8.562h1.087l-.172,1.586h.078a5.221,5.221,0,0,1,1.45-1.348,2.915,2.915,0,0,1,1.45-.395,2.19,2.19,0,0,1,1.568.543,1.99,1.99,0,0,1,.575,1.52,6.409,6.409,0,0,1-.18,1.406L247.061,17Zm8.537-8.7a2.281,2.281,0,0,1,2.2,1.484h.078a17.976,17.976,0,0,1,.352-2.141l.61-2.8h1.3L256.224,17h-1.087l.172-1.633h-.063a5.869,5.869,0,0,1-1.478,1.383,2.762,2.762,0,0,1-1.423.406,2.048,2.048,0,0,1-1.7-.766,3.327,3.327,0,0,1-.61-2.125A8.089,8.089,0,0,1,250.6,11.2a5.108,5.108,0,0,1,1.521-2.148A3.371,3.371,0,0,1,254.269,8.3Zm-1.485,7.773a2.278,2.278,0,0,0,1.517-.73,5.129,5.129,0,0,0,1.239-1.867A6.156,6.156,0,0,0,256,11.156a1.869,1.869,0,0,0-.422-1.32,1.6,1.6,0,0,0-1.227-.453,2.092,2.092,0,0,0-1.466.645,4.53,4.53,0,0,0-1.087,1.813,7.357,7.357,0,0,0-.41,2.457Q251.384,16.07,252.784,16.07Zm9.577,1.086A2.991,2.991,0,0,1,260.1,16.3a3.258,3.258,0,0,1-.821-2.359,7.026,7.026,0,0,1,.582-2.816,5.213,5.213,0,0,1,1.544-2.1,3.367,3.367,0,0,1,2.119-.75,2.689,2.689,0,0,1,1.8.52,1.812,1.812,0,0,1,.6,1.449,2.476,2.476,0,0,1-1.3,2.207,7.112,7.112,0,0,1-3.714.8h-.258l-.031.625a2.416,2.416,0,0,0,.481,1.6,1.834,1.834,0,0,0,1.489.574,3.87,3.87,0,0,0,1.012-.141A7.754,7.754,0,0,0,264.9,15.4v1.141a7.09,7.09,0,0,1-1.3.48A5.268,5.268,0,0,1,262.361,17.156ZM263.448,9.4a2.089,2.089,0,0,0-1.513.734,4.8,4.8,0,0,0-1.083,2.039h.094a6.386,6.386,0,0,0,2.732-.465,1.459,1.459,0,0,0,.95-1.348.912.912,0,0,0-.285-.687A1.257,1.257,0,0,0,263.448,9.4Zm6.294,4.211L267.036,17h-1.525l3.714-4.414-1.869-4.148h1.329l1.36,3.219,2.58-3.219h1.517l-3.557,4.211L272.556,17h-1.313Zm4.339,2.813a1.386,1.386,0,0,1,.317-.957,1.108,1.108,0,0,1,.872-.355.743.743,0,0,1,.543.2.829.829,0,0,1,.207.617,1.387,1.387,0,0,1-.313.926,1.047,1.047,0,0,1-.844.371.788.788,0,0,1-.571-.2A.8.8,0,0,1,274.08,16.422Zm7.974.734a2.3,2.3,0,0,1-1.329-.391,2.537,2.537,0,0,1-.883-1.094h-.078l-.031.3q-.023.2-.082.547t-.9,4.328h-1.3l2.627-12.406h1.087l-.2,1.633h.063A3.84,3.84,0,0,1,283.939,8.3a2.057,2.057,0,0,1,1.689.762,3.308,3.308,0,0,1,.618,2.137,8.294,8.294,0,0,1-.539,3.039,5.046,5.046,0,0,1-1.493,2.152A3.345,3.345,0,0,1,282.055,17.156Zm1.454-7.773a2.262,2.262,0,0,0-1.528.742,5.292,5.292,0,0,0-1.235,1.867,6.068,6.068,0,0,0-.457,2.3,1.84,1.84,0,0,0,.434,1.316,1.649,1.649,0,0,0,1.255.457,2.068,2.068,0,0,0,1.442-.633,4.442,4.442,0,0,0,1.075-1.8,7.491,7.491,0,0,0,.407-2.48Q284.9,9.383,283.509,9.383ZM292.734,17l1.157-5.406a6.423,6.423,0,0,0,.141-1.055,1.019,1.019,0,0,0-1.149-1.156,2.344,2.344,0,0,0-1.356.461,4.053,4.053,0,0,0-1.165,1.34A7.184,7.184,0,0,0,289.6,13.3l-.79,3.7H287.5l2.58-12.156h1.313q-.141.641-.27,1.242t-.266,1.223q-.137.621-.3,1.3t-.371,1.477h.086a5.207,5.207,0,0,1,1.45-1.375,2.946,2.946,0,0,1,1.5-.414,2.133,2.133,0,0,1,1.583.563,2.163,2.163,0,0,1,.559,1.594,6.345,6.345,0,0,1-.18,1.3q-.3,1.508-1.134,5.25Zm7.8.156a2.3,2.3,0,0,1-1.329-.391,2.537,2.537,0,0,1-.883-1.094h-.078l-.031.3q-.023.2-.082.547t-.9,4.328h-1.3l2.627-12.406h1.087l-.2,1.633h.063A3.84,3.84,0,0,1,302.421,8.3a2.057,2.057,0,0,1,1.689.762,3.308,3.308,0,0,1,.618,2.137,8.294,8.294,0,0,1-.539,3.039,5.046,5.046,0,0,1-1.493,2.152A3.345,3.345,0,0,1,300.537,17.156Zm1.454-7.773a2.262,2.262,0,0,0-1.528.742,5.292,5.292,0,0,0-1.235,1.867,6.068,6.068,0,0,0-.457,2.3,1.84,1.84,0,0,0,.434,1.316,1.648,1.648,0,0,0,1.255.457,2.068,2.068,0,0,0,1.442-.633,4.442,4.442,0,0,0,1.075-1.8,7.492,7.492,0,0,0,.407-2.48Q303.383,9.383,301.991,9.383Zm10.508-3.8L306.142,17h-1.36l6.356-11.422ZM316.822,17l1.157-5.406a7.123,7.123,0,0,0,.156-1.125,1.109,1.109,0,0,0-.278-.789,1.165,1.165,0,0,0-.887-.3,2.319,2.319,0,0,0-1.356.469,4.172,4.172,0,0,0-1.165,1.336,7.026,7.026,0,0,0-.762,2.1L312.9,17h-1.313l1.829-8.562H314.5l-.172,1.586h.078a5.221,5.221,0,0,1,1.45-1.348,2.915,2.915,0,0,1,1.45-.395,2.19,2.19,0,0,1,1.568.543,1.99,1.99,0,0,1,.575,1.52,6.409,6.409,0,0,1-.18,1.406L318.151,17Zm8.569-8.672a3.131,3.131,0,0,1,2.345.879,3.309,3.309,0,0,1,.86,2.418,6.926,6.926,0,0,1-.563,2.773,4.8,4.8,0,0,1-1.525,2.016,3.564,3.564,0,0,1-2.173.711,3.118,3.118,0,0,1-2.353-.883,3.33,3.33,0,0,1-.852-2.414,6.91,6.91,0,0,1,.571-2.793,4.735,4.735,0,0,1,1.54-2.008A3.591,3.591,0,0,1,325.391,8.328Zm1.845,3.117a2.133,2.133,0,0,0-.489-1.457,1.671,1.671,0,0,0-1.325-.559,2.289,2.289,0,0,0-1.528.578,3.721,3.721,0,0,0-1.048,1.605,6.683,6.683,0,0,0-.371,2.285,2.3,2.3,0,0,0,.5,1.582,1.809,1.809,0,0,0,1.427.559,2.157,2.157,0,0,0,1.462-.57,3.725,3.725,0,0,0,1.012-1.621A7.331,7.331,0,0,0,327.236,11.445Zm7.99-3.164a3.57,3.57,0,0,1,.938.109l-.281,1.172a3.439,3.439,0,0,0-.821-.1,2.173,2.173,0,0,0-1.333.469,4.1,4.1,0,0,0-1.087,1.3,6.62,6.62,0,0,0-.684,1.848L331.121,17h-1.313l1.829-8.562h1.087l-.172,1.586h.078a7.679,7.679,0,0,1,.93-1.066,2.95,2.95,0,0,1,.77-.5A2.214,2.214,0,0,1,335.226,8.281Zm5.9,8.719,1.157-5.406a6.422,6.422,0,0,0,.141-1.055,1.336,1.336,0,0,0-.242-.852,1,1,0,0,0-.829-.3,2.1,2.1,0,0,0-1.278.469,4.08,4.08,0,0,0-1.095,1.34,7.724,7.724,0,0,0-.731,2.1L337.462,17h-1.313l1.829-8.562h1.087l-.172,1.586h.078a4.9,4.9,0,0,1,1.356-1.336,2.676,2.676,0,0,1,1.4-.406,1.776,1.776,0,0,1,1.36.508,2.321,2.321,0,0,1,.563,1.414h.063a5.019,5.019,0,0,1,1.431-1.449,2.871,2.871,0,0,1,1.532-.473,2.106,2.106,0,0,1,1.536.531,2.068,2.068,0,0,1,.543,1.547,7.43,7.43,0,0,1-.172,1.391L347.453,17h-1.329l1.157-5.406a7.1,7.1,0,0,0,.156-1.141.985.985,0,0,0-1.118-1.07,2.1,2.1,0,0,0-1.251.453,3.947,3.947,0,0,0-1.083,1.285,7.017,7.017,0,0,0-.708,1.973L342.442,17Zm13.518-8.719a2.21,2.21,0,0,1,1.282.387,2.513,2.513,0,0,1,.876,1.113h.086l.524-1.344h.993L356.585,17h-1.04l.2-1.633h-.063a3.856,3.856,0,0,1-2.947,1.789,2.061,2.061,0,0,1-1.7-.773,3.3,3.3,0,0,1-.618-2.117,8.061,8.061,0,0,1,.555-3.016A5.21,5.21,0,0,1,352.5,9.07,3.335,3.335,0,0,1,354.646,8.281Zm-1.485,7.789a2.2,2.2,0,0,0,1.509-.723,5.355,5.355,0,0,0,1.22-1.883,6.159,6.159,0,0,0,.469-2.324,1.82,1.82,0,0,0-.438-1.281,1.487,1.487,0,0,0-1.149-.477,2.153,2.153,0,0,0-1.513.672,4.533,4.533,0,0,0-1.1,1.82,7.331,7.331,0,0,0-.4,2.422,2.047,2.047,0,0,0,.367,1.332A1.268,1.268,0,0,0,353.161,16.07Zm8.623.016a4.232,4.232,0,0,0,1.126-.2v1.008a3.606,3.606,0,0,1-.657.188,3.365,3.365,0,0,1-.625.078,2.175,2.175,0,0,1-1.5-.465,1.765,1.765,0,0,1-.52-1.387,5.656,5.656,0,0,1,.141-1.172l.993-4.7H359.4l.109-.57,1.446-.609.977-1.781h.766l-.43,1.969h2.142l-.2.992h-2.134l-1.009,4.719a5.555,5.555,0,0,0-.141,1.031.928.928,0,0,0,.227.672A.84.84,0,0,0,361.784,16.086Zm3.878.914h-1.313l1.829-8.562h1.313Zm.883-10.75a1.027,1.027,0,0,1,.25-.715.833.833,0,0,1,.649-.277.615.615,0,0,1,.688.7,1.059,1.059,0,0,1-.262.727.789.789,0,0,1-.606.3.723.723,0,0,1-.516-.191A.71.71,0,0,1,366.545,6.25ZM369.7,17l-.977-8.562h1.313l.5,4.789q.188,2.016.188,2.828h.047q.993-2.148,1.4-2.9l2.541-4.719H376.1L371.479,17Zm10.648-8.719a2.21,2.21,0,0,1,1.282.387,2.513,2.513,0,0,1,.876,1.113h.086l.524-1.344h.993L382.283,17h-1.04l.2-1.633h-.063a3.856,3.856,0,0,1-2.947,1.789,2.061,2.061,0,0,1-1.7-.773,3.3,3.3,0,0,1-.618-2.117,8.06,8.06,0,0,1,.555-3.016A5.21,5.21,0,0,1,378.2,9.07,3.335,3.335,0,0,1,380.344,8.281Zm-1.485,7.789a2.2,2.2,0,0,0,1.509-.723,5.355,5.355,0,0,0,1.22-1.883,6.159,6.159,0,0,0,.469-2.324,1.82,1.82,0,0,0-.438-1.281,1.487,1.487,0,0,0-1.149-.477,2.153,2.153,0,0,0-1.513.672,4.532,4.532,0,0,0-1.1,1.82,7.332,7.332,0,0,0-.4,2.422,2.047,2.047,0,0,0,.367,1.332A1.268,1.268,0,0,0,378.859,16.07ZM391.376,5.578,385.02,17h-1.36l6.356-11.422ZM395,8.3a2.281,2.281,0,0,1,2.2,1.484h.078a17.976,17.976,0,0,1,.352-2.141l.61-2.8h1.3L396.95,17h-1.087l.172-1.633h-.063A5.869,5.869,0,0,1,394.5,16.75a2.762,2.762,0,0,1-1.423.406,2.048,2.048,0,0,1-1.7-.766,3.327,3.327,0,0,1-.61-2.125,8.089,8.089,0,0,1,.563-3.062,5.107,5.107,0,0,1,1.521-2.148A3.372,3.372,0,0,1,395,8.3ZM393.51,16.07a2.278,2.278,0,0,0,1.517-.73,5.128,5.128,0,0,0,1.239-1.867,6.156,6.156,0,0,0,.457-2.316,1.869,1.869,0,0,0-.422-1.32,1.6,1.6,0,0,0-1.227-.453,2.092,2.092,0,0,0-1.466.645,4.53,4.53,0,0,0-1.087,1.813,7.357,7.357,0,0,0-.41,2.457Q392.111,16.07,393.51,16.07Zm9.577,1.086a2.991,2.991,0,0,1-2.259-.852,3.258,3.258,0,0,1-.821-2.359,7.026,7.026,0,0,1,.582-2.816,5.212,5.212,0,0,1,1.544-2.1,3.366,3.366,0,0,1,2.119-.75,2.689,2.689,0,0,1,1.8.52,1.812,1.812,0,0,1,.6,1.449,2.476,2.476,0,0,1-1.3,2.207,7.112,7.112,0,0,1-3.714.8h-.258l-.031.625a2.416,2.416,0,0,0,.481,1.6,1.834,1.834,0,0,0,1.489.574,3.87,3.87,0,0,0,1.012-.141,7.755,7.755,0,0,0,1.294-.516v1.141a7.089,7.089,0,0,1-1.3.48A5.268,5.268,0,0,1,403.087,17.156ZM404.174,9.4a2.089,2.089,0,0,0-1.513.734,4.8,4.8,0,0,0-1.083,2.039h.094a6.386,6.386,0,0,0,2.732-.465,1.459,1.459,0,0,0,.95-1.348.912.912,0,0,0-.285-.687A1.257,1.257,0,0,0,404.174,9.4Zm6.919,7.758a3.183,3.183,0,0,1-2.353-.836,3.189,3.189,0,0,1-.837-2.359,7.1,7.1,0,0,1,.579-2.883,4.894,4.894,0,0,1,1.6-2.059,3.819,3.819,0,0,1,2.295-.738,5.733,5.733,0,0,1,2.1.4l-.367,1.1a4.426,4.426,0,0,0-1.712-.4,2.451,2.451,0,0,0-1.6.6,3.936,3.936,0,0,0-1.134,1.664,6.4,6.4,0,0,0-.41,2.316,2.186,2.186,0,0,0,.52,1.555,1.871,1.871,0,0,0,1.435.555,3.547,3.547,0,0,0,1.063-.156,9.748,9.748,0,0,0,.985-.367v1.117A4.7,4.7,0,0,1,411.093,17.156Zm9.132-8.875a3.57,3.57,0,0,1,.938.109l-.281,1.172a3.439,3.439,0,0,0-.821-.1,2.173,2.173,0,0,0-1.333.469,4.1,4.1,0,0,0-1.087,1.3,6.62,6.62,0,0,0-.684,1.848L416.12,17h-1.313l1.829-8.562h1.087l-.172,1.586h.078a7.679,7.679,0,0,1,.93-1.066,2.95,2.95,0,0,1,.77-.5A2.214,2.214,0,0,1,420.225,8.281Zm3.987,8.875a2.991,2.991,0,0,1-2.259-.852,3.258,3.258,0,0,1-.821-2.359,7.026,7.026,0,0,1,.582-2.816,5.213,5.213,0,0,1,1.544-2.1,3.367,3.367,0,0,1,2.119-.75,2.689,2.689,0,0,1,1.8.52,1.812,1.812,0,0,1,.6,1.449,2.476,2.476,0,0,1-1.3,2.207,7.112,7.112,0,0,1-3.714.8h-.258l-.031.625a2.416,2.416,0,0,0,.481,1.6,1.834,1.834,0,0,0,1.489.574,3.87,3.87,0,0,0,1.012-.141,7.755,7.755,0,0,0,1.294-.516v1.141a7.089,7.089,0,0,1-1.3.48A5.268,5.268,0,0,1,424.212,17.156ZM425.3,9.4a2.089,2.089,0,0,0-1.513.734,4.8,4.8,0,0,0-1.083,2.039h.094a6.387,6.387,0,0,0,2.732-.465,1.459,1.459,0,0,0,.95-1.348.912.912,0,0,0-.285-.687A1.257,1.257,0,0,0,425.3,9.4Zm6.051,6.688a4.232,4.232,0,0,0,1.126-.2v1.008a3.607,3.607,0,0,1-.657.188,3.365,3.365,0,0,1-.625.078,2.175,2.175,0,0,1-1.5-.465,1.765,1.765,0,0,1-.52-1.387,5.656,5.656,0,0,1,.141-1.172l.993-4.7h-1.345l.109-.57,1.446-.609.977-1.781h.766l-.43,1.969h2.142l-.2.992h-2.134l-1.009,4.719a5.555,5.555,0,0,0-.141,1.031.928.928,0,0,0,.227.672A.84.84,0,0,0,431.35,16.086Zm7.13-7.758a3.131,3.131,0,0,1,2.345.879,3.309,3.309,0,0,1,.86,2.418,6.926,6.926,0,0,1-.563,2.773,4.8,4.8,0,0,1-1.525,2.016,3.564,3.564,0,0,1-2.173.711,3.118,3.118,0,0,1-2.353-.883,3.33,3.33,0,0,1-.852-2.414,6.91,6.91,0,0,1,.571-2.793,4.735,4.735,0,0,1,1.54-2.008A3.591,3.591,0,0,1,438.48,8.328Zm1.845,3.117a2.133,2.133,0,0,0-.489-1.457,1.671,1.671,0,0,0-1.325-.559,2.289,2.289,0,0,0-1.528.578,3.721,3.721,0,0,0-1.048,1.605,6.684,6.684,0,0,0-.371,2.285,2.3,2.3,0,0,0,.5,1.582,1.809,1.809,0,0,0,1.427.559,2.157,2.157,0,0,0,1.462-.57,3.725,3.725,0,0,0,1.012-1.621A7.331,7.331,0,0,0,440.325,11.445Zm7.857,3.125a2.29,2.29,0,0,1-.864,1.9,3.838,3.838,0,0,1-2.435.684,5.2,5.2,0,0,1-2.385-.539V15.383a4.869,4.869,0,0,0,1.181.508,4.317,4.317,0,0,0,1.173.18,2.385,2.385,0,0,0,1.485-.391,1.214,1.214,0,0,0,.5-1,1.082,1.082,0,0,0-.274-.75,5.515,5.515,0,0,0-1.181-.836,4.755,4.755,0,0,1-1.439-1.117,2.06,2.06,0,0,1-.422-1.3,2.155,2.155,0,0,1,.79-1.738,3.135,3.135,0,0,1,2.08-.66,6.051,6.051,0,0,1,2.58.578l-.422,1.07-.438-.2a4.348,4.348,0,0,0-1.72-.336,1.749,1.749,0,0,0-1.141.34,1.145,1.145,0,0,0-.137,1.629,4.9,4.9,0,0,0,1.145.8,6.66,6.66,0,0,1,1.2.8A2.323,2.323,0,0,1,448,13.7,2.042,2.042,0,0,1,448.182,14.57Zm3.143-.719a4.746,4.746,0,0,1,.567-1.668,5.411,5.411,0,0,1,1.294-1.363A12.283,12.283,0,0,0,454.5,9.7a2.88,2.88,0,0,0,.493-.734,2.068,2.068,0,0,0,.18-.875,1.5,1.5,0,0,0-.4-1.121,1.58,1.58,0,0,0-1.153-.395,3.7,3.7,0,0,0-1.212.2,11.017,11.017,0,0,0-1.095.441L450.833,6.2a6.175,6.175,0,0,1,1.5-.594,5.918,5.918,0,0,1,1.423-.2,2.9,2.9,0,0,1,2.025.656A2.39,2.39,0,0,1,456.5,7.93a3.243,3.243,0,0,1-.512,1.77,7.132,7.132,0,0,1-1.763,1.746A6.988,6.988,0,0,0,452.9,12.6a3.139,3.139,0,0,0-.524,1.254Zm-.8,2.57a1.4,1.4,0,0,1,.313-.957,1.1,1.1,0,0,1,.868-.355.753.753,0,0,1,.551.2.829.829,0,0,1,.207.617,1.349,1.349,0,0,1-.324.934,1.066,1.066,0,0,1-.833.363.789.789,0,0,1-.571-.2A.8.8,0,0,1,450.528,16.422ZM1.774,39H.461L2.29,30.438H3.6Zm.883-10.75a1.026,1.026,0,0,1,.25-.715.833.833,0,0,1,.649-.277.615.615,0,0,1,.688.7,1.059,1.059,0,0,1-.262.727.789.789,0,0,1-.606.3.723.723,0,0,1-.516-.191A.71.71,0,0,1,2.658,28.25Zm6.4,2.047a2.281,2.281,0,0,1,2.2,1.484h.078a17.985,17.985,0,0,1,.352-2.141l.61-2.8h1.3L11.015,39H9.929l.172-1.633h-.063A5.869,5.869,0,0,1,8.561,38.75a2.762,2.762,0,0,1-1.423.406,2.048,2.048,0,0,1-1.7-.766,3.327,3.327,0,0,1-.61-2.125A8.089,8.089,0,0,1,5.394,33.2a5.107,5.107,0,0,1,1.521-2.148A3.372,3.372,0,0,1,9.061,30.3ZM7.575,38.07a2.278,2.278,0,0,0,1.517-.73,5.129,5.129,0,0,0,1.239-1.867,6.156,6.156,0,0,0,.457-2.316,1.869,1.869,0,0,0-.422-1.32,1.6,1.6,0,0,0-1.227-.453,2.092,2.092,0,0,0-1.466.645A4.53,4.53,0,0,0,6.586,33.84a7.356,7.356,0,0,0-.41,2.457Q6.176,38.07,7.575,38.07ZM14.3,32.3V31.211h7.193V32.3Zm0,3.234V34.422h7.193v1.109ZM29.247,39H22.219l.242-1.148L26.1,34.57q.8-.727,1.38-1.277a9.363,9.363,0,0,0,.962-1.039A3.815,3.815,0,0,0,29,31.285a2.964,2.964,0,0,0,.184-1.066,1.626,1.626,0,0,0-.469-1.227,1.757,1.757,0,0,0-1.274-.453,3.231,3.231,0,0,0-1.177.223,5.345,5.345,0,0,0-1.27.754l-.641-.9a5.046,5.046,0,0,1,3.229-1.2,3.221,3.221,0,0,1,2.177.691,2.38,2.38,0,0,1,.8,1.9,4.033,4.033,0,0,1-.309,1.594,5.874,5.874,0,0,1-1.024,1.539,26.134,26.134,0,0,1-2.3,2.2l-2.752,2.4V37.8h5.3Zm10.234-7.922a13.686,13.686,0,0,1-.614,4.211,6.609,6.609,0,0,1-1.673,2.887,3.509,3.509,0,0,1-2.459.98,2.464,2.464,0,0,1-2.111-1,4.813,4.813,0,0,1-.735-2.887,12.548,12.548,0,0,1,.641-4.02,6.794,6.794,0,0,1,1.693-2.883,3.441,3.441,0,0,1,2.4-.973Q39.481,27.4,39.481,31.078Zm-2.932-2.555a2.133,2.133,0,0,0-1.634.9A6.906,6.906,0,0,0,33.7,31.949a11.937,11.937,0,0,0-.465,3.309,4.394,4.394,0,0,0,.391,2.063,1.328,1.328,0,0,0,1.259.719,2.109,2.109,0,0,0,1.634-.891,6.713,6.713,0,0,0,1.177-2.562,13.8,13.8,0,0,0,.442-3.539Q38.137,28.523,36.549,28.523Zm11.555,2.4a12.452,12.452,0,0,1-.438,3.176,10.3,10.3,0,0,1-1.153,2.813,4.649,4.649,0,0,1-1.732,1.7,4.908,4.908,0,0,1-2.361.547,6.194,6.194,0,0,1-1.892-.266V37.656a5.857,5.857,0,0,0,1.923.367,3.255,3.255,0,0,0,2.557-1.1,7.57,7.57,0,0,0,1.478-3.445h-.078a2.861,2.861,0,0,1-1.036.926,2.951,2.951,0,0,1-1.411.34,2.656,2.656,0,0,1-2.041-.77,3.186,3.186,0,0,1-.719-2.254,4.782,4.782,0,0,1,.5-2.191,3.758,3.758,0,0,1,3.436-2.113,2.741,2.741,0,0,1,2.185.895A3.874,3.874,0,0,1,48.1,30.922Zm-3.01-2.4a2.3,2.3,0,0,0-1.884.883,3.5,3.5,0,0,0-.711,2.266,2.275,2.275,0,0,0,.426,1.484,1.553,1.553,0,0,0,1.27.516,2.662,2.662,0,0,0,1.095-.223,2.33,2.33,0,0,0,.848-.637,2.734,2.734,0,0,0,.508-.891,3.74,3.74,0,0,0,.16-1.18,2.589,2.589,0,0,0-.461-1.621A1.5,1.5,0,0,0,45.095,28.523ZM56.97,29.945a2.92,2.92,0,0,1-.79,2.066,3.8,3.8,0,0,1-2.189,1.1v.07a2.532,2.532,0,0,1,1.525.832,2.426,2.426,0,0,1,.555,1.629,3.442,3.442,0,0,1-.485,1.832,3.252,3.252,0,0,1-1.415,1.238,5.081,5.081,0,0,1-2.213.445,7.235,7.235,0,0,1-3.01-.617V37.258a7.128,7.128,0,0,0,1.556.59,6.131,6.131,0,0,0,1.485.207,2.878,2.878,0,0,0,1.97-.621,2.15,2.15,0,0,0,.7-1.7,1.926,1.926,0,0,0-.618-1.551,2.567,2.567,0,0,0-1.72-.527H51.3l.242-1.117h1.087a3.327,3.327,0,0,0,2.142-.68,2.161,2.161,0,0,0,.852-1.773,1.482,1.482,0,0,0-.453-1.141,1.731,1.731,0,0,0-1.227-.422,3.687,3.687,0,0,0-1.227.211,6.217,6.217,0,0,0-1.368.727l-.625-.922a5.467,5.467,0,0,1,3.315-1.125,3.156,3.156,0,0,1,2.166.68A2.349,2.349,0,0,1,56.97,29.945Zm8.53,2.031-.766,2.656h2.228l-.1,1.008H64.445L63.467,39H62.381l1.009-3.359H61.02L60.027,39h-1.04l.946-3.359H57.893l.1-1.008h2.22L61,31.977H58.839l.1-.992h2.353l.962-3.406h1.087l-.977,3.406h2.385l.993-3.406h1.04L65.8,30.984h2.064l-.094.992ZM61.31,34.633h2.369l.751-2.656H62.06Zm6.771,3.789a1.386,1.386,0,0,1,.317-.957,1.107,1.107,0,0,1,.872-.355.743.743,0,0,1,.543.2.829.829,0,0,1,.207.617,1.387,1.387,0,0,1-.313.926,1.047,1.047,0,0,1-.844.371.789.789,0,0,1-.571-.2A.8.8,0,0,1,68.08,38.422Zm1.251-6.891a1.4,1.4,0,0,1,.313-.957,1.1,1.1,0,0,1,.868-.355q.758,0,.758.813a1.349,1.349,0,0,1-.324.934,1.066,1.066,0,0,1-.833.363.78.78,0,0,1-.571-.207A.789.789,0,0,1,69.331,31.531Zm5.183,1.9a1.991,1.991,0,0,0-.926.27,3.567,3.567,0,0,0-.9.676V33.2a2.453,2.453,0,0,1,1.9-.852,4.093,4.093,0,0,1,.993.113,7.7,7.7,0,0,1,1.126.4,8.075,8.075,0,0,0,.88.32,2.765,2.765,0,0,0,.77.109,2.071,2.071,0,0,0,.934-.258,3.234,3.234,0,0,0,.9-.687v1.172a2.482,2.482,0,0,1-1.908.859,4.156,4.156,0,0,1-1.055-.129,6.967,6.967,0,0,1-1.055-.379,7.427,7.427,0,0,0-.938-.344A2.812,2.812,0,0,0,74.514,33.43Zm6.434,4.992a1.386,1.386,0,0,1,.317-.957,1.107,1.107,0,0,1,.872-.355.743.743,0,0,1,.543.2.829.829,0,0,1,.207.617,1.387,1.387,0,0,1-.313.926,1.047,1.047,0,0,1-.844.371.788.788,0,0,1-.571-.2A.8.8,0,0,1,80.949,38.422ZM82.2,31.531a1.4,1.4,0,0,1,.313-.957,1.1,1.1,0,0,1,.868-.355q.758,0,.758.813a1.349,1.349,0,0,1-.324.934,1.066,1.066,0,0,1-.833.363.78.78,0,0,1-.571-.207A.789.789,0,0,1,82.2,31.531Zm5.551,6.555a4.232,4.232,0,0,0,1.126-.2v1.008a3.606,3.606,0,0,1-.657.188,3.366,3.366,0,0,1-.625.078,2.175,2.175,0,0,1-1.5-.465,1.765,1.765,0,0,1-.52-1.387,5.656,5.656,0,0,1,.141-1.172l.993-4.7H85.366l.109-.57,1.446-.609.977-1.781h.766l-.43,1.969h2.142l-.2.992H88.04l-1.009,4.719a5.554,5.554,0,0,0-.141,1.031.928.928,0,0,0,.227.672A.84.84,0,0,0,87.75,38.086Zm5.95,1.07a2.991,2.991,0,0,1-2.259-.852,3.258,3.258,0,0,1-.821-2.359,7.026,7.026,0,0,1,.582-2.816,5.213,5.213,0,0,1,1.544-2.1,3.367,3.367,0,0,1,2.119-.75,2.689,2.689,0,0,1,1.8.52,1.812,1.812,0,0,1,.6,1.449,2.476,2.476,0,0,1-1.3,2.207,7.112,7.112,0,0,1-3.714.8H92l-.031.625a2.416,2.416,0,0,0,.481,1.6,1.834,1.834,0,0,0,1.489.574,3.87,3.87,0,0,0,1.012-.141,7.755,7.755,0,0,0,1.294-.516v1.141a7.089,7.089,0,0,1-1.3.48A5.268,5.268,0,0,1,93.7,39.156ZM94.787,31.4a2.089,2.089,0,0,0-1.513.734,4.8,4.8,0,0,0-1.083,2.039h.094a6.386,6.386,0,0,0,2.732-.465,1.459,1.459,0,0,0,.95-1.348.912.912,0,0,0-.285-.687A1.257,1.257,0,0,0,94.787,31.4Zm6.294,4.211L98.375,39H96.851l3.714-4.414L98.7,30.438h1.329l1.36,3.219,2.58-3.219h1.517l-3.557,4.211L103.895,39h-1.313Zm7.091,2.477a4.232,4.232,0,0,0,1.126-.2v1.008a3.606,3.606,0,0,1-.657.188,3.366,3.366,0,0,1-.625.078,2.175,2.175,0,0,1-1.5-.465A1.765,1.765,0,0,1,106,37.3a5.656,5.656,0,0,1,.141-1.172l.993-4.7h-1.345l.109-.57,1.446-.609.977-1.781h.766l-.43,1.969H110.8l-.2.992h-2.134l-1.009,4.719a5.554,5.554,0,0,0-.141,1.031.928.928,0,0,0,.227.672A.84.84,0,0,0,108.171,38.086Zm3.1-5.789V31.211h7.193V32.3Zm0,3.234V34.422h7.193v1.109ZM125.512,39h-5.746l2.416-11.422h5.746l-.25,1.2h-4.425l-.766,3.664h4.12l-.227,1.188h-4.136l-.891,4.188h4.417Zm3.526,0h-1.313l2.6-12.156h1.313Zm13.783-11.422L134.339,39H133.15l8.49-11.422Zm-1.439,5.391a1.191,1.191,0,0,0-.934.5,3.828,3.828,0,0,0-.657,1.473,7.6,7.6,0,0,0-.246,1.875q0,1.352.829,1.352a1.165,1.165,0,0,0,.915-.508,4.192,4.192,0,0,0,.676-1.551,7.488,7.488,0,0,0,.27-1.848Q142.235,32.969,141.383,32.969Zm1.939,1.18a7.82,7.82,0,0,1-.246,1.844,6.581,6.581,0,0,1-.641,1.7,3.263,3.263,0,0,1-.946,1.078,2.082,2.082,0,0,1-1.224.387,1.632,1.632,0,0,1-1.337-.582,2.654,2.654,0,0,1-.477-1.715,7.859,7.859,0,0,1,.395-2.488,4.007,4.007,0,0,1,1.067-1.785,2.29,2.29,0,0,1,1.564-.594,1.7,1.7,0,0,1,1.376.559A2.419,2.419,0,0,1,143.322,34.148Zm-7.732-5.758a1.2,1.2,0,0,0-.93.492,3.713,3.713,0,0,0-.665,1.465,7.62,7.62,0,0,0-.25,1.9q0,1.344.837,1.344a1.048,1.048,0,0,0,.735-.309,2.594,2.594,0,0,0,.575-.891,6.734,6.734,0,0,0,.395-1.367,7.387,7.387,0,0,0,.149-1.34Q136.434,28.391,135.59,28.391Zm1.939,1.188a7.779,7.779,0,0,1-.25,1.855,6.6,6.6,0,0,1-.645,1.7,3.253,3.253,0,0,1-.942,1.07,2.091,2.091,0,0,1-1.227.383A1.618,1.618,0,0,1,133.135,34a2.671,2.671,0,0,1-.477-1.719,7.859,7.859,0,0,1,.395-2.488,4.007,4.007,0,0,1,1.067-1.785,2.29,2.29,0,0,1,1.564-.594,1.69,1.69,0,0,1,1.376.563A2.436,2.436,0,0,1,137.529,29.578ZM151.163,39h-7.029l.242-1.148,3.635-3.281q.8-.727,1.38-1.277a9.365,9.365,0,0,0,.962-1.039,3.815,3.815,0,0,0,.563-.969,2.964,2.964,0,0,0,.184-1.066,1.626,1.626,0,0,0-.469-1.227,1.757,1.757,0,0,0-1.274-.453,3.231,3.231,0,0,0-1.177.223,5.344,5.344,0,0,0-1.27.754l-.641-.9a5.046,5.046,0,0,1,3.229-1.2,3.221,3.221,0,0,1,2.177.691,2.38,2.38,0,0,1,.8,1.9,4.033,4.033,0,0,1-.309,1.594,5.875,5.875,0,0,1-1.024,1.539,26.134,26.134,0,0,1-2.3,2.2l-2.752,2.4V37.8h5.3ZM161.4,31.078a13.685,13.685,0,0,1-.614,4.211,6.609,6.609,0,0,1-1.673,2.887,3.509,3.509,0,0,1-2.459.98,2.464,2.464,0,0,1-2.111-1,4.813,4.813,0,0,1-.735-2.887,12.549,12.549,0,0,1,.641-4.02,6.794,6.794,0,0,1,1.693-2.883,3.441,3.441,0,0,1,2.4-.973Q161.4,27.4,161.4,31.078Zm-2.932-2.555a2.133,2.133,0,0,0-1.634.9,6.906,6.906,0,0,0-1.216,2.523,11.937,11.937,0,0,0-.465,3.309,4.394,4.394,0,0,0,.391,2.063,1.328,1.328,0,0,0,1.259.719,2.109,2.109,0,0,0,1.634-.891,6.713,6.713,0,0,0,1.177-2.562,13.8,13.8,0,0,0,.442-3.539Q160.053,28.523,158.466,28.523Zm8.209,1.773a2.281,2.281,0,0,1,2.2,1.484h.078a17.989,17.989,0,0,1,.352-2.141l.61-2.8h1.3L168.629,39h-1.087l.172-1.633h-.063a5.869,5.869,0,0,1-1.478,1.383,2.762,2.762,0,0,1-1.423.406,2.048,2.048,0,0,1-1.7-.766,3.327,3.327,0,0,1-.61-2.125,8.09,8.09,0,0,1,.563-3.062,5.108,5.108,0,0,1,1.521-2.148A3.372,3.372,0,0,1,166.675,30.3Zm-1.485,7.773a2.278,2.278,0,0,0,1.517-.73,5.129,5.129,0,0,0,1.239-1.867,6.156,6.156,0,0,0,.457-2.316,1.869,1.869,0,0,0-.422-1.32,1.6,1.6,0,0,0-1.227-.453,2.092,2.092,0,0,0-1.466.645A4.53,4.53,0,0,0,164.2,33.84a7.356,7.356,0,0,0-.41,2.457Q163.79,38.07,165.189,38.07Zm9.577,1.086a2.991,2.991,0,0,1-2.259-.852,3.258,3.258,0,0,1-.821-2.359,7.026,7.026,0,0,1,.582-2.816,5.213,5.213,0,0,1,1.544-2.1,3.367,3.367,0,0,1,2.119-.75,2.689,2.689,0,0,1,1.8.52,1.812,1.812,0,0,1,.6,1.449,2.476,2.476,0,0,1-1.3,2.207,7.112,7.112,0,0,1-3.714.8h-.258l-.031.625a2.416,2.416,0,0,0,.481,1.6,1.834,1.834,0,0,0,1.489.574,3.87,3.87,0,0,0,1.012-.141,7.754,7.754,0,0,0,1.294-.516v1.141a7.089,7.089,0,0,1-1.3.48A5.268,5.268,0,0,1,174.766,39.156Zm1.087-7.758a2.089,2.089,0,0,0-1.513.734,4.8,4.8,0,0,0-1.083,2.039h.094a6.387,6.387,0,0,0,2.732-.465,1.459,1.459,0,0,0,.95-1.348.912.912,0,0,0-.285-.687A1.257,1.257,0,0,0,175.853,31.4Zm6.919,7.758a2.908,2.908,0,0,1-3.19-3.2,7.1,7.1,0,0,1,.579-2.883,4.895,4.895,0,0,1,1.6-2.059,3.819,3.819,0,0,1,2.295-.738,5.733,5.733,0,0,1,2.1.4l-.367,1.1a4.426,4.426,0,0,0-1.712-.4,2.451,2.451,0,0,0-1.6.6,3.936,3.936,0,0,0-1.134,1.664,6.4,6.4,0,0,0-.41,2.316,2.186,2.186,0,0,0,.52,1.555,1.871,1.871,0,0,0,1.435.555,3.547,3.547,0,0,0,1.063-.156,9.754,9.754,0,0,0,.985-.367v1.117A4.7,4.7,0,0,1,182.772,39.156Zm9.132-8.875a3.57,3.57,0,0,1,.938.109l-.281,1.172a3.439,3.439,0,0,0-.821-.1,2.173,2.173,0,0,0-1.333.469,4.1,4.1,0,0,0-1.087,1.3,6.62,6.62,0,0,0-.684,1.848L187.8,39h-1.313l1.829-8.562H189.4l-.172,1.586h.078a7.677,7.677,0,0,1,.93-1.066,2.95,2.95,0,0,1,.77-.5A2.214,2.214,0,0,1,191.9,30.281Zm3.987,8.875a2.991,2.991,0,0,1-2.259-.852,3.258,3.258,0,0,1-.821-2.359,7.026,7.026,0,0,1,.582-2.816,5.213,5.213,0,0,1,1.544-2.1,3.367,3.367,0,0,1,2.119-.75,2.689,2.689,0,0,1,1.8.52,1.812,1.812,0,0,1,.6,1.449,2.476,2.476,0,0,1-1.3,2.207,7.112,7.112,0,0,1-3.714.8h-.258l-.031.625a2.416,2.416,0,0,0,.481,1.6,1.834,1.834,0,0,0,1.489.574,3.87,3.87,0,0,0,1.012-.141,7.755,7.755,0,0,0,1.294-.516v1.141a7.089,7.089,0,0,1-1.3.48A5.268,5.268,0,0,1,195.891,39.156Zm1.087-7.758a2.089,2.089,0,0,0-1.513.734,4.8,4.8,0,0,0-1.083,2.039h.094a6.386,6.386,0,0,0,2.732-.465,1.459,1.459,0,0,0,.95-1.348.912.912,0,0,0-.285-.687A1.257,1.257,0,0,0,196.978,31.4Zm6.051,6.688a4.233,4.233,0,0,0,1.126-.2v1.008a3.606,3.606,0,0,1-.657.188,3.366,3.366,0,0,1-.625.078,2.175,2.175,0,0,1-1.5-.465,1.765,1.765,0,0,1-.52-1.387A5.656,5.656,0,0,1,201,36.133l.993-4.7h-1.345l.109-.57,1.446-.609.977-1.781h.766l-.43,1.969h2.142l-.2.992h-2.134l-1.009,4.719a5.555,5.555,0,0,0-.141,1.031.928.928,0,0,0,.227.672A.84.84,0,0,0,203.029,38.086Zm7.13-7.758a3.131,3.131,0,0,1,2.345.879,3.309,3.309,0,0,1,.86,2.418A6.926,6.926,0,0,1,212.8,36.4a4.8,4.8,0,0,1-1.525,2.016,3.564,3.564,0,0,1-2.173.711,3.118,3.118,0,0,1-2.353-.883,3.33,3.33,0,0,1-.852-2.414,6.91,6.91,0,0,1,.571-2.793,4.734,4.734,0,0,1,1.54-2.008A3.591,3.591,0,0,1,210.159,30.328ZM212,33.445a2.133,2.133,0,0,0-.489-1.457,1.671,1.671,0,0,0-1.325-.559,2.289,2.289,0,0,0-1.528.578,3.721,3.721,0,0,0-1.048,1.605,6.683,6.683,0,0,0-.371,2.285,2.3,2.3,0,0,0,.5,1.582,1.809,1.809,0,0,0,1.427.559,2.157,2.157,0,0,0,1.462-.57,3.724,3.724,0,0,0,1.012-1.621A7.33,7.33,0,0,0,212,33.445Zm13.588-5.867L217.109,39h-1.188l8.49-11.422Zm-1.439,5.391a1.191,1.191,0,0,0-.934.5,3.828,3.828,0,0,0-.657,1.473,7.6,7.6,0,0,0-.246,1.875q0,1.352.829,1.352a1.165,1.165,0,0,0,.915-.508,4.191,4.191,0,0,0,.676-1.551,7.487,7.487,0,0,0,.27-1.848Q225.006,32.969,224.154,32.969Zm1.939,1.18a7.82,7.82,0,0,1-.246,1.844,6.582,6.582,0,0,1-.641,1.7,3.264,3.264,0,0,1-.946,1.078,2.082,2.082,0,0,1-1.224.387,1.632,1.632,0,0,1-1.337-.582,2.654,2.654,0,0,1-.477-1.715,7.859,7.859,0,0,1,.395-2.488,4.007,4.007,0,0,1,1.067-1.785,2.29,2.29,0,0,1,1.564-.594,1.7,1.7,0,0,1,1.376.559A2.419,2.419,0,0,1,226.092,34.148Zm-7.732-5.758a1.2,1.2,0,0,0-.93.492,3.713,3.713,0,0,0-.665,1.465,7.62,7.62,0,0,0-.25,1.9q0,1.344.837,1.344a1.048,1.048,0,0,0,.735-.309,2.594,2.594,0,0,0,.575-.891,6.734,6.734,0,0,0,.395-1.367,7.387,7.387,0,0,0,.149-1.34Q219.2,28.391,218.36,28.391Zm1.939,1.188a7.779,7.779,0,0,1-.25,1.855,6.6,6.6,0,0,1-.645,1.7,3.253,3.253,0,0,1-.942,1.07,2.091,2.091,0,0,1-1.227.383A1.618,1.618,0,0,1,215.905,34a2.671,2.671,0,0,1-.477-1.719,7.859,7.859,0,0,1,.395-2.488,4.007,4.007,0,0,1,1.067-1.785,2.289,2.289,0,0,1,1.564-.594,1.69,1.69,0,0,1,1.376.563A2.436,2.436,0,0,1,220.3,29.578ZM233.934,39h-7.029l.242-1.148,3.635-3.281q.8-.727,1.38-1.277a9.365,9.365,0,0,0,.962-1.039,3.815,3.815,0,0,0,.563-.969,2.965,2.965,0,0,0,.184-1.066,1.626,1.626,0,0,0-.469-1.227,1.757,1.757,0,0,0-1.274-.453,3.231,3.231,0,0,0-1.177.223,5.345,5.345,0,0,0-1.27.754l-.641-.9a5.046,5.046,0,0,1,3.229-1.2,3.221,3.221,0,0,1,2.177.691,2.38,2.38,0,0,1,.8,1.9,4.033,4.033,0,0,1-.309,1.594,5.875,5.875,0,0,1-1.024,1.539,26.132,26.132,0,0,1-2.3,2.2l-2.752,2.4V37.8h5.3Zm10.234-7.922a13.686,13.686,0,0,1-.614,4.211,6.609,6.609,0,0,1-1.673,2.887,3.509,3.509,0,0,1-2.459.98,2.464,2.464,0,0,1-2.111-1,4.813,4.813,0,0,1-.735-2.887,12.549,12.549,0,0,1,.641-4.02,6.794,6.794,0,0,1,1.693-2.883,3.441,3.441,0,0,1,2.4-.973Q244.168,27.4,244.168,31.078Zm-2.932-2.555a2.133,2.133,0,0,0-1.634.9,6.906,6.906,0,0,0-1.216,2.523,11.937,11.937,0,0,0-.465,3.309,4.394,4.394,0,0,0,.391,2.063,1.328,1.328,0,0,0,1.259.719,2.109,2.109,0,0,0,1.634-.891,6.713,6.713,0,0,0,1.177-2.562,13.8,13.8,0,0,0,.442-3.539Q242.823,28.523,241.236,28.523ZM249.046,39H247.7l1.532-7.133q.461-2.039.688-2.8a6.02,6.02,0,0,1-1.087.867l-1.392.859-.625-.992,3.51-2.219h1.165Zm12.759-7.922a13.686,13.686,0,0,1-.614,4.211,6.609,6.609,0,0,1-1.673,2.887,3.509,3.509,0,0,1-2.459.98,2.464,2.464,0,0,1-2.111-1,4.812,4.812,0,0,1-.735-2.887,12.549,12.549,0,0,1,.641-4.02,6.794,6.794,0,0,1,1.693-2.883,3.441,3.441,0,0,1,2.4-.973Q261.806,27.4,261.806,31.078Zm-2.932-2.555a2.133,2.133,0,0,0-1.634.9,6.906,6.906,0,0,0-1.216,2.523,11.938,11.938,0,0,0-.465,3.309,4.394,4.394,0,0,0,.391,2.063,1.328,1.328,0,0,0,1.259.719,2.109,2.109,0,0,0,1.634-.891,6.713,6.713,0,0,0,1.177-2.562,13.8,13.8,0,0,0,.442-3.539Q260.461,28.523,258.874,28.523ZM263.448,39l6-10.258h-5.621l.242-1.164h6.966l-.211,1.086L264.855,39Zm8.5-3.312a11.444,11.444,0,0,1,.473-3.242A9.2,9.2,0,0,1,273.7,29.7a5.35,5.35,0,0,1,1.923-1.711,5.517,5.517,0,0,1,2.557-.574,4.869,4.869,0,0,1,1.439.18l-.274,1.133a4.38,4.38,0,0,0-1.329-.172,3.73,3.73,0,0,0-2.787,1.164,7.219,7.219,0,0,0-1.661,3.461h.063a3.448,3.448,0,0,1,1.145-.984,3.147,3.147,0,0,1,1.513-.367,2.457,2.457,0,0,1,1.908.77,3.014,3.014,0,0,1,.7,2.113,5.085,5.085,0,0,1-.52,2.3,3.694,3.694,0,0,1-3.452,2.145,2.754,2.754,0,0,1-2.2-.9A3.812,3.812,0,0,1,271.946,35.688Zm3.119,2.367a2.156,2.156,0,0,0,1.31-.422,2.737,2.737,0,0,0,.891-1.164,4.1,4.1,0,0,0,.317-1.625q0-1.938-1.728-1.937a2.373,2.373,0,0,0-1,.223,2.986,2.986,0,0,0-.86.594,2.524,2.524,0,0,0-.563.816,3.188,3.188,0,0,0-.188,1.211,2.711,2.711,0,0,0,.473,1.688A1.6,1.6,0,0,0,275.065,38.055ZM291.2,27.578,282.719,39h-1.188l8.491-11.422Zm-1.439,5.391a1.191,1.191,0,0,0-.934.5,3.828,3.828,0,0,0-.657,1.473,7.6,7.6,0,0,0-.246,1.875q0,1.352.829,1.352a1.165,1.165,0,0,0,.915-.508,4.191,4.191,0,0,0,.676-1.551,7.487,7.487,0,0,0,.27-1.848Q290.616,32.969,289.763,32.969Zm1.939,1.18a7.82,7.82,0,0,1-.246,1.844,6.581,6.581,0,0,1-.641,1.7,3.264,3.264,0,0,1-.946,1.078,2.082,2.082,0,0,1-1.224.387,1.632,1.632,0,0,1-1.337-.582,2.654,2.654,0,0,1-.477-1.715,7.857,7.857,0,0,1,.395-2.488,4.007,4.007,0,0,1,1.067-1.785,2.29,2.29,0,0,1,1.564-.594,1.7,1.7,0,0,1,1.376.559A2.419,2.419,0,0,1,291.7,34.148Zm-7.732-5.758a1.2,1.2,0,0,0-.93.492,3.713,3.713,0,0,0-.665,1.465,7.62,7.62,0,0,0-.25,1.9q0,1.344.837,1.344a1.048,1.048,0,0,0,.735-.309,2.594,2.594,0,0,0,.575-.891,6.734,6.734,0,0,0,.395-1.367,7.384,7.384,0,0,0,.149-1.34Q284.814,28.391,283.97,28.391Zm1.939,1.188a7.779,7.779,0,0,1-.25,1.855,6.6,6.6,0,0,1-.645,1.7,3.252,3.252,0,0,1-.942,1.07,2.091,2.091,0,0,1-1.227.383A1.618,1.618,0,0,1,281.515,34a2.671,2.671,0,0,1-.477-1.719,7.858,7.858,0,0,1,.395-2.488,4.007,4.007,0,0,1,1.067-1.785,2.29,2.29,0,0,1,1.564-.594,1.69,1.69,0,0,1,1.376.563A2.436,2.436,0,0,1,285.909,29.578ZM299.544,39h-7.029l.242-1.148,3.635-3.281q.8-.727,1.38-1.277a9.362,9.362,0,0,0,.962-1.039,3.815,3.815,0,0,0,.563-.969,2.964,2.964,0,0,0,.184-1.066,1.626,1.626,0,0,0-.469-1.227,1.757,1.757,0,0,0-1.274-.453,3.231,3.231,0,0,0-1.177.223,5.345,5.345,0,0,0-1.27.754l-.641-.9a5.046,5.046,0,0,1,3.229-1.2,3.221,3.221,0,0,1,2.177.691,2.38,2.38,0,0,1,.8,1.9,4.033,4.033,0,0,1-.309,1.594,5.874,5.874,0,0,1-1.024,1.539,26.134,26.134,0,0,1-2.3,2.2l-2.752,2.4V37.8h5.3Zm10.234-7.922a13.686,13.686,0,0,1-.614,4.211,6.609,6.609,0,0,1-1.673,2.887,3.509,3.509,0,0,1-2.459.98,2.464,2.464,0,0,1-2.111-1,4.812,4.812,0,0,1-.735-2.887,12.548,12.548,0,0,1,.641-4.02,6.8,6.8,0,0,1,1.693-2.883,3.441,3.441,0,0,1,2.4-.973Q309.778,27.4,309.778,31.078Zm-2.932-2.555a2.133,2.133,0,0,0-1.634.9A6.906,6.906,0,0,0,304,31.949a11.937,11.937,0,0,0-.465,3.309,4.394,4.394,0,0,0,.391,2.063,1.328,1.328,0,0,0,1.259.719,2.109,2.109,0,0,0,1.634-.891,6.713,6.713,0,0,0,1.177-2.562,13.8,13.8,0,0,0,.442-3.539Q308.433,28.523,306.846,28.523Zm8.209,1.773a2.281,2.281,0,0,1,2.2,1.484h.078a17.976,17.976,0,0,1,.352-2.141l.61-2.8h1.3L317.01,39h-1.087l.172-1.633h-.063a5.869,5.869,0,0,1-1.478,1.383,2.762,2.762,0,0,1-1.423.406,2.047,2.047,0,0,1-1.7-.766,3.327,3.327,0,0,1-.61-2.125,8.089,8.089,0,0,1,.563-3.062,5.107,5.107,0,0,1,1.521-2.148A3.372,3.372,0,0,1,315.055,30.3ZM313.57,38.07a2.278,2.278,0,0,0,1.517-.73,5.128,5.128,0,0,0,1.239-1.867,6.155,6.155,0,0,0,.457-2.316,1.869,1.869,0,0,0-.422-1.32,1.6,1.6,0,0,0-1.227-.453,2.092,2.092,0,0,0-1.466.645,4.53,4.53,0,0,0-1.087,1.813,7.356,7.356,0,0,0-.41,2.457Q312.17,38.07,313.57,38.07Zm9.577,1.086a2.991,2.991,0,0,1-2.259-.852,3.258,3.258,0,0,1-.821-2.359,7.026,7.026,0,0,1,.582-2.816,5.213,5.213,0,0,1,1.544-2.1,3.367,3.367,0,0,1,2.119-.75,2.689,2.689,0,0,1,1.8.52,1.812,1.812,0,0,1,.6,1.449,2.476,2.476,0,0,1-1.3,2.207,7.112,7.112,0,0,1-3.714.8h-.258l-.031.625a2.416,2.416,0,0,0,.481,1.6,1.834,1.834,0,0,0,1.489.574,3.87,3.87,0,0,0,1.012-.141,7.755,7.755,0,0,0,1.294-.516v1.141a7.09,7.09,0,0,1-1.3.48A5.268,5.268,0,0,1,323.147,39.156Zm1.087-7.758a2.089,2.089,0,0,0-1.513.734,4.8,4.8,0,0,0-1.083,2.039h.094a6.387,6.387,0,0,0,2.732-.465,1.459,1.459,0,0,0,.95-1.348.912.912,0,0,0-.285-.687A1.257,1.257,0,0,0,324.234,31.4Zm4.722,7.6h-1.313l2.6-12.156h1.313Zm13.783-11.422L334.256,39h-1.188l8.491-11.422ZM341.3,32.969a1.191,1.191,0,0,0-.934.5,3.828,3.828,0,0,0-.657,1.473,7.6,7.6,0,0,0-.246,1.875q0,1.352.829,1.352a1.166,1.166,0,0,0,.915-.508,4.192,4.192,0,0,0,.676-1.551,7.488,7.488,0,0,0,.27-1.848Q342.153,32.969,341.3,32.969Zm1.939,1.18a7.82,7.82,0,0,1-.246,1.844,6.581,6.581,0,0,1-.641,1.7,3.264,3.264,0,0,1-.946,1.078,2.082,2.082,0,0,1-1.224.387,1.632,1.632,0,0,1-1.337-.582,2.654,2.654,0,0,1-.477-1.715,7.858,7.858,0,0,1,.395-2.488,4.007,4.007,0,0,1,1.067-1.785,2.29,2.29,0,0,1,1.564-.594,1.7,1.7,0,0,1,1.376.559A2.419,2.419,0,0,1,343.239,34.148Zm-7.732-5.758a1.2,1.2,0,0,0-.93.492,3.713,3.713,0,0,0-.665,1.465,7.62,7.62,0,0,0-.25,1.9q0,1.344.837,1.344a1.048,1.048,0,0,0,.735-.309,2.593,2.593,0,0,0,.575-.891,6.734,6.734,0,0,0,.395-1.367,7.384,7.384,0,0,0,.149-1.34Q336.352,28.391,335.507,28.391Zm1.939,1.188a7.779,7.779,0,0,1-.25,1.855,6.6,6.6,0,0,1-.645,1.7,3.252,3.252,0,0,1-.942,1.07,2.091,2.091,0,0,1-1.227.383A1.618,1.618,0,0,1,333.052,34a2.671,2.671,0,0,1-.477-1.719,7.858,7.858,0,0,1,.395-2.488,4.007,4.007,0,0,1,1.067-1.785,2.29,2.29,0,0,1,1.564-.594,1.69,1.69,0,0,1,1.376.563A2.436,2.436,0,0,1,337.446,29.578ZM351.081,39h-7.029l.242-1.148,3.635-3.281q.8-.727,1.38-1.277a9.362,9.362,0,0,0,.962-1.039,3.815,3.815,0,0,0,.563-.969,2.964,2.964,0,0,0,.184-1.066,1.626,1.626,0,0,0-.469-1.227,1.757,1.757,0,0,0-1.274-.453,3.231,3.231,0,0,0-1.177.223,5.345,5.345,0,0,0-1.27.754l-.641-.9a5.046,5.046,0,0,1,3.229-1.2,3.221,3.221,0,0,1,2.177.691,2.38,2.38,0,0,1,.8,1.9,4.033,4.033,0,0,1-.309,1.594,5.874,5.874,0,0,1-1.024,1.539,26.134,26.134,0,0,1-2.3,2.2l-2.752,2.4V37.8h5.3Zm10.234-7.922a13.686,13.686,0,0,1-.614,4.211,6.609,6.609,0,0,1-1.673,2.887,3.509,3.509,0,0,1-2.459.98,2.464,2.464,0,0,1-2.111-1,4.812,4.812,0,0,1-.735-2.887,12.547,12.547,0,0,1,.641-4.02,6.794,6.794,0,0,1,1.693-2.883,3.441,3.441,0,0,1,2.4-.973Q361.315,27.4,361.315,31.078Zm-2.932-2.555a2.133,2.133,0,0,0-1.634.9,6.906,6.906,0,0,0-1.216,2.523,11.937,11.937,0,0,0-.465,3.309,4.394,4.394,0,0,0,.391,2.063,1.328,1.328,0,0,0,1.259.719,2.109,2.109,0,0,0,1.634-.891,6.713,6.713,0,0,0,1.177-2.562,13.8,13.8,0,0,0,.442-3.539Q359.97,28.523,358.383,28.523ZM368.719,39H361.69l.242-1.148,3.635-3.281q.8-.727,1.38-1.277a9.362,9.362,0,0,0,.962-1.039,3.815,3.815,0,0,0,.563-.969,2.964,2.964,0,0,0,.184-1.066,1.626,1.626,0,0,0-.469-1.227,1.757,1.757,0,0,0-1.274-.453,3.231,3.231,0,0,0-1.177.223,5.345,5.345,0,0,0-1.27.754l-.641-.9a5.046,5.046,0,0,1,3.229-1.2,3.221,3.221,0,0,1,2.177.691,2.38,2.38,0,0,1,.8,1.9,4.033,4.033,0,0,1-.309,1.594,5.874,5.874,0,0,1-1.024,1.539,26.134,26.134,0,0,1-2.3,2.2l-2.752,2.4V37.8h5.3Zm2.736-3.312a11.444,11.444,0,0,1,.473-3.242,9.2,9.2,0,0,1,1.278-2.746,5.35,5.35,0,0,1,1.923-1.711,5.517,5.517,0,0,1,2.557-.574,4.869,4.869,0,0,1,1.439.18l-.274,1.133a4.38,4.38,0,0,0-1.329-.172,3.73,3.73,0,0,0-2.787,1.164,7.219,7.219,0,0,0-1.661,3.461h.063a3.448,3.448,0,0,1,1.145-.984,3.147,3.147,0,0,1,1.513-.367,2.457,2.457,0,0,1,1.908.77,3.014,3.014,0,0,1,.7,2.113,5.084,5.084,0,0,1-.52,2.3,3.694,3.694,0,0,1-3.452,2.145,2.754,2.754,0,0,1-2.2-.9A3.812,3.812,0,0,1,371.455,35.688Zm3.119,2.367a2.156,2.156,0,0,0,1.31-.422,2.737,2.737,0,0,0,.891-1.164,4.1,4.1,0,0,0,.317-1.625q0-1.938-1.728-1.937a2.373,2.373,0,0,0-1,.223,2.986,2.986,0,0,0-.86.594,2.524,2.524,0,0,0-.563.816,3.188,3.188,0,0,0-.188,1.211,2.711,2.711,0,0,0,.473,1.688A1.6,1.6,0,0,0,374.575,38.055Zm6.935-.914.063.18a34.827,34.827,0,0,1-2.111,3.742h-1.009q.985-2.234,1.595-3.922ZM387.678,39h-1.345l1.532-7.133q.461-2.039.688-2.8a6.021,6.021,0,0,1-1.087.867l-1.392.859-.625-.992,3.51-2.219h1.165Zm10.015-11.6a3.09,3.09,0,0,1,2.123.676,2.334,2.334,0,0,1,.762,1.84,2.7,2.7,0,0,1-.61,1.758,5.355,5.355,0,0,1-2.08,1.375,4.129,4.129,0,0,1,1.407,1.289,2.971,2.971,0,0,1,.414,1.578,3.125,3.125,0,0,1-.469,1.7,3.013,3.013,0,0,1-1.349,1.145,4.973,4.973,0,0,1-2.068.4,3.33,3.33,0,0,1-2.33-.77,2.687,2.687,0,0,1-.844-2.09,2.927,2.927,0,0,1,.743-2,5.732,5.732,0,0,1,2.314-1.437,3.489,3.489,0,0,1-1.059-1.129,2.788,2.788,0,0,1-.317-1.34,2.817,2.817,0,0,1,1.626-2.613A3.9,3.9,0,0,1,397.693,27.4Zm-1.04,6.133a4.758,4.758,0,0,0-2.044,1.121,2.257,2.257,0,0,0-.6,1.582,1.709,1.709,0,0,0,.539,1.328,2.018,2.018,0,0,0,1.415.492,2.513,2.513,0,0,0,1.736-.578,1.951,1.951,0,0,0,.649-1.531,2.325,2.325,0,0,0-.407-1.359A3.559,3.559,0,0,0,396.653,33.531Zm.946-5.008a1.965,1.965,0,0,0-1.423.512,1.815,1.815,0,0,0-.532,1.371,2.067,2.067,0,0,0,.3,1.125,2.983,2.983,0,0,0,.993.906,4.718,4.718,0,0,0,1.783-1.027,1.909,1.909,0,0,0,.524-1.355,1.445,1.445,0,0,0-.45-1.117A1.7,1.7,0,0,0,397.6,28.523Zm11.461,2.4a12.453,12.453,0,0,1-.438,3.176,10.3,10.3,0,0,1-1.153,2.813,4.65,4.65,0,0,1-1.732,1.7,4.908,4.908,0,0,1-2.361.547,6.194,6.194,0,0,1-1.892-.266V37.656a5.857,5.857,0,0,0,1.923.367,3.255,3.255,0,0,0,2.557-1.1,7.57,7.57,0,0,0,1.478-3.445h-.078a2.861,2.861,0,0,1-1.036.926,2.951,2.951,0,0,1-1.411.34,2.656,2.656,0,0,1-2.041-.77,3.186,3.186,0,0,1-.719-2.254,4.782,4.782,0,0,1,.5-2.191,3.758,3.758,0,0,1,3.436-2.113,2.741,2.741,0,0,1,2.185.895A3.874,3.874,0,0,1,409.06,30.922Zm-3.01-2.4a2.3,2.3,0,0,0-1.884.883,3.5,3.5,0,0,0-.711,2.266,2.275,2.275,0,0,0,.426,1.484,1.553,1.553,0,0,0,1.27.516,2.662,2.662,0,0,0,1.095-.223,2.33,2.33,0,0,0,.848-.637,2.735,2.735,0,0,0,.508-.891,3.74,3.74,0,0,0,.16-1.18,2.589,2.589,0,0,0-.461-1.621A1.5,1.5,0,0,0,406.05,28.523Zm14.964-.945L412.532,39h-1.188l8.491-11.422Zm-1.439,5.391a1.191,1.191,0,0,0-.934.5,3.828,3.828,0,0,0-.657,1.473,7.6,7.6,0,0,0-.246,1.875q0,1.352.829,1.352a1.166,1.166,0,0,0,.915-.508,4.192,4.192,0,0,0,.676-1.551,7.488,7.488,0,0,0,.27-1.848Q420.428,32.969,419.576,32.969Zm1.939,1.18a7.82,7.82,0,0,1-.246,1.844,6.581,6.581,0,0,1-.641,1.7,3.264,3.264,0,0,1-.946,1.078,2.082,2.082,0,0,1-1.224.387,1.632,1.632,0,0,1-1.337-.582,2.654,2.654,0,0,1-.477-1.715,7.858,7.858,0,0,1,.395-2.488,4.007,4.007,0,0,1,1.067-1.785,2.29,2.29,0,0,1,1.564-.594,1.7,1.7,0,0,1,1.376.559A2.419,2.419,0,0,1,421.515,34.148Zm-7.732-5.758a1.2,1.2,0,0,0-.93.492,3.713,3.713,0,0,0-.665,1.465,7.62,7.62,0,0,0-.25,1.9q0,1.344.837,1.344a1.048,1.048,0,0,0,.735-.309,2.593,2.593,0,0,0,.575-.891,6.734,6.734,0,0,0,.395-1.367,7.384,7.384,0,0,0,.149-1.34Q414.627,28.391,413.783,28.391Zm1.939,1.188a7.779,7.779,0,0,1-.25,1.855,6.6,6.6,0,0,1-.645,1.7,3.253,3.253,0,0,1-.942,1.07,2.091,2.091,0,0,1-1.227.383A1.618,1.618,0,0,1,411.328,34a2.671,2.671,0,0,1-.477-1.719,7.858,7.858,0,0,1,.395-2.488,4.007,4.007,0,0,1,1.067-1.785,2.29,2.29,0,0,1,1.564-.594,1.69,1.69,0,0,1,1.376.563A2.436,2.436,0,0,1,415.721,29.578ZM429.356,39h-7.029l.242-1.148,3.635-3.281q.8-.727,1.38-1.277a9.362,9.362,0,0,0,.962-1.039,3.815,3.815,0,0,0,.563-.969,2.964,2.964,0,0,0,.184-1.066,1.626,1.626,0,0,0-.469-1.227,1.757,1.757,0,0,0-1.274-.453,3.231,3.231,0,0,0-1.177.223,5.345,5.345,0,0,0-1.27.754l-.641-.9a5.046,5.046,0,0,1,3.229-1.2,3.221,3.221,0,0,1,2.177.691,2.38,2.38,0,0,1,.8,1.9,4.033,4.033,0,0,1-.309,1.594,5.874,5.874,0,0,1-1.024,1.539,26.139,26.139,0,0,1-2.3,2.2l-2.752,2.4V37.8h5.3Zm10.234-7.922a13.686,13.686,0,0,1-.614,4.211,6.609,6.609,0,0,1-1.673,2.887,3.509,3.509,0,0,1-2.459.98,2.464,2.464,0,0,1-2.111-1A4.812,4.812,0,0,1,432,35.273a12.547,12.547,0,0,1,.641-4.02,6.794,6.794,0,0,1,1.693-2.883,3.441,3.441,0,0,1,2.4-.973Q439.59,27.4,439.59,31.078Zm-2.932-2.555a2.133,2.133,0,0,0-1.634.9,6.906,6.906,0,0,0-1.216,2.523,11.937,11.937,0,0,0-.465,3.309,4.394,4.394,0,0,0,.391,2.063,1.328,1.328,0,0,0,1.259.719,2.109,2.109,0,0,0,1.634-.891,6.713,6.713,0,0,0,1.177-2.562,13.8,13.8,0,0,0,.442-3.539Q438.245,28.523,436.658,28.523Zm8.209,1.773a2.281,2.281,0,0,1,2.2,1.484h.078a17.976,17.976,0,0,1,.352-2.141l.61-2.8h1.3L446.822,39h-1.087l.172-1.633h-.063a5.869,5.869,0,0,1-1.478,1.383,2.762,2.762,0,0,1-1.423.406,2.048,2.048,0,0,1-1.7-.766,3.327,3.327,0,0,1-.61-2.125A8.089,8.089,0,0,1,441.2,33.2a5.107,5.107,0,0,1,1.521-2.148A3.372,3.372,0,0,1,444.867,30.3Zm-1.485,7.773a2.278,2.278,0,0,0,1.517-.73,5.129,5.129,0,0,0,1.239-1.867,6.156,6.156,0,0,0,.457-2.316,1.869,1.869,0,0,0-.422-1.32,1.6,1.6,0,0,0-1.227-.453,2.092,2.092,0,0,0-1.466.645,4.53,4.53,0,0,0-1.087,1.813,7.357,7.357,0,0,0-.41,2.457Q441.983,38.07,443.382,38.07Zm9.577,1.086A2.991,2.991,0,0,1,450.7,38.3a3.258,3.258,0,0,1-.821-2.359,7.026,7.026,0,0,1,.582-2.816,5.213,5.213,0,0,1,1.544-2.1,3.367,3.367,0,0,1,2.119-.75,2.689,2.689,0,0,1,1.8.52,1.812,1.812,0,0,1,.6,1.449,2.476,2.476,0,0,1-1.3,2.207,7.112,7.112,0,0,1-3.714.8h-.258l-.031.625a2.416,2.416,0,0,0,.481,1.6,1.834,1.834,0,0,0,1.489.574,3.87,3.87,0,0,0,1.012-.141A7.755,7.755,0,0,0,455.5,37.4v1.141a7.09,7.09,0,0,1-1.3.48A5.268,5.268,0,0,1,452.959,39.156Zm1.087-7.758a2.089,2.089,0,0,0-1.513.734,4.8,4.8,0,0,0-1.083,2.039h.094a6.387,6.387,0,0,0,2.732-.465,1.459,1.459,0,0,0,.95-1.348.912.912,0,0,0-.285-.687A1.257,1.257,0,0,0,454.046,31.4Zm14.44-3.82L460,39h-1.188l8.491-11.422Zm-1.439,5.391a1.191,1.191,0,0,0-.934.5,3.828,3.828,0,0,0-.657,1.473,7.6,7.6,0,0,0-.246,1.875q0,1.352.829,1.352a1.166,1.166,0,0,0,.915-.508,4.192,4.192,0,0,0,.676-1.551,7.488,7.488,0,0,0,.27-1.848Q467.9,32.969,467.047,32.969Zm1.939,1.18a7.82,7.82,0,0,1-.246,1.844,6.581,6.581,0,0,1-.641,1.7,3.264,3.264,0,0,1-.946,1.078,2.082,2.082,0,0,1-1.224.387,1.632,1.632,0,0,1-1.337-.582,2.654,2.654,0,0,1-.477-1.715,7.858,7.858,0,0,1,.395-2.488,4.007,4.007,0,0,1,1.067-1.785,2.29,2.29,0,0,1,1.564-.594,1.7,1.7,0,0,1,1.376.559A2.419,2.419,0,0,1,468.986,34.148Zm-7.732-5.758a1.2,1.2,0,0,0-.93.492,3.713,3.713,0,0,0-.665,1.465,7.62,7.62,0,0,0-.25,1.9q0,1.344.837,1.344a1.048,1.048,0,0,0,.735-.309,2.593,2.593,0,0,0,.575-.891,6.734,6.734,0,0,0,.395-1.367,7.384,7.384,0,0,0,.149-1.34Q462.1,28.391,461.254,28.391Zm1.939,1.188a7.779,7.779,0,0,1-.25,1.855,6.6,6.6,0,0,1-.645,1.7,3.253,3.253,0,0,1-.942,1.07,2.091,2.091,0,0,1-1.227.383A1.618,1.618,0,0,1,458.8,34a2.671,2.671,0,0,1-.477-1.719,7.858,7.858,0,0,1,.395-2.488,4.007,4.007,0,0,1,1.067-1.785,2.29,2.29,0,0,1,1.564-.594,1.69,1.69,0,0,1,1.376.563A2.436,2.436,0,0,1,463.193,29.578ZM476.828,39H469.8l.242-1.148,3.635-3.281q.8-.727,1.38-1.277a9.362,9.362,0,0,0,.962-1.039,3.815,3.815,0,0,0,.563-.969,2.964,2.964,0,0,0,.184-1.066,1.626,1.626,0,0,0-.469-1.227,1.757,1.757,0,0,0-1.274-.453,3.231,3.231,0,0,0-1.177.223,5.345,5.345,0,0,0-1.27.754l-.641-.9a5.046,5.046,0,0,1,3.229-1.2,3.221,3.221,0,0,1,2.177.691,2.38,2.38,0,0,1,.8,1.9,4.033,4.033,0,0,1-.309,1.594,5.874,5.874,0,0,1-1.024,1.539,26.139,26.139,0,0,1-2.3,2.2l-2.752,2.4V37.8h5.3Zm10.234-7.922a13.686,13.686,0,0,1-.614,4.211,6.609,6.609,0,0,1-1.673,2.887,3.509,3.509,0,0,1-2.459.98,2.464,2.464,0,0,1-2.111-1,4.812,4.812,0,0,1-.735-2.887,12.547,12.547,0,0,1,.641-4.02,6.794,6.794,0,0,1,1.693-2.883,3.441,3.441,0,0,1,2.4-.973Q487.062,27.4,487.062,31.078Zm-2.932-2.555a2.133,2.133,0,0,0-1.634.9,6.906,6.906,0,0,0-1.216,2.523,11.937,11.937,0,0,0-.465,3.309,4.394,4.394,0,0,0,.391,2.063,1.328,1.328,0,0,0,1.259.719,2.109,2.109,0,0,0,1.634-.891,6.713,6.713,0,0,0,1.177-2.562,13.8,13.8,0,0,0,.442-3.539Q485.717,28.523,484.13,28.523ZM489.1,39h-1.313l2.6-12.156H491.7Zm7.3-8.719a2.21,2.21,0,0,1,1.282.387,2.513,2.513,0,0,1,.876,1.113h.086l.524-1.344h.993L498.343,39H497.3l.2-1.633h-.063a3.856,3.856,0,0,1-2.947,1.789,2.061,2.061,0,0,1-1.7-.773,3.3,3.3,0,0,1-.618-2.117,8.06,8.06,0,0,1,.555-3.016,5.21,5.21,0,0,1,1.532-2.18A3.335,3.335,0,0,1,496.4,30.281Zm-1.485,7.789a2.2,2.2,0,0,0,1.509-.723,5.355,5.355,0,0,0,1.22-1.883,6.159,6.159,0,0,0,.469-2.324,1.82,1.82,0,0,0-.438-1.281,1.487,1.487,0,0,0-1.149-.477,2.153,2.153,0,0,0-1.513.672,4.532,4.532,0,0,0-1.1,1.82,7.332,7.332,0,0,0-.4,2.422,2.047,2.047,0,0,0,.367,1.332A1.268,1.268,0,0,0,494.919,38.07Zm17.012-10.492L503.449,39H502.26l8.491-11.422Zm-1.439,5.391a1.191,1.191,0,0,0-.934.5,3.828,3.828,0,0,0-.657,1.473,7.6,7.6,0,0,0-.246,1.875q0,1.352.829,1.352a1.165,1.165,0,0,0,.915-.508,4.191,4.191,0,0,0,.676-1.551,7.487,7.487,0,0,0,.27-1.848Q511.345,32.969,510.493,32.969Zm1.939,1.18a7.82,7.82,0,0,1-.246,1.844,6.581,6.581,0,0,1-.641,1.7,3.264,3.264,0,0,1-.946,1.078,2.082,2.082,0,0,1-1.224.387,1.632,1.632,0,0,1-1.337-.582,2.654,2.654,0,0,1-.477-1.715,7.857,7.857,0,0,1,.395-2.488,4.007,4.007,0,0,1,1.067-1.785,2.29,2.29,0,0,1,1.564-.594,1.7,1.7,0,0,1,1.376.559A2.419,2.419,0,0,1,512.432,34.148ZM504.7,28.391a1.2,1.2,0,0,0-.93.492,3.713,3.713,0,0,0-.665,1.465,7.62,7.62,0,0,0-.25,1.9q0,1.344.837,1.344a1.048,1.048,0,0,0,.735-.309,2.594,2.594,0,0,0,.575-.891,6.734,6.734,0,0,0,.395-1.367,7.384,7.384,0,0,0,.149-1.34Q505.544,28.391,504.7,28.391Zm1.939,1.188a7.779,7.779,0,0,1-.25,1.855,6.6,6.6,0,0,1-.645,1.7,3.252,3.252,0,0,1-.942,1.07,2.091,2.091,0,0,1-1.227.383A1.618,1.618,0,0,1,502.245,34a2.671,2.671,0,0,1-.477-1.719,7.858,7.858,0,0,1,.395-2.488,4.007,4.007,0,0,1,1.067-1.785,2.29,2.29,0,0,1,1.564-.594,1.69,1.69,0,0,1,1.376.563A2.436,2.436,0,0,1,506.639,29.578ZM520.273,39h-7.029l.242-1.148,3.635-3.281q.8-.727,1.38-1.277a9.366,9.366,0,0,0,.962-1.039,3.813,3.813,0,0,0,.563-.969,2.964,2.964,0,0,0,.184-1.066,1.626,1.626,0,0,0-.469-1.227,1.757,1.757,0,0,0-1.274-.453,3.231,3.231,0,0,0-1.177.223,5.347,5.347,0,0,0-1.27.754l-.641-.9a5.046,5.046,0,0,1,3.229-1.2,3.221,3.221,0,0,1,2.177.691,2.38,2.38,0,0,1,.8,1.9,4.032,4.032,0,0,1-.309,1.594,5.874,5.874,0,0,1-1.024,1.539,26.129,26.129,0,0,1-2.3,2.2l-2.752,2.4V37.8h5.3Zm10.234-7.922a13.685,13.685,0,0,1-.614,4.211,6.609,6.609,0,0,1-1.673,2.887,3.509,3.509,0,0,1-2.459.98,2.464,2.464,0,0,1-2.111-1,4.813,4.813,0,0,1-.735-2.887,12.549,12.549,0,0,1,.641-4.02,6.794,6.794,0,0,1,1.693-2.883,3.441,3.441,0,0,1,2.4-.973Q530.507,27.4,530.507,31.078Zm-2.932-2.555a2.133,2.133,0,0,0-1.634.9,6.906,6.906,0,0,0-1.216,2.523,11.937,11.937,0,0,0-.465,3.309,4.394,4.394,0,0,0,.391,2.063,1.328,1.328,0,0,0,1.259.719,2.109,2.109,0,0,0,1.634-.891,6.712,6.712,0,0,0,1.177-2.562,13.8,13.8,0,0,0,.442-3.539Q529.163,28.523,527.576,28.523Zm10.578.078a4.124,4.124,0,0,0-2.435.758,5.089,5.089,0,0,0-1.7,2.223,8,8,0,0,0-.629,3.191,3.415,3.415,0,0,0,.762,2.332,2.644,2.644,0,0,0,2.1.871,8.623,8.623,0,0,0,2.517-.445V38.7a7.927,7.927,0,0,1-1.282.352,8.469,8.469,0,0,1-1.47.109,3.844,3.844,0,0,1-2.971-1.168,4.51,4.51,0,0,1-1.079-3.184,8.8,8.8,0,0,1,.825-3.793A6.353,6.353,0,0,1,535,28.336a5.577,5.577,0,0,1,3.151-.922,5.728,5.728,0,0,1,2.721.625l-.539,1.1A4.836,4.836,0,0,0,538.154,28.6Zm7.029,1.727a3.131,3.131,0,0,1,2.345.879,3.309,3.309,0,0,1,.86,2.418,6.926,6.926,0,0,1-.563,2.773,4.8,4.8,0,0,1-1.525,2.016,3.564,3.564,0,0,1-2.173.711,3.118,3.118,0,0,1-2.353-.883,3.33,3.33,0,0,1-.852-2.414,6.911,6.911,0,0,1,.571-2.793,4.735,4.735,0,0,1,1.54-2.008A3.591,3.591,0,0,1,545.182,30.328Zm1.845,3.117a2.133,2.133,0,0,0-.489-1.457,1.671,1.671,0,0,0-1.325-.559,2.289,2.289,0,0,0-1.528.578,3.721,3.721,0,0,0-1.048,1.605,6.684,6.684,0,0,0-.371,2.285,2.3,2.3,0,0,0,.5,1.582,1.809,1.809,0,0,0,1.427.559,2.157,2.157,0,0,0,1.462-.57,3.724,3.724,0,0,0,1.012-1.621A7.33,7.33,0,0,0,547.027,33.445ZM554.837,39l1.157-5.406a7.118,7.118,0,0,0,.156-1.125,1.109,1.109,0,0,0-.278-.789,1.165,1.165,0,0,0-.887-.3,2.319,2.319,0,0,0-1.356.469,4.171,4.171,0,0,0-1.165,1.336,7.026,7.026,0,0,0-.762,2.1L550.913,39H549.6l1.829-8.562h1.087l-.172,1.586h.078a5.222,5.222,0,0,1,1.45-1.348,2.915,2.915,0,0,1,1.45-.395,2.19,2.19,0,0,1,1.568.543,1.99,1.99,0,0,1,.575,1.52,6.409,6.409,0,0,1-.18,1.406L556.167,39Zm9.288-2.43a2.29,2.29,0,0,1-.864,1.9,3.838,3.838,0,0,1-2.435.684,5.2,5.2,0,0,1-2.385-.539V37.383a4.869,4.869,0,0,0,1.181.508,4.317,4.317,0,0,0,1.173.18,2.385,2.385,0,0,0,1.485-.391,1.214,1.214,0,0,0,.5-1,1.082,1.082,0,0,0-.274-.75,5.515,5.515,0,0,0-1.181-.836,4.755,4.755,0,0,1-1.439-1.117,2.06,2.06,0,0,1-.422-1.3,2.155,2.155,0,0,1,.79-1.738,3.135,3.135,0,0,1,2.08-.66,6.051,6.051,0,0,1,2.58.578l-.422,1.07-.438-.2a4.348,4.348,0,0,0-1.72-.336,1.749,1.749,0,0,0-1.141.34,1.145,1.145,0,0,0-.137,1.629,4.9,4.9,0,0,0,1.145.8,6.661,6.661,0,0,1,1.2.8,2.324,2.324,0,0,1,.543.723A2.042,2.042,0,0,1,564.125,36.57Zm4.2,1.516a4.233,4.233,0,0,0,1.126-.2v1.008a3.606,3.606,0,0,1-.657.188,3.366,3.366,0,0,1-.625.078,2.175,2.175,0,0,1-1.5-.465,1.765,1.765,0,0,1-.52-1.387,5.656,5.656,0,0,1,.141-1.172l.993-4.7h-1.345l.109-.57,1.446-.609.977-1.781h.766l-.43,1.969h2.142l-.2.992h-2.134L567.6,36.148a5.555,5.555,0,0,0-.141,1.031.928.928,0,0,0,.227.672A.84.84,0,0,0,568.324,38.086ZM572.2,39h-1.313l1.829-8.562h1.313Zm.883-10.75a1.027,1.027,0,0,1,.25-.715.833.833,0,0,1,.649-.277.615.615,0,0,1,.688.7,1.059,1.059,0,0,1-.262.727.789.789,0,0,1-.606.3.723.723,0,0,1-.516-.191A.71.71,0,0,1,573.085,28.25Zm4.5,9.836a4.233,4.233,0,0,0,1.126-.2v1.008a3.6,3.6,0,0,1-.657.188,3.366,3.366,0,0,1-.625.078,2.175,2.175,0,0,1-1.5-.465,1.765,1.765,0,0,1-.52-1.387,5.656,5.656,0,0,1,.141-1.172l.993-4.7H575.2l.109-.57,1.446-.609.977-1.781h.766l-.43,1.969h2.142l-.2.992H577.87l-1.009,4.719a5.555,5.555,0,0,0-.141,1.031.928.928,0,0,0,.227.672A.84.84,0,0,0,577.58,38.086Zm5.629-7.648-1.173,5.43a5.857,5.857,0,0,0-.141,1.086,1,1,0,0,0,1.149,1.117A2.325,2.325,0,0,0,584.4,37.6a4.168,4.168,0,0,0,1.173-1.344,7.2,7.2,0,0,0,.774-2.109l.782-3.711h1.3L586.618,39h-1.087l.172-1.586h-.094a5.133,5.133,0,0,1-1.462,1.359,2.947,2.947,0,0,1-1.439.383,2.187,2.187,0,0,1-1.571-.543,2.039,2.039,0,0,1-.571-1.551,7.323,7.323,0,0,1,.172-1.344l1.141-5.281Zm9.671,8.719a2.908,2.908,0,0,1-3.19-3.2,7.1,7.1,0,0,1,.579-2.883,4.894,4.894,0,0,1,1.6-2.059,3.819,3.819,0,0,1,2.295-.738,5.733,5.733,0,0,1,2.1.4l-.367,1.1a4.426,4.426,0,0,0-1.712-.4,2.451,2.451,0,0,0-1.6.6,3.936,3.936,0,0,0-1.134,1.664,6.4,6.4,0,0,0-.41,2.316,2.185,2.185,0,0,0,.52,1.555,1.871,1.871,0,0,0,1.435.555,3.547,3.547,0,0,0,1.063-.156,9.757,9.757,0,0,0,.985-.367v1.117A4.7,4.7,0,0,1,592.88,39.156ZM597.908,39h-1.313l1.829-8.562h1.313Zm.883-10.75a1.026,1.026,0,0,1,.25-.715.833.833,0,0,1,.649-.277.615.615,0,0,1,.688.7,1.059,1.059,0,0,1-.262.727.789.789,0,0,1-.606.3.723.723,0,0,1-.516-.191A.71.71,0,0,1,598.791,28.25Zm12.884-.672L603.193,39H602l8.491-11.422Zm-1.439,5.391a1.191,1.191,0,0,0-.934.5,3.827,3.827,0,0,0-.657,1.473,7.6,7.6,0,0,0-.246,1.875q0,1.352.829,1.352a1.165,1.165,0,0,0,.915-.508,4.191,4.191,0,0,0,.676-1.551,7.485,7.485,0,0,0,.27-1.848Q611.089,32.969,610.237,32.969Zm1.939,1.18a7.82,7.82,0,0,1-.246,1.844,6.582,6.582,0,0,1-.641,1.7,3.263,3.263,0,0,1-.946,1.078,2.082,2.082,0,0,1-1.224.387,1.632,1.632,0,0,1-1.337-.582,2.654,2.654,0,0,1-.477-1.715,7.857,7.857,0,0,1,.395-2.488,4.007,4.007,0,0,1,1.067-1.785,2.29,2.29,0,0,1,1.564-.594,1.7,1.7,0,0,1,1.376.559A2.419,2.419,0,0,1,612.176,34.148Zm-7.732-5.758a1.2,1.2,0,0,0-.93.492,3.713,3.713,0,0,0-.665,1.465,7.619,7.619,0,0,0-.25,1.9q0,1.344.837,1.344a1.048,1.048,0,0,0,.735-.309,2.594,2.594,0,0,0,.575-.891,6.733,6.733,0,0,0,.395-1.367,7.39,7.39,0,0,0,.149-1.34Q605.288,28.391,604.443,28.391Zm1.939,1.188a7.778,7.778,0,0,1-.25,1.855,6.6,6.6,0,0,1-.645,1.7,3.252,3.252,0,0,1-.942,1.07,2.091,2.091,0,0,1-1.227.383A1.618,1.618,0,0,1,601.989,34a2.671,2.671,0,0,1-.477-1.719,7.859,7.859,0,0,1,.395-2.488,4.006,4.006,0,0,1,1.067-1.785,2.289,2.289,0,0,1,1.564-.594,1.689,1.689,0,0,1,1.376.563A2.436,2.436,0,0,1,606.382,29.578ZM620.26,28.6a4.124,4.124,0,0,0-2.435.758,5.089,5.089,0,0,0-1.7,2.223,8,8,0,0,0-.629,3.191,3.415,3.415,0,0,0,.762,2.332,2.644,2.644,0,0,0,2.1.871,8.623,8.623,0,0,0,2.517-.445V38.7a7.927,7.927,0,0,1-1.282.352,8.469,8.469,0,0,1-1.47.109,3.844,3.844,0,0,1-2.971-1.168,4.509,4.509,0,0,1-1.079-3.184,8.8,8.8,0,0,1,.825-3.793,6.352,6.352,0,0,1,2.216-2.676,5.576,5.576,0,0,1,3.151-.922,5.728,5.728,0,0,1,2.721.625l-.539,1.1A4.836,4.836,0,0,0,620.26,28.6Zm10.39,1.344a2.92,2.92,0,0,1-.79,2.066,3.8,3.8,0,0,1-2.189,1.1v.07a2.532,2.532,0,0,1,1.525.832,2.426,2.426,0,0,1,.555,1.629,3.441,3.441,0,0,1-.485,1.832,3.252,3.252,0,0,1-1.415,1.238,5.081,5.081,0,0,1-2.213.445,7.236,7.236,0,0,1-3.01-.617V37.258a7.128,7.128,0,0,0,1.556.59,6.131,6.131,0,0,0,1.485.207,2.878,2.878,0,0,0,1.97-.621,2.15,2.15,0,0,0,.7-1.7,1.926,1.926,0,0,0-.618-1.551,2.567,2.567,0,0,0-1.72-.527h-1.024l.242-1.117h1.087a3.327,3.327,0,0,0,2.142-.68,2.161,2.161,0,0,0,.852-1.773,1.483,1.483,0,0,0-.453-1.141,1.731,1.731,0,0,0-1.227-.422,3.687,3.687,0,0,0-1.227.211,6.217,6.217,0,0,0-1.368.727l-.625-.922a5.467,5.467,0,0,1,3.315-1.125,3.156,3.156,0,0,1,2.166.68A2.349,2.349,0,0,1,630.65,29.945Zm11.907-2.367L634.074,39h-1.188l8.491-11.422Zm-1.439,5.391a1.191,1.191,0,0,0-.934.5,3.828,3.828,0,0,0-.657,1.473,7.6,7.6,0,0,0-.246,1.875q0,1.352.829,1.352a1.165,1.165,0,0,0,.915-.508,4.191,4.191,0,0,0,.676-1.551,7.485,7.485,0,0,0,.27-1.848Q641.971,32.969,641.118,32.969Zm1.939,1.18a7.823,7.823,0,0,1-.246,1.844,6.582,6.582,0,0,1-.641,1.7,3.263,3.263,0,0,1-.946,1.078,2.082,2.082,0,0,1-1.224.387,1.632,1.632,0,0,1-1.337-.582,2.654,2.654,0,0,1-.477-1.715,7.857,7.857,0,0,1,.395-2.488,4.007,4.007,0,0,1,1.067-1.785,2.29,2.29,0,0,1,1.564-.594,1.7,1.7,0,0,1,1.376.559A2.419,2.419,0,0,1,643.057,34.148Zm-7.732-5.758a1.2,1.2,0,0,0-.93.492,3.713,3.713,0,0,0-.665,1.465,7.619,7.619,0,0,0-.25,1.9q0,1.344.837,1.344a1.048,1.048,0,0,0,.735-.309,2.594,2.594,0,0,0,.575-.891,6.733,6.733,0,0,0,.395-1.367,7.39,7.39,0,0,0,.149-1.34Q636.169,28.391,635.325,28.391Zm1.939,1.188a7.778,7.778,0,0,1-.25,1.855,6.6,6.6,0,0,1-.645,1.7,3.252,3.252,0,0,1-.942,1.07,2.091,2.091,0,0,1-1.227.383A1.618,1.618,0,0,1,632.87,34a2.671,2.671,0,0,1-.477-1.719,7.859,7.859,0,0,1,.395-2.488,4.006,4.006,0,0,1,1.067-1.785,2.289,2.289,0,0,1,1.564-.594,1.689,1.689,0,0,1,1.376.563A2.436,2.436,0,0,1,637.264,29.578Zm12.532-2q3.377,0,3.377,2.625a2.683,2.683,0,0,1-.68,1.859,3.274,3.274,0,0,1-1.915.984v.078a2.561,2.561,0,0,1,1.38.863,2.315,2.315,0,0,1,.481,1.473,3.131,3.131,0,0,1-1.188,2.6,4.982,4.982,0,0,1-3.182.941h-3.62l2.416-11.422Zm-2.627,4.891h1.939a3.069,3.069,0,0,0,1.947-.57,1.87,1.87,0,0,0,.727-1.555,1.44,1.44,0,0,0-.52-1.215,2.681,2.681,0,0,0-1.638-.4h-1.65Zm-1.149,5.4h2.08a3.321,3.321,0,0,0,2.173-.629,2.18,2.18,0,0,0,.758-1.777,1.7,1.7,0,0,0-.582-1.387,2.574,2.574,0,0,0-1.677-.48h-1.845Zm15.722-7.922a2.92,2.92,0,0,1-.79,2.066,3.8,3.8,0,0,1-2.189,1.1v.07a2.532,2.532,0,0,1,1.525.832,2.426,2.426,0,0,1,.555,1.629,3.441,3.441,0,0,1-.485,1.832,3.252,3.252,0,0,1-1.415,1.238,5.081,5.081,0,0,1-2.213.445,7.236,7.236,0,0,1-3.01-.617V37.258a7.128,7.128,0,0,0,1.556.59,6.13,6.13,0,0,0,1.485.207,2.878,2.878,0,0,0,1.97-.621,2.15,2.15,0,0,0,.7-1.7,1.926,1.926,0,0,0-.618-1.551,2.568,2.568,0,0,0-1.72-.527h-1.024l.242-1.117H657.4a3.327,3.327,0,0,0,2.142-.68,2.161,2.161,0,0,0,.852-1.773,1.482,1.482,0,0,0-.453-1.141,1.731,1.731,0,0,0-1.227-.422,3.687,3.687,0,0,0-1.227.211,6.216,6.216,0,0,0-1.368.727l-.625-.922a5.467,5.467,0,0,1,3.315-1.125,3.156,3.156,0,0,1,2.166.68A2.349,2.349,0,0,1,661.743,29.945ZM667.872,39l1.157-5.406a7.113,7.113,0,0,0,.156-1.125,1.109,1.109,0,0,0-.278-.789,1.165,1.165,0,0,0-.887-.3,2.319,2.319,0,0,0-1.356.469,4.172,4.172,0,0,0-1.165,1.336,7.026,7.026,0,0,0-.762,2.1L663.947,39h-1.313l1.829-8.562h1.087l-.172,1.586h.078a5.222,5.222,0,0,1,1.45-1.348,2.915,2.915,0,0,1,1.45-.395,2.19,2.19,0,0,1,1.568.543,1.99,1.99,0,0,1,.575,1.52,6.409,6.409,0,0,1-.18,1.406L669.2,39Zm15.019-11.422L674.408,39H673.22l8.49-11.422Zm-1.439,5.391a1.191,1.191,0,0,0-.934.5,3.828,3.828,0,0,0-.657,1.473,7.6,7.6,0,0,0-.246,1.875q0,1.352.829,1.352a1.165,1.165,0,0,0,.915-.508,4.192,4.192,0,0,0,.676-1.551,7.488,7.488,0,0,0,.27-1.848Q682.3,32.969,681.452,32.969Zm1.939,1.18a7.82,7.82,0,0,1-.246,1.844,6.582,6.582,0,0,1-.641,1.7,3.264,3.264,0,0,1-.946,1.078,2.082,2.082,0,0,1-1.224.387A1.632,1.632,0,0,1,679,38.574a2.654,2.654,0,0,1-.477-1.715,7.859,7.859,0,0,1,.395-2.488,4.006,4.006,0,0,1,1.067-1.785,2.289,2.289,0,0,1,1.564-.594,1.7,1.7,0,0,1,1.376.559A2.42,2.42,0,0,1,683.391,34.148Zm-7.732-5.758a1.2,1.2,0,0,0-.93.492,3.712,3.712,0,0,0-.665,1.465,7.619,7.619,0,0,0-.25,1.9q0,1.344.837,1.344a1.048,1.048,0,0,0,.735-.309,2.593,2.593,0,0,0,.575-.891,6.732,6.732,0,0,0,.395-1.367,7.39,7.39,0,0,0,.149-1.34Q676.5,28.391,675.659,28.391Zm1.939,1.188a7.778,7.778,0,0,1-.25,1.855,6.6,6.6,0,0,1-.645,1.7,3.253,3.253,0,0,1-.942,1.07,2.091,2.091,0,0,1-1.227.383A1.618,1.618,0,0,1,673.2,34a2.671,2.671,0,0,1-.477-1.719,7.859,7.859,0,0,1,.395-2.488,4.007,4.007,0,0,1,1.067-1.785,2.29,2.29,0,0,1,1.564-.594,1.69,1.69,0,0,1,1.376.563A2.436,2.436,0,0,1,677.6,29.578ZM691.233,39H684.2l.242-1.148,3.635-3.281q.8-.727,1.38-1.277a9.371,9.371,0,0,0,.962-1.039,3.815,3.815,0,0,0,.563-.969,2.965,2.965,0,0,0,.184-1.066,1.626,1.626,0,0,0-.469-1.227,1.757,1.757,0,0,0-1.274-.453,3.231,3.231,0,0,0-1.177.223,5.347,5.347,0,0,0-1.27.754l-.641-.9a5.046,5.046,0,0,1,3.229-1.2,3.221,3.221,0,0,1,2.177.691,2.38,2.38,0,0,1,.8,1.9,4.033,4.033,0,0,1-.309,1.594,5.877,5.877,0,0,1-1.024,1.539,26.132,26.132,0,0,1-2.3,2.2l-2.752,2.4V37.8h5.3Zm10.234-7.922a13.685,13.685,0,0,1-.614,4.211,6.608,6.608,0,0,1-1.673,2.887,3.509,3.509,0,0,1-2.459.98,2.464,2.464,0,0,1-2.111-1,4.813,4.813,0,0,1-.735-2.887,12.547,12.547,0,0,1,.641-4.02,6.794,6.794,0,0,1,1.693-2.883,3.44,3.44,0,0,1,2.4-.973Q701.467,27.4,701.467,31.078Zm-2.932-2.555a2.133,2.133,0,0,0-1.634.9,6.906,6.906,0,0,0-1.216,2.523,11.939,11.939,0,0,0-.465,3.309,4.394,4.394,0,0,0,.391,2.063,1.328,1.328,0,0,0,1.259.719,2.109,2.109,0,0,0,1.634-.891,6.714,6.714,0,0,0,1.177-2.562,13.806,13.806,0,0,0,.442-3.539Q700.122,28.523,698.535,28.523Zm12.274,2a3.565,3.565,0,0,1-1.282,2.961,5.926,5.926,0,0,1-3.76,1.023h-1.055L703.75,39H702.42l2.416-11.422h2.58a3.793,3.793,0,0,1,2.533.738A2.749,2.749,0,0,1,710.809,30.523Zm-5.856,2.844h1.04a3.991,3.991,0,0,0,2.564-.711,2.529,2.529,0,0,0,.876-2.086,1.7,1.7,0,0,0-.543-1.41,2.654,2.654,0,0,0-1.669-.434h-1.274Zm10.883-3.039a3.131,3.131,0,0,1,2.345.879,3.309,3.309,0,0,1,.86,2.418,6.926,6.926,0,0,1-.563,2.773,4.8,4.8,0,0,1-1.525,2.016,3.564,3.564,0,0,1-2.173.711,3.118,3.118,0,0,1-2.353-.883,3.33,3.33,0,0,1-.852-2.414,6.91,6.91,0,0,1,.571-2.793,4.734,4.734,0,0,1,1.54-2.008A3.591,3.591,0,0,1,715.836,30.328Zm1.845,3.117a2.133,2.133,0,0,0-.489-1.457,1.671,1.671,0,0,0-1.325-.559,2.289,2.289,0,0,0-1.528.578,3.721,3.721,0,0,0-1.048,1.605,6.685,6.685,0,0,0-.371,2.285,2.3,2.3,0,0,0,.5,1.582,1.809,1.809,0,0,0,1.427.559,2.157,2.157,0,0,0,1.462-.57,3.724,3.724,0,0,0,1.012-1.621A7.33,7.33,0,0,0,717.681,33.445ZM721.551,39h-1.313l2.6-12.156h1.313ZM11.477,49.578,2.994,61H1.806L10.3,49.578Zm-1.439,5.391a1.191,1.191,0,0,0-.934.5,3.828,3.828,0,0,0-.657,1.473A7.6,7.6,0,0,0,8.2,58.82q0,1.352.829,1.352a1.165,1.165,0,0,0,.915-.508,4.191,4.191,0,0,0,.676-1.551,7.488,7.488,0,0,0,.27-1.848Q10.89,54.969,10.038,54.969Zm1.939,1.18a7.82,7.82,0,0,1-.246,1.844,6.581,6.581,0,0,1-.641,1.7,3.263,3.263,0,0,1-.946,1.078,2.082,2.082,0,0,1-1.224.387,1.632,1.632,0,0,1-1.337-.582,2.654,2.654,0,0,1-.477-1.715A7.858,7.858,0,0,1,7.5,56.371a4.007,4.007,0,0,1,1.067-1.785,2.29,2.29,0,0,1,1.564-.594,1.7,1.7,0,0,1,1.376.559A2.419,2.419,0,0,1,11.977,56.148ZM4.245,50.391a1.2,1.2,0,0,0-.93.492,3.713,3.713,0,0,0-.665,1.465,7.62,7.62,0,0,0-.25,1.9q0,1.344.837,1.344a1.048,1.048,0,0,0,.735-.309,2.594,2.594,0,0,0,.575-.891,6.735,6.735,0,0,0,.395-1.367,7.387,7.387,0,0,0,.149-1.34Q5.089,50.391,4.245,50.391Zm1.939,1.188a7.779,7.779,0,0,1-.25,1.855,6.6,6.6,0,0,1-.645,1.7,3.253,3.253,0,0,1-.942,1.07,2.091,2.091,0,0,1-1.227.383A1.618,1.618,0,0,1,1.79,56a2.671,2.671,0,0,1-.477-1.719,7.858,7.858,0,0,1,.395-2.488,4.007,4.007,0,0,1,1.067-1.785,2.29,2.29,0,0,1,1.564-.594,1.69,1.69,0,0,1,1.376.563A2.436,2.436,0,0,1,6.184,51.578ZM20.061,50.6a4.124,4.124,0,0,0-2.435.758,5.089,5.089,0,0,0-1.7,2.223,8,8,0,0,0-.629,3.191,3.415,3.415,0,0,0,.762,2.332,2.644,2.644,0,0,0,2.1.871,8.623,8.623,0,0,0,2.517-.445V60.7a7.927,7.927,0,0,1-1.282.352,8.469,8.469,0,0,1-1.47.109,3.844,3.844,0,0,1-2.971-1.168A4.509,4.509,0,0,1,13.869,56.8a8.8,8.8,0,0,1,.825-3.793,6.352,6.352,0,0,1,2.216-2.676,5.576,5.576,0,0,1,3.151-.922,5.728,5.728,0,0,1,2.721.625l-.539,1.1A4.836,4.836,0,0,0,20.061,50.6Zm10.39,1.344a2.92,2.92,0,0,1-.79,2.066,3.8,3.8,0,0,1-2.189,1.1v.07A2.532,2.532,0,0,1,29,56.012a2.426,2.426,0,0,1,.555,1.629,3.442,3.442,0,0,1-.485,1.832,3.252,3.252,0,0,1-1.415,1.238,5.081,5.081,0,0,1-2.213.445,7.235,7.235,0,0,1-3.01-.617V59.258a7.128,7.128,0,0,0,1.556.59,6.131,6.131,0,0,0,1.485.207,2.878,2.878,0,0,0,1.97-.621,2.15,2.15,0,0,0,.7-1.7,1.926,1.926,0,0,0-.618-1.551,2.567,2.567,0,0,0-1.72-.527H24.783l.242-1.117h1.087a3.327,3.327,0,0,0,2.142-.68,2.161,2.161,0,0,0,.852-1.773,1.482,1.482,0,0,0-.453-1.141,1.731,1.731,0,0,0-1.227-.422,3.687,3.687,0,0,0-1.227.211,6.217,6.217,0,0,0-1.368.727l-.625-.922a5.467,5.467,0,0,1,3.315-1.125,3.156,3.156,0,0,1,2.166.68A2.349,2.349,0,0,1,30.451,51.945Zm11.907-2.367L33.876,61H32.687l8.49-11.422ZM40.92,54.969a1.191,1.191,0,0,0-.934.5,3.828,3.828,0,0,0-.657,1.473,7.6,7.6,0,0,0-.246,1.875q0,1.352.829,1.352a1.165,1.165,0,0,0,.915-.508,4.191,4.191,0,0,0,.676-1.551,7.488,7.488,0,0,0,.27-1.848Q41.772,54.969,40.92,54.969Zm1.939,1.18a7.82,7.82,0,0,1-.246,1.844,6.581,6.581,0,0,1-.641,1.7,3.263,3.263,0,0,1-.946,1.078,2.082,2.082,0,0,1-1.224.387,1.632,1.632,0,0,1-1.337-.582,2.654,2.654,0,0,1-.477-1.715,7.858,7.858,0,0,1,.395-2.488,4.007,4.007,0,0,1,1.067-1.785,2.29,2.29,0,0,1,1.564-.594,1.7,1.7,0,0,1,1.376.559A2.419,2.419,0,0,1,42.859,56.148Zm-7.732-5.758a1.2,1.2,0,0,0-.93.492,3.713,3.713,0,0,0-.665,1.465,7.62,7.62,0,0,0-.25,1.9q0,1.344.837,1.344a1.048,1.048,0,0,0,.735-.309,2.594,2.594,0,0,0,.575-.891,6.734,6.734,0,0,0,.395-1.367,7.387,7.387,0,0,0,.149-1.34Q35.971,50.391,35.127,50.391Zm1.939,1.188a7.779,7.779,0,0,1-.25,1.855,6.6,6.6,0,0,1-.645,1.7,3.253,3.253,0,0,1-.942,1.07A2.091,2.091,0,0,1,34,56.586,1.618,1.618,0,0,1,32.672,56a2.671,2.671,0,0,1-.477-1.719,7.858,7.858,0,0,1,.395-2.488,4.007,4.007,0,0,1,1.067-1.785,2.29,2.29,0,0,1,1.564-.594,1.69,1.69,0,0,1,1.376.563A2.436,2.436,0,0,1,37.065,51.578Zm12.869,5.789H46.056L44.141,61H42.663L48.91,49.578h1.36L51.709,61H50.38Zm-.141-1.219-.274-2.336a26.359,26.359,0,0,1-.227-2.734q-.289.687-.629,1.367t-1.951,3.7Zm12.837-2a7.631,7.631,0,0,1-.821,3.6,5.74,5.74,0,0,1-2.345,2.406A7.262,7.262,0,0,1,55.892,61H53.14l2.416-11.422h2.674a4.34,4.34,0,0,1,3.28,1.168A4.724,4.724,0,0,1,62.631,54.148Zm-6.653,5.7a5.306,5.306,0,0,0,2.775-.715,4.691,4.691,0,0,0,1.833-2.02,6.716,6.716,0,0,0,.637-2.984,3.6,3.6,0,0,0-.805-2.543,3.073,3.073,0,0,0-2.361-.863H56.666l-1.955,9.125Zm10.242.234a4.232,4.232,0,0,0,1.126-.2v1.008a3.606,3.606,0,0,1-.657.188,3.366,3.366,0,0,1-.625.078,2.175,2.175,0,0,1-1.5-.465,1.765,1.765,0,0,1-.52-1.387,5.656,5.656,0,0,1,.141-1.172l.993-4.7H63.835l.109-.57,1.446-.609.977-1.781h.766l-.43,1.969h2.142l-.2.992H66.509L65.5,58.148a5.555,5.555,0,0,0-.141,1.031.928.928,0,0,0,.227.672A.84.84,0,0,0,66.219,60.086ZM70.1,61H68.784l1.829-8.562h1.313Zm.883-10.75a1.026,1.026,0,0,1,.25-.715.833.833,0,0,1,.649-.277.615.615,0,0,1,.688.7,1.059,1.059,0,0,1-.262.727.789.789,0,0,1-.606.3.723.723,0,0,1-.516-.191A.71.71,0,0,1,70.981,50.25Zm5.363,10.906a2.908,2.908,0,0,1-3.19-3.2,7.1,7.1,0,0,1,.579-2.883,4.895,4.895,0,0,1,1.6-2.059,3.819,3.819,0,0,1,2.295-.738,5.733,5.733,0,0,1,2.1.4l-.367,1.1a4.426,4.426,0,0,0-1.712-.4,2.451,2.451,0,0,0-1.6.6,3.936,3.936,0,0,0-1.134,1.664,6.4,6.4,0,0,0-.41,2.316,2.186,2.186,0,0,0,.52,1.555,1.871,1.871,0,0,0,1.435.555,3.547,3.547,0,0,0,1.063-.156,9.753,9.753,0,0,0,.985-.367v1.117A4.7,4.7,0,0,1,76.344,61.156Zm8.248-8.875a2.21,2.21,0,0,1,1.282.387,2.513,2.513,0,0,1,.876,1.113h.086l.524-1.344h.993L86.531,61h-1.04l.2-1.633h-.063a3.856,3.856,0,0,1-2.947,1.789,2.061,2.061,0,0,1-1.7-.773,3.3,3.3,0,0,1-.618-2.117,8.06,8.06,0,0,1,.555-3.016,5.21,5.21,0,0,1,1.532-2.18A3.335,3.335,0,0,1,84.592,52.281ZM83.106,60.07a2.2,2.2,0,0,0,1.509-.723,5.355,5.355,0,0,0,1.22-1.883,6.158,6.158,0,0,0,.469-2.324,1.82,1.82,0,0,0-.438-1.281,1.487,1.487,0,0,0-1.149-.477,2.153,2.153,0,0,0-1.513.672,4.533,4.533,0,0,0-1.1,1.82,7.331,7.331,0,0,0-.4,2.422,2.047,2.047,0,0,0,.367,1.332A1.268,1.268,0,0,0,83.106,60.07Zm5.871.352a1.386,1.386,0,0,1,.317-.957,1.107,1.107,0,0,1,.872-.355.743.743,0,0,1,.543.2.829.829,0,0,1,.207.617,1.387,1.387,0,0,1-.313.926,1.047,1.047,0,0,1-.844.371.788.788,0,0,1-.571-.2A.8.8,0,0,1,88.978,60.422Z" transform="translate(2094.78 7450.568)" fill="#006bd9"/>
  </g>
</svg>
