<svg xmlns="http://www.w3.org/2000/svg" width="630.727" height="43.003" viewBox="0 0 630.727 43.003">
  <g id="Grupo_3968" data-name="Grupo 3968" transform="translate(-2048.006 -7655.218)">
    <g id="Grupo_3965" data-name="Grupo 3965" transform="translate(31 279)">
      <circle id="Elipse_63" data-name="Elipse 63" cx="18" cy="18" r="18" transform="translate(2017.006 7376.218)" fill="#98bd11" opacity="0.8"/>
      <g id="Grupo_1983" data-name="Grupo 1983">
        <path id="Trazado_8992" data-name="Trazado 8992" d="M2022.594,7389.894a13.141,13.141,0,0,0,0,8.649.972.972,0,0,0,.041.118,13.145,13.145,0,0,0,24.742,0,.82.82,0,0,0,.042-.118,13.141,13.141,0,0,0,0-8.649.917.917,0,0,0-.042-.119,13.145,13.145,0,0,0-24.742,0,.932.932,0,0,0-.041.119Zm12.412-6.936c.5,0,1.308.906,1.983,2.93a20.671,20.671,0,0,1,.776,3.321h-5.517a20.579,20.579,0,0,1,.776-3.321c.675-2.024,1.482-2.93,1.982-2.93Zm2.987,8.135c.091,1,.139,2.053.139,3.125s-.048,2.121-.139,3.125h-5.974c-.09-1-.138-2.052-.138-3.125s.048-2.121.138-3.125Zm8.274,3.125a11.19,11.19,0,0,1-.442,3.125h-5.942c.089-1.025.133-2.076.133-3.125s-.044-2.1-.133-3.125h5.942a11.2,11.2,0,0,1,.442,3.125Zm-11.261,11.261c-.5,0-1.307-.906-1.982-2.93a20.6,20.6,0,0,1-.776-3.321h5.517a20.709,20.709,0,0,1-.776,3.321c-.675,2.024-1.482,2.93-1.983,2.93Zm-4.877-8.136h-5.941a11.268,11.268,0,0,1,0-6.25h5.941c-.088,1.025-.132,2.076-.132,3.125s.044,2.1.132,3.125Zm-5.205,1.885h5.421a18.117,18.117,0,0,0,1.717,5.859,11.3,11.3,0,0,1-7.138-5.859Zm13.027,5.859a18.094,18.094,0,0,0,1.716-5.859h5.422a11.309,11.309,0,0,1-7.138,5.859Zm7.138-15.878h-5.422a18.093,18.093,0,0,0-1.716-5.86,11.31,11.31,0,0,1,7.138,5.86Zm-13.027-5.86a18.116,18.116,0,0,0-1.717,5.86h-5.421a11.306,11.306,0,0,1,7.138-5.86Zm0,0" fill="#fff"/>
      </g>
    </g>
    <path id="Trazado_17248" data-name="Trazado 17248" d="M5.7,17l1.156-5.406a6.426,6.426,0,0,0,.141-1.055A1.019,1.019,0,0,0,5.844,9.383a2.342,2.342,0,0,0-1.355.461,4.052,4.052,0,0,0-1.164,1.34A7.187,7.187,0,0,0,2.563,13.3L1.773,17H.461L3.039,4.844H4.352q-.141.641-.27,1.242T3.816,7.309q-.137.621-.3,1.3t-.371,1.477h.086A5.205,5.205,0,0,1,4.684,8.711,2.942,2.942,0,0,1,6.18,8.3a2.131,2.131,0,0,1,1.582.563,2.164,2.164,0,0,1,.559,1.594,6.349,6.349,0,0,1-.18,1.3q-.3,1.508-1.133,5.25Zm6.625-.914a4.227,4.227,0,0,0,1.125-.2v1.008a3.6,3.6,0,0,1-.656.188,3.361,3.361,0,0,1-.625.078,2.172,2.172,0,0,1-1.5-.465,1.765,1.765,0,0,1-.52-1.387,5.66,5.66,0,0,1,.141-1.172l.992-4.7H9.938l.109-.57,1.445-.609.977-1.781h.766L12.8,8.438h2.141l-.2.992H12.609L11.6,14.148a5.558,5.558,0,0,0-.141,1.031.928.928,0,0,0,.227.672A.839.839,0,0,0,12.32,16.086Zm5.188,0a4.227,4.227,0,0,0,1.125-.2v1.008a3.6,3.6,0,0,1-.656.188,3.361,3.361,0,0,1-.625.078,2.172,2.172,0,0,1-1.5-.465,1.765,1.765,0,0,1-.52-1.387,5.66,5.66,0,0,1,.141-1.172l.992-4.7H15.125l.109-.57L16.68,8.25l.977-1.781h.766l-.43,1.969h2.141l-.2.992H17.8l-1.008,4.719a5.558,5.558,0,0,0-.141,1.031.928.928,0,0,0,.227.672A.839.839,0,0,0,17.508,16.086Zm6.359,1.07a2.293,2.293,0,0,1-1.328-.391,2.537,2.537,0,0,1-.883-1.094h-.078l-.031.3q-.023.2-.082.547t-.895,4.328h-1.3L21.9,8.438h1.086l-.2,1.633h.063A3.837,3.837,0,0,1,25.75,8.3a2.055,2.055,0,0,1,1.688.762,3.309,3.309,0,0,1,.617,2.137,8.3,8.3,0,0,1-.539,3.039,5.046,5.046,0,0,1-1.492,2.152A3.341,3.341,0,0,1,23.867,17.156ZM25.32,9.383a2.26,2.26,0,0,0-1.527.742,5.292,5.292,0,0,0-1.234,1.867,6.071,6.071,0,0,0-.457,2.3,1.84,1.84,0,0,0,.434,1.316,1.647,1.647,0,0,0,1.254.457,2.066,2.066,0,0,0,1.441-.633,4.443,4.443,0,0,0,1.074-1.8,7.5,7.5,0,0,0,.406-2.48Q26.711,9.383,25.32,9.383Zm9.266,5.188a2.29,2.29,0,0,1-.863,1.9,3.834,3.834,0,0,1-2.434.684,5.191,5.191,0,0,1-2.383-.539V15.383a4.863,4.863,0,0,0,1.18.508,4.311,4.311,0,0,0,1.172.18,2.382,2.382,0,0,0,1.484-.391,1.215,1.215,0,0,0,.5-1,1.082,1.082,0,0,0-.273-.75,5.51,5.51,0,0,0-1.18-.836,4.752,4.752,0,0,1-1.437-1.117,2.061,2.061,0,0,1-.422-1.3,2.155,2.155,0,0,1,.789-1.738,3.132,3.132,0,0,1,2.078-.66,6.043,6.043,0,0,1,2.578.578l-.422,1.07-.437-.2A4.342,4.342,0,0,0,32.8,9.4a1.747,1.747,0,0,0-1.141.34,1.146,1.146,0,0,0-.137,1.629,4.894,4.894,0,0,0,1.145.8,6.655,6.655,0,0,1,1.2.8,2.323,2.323,0,0,1,.543.723A2.043,2.043,0,0,1,34.586,14.57Zm1.445,1.852a1.387,1.387,0,0,1,.316-.957,1.106,1.106,0,0,1,.871-.355.742.742,0,0,1,.543.2.83.83,0,0,1,.207.617,1.388,1.388,0,0,1-.312.926,1.046,1.046,0,0,1-.844.371.788.788,0,0,1-.57-.2A.8.8,0,0,1,36.031,16.422Zm1.25-6.891a1.4,1.4,0,0,1,.313-.957,1.094,1.094,0,0,1,.867-.355q.758,0,.758.813a1.349,1.349,0,0,1-.324.934,1.065,1.065,0,0,1-.832.363.779.779,0,0,1-.57-.207A.789.789,0,0,1,37.281,9.531Zm9.438-3.953L40.367,17H39.008L45.359,5.578Zm5.6,0L45.969,17H44.609L50.961,5.578Zm3.617,2.7a2.208,2.208,0,0,1,1.281.387,2.513,2.513,0,0,1,.875,1.113h.086L58.7,8.438H59.7L57.875,17H56.836l.2-1.633h-.062a3.853,3.853,0,0,1-2.945,1.789,2.059,2.059,0,0,1-1.7-.773,3.305,3.305,0,0,1-.617-2.117,8.065,8.065,0,0,1,.555-3.016A5.21,5.21,0,0,1,53.8,9.07,3.331,3.331,0,0,1,55.938,8.281ZM54.453,16.07a2.2,2.2,0,0,0,1.508-.723,5.355,5.355,0,0,0,1.219-1.883,6.162,6.162,0,0,0,.469-2.324,1.821,1.821,0,0,0-.437-1.281,1.486,1.486,0,0,0-1.148-.477,2.151,2.151,0,0,0-1.512.672,4.533,4.533,0,0,0-1.1,1.82,7.336,7.336,0,0,0-.4,2.422,2.048,2.048,0,0,0,.367,1.332A1.267,1.267,0,0,0,54.453,16.07ZM68.578,8.438l-.2.836-1.648.188a2.2,2.2,0,0,1,.32,1.234,3.169,3.169,0,0,1-.91,2.379,3.338,3.338,0,0,1-2.434.887,2.618,2.618,0,0,1-.656-.062q-1.086.414-1.086,1.023a.414.414,0,0,0,.258.426,3.118,3.118,0,0,0,.75.168l.914.109a4.071,4.071,0,0,1,2.051.688,1.835,1.835,0,0,1,.637,1.516,2.551,2.551,0,0,1-1.141,2.227,5.594,5.594,0,0,1-3.211.789,4.237,4.237,0,0,1-2.375-.574,1.839,1.839,0,0,1-.859-1.621,2.012,2.012,0,0,1,.563-1.422,4.38,4.38,0,0,1,1.82-1.023,1.018,1.018,0,0,1-.609-.945,1.245,1.245,0,0,1,.4-.926,4.108,4.108,0,0,1,1.109-.723,2.054,2.054,0,0,1-1.117-1.875A3.433,3.433,0,0,1,62.09,9.25a3.17,3.17,0,0,1,2.387-.969,4.708,4.708,0,0,1,1.2.156Zm-8.32,10.086a1.1,1.1,0,0,0,.508.953,2.654,2.654,0,0,0,1.508.352,4.215,4.215,0,0,0,2.223-.5,1.563,1.563,0,0,0,.8-1.4.876.876,0,0,0-.422-.766,3.385,3.385,0,0,0-1.437-.391L62.2,16.648a2.819,2.819,0,0,0-1.437.688A1.606,1.606,0,0,0,60.258,18.523Zm2.172-6.836a1.361,1.361,0,0,0,.352,1.012,1.329,1.329,0,0,0,.977.348,1.811,1.811,0,0,0,1.078-.328,2.086,2.086,0,0,0,.707-.9,3.13,3.13,0,0,0,.246-1.246,1.3,1.3,0,0,0-.344-.977,1.351,1.351,0,0,0-.984-.336,1.827,1.827,0,0,0-1.066.316,2.077,2.077,0,0,0-.711.883A2.973,2.973,0,0,0,62.43,11.688ZM73.875,8.281a3.565,3.565,0,0,1,.938.109l-.281,1.172a3.434,3.434,0,0,0-.82-.1,2.17,2.17,0,0,0-1.332.469,4.1,4.1,0,0,0-1.086,1.3,6.623,6.623,0,0,0-.684,1.848L69.773,17H68.461l1.828-8.562h1.086L71.2,10.023h.078a7.677,7.677,0,0,1,.93-1.066,2.948,2.948,0,0,1,.77-.5A2.211,2.211,0,0,1,73.875,8.281Zm5.164.047a3.127,3.127,0,0,1,2.344.879,3.31,3.31,0,0,1,.859,2.418A6.93,6.93,0,0,1,81.68,14.4a4.8,4.8,0,0,1-1.523,2.016,3.56,3.56,0,0,1-2.172.711,3.114,3.114,0,0,1-2.352-.883,3.331,3.331,0,0,1-.852-2.414,6.914,6.914,0,0,1,.57-2.793,4.734,4.734,0,0,1,1.539-2.008A3.587,3.587,0,0,1,79.039,8.328Zm1.844,3.117a2.134,2.134,0,0,0-.488-1.457A1.669,1.669,0,0,0,79.07,9.43a2.287,2.287,0,0,0-1.527.578A3.721,3.721,0,0,0,76.5,11.613a6.687,6.687,0,0,0-.371,2.285,2.3,2.3,0,0,0,.5,1.582,1.807,1.807,0,0,0,1.426.559,2.154,2.154,0,0,0,1.461-.57,3.725,3.725,0,0,0,1.012-1.621A7.335,7.335,0,0,0,80.883,11.445ZM84.75,17H83.438L86.031,4.844h1.313Zm6.148.156a2.988,2.988,0,0,1-2.258-.852,3.26,3.26,0,0,1-.82-2.359,7.031,7.031,0,0,1,.582-2.816,5.212,5.212,0,0,1,1.543-2.1,3.363,3.363,0,0,1,2.117-.75,2.685,2.685,0,0,1,1.8.52,1.813,1.813,0,0,1,.6,1.449,2.476,2.476,0,0,1-1.3,2.207,7.1,7.1,0,0,1-3.711.8H89.2l-.031.625a2.418,2.418,0,0,0,.48,1.6,1.832,1.832,0,0,0,1.488.574,3.864,3.864,0,0,0,1.012-.141,7.746,7.746,0,0,0,1.293-.516v1.141a7.081,7.081,0,0,1-1.3.48A5.261,5.261,0,0,1,90.9,17.156ZM91.984,9.4a2.087,2.087,0,0,0-1.512.734,4.8,4.8,0,0,0-1.082,2.039h.094a6.378,6.378,0,0,0,2.73-.465,1.459,1.459,0,0,0,.949-1.348.913.913,0,0,0-.285-.687A1.255,1.255,0,0,0,91.984,9.4Zm7.953-1.117a2.208,2.208,0,0,1,1.281.387,2.513,2.513,0,0,1,.875,1.113h.086l.523-1.344h.992L101.875,17h-1.039l.2-1.633h-.062a3.853,3.853,0,0,1-2.945,1.789,2.059,2.059,0,0,1-1.7-.773,3.305,3.305,0,0,1-.617-2.117,8.066,8.066,0,0,1,.555-3.016A5.21,5.21,0,0,1,97.8,9.07,3.331,3.331,0,0,1,99.938,8.281ZM98.453,16.07a2.2,2.2,0,0,0,1.508-.723,5.355,5.355,0,0,0,1.219-1.883,6.162,6.162,0,0,0,.469-2.324,1.821,1.821,0,0,0-.437-1.281,1.486,1.486,0,0,0-1.148-.477,2.151,2.151,0,0,0-1.512.672,4.533,4.533,0,0,0-1.1,1.82,7.336,7.336,0,0,0-.4,2.422,2.048,2.048,0,0,0,.367,1.332A1.267,1.267,0,0,0,98.453,16.07Zm11.406-7.789a3.565,3.565,0,0,1,.938.109l-.281,1.172a3.434,3.434,0,0,0-.82-.1,2.17,2.17,0,0,0-1.332.469,4.1,4.1,0,0,0-1.086,1.3,6.623,6.623,0,0,0-.684,1.848L105.758,17h-1.312l1.828-8.562h1.086l-.172,1.586h.078a7.677,7.677,0,0,1,.93-1.066,2.948,2.948,0,0,1,.77-.5A2.211,2.211,0,0,1,109.859,8.281ZM116.016,17l1.156-5.406a7.126,7.126,0,0,0,.156-1.125,1.109,1.109,0,0,0-.277-.789,1.164,1.164,0,0,0-.887-.3,2.316,2.316,0,0,0-1.355.469,4.171,4.171,0,0,0-1.164,1.336,7.029,7.029,0,0,0-.762,2.1L112.094,17h-1.312l1.828-8.562H113.7l-.172,1.586h.078a5.219,5.219,0,0,1,1.449-1.348,2.911,2.911,0,0,1,1.449-.395,2.187,2.187,0,0,1,1.566.543,1.99,1.99,0,0,1,.574,1.52,6.413,6.413,0,0,1-.18,1.406L117.344,17Zm5.313,0h-1.312l1.828-8.562h1.313Zm.883-10.75a1.027,1.027,0,0,1,.25-.715.833.833,0,0,1,.648-.277.615.615,0,0,1,.688.7,1.06,1.06,0,0,1-.262.727.788.788,0,0,1-.605.3.722.722,0,0,1-.516-.191A.71.71,0,0,1,122.211,6.25Zm7.1,10.75,1.156-5.406a7.125,7.125,0,0,0,.156-1.125,1.109,1.109,0,0,0-.277-.789,1.164,1.164,0,0,0-.887-.3,2.316,2.316,0,0,0-1.355.469,4.171,4.171,0,0,0-1.164,1.336,7.029,7.029,0,0,0-.762,2.1L125.391,17h-1.312l1.828-8.562h1.086l-.172,1.586h.078a5.219,5.219,0,0,1,1.449-1.348,2.911,2.911,0,0,1,1.449-.395,2.187,2.187,0,0,1,1.566.543,1.99,1.99,0,0,1,.574,1.52,6.413,6.413,0,0,1-.18,1.406L130.641,17Zm12.133-8.562-.2.836-1.648.188a2.2,2.2,0,0,1,.32,1.234,3.169,3.169,0,0,1-.91,2.379,3.338,3.338,0,0,1-2.434.887,2.618,2.618,0,0,1-.656-.062q-1.086.414-1.086,1.023a.414.414,0,0,0,.258.426,3.118,3.118,0,0,0,.75.168l.914.109a4.071,4.071,0,0,1,2.051.688,1.835,1.835,0,0,1,.637,1.516,2.551,2.551,0,0,1-1.141,2.227,5.594,5.594,0,0,1-3.211.789,4.237,4.237,0,0,1-2.375-.574,1.839,1.839,0,0,1-.859-1.621,2.012,2.012,0,0,1,.563-1.422,4.38,4.38,0,0,1,1.82-1.023,1.018,1.018,0,0,1-.609-.945,1.245,1.245,0,0,1,.4-.926,4.108,4.108,0,0,1,1.109-.723,2.054,2.054,0,0,1-1.117-1.875,3.433,3.433,0,0,1,.934-2.484,3.17,3.17,0,0,1,2.387-.969,4.708,4.708,0,0,1,1.2.156Zm-8.32,10.086a1.1,1.1,0,0,0,.508.953,2.654,2.654,0,0,0,1.508.352,4.215,4.215,0,0,0,2.223-.5,1.563,1.563,0,0,0,.8-1.4.876.876,0,0,0-.422-.766,3.385,3.385,0,0,0-1.437-.391l-1.242-.125a2.819,2.819,0,0,0-1.437.688A1.606,1.606,0,0,0,133.125,18.523Zm2.172-6.836a1.361,1.361,0,0,0,.352,1.012,1.329,1.329,0,0,0,.977.348,1.811,1.811,0,0,0,1.078-.328,2.086,2.086,0,0,0,.707-.9,3.13,3.13,0,0,0,.246-1.246,1.3,1.3,0,0,0-.344-.977,1.351,1.351,0,0,0-.984-.336,1.827,1.827,0,0,0-1.066.316,2.077,2.077,0,0,0-.711.883A2.973,2.973,0,0,0,135.3,11.688Zm5.906,4.734a1.387,1.387,0,0,1,.316-.957,1.106,1.106,0,0,1,.871-.355.742.742,0,0,1,.543.2.83.83,0,0,1,.207.617,1.388,1.388,0,0,1-.312.926,1.046,1.046,0,0,1-.844.371.788.788,0,0,1-.57-.2A.8.8,0,0,1,141.2,16.422Zm7.664.734a3.18,3.18,0,0,1-2.352-.836,3.191,3.191,0,0,1-.836-2.359,7.108,7.108,0,0,1,.578-2.883,4.894,4.894,0,0,1,1.6-2.059,3.815,3.815,0,0,1,2.293-.738,5.725,5.725,0,0,1,2.094.4l-.367,1.1a4.42,4.42,0,0,0-1.711-.4,2.449,2.449,0,0,0-1.6.6,3.936,3.936,0,0,0-1.133,1.664,6.4,6.4,0,0,0-.41,2.316,2.187,2.187,0,0,0,.52,1.555,1.869,1.869,0,0,0,1.434.555,3.542,3.542,0,0,0,1.063-.156,9.742,9.742,0,0,0,.984-.367v1.117A4.691,4.691,0,0,1,148.867,17.156Zm8.273-8.828a3.127,3.127,0,0,1,2.344.879,3.31,3.31,0,0,1,.859,2.418,6.93,6.93,0,0,1-.562,2.773,4.8,4.8,0,0,1-1.523,2.016,3.56,3.56,0,0,1-2.172.711,3.114,3.114,0,0,1-2.352-.883,3.331,3.331,0,0,1-.852-2.414,6.914,6.914,0,0,1,.57-2.793,4.734,4.734,0,0,1,1.539-2.008A3.587,3.587,0,0,1,157.141,8.328Zm1.844,3.117a2.134,2.134,0,0,0-.488-1.457,1.669,1.669,0,0,0-1.324-.559,2.287,2.287,0,0,0-1.527.578,3.721,3.721,0,0,0-1.047,1.605,6.688,6.688,0,0,0-.371,2.285,2.3,2.3,0,0,0,.5,1.582,1.807,1.807,0,0,0,1.426.559,2.154,2.154,0,0,0,1.461-.57,3.725,3.725,0,0,0,1.012-1.621A7.335,7.335,0,0,0,158.984,11.445ZM166.531,17l1.156-5.406a6.426,6.426,0,0,0,.141-1.055,1.336,1.336,0,0,0-.242-.852,1,1,0,0,0-.828-.3,2.1,2.1,0,0,0-1.277.469,4.079,4.079,0,0,0-1.094,1.34,7.727,7.727,0,0,0-.73,2.1L162.867,17h-1.312l1.828-8.562h1.086l-.172,1.586h.078a4.895,4.895,0,0,1,1.355-1.336,2.672,2.672,0,0,1,1.395-.406,1.774,1.774,0,0,1,1.359.508,2.322,2.322,0,0,1,.563,1.414h.063a5.018,5.018,0,0,1,1.43-1.449,2.867,2.867,0,0,1,1.531-.473,2.1,2.1,0,0,1,1.535.531,2.068,2.068,0,0,1,.543,1.547,7.434,7.434,0,0,1-.172,1.391L172.852,17h-1.328l1.156-5.406a7.1,7.1,0,0,0,.156-1.141.984.984,0,0,0-1.117-1.07,2.1,2.1,0,0,0-1.25.453,3.946,3.946,0,0,0-1.082,1.285,7.02,7.02,0,0,0-.707,1.973L167.844,17ZM182.023,5.578,175.672,17h-1.359l6.352-11.422Zm4.5,2.7a3.565,3.565,0,0,1,.938.109l-.281,1.172a3.434,3.434,0,0,0-.82-.1,2.17,2.17,0,0,0-1.332.469,4.1,4.1,0,0,0-1.086,1.3,6.623,6.623,0,0,0-.684,1.848L182.422,17h-1.312l1.828-8.562h1.086l-.172,1.586h.078a7.676,7.676,0,0,1,.93-1.066,2.948,2.948,0,0,1,.77-.5A2.211,2.211,0,0,1,186.523,8.281Zm3.984,8.875a2.988,2.988,0,0,1-2.258-.852,3.26,3.26,0,0,1-.82-2.359,7.031,7.031,0,0,1,.582-2.816,5.212,5.212,0,0,1,1.543-2.1,3.363,3.363,0,0,1,2.117-.75,2.685,2.685,0,0,1,1.8.52,1.813,1.813,0,0,1,.6,1.449,2.476,2.476,0,0,1-1.3,2.207,7.1,7.1,0,0,1-3.711.8H188.8l-.031.625a2.418,2.418,0,0,0,.48,1.6,1.832,1.832,0,0,0,1.488.574,3.864,3.864,0,0,0,1.012-.141,7.746,7.746,0,0,0,1.293-.516v1.141a7.081,7.081,0,0,1-1.3.48A5.261,5.261,0,0,1,190.508,17.156ZM191.594,9.4a2.087,2.087,0,0,0-1.512.734A4.8,4.8,0,0,0,189,12.172h.094a6.378,6.378,0,0,0,2.73-.465,1.459,1.459,0,0,0,.949-1.348.913.913,0,0,0-.285-.687A1.255,1.255,0,0,0,191.594,9.4Zm6.914,7.758a3.18,3.18,0,0,1-2.352-.836,3.191,3.191,0,0,1-.836-2.359,7.108,7.108,0,0,1,.578-2.883,4.894,4.894,0,0,1,1.6-2.059,3.815,3.815,0,0,1,2.293-.738,5.725,5.725,0,0,1,2.094.4l-.367,1.1a4.42,4.42,0,0,0-1.711-.4,2.449,2.449,0,0,0-1.6.6,3.936,3.936,0,0,0-1.133,1.664,6.4,6.4,0,0,0-.41,2.316,2.187,2.187,0,0,0,.52,1.555,1.869,1.869,0,0,0,1.434.555,3.542,3.542,0,0,0,1.063-.156,9.742,9.742,0,0,0,.984-.367v1.117A4.691,4.691,0,0,1,198.508,17.156Zm6.773-8.719-1.172,5.43a5.861,5.861,0,0,0-.141,1.086,1,1,0,0,0,1.148,1.117,2.323,2.323,0,0,0,1.352-.469,4.166,4.166,0,0,0,1.172-1.344,7.209,7.209,0,0,0,.773-2.109l.781-3.711h1.3L208.688,17H207.6l.172-1.586h-.094a5.13,5.13,0,0,1-1.461,1.359,2.944,2.944,0,0,1-1.437.383,2.184,2.184,0,0,1-1.57-.543,2.04,2.04,0,0,1-.57-1.551,7.325,7.325,0,0,1,.172-1.344l1.141-5.281Zm11.586-.156a3.565,3.565,0,0,1,.938.109l-.281,1.172a3.434,3.434,0,0,0-.82-.1,2.17,2.17,0,0,0-1.332.469,4.1,4.1,0,0,0-1.086,1.3,6.623,6.623,0,0,0-.684,1.848L212.766,17h-1.312l1.828-8.562h1.086l-.172,1.586h.078a7.676,7.676,0,0,1,.93-1.066,2.948,2.948,0,0,1,.77-.5A2.211,2.211,0,0,1,216.867,8.281Zm6.2,6.289a2.29,2.29,0,0,1-.863,1.9,3.834,3.834,0,0,1-2.434.684,5.191,5.191,0,0,1-2.383-.539V15.383a4.863,4.863,0,0,0,1.18.508,4.311,4.311,0,0,0,1.172.18,2.382,2.382,0,0,0,1.484-.391,1.215,1.215,0,0,0,.5-1,1.082,1.082,0,0,0-.273-.75,5.51,5.51,0,0,0-1.18-.836,4.752,4.752,0,0,1-1.437-1.117,2.061,2.061,0,0,1-.422-1.3,2.155,2.155,0,0,1,.789-1.738,3.132,3.132,0,0,1,2.078-.66,6.043,6.043,0,0,1,2.578.578l-.422,1.07-.437-.2a4.342,4.342,0,0,0-1.719-.336,1.747,1.747,0,0,0-1.141.34A1.146,1.146,0,0,0,220,11.367a4.894,4.894,0,0,0,1.145.8,6.655,6.655,0,0,1,1.2.8,2.323,2.323,0,0,1,.543.723A2.043,2.043,0,0,1,223.07,14.57ZM229.2,8.328a3.127,3.127,0,0,1,2.344.879,3.31,3.31,0,0,1,.859,2.418,6.93,6.93,0,0,1-.562,2.773,4.8,4.8,0,0,1-1.523,2.016,3.56,3.56,0,0,1-2.172.711,3.114,3.114,0,0,1-2.352-.883,3.331,3.331,0,0,1-.852-2.414,6.914,6.914,0,0,1,.57-2.793,4.734,4.734,0,0,1,1.539-2.008A3.587,3.587,0,0,1,229.2,8.328Zm1.844,3.117a2.134,2.134,0,0,0-.488-1.457,1.669,1.669,0,0,0-1.324-.559,2.287,2.287,0,0,0-1.527.578,3.721,3.721,0,0,0-1.047,1.605,6.688,6.688,0,0,0-.371,2.285,2.3,2.3,0,0,0,.5,1.582,1.807,1.807,0,0,0,1.426.559,2.154,2.154,0,0,0,1.461-.57,3.725,3.725,0,0,0,1.012-1.621A7.335,7.335,0,0,0,231.047,11.445ZM238.9,14.57a2.29,2.29,0,0,1-.863,1.9,3.834,3.834,0,0,1-2.434.684,5.191,5.191,0,0,1-2.383-.539V15.383a4.863,4.863,0,0,0,1.18.508,4.311,4.311,0,0,0,1.172.18,2.382,2.382,0,0,0,1.484-.391,1.215,1.215,0,0,0,.5-1,1.082,1.082,0,0,0-.273-.75,5.51,5.51,0,0,0-1.18-.836,4.752,4.752,0,0,1-1.437-1.117,2.061,2.061,0,0,1-.422-1.3,2.155,2.155,0,0,1,.789-1.738,3.132,3.132,0,0,1,2.078-.66,6.043,6.043,0,0,1,2.578.578l-.422,1.07-.437-.2a4.342,4.342,0,0,0-1.719-.336,1.747,1.747,0,0,0-1.141.34,1.146,1.146,0,0,0-.137,1.629,4.894,4.894,0,0,0,1.145.8,6.655,6.655,0,0,1,1.2.8,2.323,2.323,0,0,1,.543.723A2.043,2.043,0,0,1,238.9,14.57Zm8.086-8.992L240.633,17h-1.359l6.352-11.422ZM251.3,17l1.156-5.406a6.426,6.426,0,0,0,.141-1.055,1.019,1.019,0,0,0-1.148-1.156,2.342,2.342,0,0,0-1.355.461,4.052,4.052,0,0,0-1.164,1.34,7.187,7.187,0,0,0-.762,2.121l-.789,3.7H246.07l2.578-12.156h1.313q-.141.641-.27,1.242t-.266,1.223q-.137.621-.3,1.3t-.371,1.477h.086a5.205,5.205,0,0,1,1.449-1.375,2.942,2.942,0,0,1,1.5-.414,2.131,2.131,0,0,1,1.582.563,2.164,2.164,0,0,1,.559,1.594,6.348,6.348,0,0,1-.18,1.3q-.3,1.508-1.133,5.25Zm7.383.156a2.988,2.988,0,0,1-2.258-.852,3.26,3.26,0,0,1-.82-2.359,7.031,7.031,0,0,1,.582-2.816,5.212,5.212,0,0,1,1.543-2.1,3.363,3.363,0,0,1,2.117-.75,2.685,2.685,0,0,1,1.8.52,1.813,1.813,0,0,1,.6,1.449,2.476,2.476,0,0,1-1.3,2.207,7.1,7.1,0,0,1-3.711.8h-.258l-.031.625a2.418,2.418,0,0,0,.48,1.6,1.832,1.832,0,0,0,1.488.574,3.864,3.864,0,0,0,1.012-.141,7.746,7.746,0,0,0,1.293-.516v1.141a7.081,7.081,0,0,1-1.3.48A5.261,5.261,0,0,1,258.688,17.156ZM259.773,9.4a2.087,2.087,0,0,0-1.512.734,4.8,4.8,0,0,0-1.082,2.039h.094a6.378,6.378,0,0,0,2.73-.465,1.459,1.459,0,0,0,.949-1.348.913.913,0,0,0-.285-.687A1.255,1.255,0,0,0,259.773,9.4Zm8.836-1.117a3.565,3.565,0,0,1,.938.109l-.281,1.172a3.434,3.434,0,0,0-.82-.1,2.17,2.17,0,0,0-1.332.469,4.1,4.1,0,0,0-1.086,1.3,6.623,6.623,0,0,0-.684,1.848L264.508,17H263.2l1.828-8.562h1.086l-.172,1.586h.078a7.677,7.677,0,0,1,.93-1.066,2.948,2.948,0,0,1,.77-.5A2.211,2.211,0,0,1,268.609,8.281Zm6.336,0a3.565,3.565,0,0,1,.938.109L275.6,9.563a3.434,3.434,0,0,0-.82-.1,2.17,2.17,0,0,0-1.332.469,4.1,4.1,0,0,0-1.086,1.3,6.623,6.623,0,0,0-.684,1.848L270.844,17h-1.312l1.828-8.562h1.086l-.172,1.586h.078a7.677,7.677,0,0,1,.93-1.066,2.948,2.948,0,0,1,.77-.5A2.211,2.211,0,0,1,274.945,8.281Zm5.133,0a2.208,2.208,0,0,1,1.281.387,2.513,2.513,0,0,1,.875,1.113h.086l.523-1.344h.992L282.016,17h-1.039l.2-1.633h-.062a3.853,3.853,0,0,1-2.945,1.789,2.059,2.059,0,0,1-1.7-.773,3.305,3.305,0,0,1-.617-2.117,8.066,8.066,0,0,1,.555-3.016,5.21,5.21,0,0,1,1.531-2.18A3.331,3.331,0,0,1,280.078,8.281Zm-1.484,7.789a2.2,2.2,0,0,0,1.508-.723,5.355,5.355,0,0,0,1.219-1.883,6.162,6.162,0,0,0,.469-2.324,1.821,1.821,0,0,0-.437-1.281,1.486,1.486,0,0,0-1.148-.477,2.151,2.151,0,0,0-1.512.672,4.533,4.533,0,0,0-1.1,1.82,7.336,7.336,0,0,0-.4,2.422,2.048,2.048,0,0,0,.367,1.332A1.267,1.267,0,0,0,278.594,16.07Zm10.969.93,1.156-5.406a6.426,6.426,0,0,0,.141-1.055,1.336,1.336,0,0,0-.242-.852,1,1,0,0,0-.828-.3,2.1,2.1,0,0,0-1.277.469,4.079,4.079,0,0,0-1.094,1.34,7.727,7.727,0,0,0-.73,2.1L285.9,17h-1.312l1.828-8.562H287.5l-.172,1.586h.078a4.895,4.895,0,0,1,1.355-1.336,2.672,2.672,0,0,1,1.395-.406,1.774,1.774,0,0,1,1.359.508,2.321,2.321,0,0,1,.563,1.414h.063a5.018,5.018,0,0,1,1.43-1.449,2.867,2.867,0,0,1,1.531-.473,2.1,2.1,0,0,1,1.535.531,2.069,2.069,0,0,1,.543,1.547,7.433,7.433,0,0,1-.172,1.391L295.883,17h-1.328l1.156-5.406a7.1,7.1,0,0,0,.156-1.141.984.984,0,0,0-1.117-1.07,2.1,2.1,0,0,0-1.25.453,3.946,3.946,0,0,0-1.082,1.285,7.02,7.02,0,0,0-.707,1.973L290.875,17Zm10.289,0h-1.312l1.828-8.562h1.313Zm.883-10.75a1.027,1.027,0,0,1,.25-.715.832.832,0,0,1,.648-.277.615.615,0,0,1,.688.7,1.06,1.06,0,0,1-.262.727.788.788,0,0,1-.605.3.722.722,0,0,1-.516-.191A.71.71,0,0,1,300.734,6.25Zm5.25,10.906a2.988,2.988,0,0,1-2.258-.852,3.26,3.26,0,0,1-.82-2.359,7.03,7.03,0,0,1,.582-2.816,5.212,5.212,0,0,1,1.543-2.1,3.363,3.363,0,0,1,2.117-.75,2.685,2.685,0,0,1,1.8.52,1.813,1.813,0,0,1,.6,1.449,2.476,2.476,0,0,1-1.3,2.207,7.1,7.1,0,0,1-3.711.8h-.258l-.031.625a2.418,2.418,0,0,0,.48,1.6,1.832,1.832,0,0,0,1.488.574,3.864,3.864,0,0,0,1.012-.141,7.746,7.746,0,0,0,1.293-.516v1.141a7.081,7.081,0,0,1-1.3.48A5.261,5.261,0,0,1,305.984,17.156ZM307.07,9.4a2.087,2.087,0,0,0-1.512.734,4.8,4.8,0,0,0-1.082,2.039h.094a6.378,6.378,0,0,0,2.73-.465,1.459,1.459,0,0,0,.949-1.348.913.913,0,0,0-.285-.687A1.255,1.255,0,0,0,307.07,9.4Zm8.656,7.6,1.156-5.406a7.127,7.127,0,0,0,.156-1.125,1.109,1.109,0,0,0-.277-.789,1.164,1.164,0,0,0-.887-.3,2.316,2.316,0,0,0-1.355.469,4.171,4.171,0,0,0-1.164,1.336,7.029,7.029,0,0,0-.762,2.1L311.8,17h-1.312l1.828-8.562h1.086l-.172,1.586h.078a5.219,5.219,0,0,1,1.449-1.348,2.911,2.911,0,0,1,1.449-.395,2.187,2.187,0,0,1,1.566.543,1.99,1.99,0,0,1,.574,1.52,6.414,6.414,0,0,1-.18,1.406L317.055,17Zm6.625-.914a4.227,4.227,0,0,0,1.125-.2v1.008a3.6,3.6,0,0,1-.656.188,3.361,3.361,0,0,1-.625.078,2.172,2.172,0,0,1-1.5-.465,1.765,1.765,0,0,1-.52-1.387,5.66,5.66,0,0,1,.141-1.172l.992-4.7h-1.344l.109-.57,1.445-.609.977-1.781h.766l-.43,1.969h2.141l-.2.992h-2.133l-1.008,4.719a5.558,5.558,0,0,0-.141,1.031.928.928,0,0,0,.227.672A.839.839,0,0,0,322.352,16.086Zm7.094-7.8a2.208,2.208,0,0,1,1.281.387,2.513,2.513,0,0,1,.875,1.113h.086l.523-1.344h.992L331.383,17h-1.039l.2-1.633h-.062a3.853,3.853,0,0,1-2.945,1.789,2.059,2.059,0,0,1-1.7-.773,3.305,3.305,0,0,1-.617-2.117,8.066,8.066,0,0,1,.555-3.016A5.21,5.21,0,0,1,327.3,9.07,3.331,3.331,0,0,1,329.445,8.281Zm-1.484,7.789a2.2,2.2,0,0,0,1.508-.723,5.355,5.355,0,0,0,1.219-1.883,6.162,6.162,0,0,0,.469-2.324,1.821,1.821,0,0,0-.437-1.281,1.486,1.486,0,0,0-1.148-.477,2.151,2.151,0,0,0-1.512.672,4.533,4.533,0,0,0-1.1,1.82,7.336,7.336,0,0,0-.4,2.422,2.048,2.048,0,0,0,.367,1.332A1.267,1.267,0,0,0,327.961,16.07Zm11.273-1.5a2.29,2.29,0,0,1-.863,1.9,3.834,3.834,0,0,1-2.434.684,5.191,5.191,0,0,1-2.383-.539V15.383a4.864,4.864,0,0,0,1.18.508,4.311,4.311,0,0,0,1.172.18,2.382,2.382,0,0,0,1.484-.391,1.215,1.215,0,0,0,.5-1,1.082,1.082,0,0,0-.273-.75,5.51,5.51,0,0,0-1.18-.836A4.752,4.752,0,0,1,335,11.977a2.061,2.061,0,0,1-.422-1.3,2.155,2.155,0,0,1,.789-1.738,3.132,3.132,0,0,1,2.078-.66,6.043,6.043,0,0,1,2.578.578L339.6,9.93l-.437-.2a4.342,4.342,0,0,0-1.719-.336,1.747,1.747,0,0,0-1.141.34,1.146,1.146,0,0,0-.137,1.629,4.894,4.894,0,0,0,1.145.8,6.655,6.655,0,0,1,1.2.8,2.323,2.323,0,0,1,.543.723A2.043,2.043,0,0,1,339.234,14.57Zm8.086-8.992L340.969,17h-1.359l6.352-11.422ZM351.641,17l1.156-5.406a6.426,6.426,0,0,0,.141-1.055,1.019,1.019,0,0,0-1.148-1.156,2.342,2.342,0,0,0-1.355.461,4.052,4.052,0,0,0-1.164,1.34,7.187,7.187,0,0,0-.762,2.121l-.789,3.7h-1.312l2.578-12.156H350.3q-.141.641-.27,1.242t-.266,1.223q-.137.621-.3,1.3t-.371,1.477h.086a5.205,5.205,0,0,1,1.449-1.375,2.942,2.942,0,0,1,1.5-.414,2.131,2.131,0,0,1,1.582.563,2.164,2.164,0,0,1,.559,1.594,6.349,6.349,0,0,1-.18,1.3q-.3,1.508-1.133,5.25Zm7.383.156a2.988,2.988,0,0,1-2.258-.852,3.26,3.26,0,0,1-.82-2.359,7.03,7.03,0,0,1,.582-2.816,5.212,5.212,0,0,1,1.543-2.1,3.363,3.363,0,0,1,2.117-.75,2.685,2.685,0,0,1,1.8.52,1.813,1.813,0,0,1,.6,1.449,2.476,2.476,0,0,1-1.3,2.207,7.1,7.1,0,0,1-3.711.8h-.258l-.031.625a2.418,2.418,0,0,0,.48,1.6,1.832,1.832,0,0,0,1.488.574,3.864,3.864,0,0,0,1.012-.141,7.746,7.746,0,0,0,1.293-.516v1.141a7.081,7.081,0,0,1-1.3.48A5.261,5.261,0,0,1,359.023,17.156ZM360.109,9.4a2.087,2.087,0,0,0-1.512.734,4.8,4.8,0,0,0-1.082,2.039h.094a6.378,6.378,0,0,0,2.73-.465,1.459,1.459,0,0,0,.949-1.348A.913.913,0,0,0,361,9.672,1.255,1.255,0,0,0,360.109,9.4Zm8.836-1.117a3.565,3.565,0,0,1,.938.109L369.6,9.563a3.434,3.434,0,0,0-.82-.1,2.17,2.17,0,0,0-1.332.469,4.1,4.1,0,0,0-1.086,1.3,6.623,6.623,0,0,0-.684,1.848L364.844,17h-1.312l1.828-8.562h1.086l-.172,1.586h.078a7.677,7.677,0,0,1,.93-1.066,2.948,2.948,0,0,1,.77-.5A2.211,2.211,0,0,1,368.945,8.281Zm6.336,0a3.565,3.565,0,0,1,.938.109l-.281,1.172a3.434,3.434,0,0,0-.82-.1,2.17,2.17,0,0,0-1.332.469,4.1,4.1,0,0,0-1.086,1.3,6.623,6.623,0,0,0-.684,1.848L371.18,17h-1.312L371.7,8.438h1.086l-.172,1.586h.078a7.677,7.677,0,0,1,.93-1.066,2.948,2.948,0,0,1,.77-.5A2.211,2.211,0,0,1,375.281,8.281Zm5.133,0a2.208,2.208,0,0,1,1.281.387,2.513,2.513,0,0,1,.875,1.113h.086l.523-1.344h.992L382.352,17h-1.039l.2-1.633h-.062a3.853,3.853,0,0,1-2.945,1.789,2.059,2.059,0,0,1-1.7-.773,3.305,3.305,0,0,1-.617-2.117,8.066,8.066,0,0,1,.555-3.016,5.21,5.21,0,0,1,1.531-2.18A3.331,3.331,0,0,1,380.414,8.281ZM378.93,16.07a2.2,2.2,0,0,0,1.508-.723,5.355,5.355,0,0,0,1.219-1.883,6.162,6.162,0,0,0,.469-2.324,1.821,1.821,0,0,0-.437-1.281,1.486,1.486,0,0,0-1.148-.477,2.151,2.151,0,0,0-1.512.672,4.533,4.533,0,0,0-1.1,1.82,7.336,7.336,0,0,0-.4,2.422,2.048,2.048,0,0,0,.367,1.332A1.267,1.267,0,0,0,378.93,16.07ZM389.9,17l1.156-5.406a6.426,6.426,0,0,0,.141-1.055,1.336,1.336,0,0,0-.242-.852,1,1,0,0,0-.828-.3,2.1,2.1,0,0,0-1.277.469,4.079,4.079,0,0,0-1.094,1.34,7.727,7.727,0,0,0-.73,2.1L386.234,17h-1.312l1.828-8.562h1.086l-.172,1.586h.078A4.895,4.895,0,0,1,389.1,8.688a2.672,2.672,0,0,1,1.395-.406,1.774,1.774,0,0,1,1.359.508,2.321,2.321,0,0,1,.563,1.414h.063a5.018,5.018,0,0,1,1.43-1.449,2.867,2.867,0,0,1,1.531-.473,2.1,2.1,0,0,1,1.535.531,2.069,2.069,0,0,1,.543,1.547,7.433,7.433,0,0,1-.172,1.391L396.219,17h-1.328l1.156-5.406a7.1,7.1,0,0,0,.156-1.141.984.984,0,0,0-1.117-1.07,2.1,2.1,0,0,0-1.25.453,3.946,3.946,0,0,0-1.082,1.285,7.02,7.02,0,0,0-.707,1.973L391.211,17Zm10.289,0h-1.312L400.7,8.438h1.313Zm.883-10.75a1.027,1.027,0,0,1,.25-.715.832.832,0,0,1,.648-.277.615.615,0,0,1,.688.7,1.06,1.06,0,0,1-.262.727.788.788,0,0,1-.605.3.722.722,0,0,1-.516-.191A.71.71,0,0,1,401.07,6.25Zm5.25,10.906a2.988,2.988,0,0,1-2.258-.852,3.26,3.26,0,0,1-.82-2.359,7.03,7.03,0,0,1,.582-2.816,5.212,5.212,0,0,1,1.543-2.1,3.363,3.363,0,0,1,2.117-.75,2.685,2.685,0,0,1,1.8.52,1.813,1.813,0,0,1,.6,1.449,2.476,2.476,0,0,1-1.3,2.207,7.1,7.1,0,0,1-3.711.8h-.258l-.031.625a2.418,2.418,0,0,0,.48,1.6,1.832,1.832,0,0,0,1.488.574,3.864,3.864,0,0,0,1.012-.141,7.746,7.746,0,0,0,1.293-.516v1.141a7.081,7.081,0,0,1-1.3.48A5.261,5.261,0,0,1,406.32,17.156ZM407.406,9.4a2.087,2.087,0,0,0-1.512.734,4.8,4.8,0,0,0-1.082,2.039h.094a6.378,6.378,0,0,0,2.73-.465,1.459,1.459,0,0,0,.949-1.348.913.913,0,0,0-.285-.687A1.255,1.255,0,0,0,407.406,9.4Zm8.656,7.6,1.156-5.406a7.127,7.127,0,0,0,.156-1.125,1.109,1.109,0,0,0-.277-.789,1.164,1.164,0,0,0-.887-.3,2.316,2.316,0,0,0-1.355.469,4.171,4.171,0,0,0-1.164,1.336,7.029,7.029,0,0,0-.762,2.1L412.141,17h-1.312l1.828-8.562h1.086l-.172,1.586h.078A5.219,5.219,0,0,1,415.1,8.676a2.911,2.911,0,0,1,1.449-.395,2.187,2.187,0,0,1,1.566.543,1.99,1.99,0,0,1,.574,1.52,6.414,6.414,0,0,1-.18,1.406L417.391,17Zm6.625-.914a4.227,4.227,0,0,0,1.125-.2v1.008a3.6,3.6,0,0,1-.656.188,3.361,3.361,0,0,1-.625.078,2.172,2.172,0,0,1-1.5-.465,1.765,1.765,0,0,1-.52-1.387,5.66,5.66,0,0,1,.141-1.172l.992-4.7H420.3l.109-.57,1.445-.609.977-1.781h.766l-.43,1.969h2.141l-.2.992h-2.133l-1.008,4.719a5.558,5.558,0,0,0-.141,1.031.928.928,0,0,0,.227.672A.839.839,0,0,0,422.688,16.086Zm7.094-7.8a2.208,2.208,0,0,1,1.281.387,2.513,2.513,0,0,1,.875,1.113h.086l.523-1.344h.992L431.719,17H430.68l.2-1.633h-.062a3.853,3.853,0,0,1-2.945,1.789,2.059,2.059,0,0,1-1.7-.773,3.305,3.305,0,0,1-.617-2.117,8.066,8.066,0,0,1,.555-3.016,5.21,5.21,0,0,1,1.531-2.18A3.331,3.331,0,0,1,429.781,8.281ZM428.3,16.07a2.2,2.2,0,0,0,1.508-.723,5.355,5.355,0,0,0,1.219-1.883,6.162,6.162,0,0,0,.469-2.324,1.821,1.821,0,0,0-.437-1.281,1.486,1.486,0,0,0-1.148-.477,2.151,2.151,0,0,0-1.512.672,4.533,4.533,0,0,0-1.1,1.82,7.336,7.336,0,0,0-.4,2.422,2.048,2.048,0,0,0,.367,1.332A1.267,1.267,0,0,0,428.3,16.07Zm11.273-1.5a2.29,2.29,0,0,1-.863,1.9,3.834,3.834,0,0,1-2.434.684,5.191,5.191,0,0,1-2.383-.539V15.383a4.864,4.864,0,0,0,1.18.508,4.311,4.311,0,0,0,1.172.18,2.382,2.382,0,0,0,1.484-.391,1.215,1.215,0,0,0,.5-1,1.082,1.082,0,0,0-.273-.75,5.51,5.51,0,0,0-1.18-.836,4.752,4.752,0,0,1-1.437-1.117,2.061,2.061,0,0,1-.422-1.3,2.155,2.155,0,0,1,.789-1.738,3.132,3.132,0,0,1,2.078-.66,6.043,6.043,0,0,1,2.578.578l-.422,1.07-.437-.2a4.342,4.342,0,0,0-1.719-.336,1.747,1.747,0,0,0-1.141.34,1.146,1.146,0,0,0-.137,1.629,4.894,4.894,0,0,0,1.145.8,6.655,6.655,0,0,1,1.2.8,2.323,2.323,0,0,1,.543.723A2.043,2.043,0,0,1,439.57,14.57Zm5.977,4.961h-6.336l.234-1.094h6.336Zm6.461-11.2a3.127,3.127,0,0,1,2.344.879,3.31,3.31,0,0,1,.859,2.418,6.93,6.93,0,0,1-.562,2.773,4.8,4.8,0,0,1-1.523,2.016,3.56,3.56,0,0,1-2.172.711,3.114,3.114,0,0,1-2.352-.883,3.331,3.331,0,0,1-.852-2.414,6.914,6.914,0,0,1,.57-2.793,4.734,4.734,0,0,1,1.539-2.008A3.587,3.587,0,0,1,452.008,8.328Zm1.844,3.117a2.133,2.133,0,0,0-.488-1.457,1.669,1.669,0,0,0-1.324-.559,2.287,2.287,0,0,0-1.527.578,3.721,3.721,0,0,0-1.047,1.605,6.687,6.687,0,0,0-.371,2.285,2.3,2.3,0,0,0,.5,1.582,1.807,1.807,0,0,0,1.426.559,2.154,2.154,0,0,0,1.461-.57,3.725,3.725,0,0,0,1.012-1.621A7.335,7.335,0,0,0,453.852,11.445Zm7.984-3.164a3.565,3.565,0,0,1,.938.109l-.281,1.172a3.434,3.434,0,0,0-.82-.1,2.17,2.17,0,0,0-1.332.469,4.1,4.1,0,0,0-1.086,1.3,6.623,6.623,0,0,0-.684,1.848L457.734,17h-1.312l1.828-8.562h1.086l-.172,1.586h.078a7.677,7.677,0,0,1,.93-1.066,2.948,2.948,0,0,1,.77-.5A2.211,2.211,0,0,1,461.836,8.281Zm8.9.156-.2.836-1.648.188a2.2,2.2,0,0,1,.32,1.234,3.169,3.169,0,0,1-.91,2.379,3.338,3.338,0,0,1-2.434.887,2.618,2.618,0,0,1-.656-.062q-1.086.414-1.086,1.023a.414.414,0,0,0,.258.426,3.118,3.118,0,0,0,.75.168l.914.109a4.071,4.071,0,0,1,2.051.688,1.835,1.835,0,0,1,.637,1.516,2.551,2.551,0,0,1-1.141,2.227,5.594,5.594,0,0,1-3.211.789,4.237,4.237,0,0,1-2.375-.574,1.839,1.839,0,0,1-.859-1.621,2.012,2.012,0,0,1,.563-1.422,4.381,4.381,0,0,1,1.82-1.023,1.018,1.018,0,0,1-.609-.945,1.245,1.245,0,0,1,.4-.926,4.107,4.107,0,0,1,1.109-.723,2.054,2.054,0,0,1-1.117-1.875,3.432,3.432,0,0,1,.934-2.484,3.17,3.17,0,0,1,2.387-.969,4.708,4.708,0,0,1,1.2.156Zm-8.32,10.086a1.1,1.1,0,0,0,.508.953,2.654,2.654,0,0,0,1.508.352,4.215,4.215,0,0,0,2.223-.5,1.563,1.563,0,0,0,.8-1.4.876.876,0,0,0-.422-.766,3.385,3.385,0,0,0-1.437-.391l-1.242-.125a2.819,2.819,0,0,0-1.437.688A1.606,1.606,0,0,0,462.414,18.523Zm2.172-6.836a1.361,1.361,0,0,0,.352,1.012,1.329,1.329,0,0,0,.977.348,1.811,1.811,0,0,0,1.078-.328,2.086,2.086,0,0,0,.707-.9,3.13,3.13,0,0,0,.246-1.246,1.3,1.3,0,0,0-.344-.977,1.351,1.351,0,0,0-.984-.336,1.827,1.827,0,0,0-1.066.316,2.077,2.077,0,0,0-.711.883A2.973,2.973,0,0,0,464.586,11.688Zm10.563-3.406a2.208,2.208,0,0,1,1.281.387,2.513,2.513,0,0,1,.875,1.113h.086l.523-1.344h.992L477.086,17h-1.039l.2-1.633h-.062a3.853,3.853,0,0,1-2.945,1.789,2.059,2.059,0,0,1-1.7-.773,3.305,3.305,0,0,1-.617-2.117,8.066,8.066,0,0,1,.555-3.016,5.21,5.21,0,0,1,1.531-2.18A3.331,3.331,0,0,1,475.148,8.281Zm-1.484,7.789a2.2,2.2,0,0,0,1.508-.723,5.355,5.355,0,0,0,1.219-1.883,6.162,6.162,0,0,0,.469-2.324,1.821,1.821,0,0,0-.437-1.281,1.486,1.486,0,0,0-1.148-.477,2.151,2.151,0,0,0-1.512.672,4.533,4.533,0,0,0-1.1,1.82,7.336,7.336,0,0,0-.4,2.422,2.048,2.048,0,0,0,.367,1.332A1.267,1.267,0,0,0,473.664,16.07Zm11.227.93,1.156-5.406a7.127,7.127,0,0,0,.156-1.125,1.109,1.109,0,0,0-.277-.789,1.164,1.164,0,0,0-.887-.3,2.316,2.316,0,0,0-1.355.469,4.171,4.171,0,0,0-1.164,1.336,7.029,7.029,0,0,0-.762,2.1L480.969,17h-1.312l1.828-8.562h1.086l-.172,1.586h.078a5.219,5.219,0,0,1,1.449-1.348,2.911,2.911,0,0,1,1.449-.395,2.187,2.187,0,0,1,1.566.543,1.99,1.99,0,0,1,.574,1.52,6.414,6.414,0,0,1-.18,1.406L486.219,17Zm5.313,0h-1.312l1.828-8.562h1.313Zm.883-10.75a1.027,1.027,0,0,1,.25-.715.832.832,0,0,1,.648-.277.615.615,0,0,1,.688.7,1.06,1.06,0,0,1-.262.727.788.788,0,0,1-.605.3.722.722,0,0,1-.516-.191A.71.71,0,0,1,491.086,6.25Zm6.8,10.75h-5.617l.18-.914,5.422-6.672h-3.742l.211-.977h5.133l-.227,1.094-5.312,6.492h4.148Zm6.7-8.719a2.208,2.208,0,0,1,1.281.387,2.513,2.513,0,0,1,.875,1.113h.086l.523-1.344h.992L506.523,17h-1.039l.2-1.633h-.062a3.853,3.853,0,0,1-2.945,1.789,2.059,2.059,0,0,1-1.7-.773,3.305,3.305,0,0,1-.617-2.117,8.066,8.066,0,0,1,.555-3.016,5.21,5.21,0,0,1,1.531-2.18A3.331,3.331,0,0,1,504.586,8.281ZM503.1,16.07a2.2,2.2,0,0,0,1.508-.723,5.355,5.355,0,0,0,1.219-1.883,6.162,6.162,0,0,0,.469-2.324,1.821,1.821,0,0,0-.437-1.281,1.486,1.486,0,0,0-1.148-.477,2.151,2.151,0,0,0-1.512.672,4.533,4.533,0,0,0-1.1,1.82,7.336,7.336,0,0,0-.4,2.422,2.048,2.048,0,0,0,.367,1.332A1.267,1.267,0,0,0,503.1,16.07Zm9.484,1.086a3.18,3.18,0,0,1-2.352-.836,3.191,3.191,0,0,1-.836-2.359,7.108,7.108,0,0,1,.578-2.883,4.894,4.894,0,0,1,1.6-2.059,3.815,3.815,0,0,1,2.293-.738,5.725,5.725,0,0,1,2.094.4l-.367,1.1a4.42,4.42,0,0,0-1.711-.4,2.449,2.449,0,0,0-1.6.6,3.936,3.936,0,0,0-1.133,1.664,6.4,6.4,0,0,0-.41,2.316,2.187,2.187,0,0,0,.52,1.555,1.868,1.868,0,0,0,1.434.555,3.542,3.542,0,0,0,1.063-.156,9.745,9.745,0,0,0,.984-.367v1.117A4.691,4.691,0,0,1,512.586,17.156ZM517.609,17H516.3l1.828-8.562h1.313Zm.883-10.75a1.027,1.027,0,0,1,.25-.715.833.833,0,0,1,.648-.277.615.615,0,0,1,.688.7,1.06,1.06,0,0,1-.262.727.788.788,0,0,1-.605.3.722.722,0,0,1-.516-.191A.71.71,0,0,1,518.492,6.25Zm6.43,2.078a3.127,3.127,0,0,1,2.344.879,3.31,3.31,0,0,1,.859,2.418,6.93,6.93,0,0,1-.562,2.773,4.8,4.8,0,0,1-1.523,2.016,3.56,3.56,0,0,1-2.172.711,3.114,3.114,0,0,1-2.352-.883,3.331,3.331,0,0,1-.852-2.414,6.914,6.914,0,0,1,.57-2.793,4.734,4.734,0,0,1,1.539-2.008A3.587,3.587,0,0,1,524.922,8.328Zm1.844,3.117a2.134,2.134,0,0,0-.488-1.457,1.669,1.669,0,0,0-1.324-.559,2.287,2.287,0,0,0-1.527.578,3.721,3.721,0,0,0-1.047,1.605,6.688,6.688,0,0,0-.371,2.285,2.3,2.3,0,0,0,.5,1.582,1.807,1.807,0,0,0,1.426.559,2.154,2.154,0,0,0,1.461-.57,3.725,3.725,0,0,0,1.012-1.621A7.335,7.335,0,0,0,526.766,11.445ZM534.57,17l1.156-5.406a7.123,7.123,0,0,0,.156-1.125,1.109,1.109,0,0,0-.277-.789,1.164,1.164,0,0,0-.887-.3,2.316,2.316,0,0,0-1.355.469,4.171,4.171,0,0,0-1.164,1.336,7.029,7.029,0,0,0-.762,2.1L530.648,17h-1.312l1.828-8.562h1.086l-.172,1.586h.078a5.219,5.219,0,0,1,1.449-1.348,2.911,2.911,0,0,1,1.449-.395,2.187,2.187,0,0,1,1.566.543,1.99,1.99,0,0,1,.574,1.52,6.412,6.412,0,0,1-.18,1.406L535.9,17Zm7.383.156A2.988,2.988,0,0,1,539.7,16.3a3.26,3.26,0,0,1-.82-2.359,7.031,7.031,0,0,1,.582-2.816A5.212,5.212,0,0,1,541,9.031a3.363,3.363,0,0,1,2.117-.75,2.685,2.685,0,0,1,1.8.52,1.813,1.813,0,0,1,.6,1.449,2.476,2.476,0,0,1-1.3,2.207,7.1,7.1,0,0,1-3.711.8h-.258l-.031.625a2.418,2.418,0,0,0,.48,1.6,1.832,1.832,0,0,0,1.488.574,3.864,3.864,0,0,0,1.012-.141,7.745,7.745,0,0,0,1.293-.516v1.141a7.081,7.081,0,0,1-1.3.48A5.261,5.261,0,0,1,541.953,17.156ZM543.039,9.4a2.087,2.087,0,0,0-1.512.734,4.8,4.8,0,0,0-1.082,2.039h.094a6.378,6.378,0,0,0,2.73-.465,1.459,1.459,0,0,0,.949-1.348.912.912,0,0,0-.285-.687A1.255,1.255,0,0,0,543.039,9.4Zm8.7,5.172a2.29,2.29,0,0,1-.863,1.9,3.834,3.834,0,0,1-2.434.684,5.191,5.191,0,0,1-2.383-.539V15.383a4.863,4.863,0,0,0,1.18.508,4.311,4.311,0,0,0,1.172.18,2.381,2.381,0,0,0,1.484-.391,1.215,1.215,0,0,0,.5-1,1.082,1.082,0,0,0-.273-.75,5.51,5.51,0,0,0-1.18-.836,4.753,4.753,0,0,1-1.437-1.117,2.061,2.061,0,0,1-.422-1.3,2.155,2.155,0,0,1,.789-1.738,3.132,3.132,0,0,1,2.078-.66,6.043,6.043,0,0,1,2.578.578l-.422,1.07-.437-.2a4.342,4.342,0,0,0-1.719-.336,1.747,1.747,0,0,0-1.141.34,1.146,1.146,0,0,0-.137,1.629,4.893,4.893,0,0,0,1.145.8,6.654,6.654,0,0,1,1.2.8,2.323,2.323,0,0,1,.543.723A2.043,2.043,0,0,1,551.742,14.57Zm8.086-8.992L553.477,17h-1.359l6.352-11.422Zm2.578,11.578a3.18,3.18,0,0,1-2.352-.836,3.19,3.19,0,0,1-.836-2.359,7.108,7.108,0,0,1,.578-2.883,4.894,4.894,0,0,1,1.6-2.059,3.815,3.815,0,0,1,2.293-.738,5.725,5.725,0,0,1,2.094.4l-.367,1.1a4.42,4.42,0,0,0-1.711-.4,2.449,2.449,0,0,0-1.6.6,3.936,3.936,0,0,0-1.133,1.664,6.4,6.4,0,0,0-.41,2.316,2.186,2.186,0,0,0,.52,1.555,1.869,1.869,0,0,0,1.434.555,3.542,3.542,0,0,0,1.063-.156,9.745,9.745,0,0,0,.984-.367v1.117A4.691,4.691,0,0,1,562.406,17.156ZM567.43,17h-1.312l1.828-8.562h1.313Zm.883-10.75a1.027,1.027,0,0,1,.25-.715.833.833,0,0,1,.648-.277.615.615,0,0,1,.688.7,1.06,1.06,0,0,1-.262.727.788.788,0,0,1-.605.3.722.722,0,0,1-.516-.191A.71.71,0,0,1,568.313,6.25Zm7.148,8.32a2.29,2.29,0,0,1-.863,1.9,3.834,3.834,0,0,1-2.434.684,5.191,5.191,0,0,1-2.383-.539V15.383a4.863,4.863,0,0,0,1.18.508,4.311,4.311,0,0,0,1.172.18,2.381,2.381,0,0,0,1.484-.391,1.215,1.215,0,0,0,.5-1,1.082,1.082,0,0,0-.273-.75,5.51,5.51,0,0,0-1.18-.836,4.753,4.753,0,0,1-1.437-1.117,2.061,2.061,0,0,1-.422-1.3,2.155,2.155,0,0,1,.789-1.738,3.132,3.132,0,0,1,2.078-.66,6.043,6.043,0,0,1,2.578.578l-.422,1.07-.437-.2a4.342,4.342,0,0,0-1.719-.336,1.747,1.747,0,0,0-1.141.34,1.146,1.146,0,0,0-.137,1.629,4.893,4.893,0,0,0,1.145.8,6.654,6.654,0,0,1,1.2.8,2.323,2.323,0,0,1,.543.723A2.043,2.043,0,0,1,575.461,14.57Zm8.086-8.992L577.2,17h-1.359l6.352-11.422ZM7.359,28.6a4.119,4.119,0,0,0-2.434.758,5.089,5.089,0,0,0-1.7,2.223,8,8,0,0,0-.629,3.191,3.417,3.417,0,0,0,.762,2.332,2.641,2.641,0,0,0,2.1.871,8.611,8.611,0,0,0,2.516-.445V38.7a7.917,7.917,0,0,1-1.281.352,8.456,8.456,0,0,1-1.469.109A3.84,3.84,0,0,1,2.25,37.988,4.511,4.511,0,0,1,1.172,34.8,8.806,8.806,0,0,1,2,31.012a6.351,6.351,0,0,1,2.215-2.676,5.57,5.57,0,0,1,3.148-.922,5.721,5.721,0,0,1,2.719.625l-.539,1.1A4.829,4.829,0,0,0,7.359,28.6ZM10.031,39l2.43-11.422h1.313L11.344,39Zm10.828-3.312a3.139,3.139,0,0,1-1.1,2.559,4.711,4.711,0,0,1-3.09.91,8.3,8.3,0,0,1-1.457-.113,4.625,4.625,0,0,1-1.184-.379V37.336a5.694,5.694,0,0,0,2.656.656A3.14,3.14,0,0,0,18.7,37.4a1.957,1.957,0,0,0,.742-1.621,1.575,1.575,0,0,0-.41-1.074,6.236,6.236,0,0,0-1.527-1.1,4.851,4.851,0,0,1-1.637-1.328,2.7,2.7,0,0,1-.457-1.57,3.037,3.037,0,0,1,1.031-2.379,3.925,3.925,0,0,1,2.711-.918,6.639,6.639,0,0,1,1.441.148A6.488,6.488,0,0,1,22,28.07l-.516,1.172a4.8,4.8,0,0,0-1.156-.469,4.579,4.579,0,0,0-1.18-.172,2.506,2.506,0,0,0-1.684.543,1.835,1.835,0,0,0-.637,1.473,1.782,1.782,0,0,0,.133.723,1.719,1.719,0,0,0,.422.566,7.109,7.109,0,0,0,1.109.742,9.4,9.4,0,0,1,1.551,1.078,2.557,2.557,0,0,1,.816,1.961Zm5.766,5.844H20.289l.234-1.094h6.336ZM33.5,39l1.156-5.406a6.426,6.426,0,0,0,.141-1.055,1.336,1.336,0,0,0-.242-.852,1,1,0,0,0-.828-.3,2.1,2.1,0,0,0-1.277.469,4.079,4.079,0,0,0-1.094,1.34,7.727,7.727,0,0,0-.73,2.1L29.836,39H28.523l1.828-8.562h1.086l-.172,1.586h.078A4.895,4.895,0,0,1,32.7,30.688a2.672,2.672,0,0,1,1.395-.406,1.774,1.774,0,0,1,1.359.508,2.322,2.322,0,0,1,.563,1.414h.063a5.018,5.018,0,0,1,1.43-1.449,2.867,2.867,0,0,1,1.531-.473,2.1,2.1,0,0,1,1.535.531,2.068,2.068,0,0,1,.543,1.547,7.434,7.434,0,0,1-.172,1.391L39.82,39H38.492l1.156-5.406a7.1,7.1,0,0,0,.156-1.141.984.984,0,0,0-1.117-1.07,2.1,2.1,0,0,0-1.25.453,3.946,3.946,0,0,0-1.082,1.285,7.02,7.02,0,0,0-.707,1.973L34.813,39Zm13.508-8.719a2.208,2.208,0,0,1,1.281.387,2.513,2.513,0,0,1,.875,1.113h.086l.523-1.344h.992L48.945,39H47.906l.2-1.633h-.062A3.853,3.853,0,0,1,45.1,39.156a2.059,2.059,0,0,1-1.7-.773,3.305,3.305,0,0,1-.617-2.117,8.065,8.065,0,0,1,.555-3.016,5.21,5.21,0,0,1,1.531-2.18A3.331,3.331,0,0,1,47.008,30.281ZM45.523,38.07a2.2,2.2,0,0,0,1.508-.723,5.355,5.355,0,0,0,1.219-1.883,6.162,6.162,0,0,0,.469-2.324,1.821,1.821,0,0,0-.437-1.281,1.486,1.486,0,0,0-1.148-.477,2.151,2.151,0,0,0-1.512.672,4.533,4.533,0,0,0-1.1,1.82,7.336,7.336,0,0,0-.4,2.422,2.048,2.048,0,0,0,.367,1.332A1.267,1.267,0,0,0,45.523,38.07ZM56.75,39l1.156-5.406a7.126,7.126,0,0,0,.156-1.125,1.109,1.109,0,0,0-.277-.789,1.164,1.164,0,0,0-.887-.3,2.316,2.316,0,0,0-1.355.469,4.171,4.171,0,0,0-1.164,1.336,7.029,7.029,0,0,0-.762,2.1L52.828,39H51.516l1.828-8.562H54.43l-.172,1.586h.078a5.219,5.219,0,0,1,1.449-1.348,2.911,2.911,0,0,1,1.449-.395,2.187,2.187,0,0,1,1.566.543,1.99,1.99,0,0,1,.574,1.52,6.413,6.413,0,0,1-.18,1.406L58.078,39Zm7.383.156a2.988,2.988,0,0,1-2.258-.852,3.26,3.26,0,0,1-.82-2.359,7.031,7.031,0,0,1,.582-2.816,5.212,5.212,0,0,1,1.543-2.1,3.363,3.363,0,0,1,2.117-.75,2.685,2.685,0,0,1,1.8.52,1.813,1.813,0,0,1,.6,1.449,2.476,2.476,0,0,1-1.3,2.207,7.1,7.1,0,0,1-3.711.8H62.43l-.031.625a2.418,2.418,0,0,0,.48,1.6,1.832,1.832,0,0,0,1.488.574,3.864,3.864,0,0,0,1.012-.141,7.746,7.746,0,0,0,1.293-.516v1.141a7.081,7.081,0,0,1-1.3.48A5.261,5.261,0,0,1,64.133,39.156ZM65.219,31.4a2.087,2.087,0,0,0-1.512.734,4.8,4.8,0,0,0-1.082,2.039h.094a6.378,6.378,0,0,0,2.73-.465,1.459,1.459,0,0,0,.949-1.348.913.913,0,0,0-.285-.687A1.255,1.255,0,0,0,65.219,31.4Zm1.906,11.445a2.636,2.636,0,0,1-.961-.164v-1.1a2.731,2.731,0,0,0,.93.172q.977,0,1.313-1.6l2.063-9.711h1.3l-2.078,9.828a3.886,3.886,0,0,1-.895,1.957A2.238,2.238,0,0,1,67.125,42.844ZM70.836,28.25a1.027,1.027,0,0,1,.25-.715.833.833,0,0,1,.648-.277q.672,0,.672.7a1.06,1.06,0,0,1-.262.727.788.788,0,0,1-.605.3.7.7,0,0,1-.5-.191A.71.71,0,0,1,70.836,28.25Zm6.43,2.078a3.127,3.127,0,0,1,2.344.879,3.31,3.31,0,0,1,.859,2.418,6.93,6.93,0,0,1-.562,2.773,4.8,4.8,0,0,1-1.523,2.016,3.56,3.56,0,0,1-2.172.711,3.114,3.114,0,0,1-2.352-.883,3.331,3.331,0,0,1-.852-2.414,6.914,6.914,0,0,1,.57-2.793,4.734,4.734,0,0,1,1.539-2.008A3.587,3.587,0,0,1,77.266,30.328Zm1.844,3.117a2.134,2.134,0,0,0-.488-1.457A1.669,1.669,0,0,0,77.3,31.43a2.287,2.287,0,0,0-1.527.578,3.721,3.721,0,0,0-1.047,1.605,6.687,6.687,0,0,0-.371,2.285,2.3,2.3,0,0,0,.5,1.582,1.807,1.807,0,0,0,1.426.559,2.154,2.154,0,0,0,1.461-.57,3.725,3.725,0,0,0,1.012-1.621A7.335,7.335,0,0,0,79.109,33.445Zm8.461,1.922H83.7L81.781,39H80.3l6.242-11.422h1.359L89.344,39H88.016Zm-.141-1.219-.273-2.336a26.377,26.377,0,0,1-.227-2.734q-.289.688-.629,1.367t-1.949,3.7ZM95.539,39,96.7,33.594a6.426,6.426,0,0,0,.141-1.055,1.336,1.336,0,0,0-.242-.852,1,1,0,0,0-.828-.3,2.1,2.1,0,0,0-1.277.469,4.079,4.079,0,0,0-1.094,1.34,7.727,7.727,0,0,0-.73,2.1L91.875,39H90.563l1.828-8.562h1.086L93.3,32.023h.078a4.895,4.895,0,0,1,1.355-1.336,2.672,2.672,0,0,1,1.395-.406,1.774,1.774,0,0,1,1.359.508,2.321,2.321,0,0,1,.563,1.414h.063a5.018,5.018,0,0,1,1.43-1.449,2.867,2.867,0,0,1,1.531-.473,2.1,2.1,0,0,1,1.535.531,2.068,2.068,0,0,1,.543,1.547,7.434,7.434,0,0,1-.172,1.391L101.859,39h-1.328l1.156-5.406a7.1,7.1,0,0,0,.156-1.141.984.984,0,0,0-1.117-1.07,2.1,2.1,0,0,0-1.25.453,3.946,3.946,0,0,0-1.082,1.285,7.02,7.02,0,0,0-.707,1.973L96.852,39Zm12.773.156a2.279,2.279,0,0,1-1.332-.4,2.437,2.437,0,0,1-.863-1.086h-.078L105.492,39h-.977l2.578-12.156h1.313q-.4,1.891-.613,2.895t-.59,2.348h.07a5.7,5.7,0,0,1,1.434-1.355,2.752,2.752,0,0,1,1.457-.434,2.076,2.076,0,0,1,1.719.773A3.319,3.319,0,0,1,112.5,33.2a8.317,8.317,0,0,1-.535,3.02,5.058,5.058,0,0,1-1.492,2.164A3.336,3.336,0,0,1,108.313,39.156Zm1.453-7.773a2.26,2.26,0,0,0-1.527.742A5.292,5.292,0,0,0,107,33.992a6.071,6.071,0,0,0-.457,2.3,1.84,1.84,0,0,0,.434,1.316,1.647,1.647,0,0,0,1.254.457,2.066,2.066,0,0,0,1.441-.633,4.443,4.443,0,0,0,1.074-1.8,7.5,7.5,0,0,0,.406-2.48Q111.156,31.383,109.766,31.383Zm5.3,7.617H113.75l1.828-8.562h1.313Zm.883-10.75a1.027,1.027,0,0,1,.25-.715.833.833,0,0,1,.648-.277.615.615,0,0,1,.688.7,1.06,1.06,0,0,1-.262.727.788.788,0,0,1-.605.3.722.722,0,0,1-.516-.191A.71.71,0,0,1,115.945,28.25Zm5.25,10.906a2.988,2.988,0,0,1-2.258-.852,3.26,3.26,0,0,1-.82-2.359,7.031,7.031,0,0,1,.582-2.816,5.212,5.212,0,0,1,1.543-2.1,3.363,3.363,0,0,1,2.117-.75,2.685,2.685,0,0,1,1.8.52,1.813,1.813,0,0,1,.6,1.449,2.476,2.476,0,0,1-1.3,2.207,7.1,7.1,0,0,1-3.711.8h-.258l-.031.625a2.418,2.418,0,0,0,.48,1.6,1.832,1.832,0,0,0,1.488.574,3.864,3.864,0,0,0,1.012-.141,7.746,7.746,0,0,0,1.293-.516v1.141a7.081,7.081,0,0,1-1.3.48A5.261,5.261,0,0,1,121.2,39.156Zm1.086-7.758a2.087,2.087,0,0,0-1.512.734,4.8,4.8,0,0,0-1.082,2.039h.094a6.378,6.378,0,0,0,2.73-.465,1.459,1.459,0,0,0,.949-1.348.913.913,0,0,0-.285-.687A1.255,1.255,0,0,0,122.281,31.4Zm8.656,7.6,1.156-5.406a7.125,7.125,0,0,0,.156-1.125,1.109,1.109,0,0,0-.277-.789,1.164,1.164,0,0,0-.887-.3,2.316,2.316,0,0,0-1.355.469,4.171,4.171,0,0,0-1.164,1.336,7.029,7.029,0,0,0-.762,2.1L127.016,39H125.7l1.828-8.562h1.086l-.172,1.586h.078a5.219,5.219,0,0,1,1.449-1.348,2.911,2.911,0,0,1,1.449-.395,2.187,2.187,0,0,1,1.566.543,1.99,1.99,0,0,1,.574,1.52,6.413,6.413,0,0,1-.18,1.406L132.266,39Zm6.625-.914a4.227,4.227,0,0,0,1.125-.2v1.008a3.6,3.6,0,0,1-.656.188,3.361,3.361,0,0,1-.625.078,2.172,2.172,0,0,1-1.5-.465,1.765,1.765,0,0,1-.52-1.387,5.66,5.66,0,0,1,.141-1.172l.992-4.7H135.18l.109-.57,1.445-.609.977-1.781h.766l-.43,1.969h2.141l-.2.992h-2.133l-1.008,4.719a5.558,5.558,0,0,0-.141,1.031.928.928,0,0,0,.227.672A.839.839,0,0,0,137.563,38.086Zm7.094-7.8a2.208,2.208,0,0,1,1.281.387,2.513,2.513,0,0,1,.875,1.113h.086l.523-1.344h.992L146.594,39h-1.039l.2-1.633H145.7a3.853,3.853,0,0,1-2.945,1.789,2.059,2.059,0,0,1-1.7-.773,3.305,3.305,0,0,1-.617-2.117,8.065,8.065,0,0,1,.555-3.016,5.21,5.21,0,0,1,1.531-2.18A3.331,3.331,0,0,1,144.656,30.281Zm-1.484,7.789a2.2,2.2,0,0,0,1.508-.723,5.355,5.355,0,0,0,1.219-1.883,6.162,6.162,0,0,0,.469-2.324,1.821,1.821,0,0,0-.437-1.281,1.486,1.486,0,0,0-1.148-.477,2.151,2.151,0,0,0-1.512.672,4.533,4.533,0,0,0-1.1,1.82,7.336,7.336,0,0,0-.4,2.422,2.048,2.048,0,0,0,.367,1.332A1.267,1.267,0,0,0,143.172,38.07Zm7.289.93h-1.312l2.594-12.156h1.313Zm2.641-.578a1.387,1.387,0,0,1,.316-.957,1.106,1.106,0,0,1,.871-.355.742.742,0,0,1,.543.2.83.83,0,0,1,.207.617,1.388,1.388,0,0,1-.312.926,1.046,1.046,0,0,1-.844.371.788.788,0,0,1-.57-.2A.8.8,0,0,1,153.1,38.422Zm7.969.734a2.293,2.293,0,0,1-1.328-.391,2.537,2.537,0,0,1-.883-1.094h-.078l-.031.3q-.023.2-.082.547t-.895,4.328h-1.3L159.1,30.438h1.086l-.2,1.633h.063a3.837,3.837,0,0,1,2.906-1.773,2.055,2.055,0,0,1,1.688.762,3.309,3.309,0,0,1,.617,2.137,8.3,8.3,0,0,1-.539,3.039,5.046,5.046,0,0,1-1.492,2.152A3.341,3.341,0,0,1,161.07,39.156Zm1.453-7.773a2.26,2.26,0,0,0-1.527.742,5.292,5.292,0,0,0-1.234,1.867,6.071,6.071,0,0,0-.457,2.3,1.84,1.84,0,0,0,.434,1.316,1.647,1.647,0,0,0,1.254.457,2.066,2.066,0,0,0,1.441-.633,4.443,4.443,0,0,0,1.074-1.8,7.5,7.5,0,0,0,.406-2.48Q163.914,31.383,162.523,31.383Zm8.516-1.086a2.279,2.279,0,0,1,2.2,1.484h.078a18,18,0,0,1,.352-2.141l.609-2.8h1.3L172.992,39h-1.086l.172-1.633h-.062a5.866,5.866,0,0,1-1.477,1.383,2.759,2.759,0,0,1-1.422.406,2.045,2.045,0,0,1-1.7-.766,3.329,3.329,0,0,1-.609-2.125,8.094,8.094,0,0,1,.563-3.062,5.107,5.107,0,0,1,1.52-2.148A3.368,3.368,0,0,1,171.039,30.3Zm-1.484,7.773a2.276,2.276,0,0,0,1.516-.73,5.129,5.129,0,0,0,1.238-1.867,6.16,6.16,0,0,0,.457-2.316,1.87,1.87,0,0,0-.422-1.32,1.594,1.594,0,0,0-1.227-.453,2.09,2.09,0,0,0-1.465.645,4.531,4.531,0,0,0-1.086,1.813,7.361,7.361,0,0,0-.41,2.457Q168.156,38.07,169.555,38.07Zm4.914,4.773a2.764,2.764,0,0,1-.977-.164v-1.1a2.748,2.748,0,0,0,.875.172,1.032,1.032,0,0,0,.914-.484,4.137,4.137,0,0,0,.516-1.383l1.773-8.453h-1.508l.1-.523,1.609-.516.18-.781a4.629,4.629,0,0,1,1-2.207,2.541,2.541,0,0,1,1.887-.645,4.05,4.05,0,0,1,.766.09,3.55,3.55,0,0,1,.7.2l-.336,1.008a3.04,3.04,0,0,0-1.07-.227,1.377,1.377,0,0,0-1.043.379,3.009,3.009,0,0,0-.59,1.387l-.2.844h1.859l-.2.992h-1.852l-1.812,8.578a4.475,4.475,0,0,1-.937,2.156A2.167,2.167,0,0,1,174.469,42.844Z" transform="translate(2095.187 7655.377)" fill="#006bd9"/>
  </g>
</svg>
