<svg xmlns="http://www.w3.org/2000/svg" xmlns:xlink="http://www.w3.org/1999/xlink" width="152.443" height="152.443" viewBox="0 0 152.443 152.443">
  <defs>
    <radialGradient id="radial-gradient" cx="0.5" cy="0.5" r="0.5" gradientUnits="objectBoundingBox">
      <stop offset="0" stop-color="#74d5c6"/>
      <stop offset="0.228" stop-color="#70d1c3"/>
      <stop offset="0.452" stop-color="#67c5bb"/>
      <stop offset="0.674" stop-color="#57b1af"/>
      <stop offset="0.895" stop-color="#40959d"/>
      <stop offset="1" stop-color="#348693"/>
    </radialGradient>
  </defs>
  <g id="Grupo_5223" data-name="Grupo 5223" transform="translate(-433.348 -1317.201)">
    <path id="Trazado_26029" data-name="Trazado 26029" d="M509.569,1317.2q3.745,0,7.471.367t7.4,1.1q3.673.73,7.256,1.817t7.043,2.52q3.459,1.434,6.762,3.2t6.416,3.846q3.113,2.08,6.008,4.456t5.542,5.023q2.648,2.648,5.023,5.542t4.456,6.008q2.08,3.114,3.846,6.416t3.2,6.762q1.432,3.459,2.52,7.043t1.817,7.256q.73,3.672,1.1,7.4t.367,7.471q0,3.744-.367,7.471t-1.1,7.4q-.73,3.672-1.817,7.256t-2.52,7.043q-1.434,3.459-3.2,6.761t-3.846,6.416q-2.081,3.114-4.456,6.008t-5.023,5.542q-2.648,2.649-5.542,5.024t-6.008,4.455q-3.114,2.082-6.416,3.846t-6.762,3.2q-3.459,1.432-7.043,2.52t-7.256,1.818q-3.672.73-7.4,1.1t-7.471.367q-3.744,0-7.471-.367t-7.4-1.1q-3.672-.731-7.256-1.818t-7.043-2.52q-3.459-1.433-6.761-3.2t-6.416-3.846q-3.114-2.079-6.008-4.455t-5.543-5.024q-2.647-2.648-5.023-5.542t-4.456-6.008q-2.08-3.114-3.845-6.416t-3.2-6.761q-1.434-3.461-2.52-7.043t-1.818-7.256q-.73-3.672-1.1-7.4t-.367-7.471q0-3.745.367-7.471t1.1-7.4q.73-3.673,1.818-7.256t2.52-7.043q1.433-3.459,3.2-6.762t3.845-6.416q2.08-3.113,4.456-6.008t5.023-5.542q2.649-2.648,5.543-5.023t6.008-4.456q3.113-2.08,6.416-3.846t6.761-3.2q3.461-1.433,7.043-2.52t7.256-1.817q3.672-.731,7.4-1.1T509.569,1317.2Z" fill="#002b30"/>
    <circle id="Elipse_1255" data-name="Elipse 1255" cx="71.597" cy="71.597" r="71.597" transform="translate(437.973 1321.826)" fill="#fff"/>
    <circle id="Elipse_1256" data-name="Elipse 1256" cx="65.13" cy="65.13" r="65.13" transform="translate(444.439 1328.293)" fill="url(#radial-gradient)"/>
    <g id="Grupo_4536" data-name="Grupo 4536">
      <g id="Grupo_4534" data-name="Grupo 4534">
        <g id="Grupo_4533" data-name="Grupo 4533">
          <g id="Grupo_4532" data-name="Grupo 4532">
            <g id="Grupo_4530" data-name="Grupo 4530">
              <g id="Grupo_4528" data-name="Grupo 4528">
                <circle id="Elipse_1259" data-name="Elipse 1259" cx="7.375" cy="7.375" r="7.375" transform="translate(548.995 1387.161)" fill="#39ab8c"/>
              </g>
              <g id="Grupo_4529" data-name="Grupo 4529">
                <circle id="Elipse_1260" data-name="Elipse 1260" cx="7.375" cy="7.375" r="7.375" transform="translate(459.019 1387.161)" fill="#b4e673"/>
              </g>
            </g>
            <g id="Grupo_4531" data-name="Grupo 4531">
              <path id="Trazado_26032" data-name="Trazado 26032" d="M511.783,1362.085c-15.186,0-27.5,13.113-27.5,29.29,0,14.307,21.511,31.658,26.482,35.476a1.667,1.667,0,0,0,2.033,0c4.6-3.531,23.346-18.641,26.134-32.21a16.259,16.259,0,0,0,.348-3.266C539.282,1375.2,526.97,1362.085,511.783,1362.085Z" fill="#fe547f"/>
              <circle id="Elipse_1261" data-name="Elipse 1261" cx="22.253" cy="22.253" r="22.253" transform="translate(489.234 1367.225)" fill="#f4345d"/>
              <path id="Trazado_26033" data-name="Trazado 26033" d="M503.523,1391.375c0-12.572,7.437-23.292,17.88-27.446a25.962,25.962,0,0,0-9.62-1.844c-15.186,0-27.5,13.113-27.5,29.29,0,14.307,21.511,31.658,26.482,35.476a1.667,1.667,0,0,0,2.033,0c1.59-1.221,4.873-3.828,8.6-7.276C513.473,1412.243,503.523,1401.106,503.523,1391.375Z" fill="#f4345d"/>
              <circle id="Elipse_1262" data-name="Elipse 1262" cx="18.122" cy="18.122" r="18.122" transform="translate(493.366 1371.357)" fill="#fff7e6"/>
              <path id="Trazado_26034" data-name="Trazado 26034" d="M522.866,1382h-2.739a1.58,1.58,0,0,0-1.52,1.149l-.3,1.064H501.639a2.516,2.516,0,0,0-2.435,3.154l1.853,7.08a2.518,2.518,0,0,0,2.436,1.882h11.374l-.359,1.264h-7.024a1.581,1.581,0,1,0,0,3.161H515.7a1.581,1.581,0,0,0,1.52-1.149l1.245-4.386v0l2.853-10.055h1.545a1.581,1.581,0,1,0,0-3.161Z" fill="#eadbc3"/>
            </g>
          </g>
        </g>
      </g>
      <g id="Grupo_4535" data-name="Grupo 4535">
        <path id="Trazado_26035" data-name="Trazado 26035" d="M511.487,1369.776a19.7,19.7,0,1,0,15.381,32.009,1.58,1.58,0,1,0-2.466-1.977,16.516,16.516,0,1,1,2.781-5.109,1.58,1.58,0,0,0,3,1,19.7,19.7,0,0,0-18.7-25.92Z" fill="#002b30"/>
        <path id="Trazado_26036" data-name="Trazado 26036" d="M556.37,1385.58a8.968,8.968,0,0,0-8.832,7.481h-7.061a16.812,16.812,0,0,0,.089-1.686c0-17.022-13.045-30.87-29.079-30.87s-29.078,13.848-29.078,30.87a16.821,16.821,0,0,0,.089,1.686h-7.272a8.956,8.956,0,1,0-.038,3.16H483.1c4.208,15.546,26.421,31.915,27.461,32.674a1.583,1.583,0,0,0,1.863,0c1.04-.759,23.252-17.128,27.461-32.674h7.7a8.955,8.955,0,1,0,8.794-10.641Zm-89.976,14.75a5.794,5.794,0,1,1,5.795-5.794A5.8,5.8,0,0,1,466.394,1400.33Zm45.092,25.308a124.563,124.563,0,0,1-12.617-11.18c-8.7-8.908-13.3-16.89-13.3-23.083,0-15.279,11.627-27.709,25.918-27.709s25.919,12.43,25.919,27.709C537.406,1404.93,516.225,1421.991,511.486,1425.638Zm44.884-25.308a5.794,5.794,0,1,1,5.795-5.794A5.8,5.8,0,0,1,556.37,1400.33Z" fill="#002b30"/>
        <path id="Trazado_26037" data-name="Trazado 26037" d="M557.992,1392.364l-2.192,2.192-.589-.442a1.58,1.58,0,0,0-1.9,2.529l1.685,1.264a1.581,1.581,0,0,0,2.066-.147l3.161-3.16a1.581,1.581,0,0,0-2.235-2.236Z" fill="#002b30"/>
        <path id="Trazado_26038" data-name="Trazado 26038" d="M507.484,1397.591a1.581,1.581,0,1,0,0,3.161H515.7a1.581,1.581,0,0,0,1.52-1.149l4.1-14.444h1.545a1.581,1.581,0,1,0,0-3.161h-2.739a1.58,1.58,0,0,0-1.52,1.149l-.3,1.064H501.638a2.515,2.515,0,0,0-2.434,3.154l1.854,7.083a2.519,2.519,0,0,0,2.435,1.879h11.374l-.359,1.264Zm-3.494-4.425-1.518-5.8h14.936l-1.645,5.8Z" fill="#002b30"/>
      </g>
    </g>
  </g>
</svg>
