<svg xmlns="http://www.w3.org/2000/svg" width="777.853" height="282.571" viewBox="0 0 777.853 282.571">
  <g id="Grupo_3924" data-name="Grupo 3924" transform="translate(-5883.192 -1665.015)">
    <path id="Trazado_17173" data-name="Trazado 17173" d="M12,0H211.327a12,12,0,0,1,12,12V50.609a12,12,0,0,1-12,12H12a12,12,0,0,1-12-12V12A12,12,0,0,1,12,0Z" transform="translate(5883.192 1666.515)" fill="#9bd162"/>
    <path id="Trazado_17174" data-name="Trazado 17174" d="M12,0H144.327a12,12,0,0,1,12,12V50.609a12,12,0,0,1-12,12H12a12,12,0,0,1-12-12V12A12,12,0,0,1,12,0Z" transform="translate(5883.192 1765.591)" fill="#9bd162"/>
    <path id="Trazado_17175" data-name="Trazado 17175" d="M12,0H155.039a12,12,0,0,1,12,12V22.722a12,12,0,0,1-12,12H12a12,12,0,0,1-12-12V12A12,12,0,0,1,12,0Z" transform="translate(5914.503 1911.365)" fill="#ffbe4a"/>
    <path id="Trazado_17176" data-name="Trazado 17176" d="M12,0H155.039a12,12,0,0,1,12,12V22.722a12,12,0,0,1-12,12H12a12,12,0,0,1-12-12V12A12,12,0,0,1,12,0Z" transform="translate(6096.883 1911.365)" fill="#ffbe4a"/>
    <path id="Trazado_17177" data-name="Trazado 17177" d="M12,0H155.039a12,12,0,0,1,12,12V22.722a12,12,0,0,1-12,12H12a12,12,0,0,1-12-12V12A12,12,0,0,1,12,0Z" transform="translate(6279.264 1911.365)" fill="#ffbe4a"/>
    <path id="Trazado_17178" data-name="Trazado 17178" d="M12,0H144.327a12,12,0,0,1,12,12V50.609a12,12,0,0,1-12,12H12a12,12,0,0,1-12-12V12A12,12,0,0,1,12,0Z" transform="translate(6102.239 1765.591)" fill="#9bd162"/>
    <path id="Trazado_17179" data-name="Trazado 17179" d="M12,0H131.994a12,12,0,0,1,12,12V50.609a12,12,0,0,1-12,12H12a12,12,0,0,1-12-12V12A12,12,0,0,1,12,0Z" transform="translate(6322.051 1765.591)" fill="#70a83b" stroke="#002110" stroke-width="3"/>
    <path id="Trazado_17180" data-name="Trazado 17180" d="M12,0H131.994a12,12,0,0,1,12,12V50.609a12,12,0,0,1-12,12H12a12,12,0,0,1-12-12V12A12,12,0,0,1,12,0Z" transform="translate(6514.552 1765.591)" fill="#70a83b" stroke="#002110" stroke-width="3"/>
    <path id="Trazado_17181" data-name="Trazado 17181" d="M12,0H211.327a12,12,0,0,1,12,12V50.609a12,12,0,0,1-12,12H12a12,12,0,0,1-12-12V12A12,12,0,0,1,12,0Z" transform="translate(6159.706 1666.515)" fill="#9bd162"/>
    <path id="Trazado_17182" data-name="Trazado 17182" d="M12,0H184.791a12,12,0,0,1,12,12V50.609a12,12,0,0,1-12,12H12a12,12,0,0,1-12-12V12A12,12,0,0,1,12,0Z" transform="translate(6462.754 1666.515)" fill="#70a83b" stroke="#002110" stroke-width="3"/>
    <path id="Trazado_17183" data-name="Trazado 17183" d="M18.366,17V5.578h2.422V17Zm13.172,0H29.155V11.9a2.45,2.45,0,0,0-.336-1.418,1.222,1.222,0,0,0-1.07-.473,1.609,1.609,0,0,0-1.445.668,4.143,4.143,0,0,0-.445,2.215V17H23.475V8.266H25.3l.32,1.117h.133a2.518,2.518,0,0,1,1.1-.957,3.738,3.738,0,0,1,1.59-.324,3.055,3.055,0,0,1,2.313.824,3.308,3.308,0,0,1,.789,2.379Zm8.547-2.594a2.4,2.4,0,0,1-.934,2.047,4.613,4.613,0,0,1-2.793.7,8.772,8.772,0,0,1-1.625-.129,6.147,6.147,0,0,1-1.258-.379V14.68a8.306,8.306,0,0,0,1.5.523,6.058,6.058,0,0,0,1.465.211q1.3,0,1.3-.75a.626.626,0,0,0-.172-.457,2.492,2.492,0,0,0-.594-.4q-.422-.223-1.125-.52a7.067,7.067,0,0,1-1.48-.781,2.2,2.2,0,0,1-.687-.824,2.721,2.721,0,0,1-.215-1.145,2.075,2.075,0,0,1,.9-1.8A4.4,4.4,0,0,1,36.921,8.1a7.262,7.262,0,0,1,3.07.688l-.719,1.719q-.656-.281-1.227-.461a3.852,3.852,0,0,0-1.164-.18q-1.055,0-1.055.57a.67.67,0,0,0,.34.555,9.242,9.242,0,0,0,1.488.7,6.914,6.914,0,0,1,1.5.773,2.288,2.288,0,0,1,.7.828A2.545,2.545,0,0,1,40.085,14.406ZM48.132,17l-.32-1.117h-.125a2.514,2.514,0,0,1-1.086.941,3.708,3.708,0,0,1-1.6.332,3.05,3.05,0,0,1-2.32-.824,3.316,3.316,0,0,1-.781-2.371v-5.7H44.28v5.1a2.45,2.45,0,0,0,.336,1.418,1.222,1.222,0,0,0,1.07.473,1.609,1.609,0,0,0,1.445-.668,4.143,4.143,0,0,0,.445-2.215V8.266H49.96V17ZM60.28,17H57.9V11.9a2.57,2.57,0,0,0-.316-1.418,1.113,1.113,0,0,0-1-.473,1.443,1.443,0,0,0-1.328.672,4.407,4.407,0,0,0-.414,2.211V17H52.46V8.266h1.82l.32,1.117h.133a2.421,2.421,0,0,1,1.016-.941,3.3,3.3,0,0,1,1.523-.34,2.744,2.744,0,0,1,2.656,1.281h.211a2.36,2.36,0,0,1,1.035-.945A3.452,3.452,0,0,1,62.718,8.1a3.046,3.046,0,0,1,2.246.762,3.345,3.345,0,0,1,.762,2.441V17H63.335V11.9a2.57,2.57,0,0,0-.316-1.418,1.113,1.113,0,0,0-1-.473,1.486,1.486,0,0,0-1.309.625,3.546,3.546,0,0,0-.434,1.984Zm9.789-4.383a3.666,3.666,0,0,0,.426,1.961,1.523,1.523,0,0,0,1.387.664,1.5,1.5,0,0,0,1.371-.66,3.719,3.719,0,0,0,.418-1.965,3.608,3.608,0,0,0-.422-1.945,1.794,1.794,0,0,0-2.758,0A3.6,3.6,0,0,0,70.069,12.617Zm6.039,0a4.694,4.694,0,0,1-1.125,3.336,4.079,4.079,0,0,1-3.133,1.2,4.382,4.382,0,0,1-2.219-.551,3.665,3.665,0,0,1-1.477-1.582,5.316,5.316,0,0,1-.516-2.406,4.668,4.668,0,0,1,1.117-3.328A4.1,4.1,0,0,1,71.9,8.1a4.407,4.407,0,0,1,2.219.547,3.65,3.65,0,0,1,1.477,1.57A5.267,5.267,0,0,1,76.108,12.617Zm8.063,1.789a2.4,2.4,0,0,1-.934,2.047,4.613,4.613,0,0,1-2.793.7,8.772,8.772,0,0,1-1.625-.129,6.147,6.147,0,0,1-1.258-.379V14.68a8.307,8.307,0,0,0,1.5.523,6.058,6.058,0,0,0,1.465.211q1.3,0,1.3-.75a.626.626,0,0,0-.172-.457,2.492,2.492,0,0,0-.594-.4q-.422-.223-1.125-.52a7.067,7.067,0,0,1-1.48-.781,2.2,2.2,0,0,1-.687-.824,2.721,2.721,0,0,1-.215-1.145,2.075,2.075,0,0,1,.9-1.8A4.4,4.4,0,0,1,81.007,8.1a7.262,7.262,0,0,1,3.07.688l-.719,1.719q-.656-.281-1.227-.461a3.852,3.852,0,0,0-1.164-.18q-1.055,0-1.055.57a.67.67,0,0,0,.34.555,9.242,9.242,0,0,0,1.488.7,6.914,6.914,0,0,1,1.5.773,2.287,2.287,0,0,1,.7.828A2.545,2.545,0,0,1,84.171,14.406Zm8.781,2.75a2.837,2.837,0,0,1-2.418-1.2,5.5,5.5,0,0,1-.879-3.312A5.5,5.5,0,0,1,90.55,9.3a2.905,2.905,0,0,1,2.465-1.2A2.849,2.849,0,0,1,95.53,9.383h.078a9.742,9.742,0,0,1-.18-1.742v-2.8h2.391V17H95.991l-.461-1.133h-.1A2.727,2.727,0,0,1,92.952,17.156Zm.836-1.9a1.615,1.615,0,0,0,1.34-.531,3.09,3.09,0,0,0,.465-1.8v-.258a3.571,3.571,0,0,0-.434-2.016,1.61,1.61,0,0,0-1.41-.609,1.4,1.4,0,0,0-1.238.676,3.605,3.605,0,0,0-.441,1.965,3.417,3.417,0,0,0,.445,1.934A1.455,1.455,0,0,0,93.788,15.258Zm6.422-9.25q0-1.164,1.3-1.164t1.3,1.164a1.135,1.135,0,0,1-.324.863,1.363,1.363,0,0,1-.973.309Q100.21,7.18,100.21,6.008ZM102.694,17h-2.383V8.266h2.383Zm7.375-8.9a3.843,3.843,0,0,1,.8.07l-.18,2.234a2.73,2.73,0,0,0-.7-.078,2.527,2.527,0,0,0-1.777.586,2.118,2.118,0,0,0-.637,1.641V17h-2.383V8.266H107l.352,1.469h.117a3.283,3.283,0,0,1,1.1-1.184A2.707,2.707,0,0,1,110.069,8.1Zm5.688,1.7a1.511,1.511,0,0,0-1.187.48,2.224,2.224,0,0,0-.492,1.363h3.344a1.986,1.986,0,0,0-.461-1.363A1.561,1.561,0,0,0,115.757,9.8Zm.336,7.359a4.508,4.508,0,0,1-3.3-1.164,4.408,4.408,0,0,1-1.187-3.3,4.848,4.848,0,0,1,1.1-3.395,3.909,3.909,0,0,1,3.035-1.2,3.847,3.847,0,0,1,2.883,1.055,3.99,3.99,0,0,1,1.031,2.914v1.156h-5.633a2.294,2.294,0,0,0,.6,1.586,2.117,2.117,0,0,0,1.578.57,6.551,6.551,0,0,0,1.492-.164,7.466,7.466,0,0,0,1.469-.523v1.844a5.6,5.6,0,0,1-1.336.465A8.423,8.423,0,0,1,116.093,17.156Zm9.047,0q-4.078,0-4.078-4.477a4.775,4.775,0,0,1,1.109-3.4A4.162,4.162,0,0,1,125.35,8.1a6.062,6.062,0,0,1,2.719.594l-.7,1.844q-.562-.227-1.047-.371a3.373,3.373,0,0,0-.969-.145q-1.859,0-1.859,2.641,0,2.562,1.859,2.563a4.239,4.239,0,0,0,1.273-.184,4.6,4.6,0,0,0,1.172-.574v2.039a3.84,3.84,0,0,1-1.168.508A6.568,6.568,0,0,1,125.139,17.156Zm8.359-1.9a5.165,5.165,0,0,0,1.5-.273v1.773a5.348,5.348,0,0,1-2.187.4,2.677,2.677,0,0,1-2.082-.723,3.146,3.146,0,0,1-.652-2.168V10.055h-1.141V9.047l1.313-.8.688-1.844h1.523V8.266h2.445v1.789H132.46v4.211a.93.93,0,0,0,.285.75A1.125,1.125,0,0,0,133.5,15.258Zm5.164-2.641a3.666,3.666,0,0,0,.426,1.961,1.523,1.523,0,0,0,1.387.664,1.5,1.5,0,0,0,1.371-.66,3.719,3.719,0,0,0,.418-1.965,3.608,3.608,0,0,0-.422-1.945,1.794,1.794,0,0,0-2.758,0A3.6,3.6,0,0,0,138.663,12.617Zm6.039,0a4.694,4.694,0,0,1-1.125,3.336,4.079,4.079,0,0,1-3.133,1.2,4.382,4.382,0,0,1-2.219-.551,3.665,3.665,0,0,1-1.477-1.582,5.316,5.316,0,0,1-.516-2.406,4.668,4.668,0,0,1,1.117-3.328A4.1,4.1,0,0,1,140.491,8.1a4.407,4.407,0,0,1,2.219.547,3.65,3.65,0,0,1,1.477,1.57A5.267,5.267,0,0,1,144.7,12.617Zm8.063,1.789a2.4,2.4,0,0,1-.934,2.047,4.613,4.613,0,0,1-2.793.7,8.772,8.772,0,0,1-1.625-.129,6.146,6.146,0,0,1-1.258-.379V14.68a8.306,8.306,0,0,0,1.5.523,6.058,6.058,0,0,0,1.465.211q1.3,0,1.3-.75a.626.626,0,0,0-.172-.457,2.492,2.492,0,0,0-.594-.4q-.422-.223-1.125-.52a7.067,7.067,0,0,1-1.48-.781,2.2,2.2,0,0,1-.687-.824,2.721,2.721,0,0,1-.215-1.145,2.075,2.075,0,0,1,.9-1.8A4.4,4.4,0,0,1,149.6,8.1a7.262,7.262,0,0,1,3.07.688l-.719,1.719q-.656-.281-1.227-.461a3.852,3.852,0,0,0-1.164-.18q-1.055,0-1.055.57a.67.67,0,0,0,.34.555,9.242,9.242,0,0,0,1.488.7,6.914,6.914,0,0,1,1.5.773,2.288,2.288,0,0,1,.7.828A2.545,2.545,0,0,1,152.764,14.406Zm8.477-2.187h-3.023V10.508h3.023V7.461h1.711v3.047h3.023v1.711h-3.023v3.008h-1.711ZM15.5,39H13.12V33.9A2.57,2.57,0,0,0,12.8,32.48a1.113,1.113,0,0,0-1-.473,1.443,1.443,0,0,0-1.328.672,4.407,4.407,0,0,0-.414,2.211V39H7.682V30.266H9.5l.32,1.117h.133a2.421,2.421,0,0,1,1.016-.941,3.3,3.3,0,0,1,1.523-.34,2.744,2.744,0,0,1,2.656,1.281h.211a2.36,2.36,0,0,1,1.035-.945A3.452,3.452,0,0,1,17.94,30.1a3.046,3.046,0,0,1,2.246.762,3.345,3.345,0,0,1,.762,2.441V39H18.557V33.9a2.57,2.57,0,0,0-.316-1.418,1.113,1.113,0,0,0-1-.473,1.486,1.486,0,0,0-1.309.625,3.546,3.546,0,0,0-.434,1.984ZM28.94,39l-.461-1.187h-.062a3.519,3.519,0,0,1-1.238,1.051,4,4,0,0,1-1.66.293,2.685,2.685,0,0,1-1.98-.719,2.76,2.76,0,0,1-.723-2.047,2.3,2.3,0,0,1,.973-2.051,5.636,5.636,0,0,1,2.934-.73l1.516-.047V33.18a1.188,1.188,0,0,0-1.359-1.328,6.2,6.2,0,0,0-2.461.633l-.789-1.609a7.1,7.1,0,0,1,3.344-.789,4.165,4.165,0,0,1,2.7.766A2.83,2.83,0,0,1,30.6,33.18V39Zm-.7-4.047-.922.031a2.952,2.952,0,0,0-1.547.375,1.178,1.178,0,0,0-.508,1.047q0,1.008,1.156,1.008a1.831,1.831,0,0,0,1.324-.477,1.674,1.674,0,0,0,.5-1.266ZM41.12,39H38.737V33.9A2.45,2.45,0,0,0,38.4,32.48a1.222,1.222,0,0,0-1.07-.473,1.609,1.609,0,0,0-1.445.668,4.143,4.143,0,0,0-.445,2.215V39H33.057V30.266h1.82l.32,1.117h.133a2.518,2.518,0,0,1,1.1-.957,3.738,3.738,0,0,1,1.59-.324,3.055,3.055,0,0,1,2.313.824A3.308,3.308,0,0,1,41.12,33.3Zm4.352-4.383a3.666,3.666,0,0,0,.426,1.961,1.523,1.523,0,0,0,1.387.664,1.5,1.5,0,0,0,1.371-.66,3.719,3.719,0,0,0,.418-1.965,3.608,3.608,0,0,0-.422-1.945,1.794,1.794,0,0,0-2.758,0A3.6,3.6,0,0,0,45.472,34.617Zm6.039,0a4.694,4.694,0,0,1-1.125,3.336,4.079,4.079,0,0,1-3.133,1.2,4.382,4.382,0,0,1-2.219-.551,3.665,3.665,0,0,1-1.477-1.582,5.316,5.316,0,0,1-.516-2.406,4.668,4.668,0,0,1,1.117-3.328A4.1,4.1,0,0,1,47.3,30.1a4.407,4.407,0,0,1,2.219.547,3.65,3.65,0,0,1,1.477,1.57A5.267,5.267,0,0,1,51.511,34.617ZM60.4,39.156a2.837,2.837,0,0,1-2.418-1.2,5.5,5.5,0,0,1-.879-3.312A5.5,5.5,0,0,1,58,31.3a2.905,2.905,0,0,1,2.465-1.2,2.849,2.849,0,0,1,2.516,1.281h.078a9.741,9.741,0,0,1-.18-1.742v-2.8h2.391V39H63.44l-.461-1.133h-.1A2.727,2.727,0,0,1,60.4,39.156Zm.836-1.9a1.615,1.615,0,0,0,1.34-.531,3.09,3.09,0,0,0,.465-1.8v-.258a3.571,3.571,0,0,0-.434-2.016,1.61,1.61,0,0,0-1.41-.609,1.4,1.4,0,0,0-1.238.676,3.605,3.605,0,0,0-.441,1.965,3.417,3.417,0,0,0,.445,1.934A1.455,1.455,0,0,0,61.237,37.258ZM71.378,31.8a1.511,1.511,0,0,0-1.187.48,2.224,2.224,0,0,0-.492,1.363h3.344a1.986,1.986,0,0,0-.461-1.363A1.561,1.561,0,0,0,71.378,31.8Zm.336,7.359a4.508,4.508,0,0,1-3.3-1.164,4.408,4.408,0,0,1-1.187-3.3,4.848,4.848,0,0,1,1.1-3.395,3.909,3.909,0,0,1,3.035-1.2,3.847,3.847,0,0,1,2.883,1.055,3.99,3.99,0,0,1,1.031,2.914v1.156H69.643a2.294,2.294,0,0,0,.6,1.586,2.117,2.117,0,0,0,1.578.57,6.551,6.551,0,0,0,1.492-.164,7.466,7.466,0,0,0,1.469-.523v1.844A5.6,5.6,0,0,1,73.448,39,8.423,8.423,0,0,1,71.714,39.156Zm11.555-4.539a3.666,3.666,0,0,0,.426,1.961,1.523,1.523,0,0,0,1.387.664,1.5,1.5,0,0,0,1.371-.66,3.719,3.719,0,0,0,.418-1.965,3.608,3.608,0,0,0-.422-1.945,1.794,1.794,0,0,0-2.758,0A3.6,3.6,0,0,0,83.268,34.617Zm6.039,0a4.694,4.694,0,0,1-1.125,3.336,4.079,4.079,0,0,1-3.133,1.2,4.382,4.382,0,0,1-2.219-.551,3.665,3.665,0,0,1-1.477-1.582,5.316,5.316,0,0,1-.516-2.406,4.668,4.668,0,0,1,1.117-3.328A4.1,4.1,0,0,1,85.1,30.1a4.407,4.407,0,0,1,2.219.547,3.65,3.65,0,0,1,1.477,1.57A5.267,5.267,0,0,1,89.307,34.617ZM96.136,30.1a2.825,2.825,0,0,1,2.422,1.207,5.538,5.538,0,0,1,.875,3.309,5.441,5.441,0,0,1-.9,3.352,3.151,3.151,0,0,1-4.871.07h-.164L93.1,39h-1.82V26.844h2.383v2.828q0,.539-.094,1.727h.094A2.757,2.757,0,0,1,96.136,30.1Zm-.766,1.906a1.5,1.5,0,0,0-1.289.543,3.117,3.117,0,0,0-.422,1.793V34.6a3.68,3.68,0,0,0,.418,2.016,1.492,1.492,0,0,0,1.324.609,1.329,1.329,0,0,0,1.168-.676A3.658,3.658,0,0,0,97,34.586a3.465,3.465,0,0,0-.437-1.934A1.372,1.372,0,0,0,95.37,32.008ZM106.276,30.1a3.843,3.843,0,0,1,.8.07l-.18,2.234a2.73,2.73,0,0,0-.7-.078,2.527,2.527,0,0,0-1.777.586,2.118,2.118,0,0,0-.637,1.641V39H101.4V30.266h1.8l.352,1.469h.117a3.283,3.283,0,0,1,1.1-1.184A2.707,2.707,0,0,1,106.276,30.1Zm7.617,8.9-.461-1.187h-.062a3.519,3.519,0,0,1-1.238,1.051,4,4,0,0,1-1.66.293,2.685,2.685,0,0,1-1.98-.719,2.76,2.76,0,0,1-.723-2.047,2.3,2.3,0,0,1,.973-2.051,5.636,5.636,0,0,1,2.934-.73l1.516-.047V33.18a1.188,1.188,0,0,0-1.359-1.328,6.2,6.2,0,0,0-2.461.633l-.789-1.609a7.1,7.1,0,0,1,3.344-.789,4.165,4.165,0,0,1,2.7.766,2.83,2.83,0,0,1,.938,2.328V39Zm-.7-4.047-.922.031a2.952,2.952,0,0,0-1.547.375,1.178,1.178,0,0,0-.508,1.047q0,1.008,1.156,1.008a1.831,1.831,0,0,0,1.324-.477,1.674,1.674,0,0,0,.5-1.266Zm11.742,4.2a2.837,2.837,0,0,1-2.418-1.2,5.5,5.5,0,0,1-.879-3.312,5.5,5.5,0,0,1,.895-3.348,2.905,2.905,0,0,1,2.465-1.2,2.849,2.849,0,0,1,2.516,1.281h.078a9.742,9.742,0,0,1-.18-1.742v-2.8H129.8V39h-1.828l-.461-1.133h-.1A2.727,2.727,0,0,1,124.932,39.156Zm.836-1.9a1.615,1.615,0,0,0,1.34-.531,3.09,3.09,0,0,0,.465-1.8v-.258a3.571,3.571,0,0,0-.434-2.016,1.61,1.61,0,0,0-1.41-.609,1.4,1.4,0,0,0-1.238.676,3.605,3.605,0,0,0-.441,1.965,3.417,3.417,0,0,0,.445,1.934A1.455,1.455,0,0,0,125.768,37.258Zm6.422-9.25q0-1.164,1.3-1.164t1.3,1.164a1.135,1.135,0,0,1-.324.863,1.363,1.363,0,0,1-.973.309Q132.19,29.18,132.19,28.008ZM134.675,39h-2.383V30.266h2.383Zm7.375-8.9a3.843,3.843,0,0,1,.8.07l-.18,2.234a2.73,2.73,0,0,0-.7-.078,2.527,2.527,0,0,0-1.777.586,2.118,2.118,0,0,0-.637,1.641V39h-2.383V30.266h1.8l.352,1.469h.117a3.283,3.283,0,0,1,1.1-1.184A2.707,2.707,0,0,1,142.05,30.1Zm5.688,1.7a1.511,1.511,0,0,0-1.187.48,2.224,2.224,0,0,0-.492,1.363H149.4a1.986,1.986,0,0,0-.461-1.363A1.561,1.561,0,0,0,147.737,31.8Zm.336,7.359a4.508,4.508,0,0,1-3.3-1.164,4.408,4.408,0,0,1-1.187-3.3,4.848,4.848,0,0,1,1.1-3.395,3.908,3.908,0,0,1,3.035-1.2,3.847,3.847,0,0,1,2.883,1.055,3.99,3.99,0,0,1,1.031,2.914v1.156H146a2.294,2.294,0,0,0,.6,1.586,2.117,2.117,0,0,0,1.578.57,6.551,6.551,0,0,0,1.492-.164,7.467,7.467,0,0,0,1.469-.523v1.844a5.6,5.6,0,0,1-1.336.465A8.423,8.423,0,0,1,148.073,39.156Zm9.047,0q-4.078,0-4.078-4.477a4.775,4.775,0,0,1,1.109-3.4,4.162,4.162,0,0,1,3.18-1.176,6.062,6.062,0,0,1,2.719.594l-.7,1.844q-.562-.227-1.047-.371a3.373,3.373,0,0,0-.969-.145q-1.859,0-1.859,2.641,0,2.562,1.859,2.563a4.239,4.239,0,0,0,1.273-.184,4.6,4.6,0,0,0,1.172-.574v2.039a3.84,3.84,0,0,1-1.168.508A6.568,6.568,0,0,1,157.12,39.156Zm8.359-1.9a5.165,5.165,0,0,0,1.5-.273v1.773a5.348,5.348,0,0,1-2.187.4,2.677,2.677,0,0,1-2.082-.723,3.146,3.146,0,0,1-.652-2.168V32.055h-1.141V31.047l1.313-.8.688-1.844h1.523v1.859h2.445v1.789H164.44v4.211a.93.93,0,0,0,.285.75A1.125,1.125,0,0,0,165.479,37.258ZM174.292,39l-.461-1.187h-.062a3.519,3.519,0,0,1-1.238,1.051,4,4,0,0,1-1.66.293,2.684,2.684,0,0,1-1.98-.719,2.76,2.76,0,0,1-.723-2.047,2.3,2.3,0,0,1,.973-2.051,5.636,5.636,0,0,1,2.934-.73l1.516-.047V33.18a1.188,1.188,0,0,0-1.359-1.328,6.2,6.2,0,0,0-2.461.633l-.789-1.609a7.1,7.1,0,0,1,3.344-.789,4.165,4.165,0,0,1,2.7.766,2.83,2.83,0,0,1,.938,2.328V39Zm-.7-4.047-.922.031a2.952,2.952,0,0,0-1.547.375,1.178,1.178,0,0,0-.508,1.047q0,1.008,1.156,1.008a1.831,1.831,0,0,0,1.324-.477,1.674,1.674,0,0,0,.5-1.266Z" transform="translate(5901.595 1674.124)" fill="#002110" opacity="0.9"/>
    <g id="Grupo_3920" data-name="Grupo 3920" transform="translate(2332 -8)">
      <path id="Trazado_2771" data-name="Trazado 2771" d="M3943.461,1800.261V1795.6h22.822v4.662Zm0,8.238v-4.662h22.822v4.662Z" fill="#db9600"/>
    </g>
    <g id="Grupo_3921" data-name="Grupo 3921" transform="translate(2332 -8)">
      <path id="Trazado_2772" data-name="Trazado 2772" d="M3803.6,1707.871h14.939v4.635H3803.6v14.309h-5.04v-14.309h-14.87v-4.635h14.87v-14.376h5.04Z" fill="#db9600"/>
    </g>
    <g id="Grupo_3922" data-name="Grupo 3922" transform="translate(2332 -8)">
      <path id="Trazado_2773" data-name="Trazado 2773" d="M3741.315,1801.553h14.939v4.635h-14.939V1820.5h-5.04v-14.309h-14.869v-4.635h14.869v-14.376h5.04Z" fill="#db9600"/>
    </g>
    <g id="Grupo_3923" data-name="Grupo 3923" transform="translate(2332 -8)">
      <path id="Trazado_2774" data-name="Trazado 2774" d="M4161.284,1801.553h14.938v4.635h-14.938V1820.5h-5.041v-14.309h-14.869v-4.635h14.869v-14.376h5.041Z" fill="#db9600"/>
    </g>
    <path id="Trazado_17184" data-name="Trazado 17184" d="M17.792,7.43a2.468,2.468,0,0,0-2.117,1.027,4.78,4.78,0,0,0-.75,2.863q0,3.82,2.867,3.82a9.063,9.063,0,0,0,2.914-.6V16.57a8.093,8.093,0,0,1-3.141.586,4.79,4.79,0,0,1-3.812-1.512,6.4,6.4,0,0,1-1.32-4.34,7.087,7.087,0,0,1,.648-3.121,4.687,4.687,0,0,1,1.863-2.055,5.512,5.512,0,0,1,2.848-.715,7.686,7.686,0,0,1,3.344.8l-.781,1.969a12.932,12.932,0,0,0-1.289-.531A3.846,3.846,0,0,0,17.792,7.43Zm7.055,5.188a3.666,3.666,0,0,0,.426,1.961,1.523,1.523,0,0,0,1.387.664,1.5,1.5,0,0,0,1.371-.66,3.719,3.719,0,0,0,.418-1.965,3.608,3.608,0,0,0-.422-1.945,1.794,1.794,0,0,0-2.758,0A3.6,3.6,0,0,0,24.847,12.617Zm6.039,0a4.694,4.694,0,0,1-1.125,3.336,4.079,4.079,0,0,1-3.133,1.2,4.382,4.382,0,0,1-2.219-.551,3.665,3.665,0,0,1-1.477-1.582,5.316,5.316,0,0,1-.516-2.406,4.668,4.668,0,0,1,1.117-3.328A4.1,4.1,0,0,1,26.675,8.1a4.407,4.407,0,0,1,2.219.547,3.65,3.65,0,0,1,1.477,1.57A5.267,5.267,0,0,1,30.886,12.617Zm8.063,1.789a2.4,2.4,0,0,1-.934,2.047,4.613,4.613,0,0,1-2.793.7,8.772,8.772,0,0,1-1.625-.129,6.147,6.147,0,0,1-1.258-.379V14.68a8.306,8.306,0,0,0,1.5.523,6.058,6.058,0,0,0,1.465.211q1.3,0,1.3-.75a.626.626,0,0,0-.172-.457,2.492,2.492,0,0,0-.594-.4q-.422-.223-1.125-.52a7.067,7.067,0,0,1-1.48-.781,2.2,2.2,0,0,1-.687-.824,2.721,2.721,0,0,1-.215-1.145,2.075,2.075,0,0,1,.9-1.8A4.4,4.4,0,0,1,35.784,8.1a7.262,7.262,0,0,1,3.07.688l-.719,1.719q-.656-.281-1.227-.461a3.852,3.852,0,0,0-1.164-.18q-1.055,0-1.055.57a.67.67,0,0,0,.34.555,9.242,9.242,0,0,0,1.488.7,6.914,6.914,0,0,1,1.5.773,2.288,2.288,0,0,1,.7.828A2.545,2.545,0,0,1,38.948,14.406Zm5.539.852a5.165,5.165,0,0,0,1.5-.273v1.773a5.348,5.348,0,0,1-2.187.4,2.677,2.677,0,0,1-2.082-.723,3.145,3.145,0,0,1-.652-2.168V10.055H39.925V9.047l1.313-.8.688-1.844h1.523V8.266h2.445v1.789H43.448v4.211a.93.93,0,0,0,.285.75A1.125,1.125,0,0,0,44.487,15.258Zm5.164-2.641a3.666,3.666,0,0,0,.426,1.961,1.523,1.523,0,0,0,1.387.664,1.5,1.5,0,0,0,1.371-.66,3.719,3.719,0,0,0,.418-1.965,3.608,3.608,0,0,0-.422-1.945,1.794,1.794,0,0,0-2.758,0A3.6,3.6,0,0,0,49.651,12.617Zm6.039,0a4.694,4.694,0,0,1-1.125,3.336,4.079,4.079,0,0,1-3.133,1.2,4.382,4.382,0,0,1-2.219-.551,3.665,3.665,0,0,1-1.477-1.582,5.316,5.316,0,0,1-.516-2.406,4.668,4.668,0,0,1,1.117-3.328A4.1,4.1,0,0,1,51.479,8.1a4.407,4.407,0,0,1,2.219.547,3.65,3.65,0,0,1,1.477,1.57A5.267,5.267,0,0,1,55.69,12.617Zm8.063,1.789a2.4,2.4,0,0,1-.934,2.047,4.613,4.613,0,0,1-2.793.7,8.772,8.772,0,0,1-1.625-.129,6.147,6.147,0,0,1-1.258-.379V14.68a8.306,8.306,0,0,0,1.5.523,6.058,6.058,0,0,0,1.465.211q1.3,0,1.3-.75a.626.626,0,0,0-.172-.457,2.492,2.492,0,0,0-.594-.4q-.422-.223-1.125-.52a7.067,7.067,0,0,1-1.48-.781,2.2,2.2,0,0,1-.687-.824,2.721,2.721,0,0,1-.215-1.145,2.075,2.075,0,0,1,.9-1.8A4.4,4.4,0,0,1,60.589,8.1a7.262,7.262,0,0,1,3.07.688l-.719,1.719q-.656-.281-1.227-.461a3.852,3.852,0,0,0-1.164-.18q-1.055,0-1.055.57a.67.67,0,0,0,.34.555,9.242,9.242,0,0,0,1.488.7,6.914,6.914,0,0,1,1.5.773,2.288,2.288,0,0,1,.7.828A2.545,2.545,0,0,1,63.753,14.406Zm5.914-8.4q0-1.164,1.3-1.164t1.3,1.164a1.135,1.135,0,0,1-.324.863,1.363,1.363,0,0,1-.973.309Q69.667,7.18,69.667,6.008ZM72.151,17H69.768V8.266h2.383Zm10.563,0H80.331V11.9a2.45,2.45,0,0,0-.336-1.418,1.222,1.222,0,0,0-1.07-.473,1.609,1.609,0,0,0-1.445.668,4.143,4.143,0,0,0-.445,2.215V17H74.651V8.266h1.82l.32,1.117h.133a2.518,2.518,0,0,1,1.1-.957,3.738,3.738,0,0,1,1.59-.324,3.055,3.055,0,0,1,2.313.824,3.308,3.308,0,0,1,.789,2.379Zm5.219.156a2.837,2.837,0,0,1-2.418-1.2,5.5,5.5,0,0,1-.879-3.312A5.5,5.5,0,0,1,85.53,9.3a2.905,2.905,0,0,1,2.465-1.2,2.849,2.849,0,0,1,2.516,1.281h.078a9.742,9.742,0,0,1-.18-1.742v-2.8H92.8V17H90.972l-.461-1.133h-.1A2.727,2.727,0,0,1,87.932,17.156Zm.836-1.9a1.615,1.615,0,0,0,1.34-.531,3.09,3.09,0,0,0,.465-1.8v-.258a3.571,3.571,0,0,0-.434-2.016,1.61,1.61,0,0,0-1.41-.609,1.4,1.4,0,0,0-1.238.676,3.605,3.605,0,0,0-.441,1.965,3.417,3.417,0,0,0,.445,1.934A1.455,1.455,0,0,0,88.768,15.258Zm6.422-9.25q0-1.164,1.3-1.164t1.3,1.164a1.135,1.135,0,0,1-.324.863,1.363,1.363,0,0,1-.973.309Q95.19,7.18,95.19,6.008ZM97.675,17H95.292V8.266h2.383Zm7.375-8.9a3.843,3.843,0,0,1,.8.07l-.18,2.234a2.73,2.73,0,0,0-.7-.078,2.527,2.527,0,0,0-1.777.586,2.118,2.118,0,0,0-.637,1.641V17h-2.383V8.266h1.8l.352,1.469h.117a3.283,3.283,0,0,1,1.1-1.184A2.707,2.707,0,0,1,105.05,8.1Zm5.688,1.7a1.511,1.511,0,0,0-1.187.48,2.224,2.224,0,0,0-.492,1.363H112.4a1.986,1.986,0,0,0-.461-1.363A1.561,1.561,0,0,0,110.737,9.8Zm.336,7.359a4.508,4.508,0,0,1-3.3-1.164,4.408,4.408,0,0,1-1.187-3.3,4.848,4.848,0,0,1,1.1-3.395,3.909,3.909,0,0,1,3.035-1.2A3.847,3.847,0,0,1,113.6,9.156a3.99,3.99,0,0,1,1.031,2.914v1.156H109a2.294,2.294,0,0,0,.6,1.586,2.117,2.117,0,0,0,1.578.57,6.551,6.551,0,0,0,1.492-.164,7.466,7.466,0,0,0,1.469-.523v1.844a5.6,5.6,0,0,1-1.336.465A8.423,8.423,0,0,1,111.073,17.156Zm9.047,0q-4.078,0-4.078-4.477a4.775,4.775,0,0,1,1.109-3.4,4.162,4.162,0,0,1,3.18-1.176,6.062,6.062,0,0,1,2.719.594l-.7,1.844q-.562-.227-1.047-.371a3.373,3.373,0,0,0-.969-.145q-1.859,0-1.859,2.641,0,2.562,1.859,2.563a4.239,4.239,0,0,0,1.273-.184,4.6,4.6,0,0,0,1.172-.574v2.039a3.84,3.84,0,0,1-1.168.508A6.568,6.568,0,0,1,120.12,17.156Zm8.359-1.9a5.165,5.165,0,0,0,1.5-.273v1.773a5.348,5.348,0,0,1-2.187.4,2.677,2.677,0,0,1-2.082-.723,3.145,3.145,0,0,1-.652-2.168V10.055h-1.141V9.047l1.313-.8.688-1.844h1.523V8.266h2.445v1.789H127.44v4.211a.93.93,0,0,0,.285.75A1.125,1.125,0,0,0,128.479,15.258Zm5.164-2.641a3.666,3.666,0,0,0,.426,1.961,1.523,1.523,0,0,0,1.387.664,1.5,1.5,0,0,0,1.371-.66,3.719,3.719,0,0,0,.418-1.965,3.608,3.608,0,0,0-.422-1.945,1.794,1.794,0,0,0-2.758,0A3.6,3.6,0,0,0,133.643,12.617Zm6.039,0a4.694,4.694,0,0,1-1.125,3.336,4.079,4.079,0,0,1-3.133,1.2,4.382,4.382,0,0,1-2.219-.551,3.665,3.665,0,0,1-1.477-1.582,5.316,5.316,0,0,1-.516-2.406,4.668,4.668,0,0,1,1.117-3.328A4.1,4.1,0,0,1,135.472,8.1a4.407,4.407,0,0,1,2.219.547,3.65,3.65,0,0,1,1.477,1.57A5.267,5.267,0,0,1,139.682,12.617Zm8.063,1.789a2.4,2.4,0,0,1-.934,2.047,4.613,4.613,0,0,1-2.793.7,8.772,8.772,0,0,1-1.625-.129,6.146,6.146,0,0,1-1.258-.379V14.68a8.306,8.306,0,0,0,1.5.523,6.058,6.058,0,0,0,1.465.211q1.3,0,1.3-.75a.626.626,0,0,0-.172-.457,2.492,2.492,0,0,0-.594-.4q-.422-.223-1.125-.52a7.067,7.067,0,0,1-1.48-.781,2.2,2.2,0,0,1-.687-.824,2.721,2.721,0,0,1-.215-1.145,2.075,2.075,0,0,1,.9-1.8,4.4,4.4,0,0,1,2.559-.637,7.262,7.262,0,0,1,3.07.688l-.719,1.719q-.656-.281-1.227-.461a3.852,3.852,0,0,0-1.164-.18q-1.055,0-1.055.57a.67.67,0,0,0,.34.555,9.242,9.242,0,0,0,1.488.7,6.914,6.914,0,0,1,1.5.773,2.288,2.288,0,0,1,.7.828A2.545,2.545,0,0,1,147.745,14.406Zm8.781,2.75a2.837,2.837,0,0,1-2.418-1.2,5.5,5.5,0,0,1-.879-3.312,5.5,5.5,0,0,1,.895-3.348,2.905,2.905,0,0,1,2.465-1.2A2.849,2.849,0,0,1,159.1,9.383h.078A9.741,9.741,0,0,1,159,7.641v-2.8h2.391V17h-1.828l-.461-1.133H159A2.727,2.727,0,0,1,156.526,17.156Zm.836-1.9a1.615,1.615,0,0,0,1.34-.531,3.09,3.09,0,0,0,.465-1.8v-.258a3.571,3.571,0,0,0-.434-2.016,1.61,1.61,0,0,0-1.41-.609,1.4,1.4,0,0,0-1.238.676,3.605,3.605,0,0,0-.441,1.965,3.417,3.417,0,0,0,.445,1.934A1.455,1.455,0,0,0,157.362,15.258ZM167.5,9.8a1.511,1.511,0,0,0-1.187.48,2.224,2.224,0,0,0-.492,1.363h3.344a1.986,1.986,0,0,0-.461-1.363A1.561,1.561,0,0,0,167.5,9.8Zm.336,7.359a4.508,4.508,0,0,1-3.3-1.164,4.408,4.408,0,0,1-1.187-3.3,4.848,4.848,0,0,1,1.1-3.395,3.908,3.908,0,0,1,3.035-1.2,3.847,3.847,0,0,1,2.883,1.055A3.99,3.99,0,0,1,171.4,12.07v1.156h-5.633a2.294,2.294,0,0,0,.6,1.586,2.117,2.117,0,0,0,1.578.57,6.551,6.551,0,0,0,1.492-.164,7.467,7.467,0,0,0,1.469-.523v1.844a5.6,5.6,0,0,1-1.336.465A8.423,8.423,0,0,1,167.839,17.156Zm-114.684,22a2.9,2.9,0,0,1-2.414-1.117h-.125q.125,1.094.125,1.266v3.539H48.358V30.266H50.3l.336,1.133h.109a2.757,2.757,0,0,1,2.477-1.3,2.834,2.834,0,0,1,2.422,1.2,5.528,5.528,0,0,1,.875,3.32,6.556,6.556,0,0,1-.41,2.43,3.408,3.408,0,0,1-1.168,1.57A2.993,2.993,0,0,1,53.155,39.156Zm-.7-7.148a1.5,1.5,0,0,0-1.289.543,3.118,3.118,0,0,0-.422,1.793V34.6a3.68,3.68,0,0,0,.418,2.016,1.492,1.492,0,0,0,1.324.609q1.6,0,1.6-2.641a3.771,3.771,0,0,0-.395-1.934A1.347,1.347,0,0,0,52.452,32.008ZM63.358,30.1a3.843,3.843,0,0,1,.8.07l-.18,2.234a2.73,2.73,0,0,0-.7-.078,2.527,2.527,0,0,0-1.777.586,2.118,2.118,0,0,0-.637,1.641V39H58.483V30.266h1.8l.352,1.469h.117a3.283,3.283,0,0,1,1.1-1.184A2.707,2.707,0,0,1,63.358,30.1Zm3.969,4.516a3.666,3.666,0,0,0,.426,1.961,1.523,1.523,0,0,0,1.387.664,1.5,1.5,0,0,0,1.371-.66,3.719,3.719,0,0,0,.418-1.965,3.608,3.608,0,0,0-.422-1.945,1.794,1.794,0,0,0-2.758,0A3.6,3.6,0,0,0,67.327,34.617Zm6.039,0a4.694,4.694,0,0,1-1.125,3.336,4.079,4.079,0,0,1-3.133,1.2,4.382,4.382,0,0,1-2.219-.551,3.665,3.665,0,0,1-1.477-1.582,5.316,5.316,0,0,1-.516-2.406,4.668,4.668,0,0,1,1.117-3.328A4.1,4.1,0,0,1,69.155,30.1a4.407,4.407,0,0,1,2.219.547,3.65,3.65,0,0,1,1.477,1.57A5.267,5.267,0,0,1,73.366,34.617ZM78.1,39.156a2.837,2.837,0,0,1-2.418-1.2,5.5,5.5,0,0,1-.879-3.312A5.5,5.5,0,0,1,75.7,31.3a2.905,2.905,0,0,1,2.465-1.2,2.849,2.849,0,0,1,2.516,1.281h.078a9.742,9.742,0,0,1-.18-1.742v-2.8h2.391V39H81.139l-.461-1.133h-.1A2.727,2.727,0,0,1,78.1,39.156Zm.836-1.9a1.615,1.615,0,0,0,1.34-.531,3.09,3.09,0,0,0,.465-1.8v-.258a3.571,3.571,0,0,0-.434-2.016,1.61,1.61,0,0,0-1.41-.609,1.4,1.4,0,0,0-1.238.676,3.605,3.605,0,0,0-.441,1.965,3.417,3.417,0,0,0,.445,1.934A1.455,1.455,0,0,0,78.936,37.258ZM91.647,39l-.32-1.117H91.2a2.514,2.514,0,0,1-1.086.941,3.708,3.708,0,0,1-1.6.332,3.05,3.05,0,0,1-2.32-.824,3.316,3.316,0,0,1-.781-2.371v-5.7H87.8v5.1a2.45,2.45,0,0,0,.336,1.418,1.222,1.222,0,0,0,1.07.473,1.609,1.609,0,0,0,1.445-.668,4.143,4.143,0,0,0,.445-2.215V30.266h2.383V39Zm7.875.156q-4.078,0-4.078-4.477a4.775,4.775,0,0,1,1.109-3.4,4.162,4.162,0,0,1,3.18-1.176,6.062,6.062,0,0,1,2.719.594l-.7,1.844q-.562-.227-1.047-.371a3.373,3.373,0,0,0-.969-.145q-1.859,0-1.859,2.641,0,2.562,1.859,2.563a4.239,4.239,0,0,0,1.273-.184,4.6,4.6,0,0,0,1.172-.574v2.039a3.84,3.84,0,0,1-1.168.508A6.568,6.568,0,0,1,99.522,39.156Zm8.227,0q-4.078,0-4.078-4.477a4.775,4.775,0,0,1,1.109-3.4,4.162,4.162,0,0,1,3.18-1.176,6.062,6.062,0,0,1,2.719.594l-.7,1.844q-.562-.227-1.047-.371a3.373,3.373,0,0,0-.969-.145q-1.859,0-1.859,2.641,0,2.562,1.859,2.563a4.239,4.239,0,0,0,1.273-.184,4.6,4.6,0,0,0,1.172-.574v2.039a3.84,3.84,0,0,1-1.168.508A6.568,6.568,0,0,1,107.749,39.156Zm4.578-11.148q0-1.164,1.3-1.164t1.3,1.164a1.135,1.135,0,0,1-.324.863,1.363,1.363,0,0,1-.973.309Q112.327,29.18,112.327,28.008ZM114.811,39h-2.383V30.266h2.383Zm4.4-4.383a3.666,3.666,0,0,0,.426,1.961,1.523,1.523,0,0,0,1.387.664,1.5,1.5,0,0,0,1.371-.66,3.719,3.719,0,0,0,.418-1.965,3.608,3.608,0,0,0-.422-1.945,1.794,1.794,0,0,0-2.758,0A3.6,3.6,0,0,0,119.21,34.617Zm6.039,0a4.694,4.694,0,0,1-1.125,3.336,4.079,4.079,0,0,1-3.133,1.2,4.382,4.382,0,0,1-2.219-.551,3.665,3.665,0,0,1-1.477-1.582,5.316,5.316,0,0,1-.516-2.406,4.668,4.668,0,0,1,1.117-3.328,4.1,4.1,0,0,1,3.141-1.187,4.407,4.407,0,0,1,2.219.547,3.65,3.65,0,0,1,1.477,1.57A5.267,5.267,0,0,1,125.249,34.617ZM119.71,29.3v-.211a22,22,0,0,0,1.836-2.352h2.672v.164q-.406.406-1.387,1.207T121.3,29.3ZM135.28,39H132.9V33.9a2.45,2.45,0,0,0-.336-1.418,1.222,1.222,0,0,0-1.07-.473,1.609,1.609,0,0,0-1.445.668,4.143,4.143,0,0,0-.445,2.215V39h-2.383V30.266h1.82l.32,1.117h.133a2.518,2.518,0,0,1,1.1-.957,3.738,3.738,0,0,1,1.59-.324,3.055,3.055,0,0,1,2.313.824,3.308,3.308,0,0,1,.789,2.379Z" transform="translate(6187.147 1674.124)" fill="#002110" opacity="0.9"/>
    <path id="Trazado_17185" data-name="Trazado 17185" d="M40.057,7.43A2.468,2.468,0,0,0,37.94,8.457a4.78,4.78,0,0,0-.75,2.863q0,3.82,2.867,3.82a9.063,9.063,0,0,0,2.914-.6V16.57a8.093,8.093,0,0,1-3.141.586,4.79,4.79,0,0,1-3.812-1.512A6.4,6.4,0,0,1,34.7,11.3a7.087,7.087,0,0,1,.648-3.121,4.687,4.687,0,0,1,1.863-2.055,5.512,5.512,0,0,1,2.848-.715,7.686,7.686,0,0,1,3.344.8l-.781,1.969a12.932,12.932,0,0,0-1.289-.531A3.846,3.846,0,0,0,40.057,7.43Zm7.055,5.188a3.666,3.666,0,0,0,.426,1.961,1.523,1.523,0,0,0,1.387.664,1.5,1.5,0,0,0,1.371-.66,3.719,3.719,0,0,0,.418-1.965,3.608,3.608,0,0,0-.422-1.945,1.794,1.794,0,0,0-2.758,0A3.6,3.6,0,0,0,47.112,12.617Zm6.039,0a4.694,4.694,0,0,1-1.125,3.336,4.079,4.079,0,0,1-3.133,1.2,4.382,4.382,0,0,1-2.219-.551A3.665,3.665,0,0,1,45.2,15.023a5.316,5.316,0,0,1-.516-2.406A4.668,4.668,0,0,1,45.8,9.289,4.1,4.1,0,0,1,48.94,8.1a4.407,4.407,0,0,1,2.219.547,3.65,3.65,0,0,1,1.477,1.57A5.267,5.267,0,0,1,53.151,12.617Zm8.063,1.789a2.4,2.4,0,0,1-.934,2.047,4.613,4.613,0,0,1-2.793.7,8.772,8.772,0,0,1-1.625-.129,6.147,6.147,0,0,1-1.258-.379V14.68a8.306,8.306,0,0,0,1.5.523,6.058,6.058,0,0,0,1.465.211q1.3,0,1.3-.75a.626.626,0,0,0-.172-.457,2.492,2.492,0,0,0-.594-.4q-.422-.223-1.125-.52a7.067,7.067,0,0,1-1.48-.781,2.2,2.2,0,0,1-.687-.824,2.721,2.721,0,0,1-.215-1.145,2.075,2.075,0,0,1,.9-1.8A4.4,4.4,0,0,1,58.049,8.1a7.262,7.262,0,0,1,3.07.688L60.4,10.508q-.656-.281-1.227-.461a3.852,3.852,0,0,0-1.164-.18q-1.055,0-1.055.57a.67.67,0,0,0,.34.555,9.242,9.242,0,0,0,1.488.7,6.914,6.914,0,0,1,1.5.773,2.288,2.288,0,0,1,.7.828A2.545,2.545,0,0,1,61.213,14.406Zm5.539.852a5.165,5.165,0,0,0,1.5-.273v1.773a5.348,5.348,0,0,1-2.187.4,2.677,2.677,0,0,1-2.082-.723,3.145,3.145,0,0,1-.652-2.168V10.055H62.19V9.047l1.313-.8.687-1.844h1.523V8.266h2.445v1.789H65.713v4.211a.93.93,0,0,0,.285.75A1.125,1.125,0,0,0,66.752,15.258Zm5.164-2.641a3.666,3.666,0,0,0,.426,1.961,1.523,1.523,0,0,0,1.387.664,1.5,1.5,0,0,0,1.371-.66,3.719,3.719,0,0,0,.418-1.965,3.608,3.608,0,0,0-.422-1.945,1.794,1.794,0,0,0-2.758,0A3.6,3.6,0,0,0,71.916,12.617Zm6.039,0a4.694,4.694,0,0,1-1.125,3.336,4.079,4.079,0,0,1-3.133,1.2,4.382,4.382,0,0,1-2.219-.551A3.665,3.665,0,0,1,70,15.023a5.316,5.316,0,0,1-.516-2.406A4.668,4.668,0,0,1,70.6,9.289,4.1,4.1,0,0,1,73.744,8.1a4.407,4.407,0,0,1,2.219.547,3.65,3.65,0,0,1,1.477,1.57A5.267,5.267,0,0,1,77.955,12.617Zm8.063,1.789a2.4,2.4,0,0,1-.934,2.047,4.613,4.613,0,0,1-2.793.7,8.772,8.772,0,0,1-1.625-.129,6.147,6.147,0,0,1-1.258-.379V14.68a8.307,8.307,0,0,0,1.5.523,6.058,6.058,0,0,0,1.465.211q1.3,0,1.3-.75a.626.626,0,0,0-.172-.457,2.492,2.492,0,0,0-.594-.4q-.422-.223-1.125-.52a7.067,7.067,0,0,1-1.48-.781,2.2,2.2,0,0,1-.687-.824,2.721,2.721,0,0,1-.215-1.145,2.075,2.075,0,0,1,.9-1.8A4.4,4.4,0,0,1,82.854,8.1a7.262,7.262,0,0,1,3.07.688l-.719,1.719q-.656-.281-1.227-.461a3.852,3.852,0,0,0-1.164-.18q-1.055,0-1.055.57a.67.67,0,0,0,.34.555,9.242,9.242,0,0,0,1.488.7,6.914,6.914,0,0,1,1.5.773,2.287,2.287,0,0,1,.7.828A2.545,2.545,0,0,1,86.018,14.406Zm8.781,2.75a2.837,2.837,0,0,1-2.418-1.2,5.5,5.5,0,0,1-.879-3.312A5.5,5.5,0,0,1,92.4,9.3a2.905,2.905,0,0,1,2.465-1.2,2.849,2.849,0,0,1,2.516,1.281h.078a9.742,9.742,0,0,1-.18-1.742v-2.8h2.391V17H97.838l-.461-1.133h-.1A2.727,2.727,0,0,1,94.8,17.156Zm.836-1.9a1.615,1.615,0,0,0,1.34-.531,3.09,3.09,0,0,0,.465-1.8v-.258a3.571,3.571,0,0,0-.434-2.016,1.61,1.61,0,0,0-1.41-.609,1.4,1.4,0,0,0-1.238.676,3.605,3.605,0,0,0-.441,1.965,3.417,3.417,0,0,0,.445,1.934A1.455,1.455,0,0,0,95.635,15.258ZM105.776,9.8a1.511,1.511,0,0,0-1.187.48,2.224,2.224,0,0,0-.492,1.363h3.344a1.986,1.986,0,0,0-.461-1.363A1.561,1.561,0,0,0,105.776,9.8Zm.336,7.359a4.508,4.508,0,0,1-3.3-1.164,4.408,4.408,0,0,1-1.187-3.3,4.848,4.848,0,0,1,1.1-3.395,3.909,3.909,0,0,1,3.035-1.2,3.847,3.847,0,0,1,2.883,1.055,3.99,3.99,0,0,1,1.031,2.914v1.156h-5.633a2.294,2.294,0,0,0,.6,1.586,2.117,2.117,0,0,0,1.578.57,6.551,6.551,0,0,0,1.492-.164,7.466,7.466,0,0,0,1.469-.523v1.844a5.6,5.6,0,0,1-1.336.465A8.423,8.423,0,0,1,106.112,17.156Zm-72.688,22a2.9,2.9,0,0,1-2.414-1.117h-.125q.125,1.094.125,1.266v3.539H28.627V30.266h1.938L30.9,31.4h.109a2.757,2.757,0,0,1,2.477-1.3,2.834,2.834,0,0,1,2.422,1.2,5.528,5.528,0,0,1,.875,3.32,6.556,6.556,0,0,1-.41,2.43,3.408,3.408,0,0,1-1.168,1.57A2.993,2.993,0,0,1,33.424,39.156Zm-.7-7.148a1.5,1.5,0,0,0-1.289.543,3.117,3.117,0,0,0-.422,1.793V34.6a3.68,3.68,0,0,0,.418,2.016,1.492,1.492,0,0,0,1.324.609q1.6,0,1.6-2.641a3.771,3.771,0,0,0-.395-1.934A1.347,1.347,0,0,0,32.721,32.008ZM43.627,30.1a3.843,3.843,0,0,1,.8.07l-.18,2.234a2.73,2.73,0,0,0-.7-.078,2.527,2.527,0,0,0-1.777.586,2.118,2.118,0,0,0-.637,1.641V39H38.752V30.266h1.8l.352,1.469h.117a3.283,3.283,0,0,1,1.1-1.184A2.707,2.707,0,0,1,43.627,30.1ZM47.6,34.617a3.666,3.666,0,0,0,.426,1.961,1.523,1.523,0,0,0,1.387.664,1.5,1.5,0,0,0,1.371-.66,3.719,3.719,0,0,0,.418-1.965,3.608,3.608,0,0,0-.422-1.945,1.794,1.794,0,0,0-2.758,0A3.6,3.6,0,0,0,47.6,34.617Zm6.039,0a4.694,4.694,0,0,1-1.125,3.336,4.079,4.079,0,0,1-3.133,1.2,4.382,4.382,0,0,1-2.219-.551,3.665,3.665,0,0,1-1.477-1.582,5.316,5.316,0,0,1-.516-2.406,4.668,4.668,0,0,1,1.117-3.328A4.1,4.1,0,0,1,49.424,30.1a4.407,4.407,0,0,1,2.219.547,3.65,3.65,0,0,1,1.477,1.57A5.267,5.267,0,0,1,53.635,34.617Zm4.734,4.539a2.837,2.837,0,0,1-2.418-1.2,5.5,5.5,0,0,1-.879-3.312,5.5,5.5,0,0,1,.895-3.348,2.905,2.905,0,0,1,2.465-1.2,2.849,2.849,0,0,1,2.516,1.281h.078a9.741,9.741,0,0,1-.18-1.742v-2.8h2.391V39H61.408l-.461-1.133h-.1A2.727,2.727,0,0,1,58.369,39.156Zm.836-1.9a1.615,1.615,0,0,0,1.34-.531,3.09,3.09,0,0,0,.465-1.8v-.258a3.571,3.571,0,0,0-.434-2.016,1.61,1.61,0,0,0-1.41-.609,1.4,1.4,0,0,0-1.238.676,3.605,3.605,0,0,0-.441,1.965,3.417,3.417,0,0,0,.445,1.934A1.455,1.455,0,0,0,59.205,37.258ZM71.916,39l-.32-1.117h-.125a2.514,2.514,0,0,1-1.086.941,3.708,3.708,0,0,1-1.6.332,3.05,3.05,0,0,1-2.32-.824,3.316,3.316,0,0,1-.781-2.371v-5.7h2.383v5.1a2.45,2.45,0,0,0,.336,1.418,1.222,1.222,0,0,0,1.07.473,1.609,1.609,0,0,0,1.445-.668,4.143,4.143,0,0,0,.445-2.215V30.266h2.383V39Zm7.875.156q-4.078,0-4.078-4.477a4.775,4.775,0,0,1,1.109-3.4A4.162,4.162,0,0,1,80,30.1a6.062,6.062,0,0,1,2.719.594l-.7,1.844q-.562-.227-1.047-.371A3.373,3.373,0,0,0,80,32.023q-1.859,0-1.859,2.641,0,2.562,1.859,2.563a4.239,4.239,0,0,0,1.273-.184,4.6,4.6,0,0,0,1.172-.574v2.039a3.84,3.84,0,0,1-1.168.508A6.568,6.568,0,0,1,79.791,39.156Zm8.227,0q-4.078,0-4.078-4.477a4.775,4.775,0,0,1,1.109-3.4,4.162,4.162,0,0,1,3.18-1.176,6.062,6.062,0,0,1,2.719.594l-.7,1.844q-.562-.227-1.047-.371a3.373,3.373,0,0,0-.969-.145q-1.859,0-1.859,2.641,0,2.562,1.859,2.563a4.239,4.239,0,0,0,1.273-.184,4.6,4.6,0,0,0,1.172-.574v2.039a3.84,3.84,0,0,1-1.168.508A6.568,6.568,0,0,1,88.018,39.156ZM92.6,28.008q0-1.164,1.3-1.164t1.3,1.164a1.135,1.135,0,0,1-.324.863,1.363,1.363,0,0,1-.973.309Q92.6,29.18,92.6,28.008ZM95.08,39H92.7V30.266H95.08Zm4.4-4.383a3.666,3.666,0,0,0,.426,1.961,1.523,1.523,0,0,0,1.387.664,1.5,1.5,0,0,0,1.371-.66,3.719,3.719,0,0,0,.418-1.965,3.608,3.608,0,0,0-.422-1.945,1.794,1.794,0,0,0-2.758,0A3.6,3.6,0,0,0,99.479,34.617Zm6.039,0a4.694,4.694,0,0,1-1.125,3.336,4.079,4.079,0,0,1-3.133,1.2,4.382,4.382,0,0,1-2.219-.551,3.665,3.665,0,0,1-1.477-1.582,5.316,5.316,0,0,1-.516-2.406,4.668,4.668,0,0,1,1.117-3.328,4.1,4.1,0,0,1,3.141-1.187,4.407,4.407,0,0,1,2.219.547A3.65,3.65,0,0,1,105,32.219,5.267,5.267,0,0,1,105.518,34.617ZM99.979,29.3v-.211a22,22,0,0,0,1.836-2.352h2.672v.164q-.406.406-1.387,1.207T101.565,29.3Zm15.57,9.7h-2.383V33.9a2.45,2.45,0,0,0-.336-1.418,1.222,1.222,0,0,0-1.07-.473,1.609,1.609,0,0,0-1.445.668,4.143,4.143,0,0,0-.445,2.215V39h-2.383V30.266h1.82l.32,1.117h.133a2.518,2.518,0,0,1,1.1-.957,3.738,3.738,0,0,1,1.59-.324,3.055,3.055,0,0,1,2.313.824,3.308,3.308,0,0,1,.789,2.379Z" transform="translate(6489.085 1674.124)" fill="#fff"/>
    <path id="Trazado_17186" data-name="Trazado 17186" d="M40.057,7.43A2.468,2.468,0,0,0,37.94,8.457a4.78,4.78,0,0,0-.75,2.863q0,3.82,2.867,3.82a9.063,9.063,0,0,0,2.914-.6V16.57a8.093,8.093,0,0,1-3.141.586,4.79,4.79,0,0,1-3.812-1.512A6.4,6.4,0,0,1,34.7,11.3a7.087,7.087,0,0,1,.648-3.121,4.687,4.687,0,0,1,1.863-2.055,5.512,5.512,0,0,1,2.848-.715,7.686,7.686,0,0,1,3.344.8l-.781,1.969a12.932,12.932,0,0,0-1.289-.531A3.846,3.846,0,0,0,40.057,7.43Zm7.055,5.188a3.666,3.666,0,0,0,.426,1.961,1.523,1.523,0,0,0,1.387.664,1.5,1.5,0,0,0,1.371-.66,3.719,3.719,0,0,0,.418-1.965,3.608,3.608,0,0,0-.422-1.945,1.794,1.794,0,0,0-2.758,0A3.6,3.6,0,0,0,47.112,12.617Zm6.039,0a4.694,4.694,0,0,1-1.125,3.336,4.079,4.079,0,0,1-3.133,1.2,4.382,4.382,0,0,1-2.219-.551A3.665,3.665,0,0,1,45.2,15.023a5.316,5.316,0,0,1-.516-2.406A4.668,4.668,0,0,1,45.8,9.289,4.1,4.1,0,0,1,48.94,8.1a4.407,4.407,0,0,1,2.219.547,3.65,3.65,0,0,1,1.477,1.57A5.267,5.267,0,0,1,53.151,12.617Zm8.063,1.789a2.4,2.4,0,0,1-.934,2.047,4.613,4.613,0,0,1-2.793.7,8.772,8.772,0,0,1-1.625-.129,6.147,6.147,0,0,1-1.258-.379V14.68a8.306,8.306,0,0,0,1.5.523,6.058,6.058,0,0,0,1.465.211q1.3,0,1.3-.75a.626.626,0,0,0-.172-.457,2.492,2.492,0,0,0-.594-.4q-.422-.223-1.125-.52a7.067,7.067,0,0,1-1.48-.781,2.2,2.2,0,0,1-.687-.824,2.721,2.721,0,0,1-.215-1.145,2.075,2.075,0,0,1,.9-1.8A4.4,4.4,0,0,1,58.049,8.1a7.262,7.262,0,0,1,3.07.688L60.4,10.508q-.656-.281-1.227-.461a3.852,3.852,0,0,0-1.164-.18q-1.055,0-1.055.57a.67.67,0,0,0,.34.555,9.242,9.242,0,0,0,1.488.7,6.914,6.914,0,0,1,1.5.773,2.288,2.288,0,0,1,.7.828A2.545,2.545,0,0,1,61.213,14.406Zm5.539.852a5.165,5.165,0,0,0,1.5-.273v1.773a5.348,5.348,0,0,1-2.187.4,2.677,2.677,0,0,1-2.082-.723,3.145,3.145,0,0,1-.652-2.168V10.055H62.19V9.047l1.313-.8.687-1.844h1.523V8.266h2.445v1.789H65.713v4.211a.93.93,0,0,0,.285.75A1.125,1.125,0,0,0,66.752,15.258Zm5.164-2.641a3.666,3.666,0,0,0,.426,1.961,1.523,1.523,0,0,0,1.387.664,1.5,1.5,0,0,0,1.371-.66,3.719,3.719,0,0,0,.418-1.965,3.608,3.608,0,0,0-.422-1.945,1.794,1.794,0,0,0-2.758,0A3.6,3.6,0,0,0,71.916,12.617Zm6.039,0a4.694,4.694,0,0,1-1.125,3.336,4.079,4.079,0,0,1-3.133,1.2,4.382,4.382,0,0,1-2.219-.551A3.665,3.665,0,0,1,70,15.023a5.316,5.316,0,0,1-.516-2.406A4.668,4.668,0,0,1,70.6,9.289,4.1,4.1,0,0,1,73.744,8.1a4.407,4.407,0,0,1,2.219.547,3.65,3.65,0,0,1,1.477,1.57A5.267,5.267,0,0,1,77.955,12.617Zm8.063,1.789a2.4,2.4,0,0,1-.934,2.047,4.613,4.613,0,0,1-2.793.7,8.772,8.772,0,0,1-1.625-.129,6.147,6.147,0,0,1-1.258-.379V14.68a8.307,8.307,0,0,0,1.5.523,6.058,6.058,0,0,0,1.465.211q1.3,0,1.3-.75a.626.626,0,0,0-.172-.457,2.492,2.492,0,0,0-.594-.4q-.422-.223-1.125-.52a7.067,7.067,0,0,1-1.48-.781,2.2,2.2,0,0,1-.687-.824,2.721,2.721,0,0,1-.215-1.145,2.075,2.075,0,0,1,.9-1.8A4.4,4.4,0,0,1,82.854,8.1a7.262,7.262,0,0,1,3.07.688l-.719,1.719q-.656-.281-1.227-.461a3.852,3.852,0,0,0-1.164-.18q-1.055,0-1.055.57a.67.67,0,0,0,.34.555,9.242,9.242,0,0,0,1.488.7,6.914,6.914,0,0,1,1.5.773,2.287,2.287,0,0,1,.7.828A2.545,2.545,0,0,1,86.018,14.406Zm8.781,2.75a2.837,2.837,0,0,1-2.418-1.2,5.5,5.5,0,0,1-.879-3.312A5.5,5.5,0,0,1,92.4,9.3a2.905,2.905,0,0,1,2.465-1.2,2.849,2.849,0,0,1,2.516,1.281h.078a9.742,9.742,0,0,1-.18-1.742v-2.8h2.391V17H97.838l-.461-1.133h-.1A2.727,2.727,0,0,1,94.8,17.156Zm.836-1.9a1.615,1.615,0,0,0,1.34-.531,3.09,3.09,0,0,0,.465-1.8v-.258a3.571,3.571,0,0,0-.434-2.016,1.61,1.61,0,0,0-1.41-.609,1.4,1.4,0,0,0-1.238.676,3.605,3.605,0,0,0-.441,1.965,3.417,3.417,0,0,0,.445,1.934A1.455,1.455,0,0,0,95.635,15.258ZM105.776,9.8a1.511,1.511,0,0,0-1.187.48,2.224,2.224,0,0,0-.492,1.363h3.344a1.986,1.986,0,0,0-.461-1.363A1.561,1.561,0,0,0,105.776,9.8Zm.336,7.359a4.508,4.508,0,0,1-3.3-1.164,4.408,4.408,0,0,1-1.187-3.3,4.848,4.848,0,0,1,1.1-3.395,3.909,3.909,0,0,1,3.035-1.2,3.847,3.847,0,0,1,2.883,1.055,3.99,3.99,0,0,1,1.031,2.914v1.156h-5.633a2.294,2.294,0,0,0,.6,1.586,2.117,2.117,0,0,0,1.578.57,6.551,6.551,0,0,0,1.492-.164,7.466,7.466,0,0,0,1.469-.523v1.844a5.6,5.6,0,0,1-1.336.465A8.423,8.423,0,0,1,106.112,17.156Zm-72.688,22a2.9,2.9,0,0,1-2.414-1.117h-.125q.125,1.094.125,1.266v3.539H28.627V30.266h1.938L30.9,31.4h.109a2.757,2.757,0,0,1,2.477-1.3,2.834,2.834,0,0,1,2.422,1.2,5.528,5.528,0,0,1,.875,3.32,6.556,6.556,0,0,1-.41,2.43,3.408,3.408,0,0,1-1.168,1.57A2.993,2.993,0,0,1,33.424,39.156Zm-.7-7.148a1.5,1.5,0,0,0-1.289.543,3.117,3.117,0,0,0-.422,1.793V34.6a3.68,3.68,0,0,0,.418,2.016,1.492,1.492,0,0,0,1.324.609q1.6,0,1.6-2.641a3.771,3.771,0,0,0-.395-1.934A1.347,1.347,0,0,0,32.721,32.008ZM43.627,30.1a3.843,3.843,0,0,1,.8.07l-.18,2.234a2.73,2.73,0,0,0-.7-.078,2.527,2.527,0,0,0-1.777.586,2.118,2.118,0,0,0-.637,1.641V39H38.752V30.266h1.8l.352,1.469h.117a3.283,3.283,0,0,1,1.1-1.184A2.707,2.707,0,0,1,43.627,30.1ZM47.6,34.617a3.666,3.666,0,0,0,.426,1.961,1.523,1.523,0,0,0,1.387.664,1.5,1.5,0,0,0,1.371-.66,3.719,3.719,0,0,0,.418-1.965,3.608,3.608,0,0,0-.422-1.945,1.794,1.794,0,0,0-2.758,0A3.6,3.6,0,0,0,47.6,34.617Zm6.039,0a4.694,4.694,0,0,1-1.125,3.336,4.079,4.079,0,0,1-3.133,1.2,4.382,4.382,0,0,1-2.219-.551,3.665,3.665,0,0,1-1.477-1.582,5.316,5.316,0,0,1-.516-2.406,4.668,4.668,0,0,1,1.117-3.328A4.1,4.1,0,0,1,49.424,30.1a4.407,4.407,0,0,1,2.219.547,3.65,3.65,0,0,1,1.477,1.57A5.267,5.267,0,0,1,53.635,34.617Zm4.734,4.539a2.837,2.837,0,0,1-2.418-1.2,5.5,5.5,0,0,1-.879-3.312,5.5,5.5,0,0,1,.895-3.348,2.905,2.905,0,0,1,2.465-1.2,2.849,2.849,0,0,1,2.516,1.281h.078a9.741,9.741,0,0,1-.18-1.742v-2.8h2.391V39H61.408l-.461-1.133h-.1A2.727,2.727,0,0,1,58.369,39.156Zm.836-1.9a1.615,1.615,0,0,0,1.34-.531,3.09,3.09,0,0,0,.465-1.8v-.258a3.571,3.571,0,0,0-.434-2.016,1.61,1.61,0,0,0-1.41-.609,1.4,1.4,0,0,0-1.238.676,3.605,3.605,0,0,0-.441,1.965,3.417,3.417,0,0,0,.445,1.934A1.455,1.455,0,0,0,59.205,37.258ZM71.916,39l-.32-1.117h-.125a2.514,2.514,0,0,1-1.086.941,3.708,3.708,0,0,1-1.6.332,3.05,3.05,0,0,1-2.32-.824,3.316,3.316,0,0,1-.781-2.371v-5.7h2.383v5.1a2.45,2.45,0,0,0,.336,1.418,1.222,1.222,0,0,0,1.07.473,1.609,1.609,0,0,0,1.445-.668,4.143,4.143,0,0,0,.445-2.215V30.266h2.383V39Zm7.875.156q-4.078,0-4.078-4.477a4.775,4.775,0,0,1,1.109-3.4A4.162,4.162,0,0,1,80,30.1a6.062,6.062,0,0,1,2.719.594l-.7,1.844q-.562-.227-1.047-.371A3.373,3.373,0,0,0,80,32.023q-1.859,0-1.859,2.641,0,2.562,1.859,2.563a4.239,4.239,0,0,0,1.273-.184,4.6,4.6,0,0,0,1.172-.574v2.039a3.84,3.84,0,0,1-1.168.508A6.568,6.568,0,0,1,79.791,39.156Zm8.227,0q-4.078,0-4.078-4.477a4.775,4.775,0,0,1,1.109-3.4,4.162,4.162,0,0,1,3.18-1.176,6.062,6.062,0,0,1,2.719.594l-.7,1.844q-.562-.227-1.047-.371a3.373,3.373,0,0,0-.969-.145q-1.859,0-1.859,2.641,0,2.562,1.859,2.563a4.239,4.239,0,0,0,1.273-.184,4.6,4.6,0,0,0,1.172-.574v2.039a3.84,3.84,0,0,1-1.168.508A6.568,6.568,0,0,1,88.018,39.156ZM92.6,28.008q0-1.164,1.3-1.164t1.3,1.164a1.135,1.135,0,0,1-.324.863,1.363,1.363,0,0,1-.973.309Q92.6,29.18,92.6,28.008ZM95.08,39H92.7V30.266H95.08Zm4.4-4.383a3.666,3.666,0,0,0,.426,1.961,1.523,1.523,0,0,0,1.387.664,1.5,1.5,0,0,0,1.371-.66,3.719,3.719,0,0,0,.418-1.965,3.608,3.608,0,0,0-.422-1.945,1.794,1.794,0,0,0-2.758,0A3.6,3.6,0,0,0,99.479,34.617Zm6.039,0a4.694,4.694,0,0,1-1.125,3.336,4.079,4.079,0,0,1-3.133,1.2,4.382,4.382,0,0,1-2.219-.551,3.665,3.665,0,0,1-1.477-1.582,5.316,5.316,0,0,1-.516-2.406,4.668,4.668,0,0,1,1.117-3.328,4.1,4.1,0,0,1,3.141-1.187,4.407,4.407,0,0,1,2.219.547A3.65,3.65,0,0,1,105,32.219,5.267,5.267,0,0,1,105.518,34.617ZM99.979,29.3v-.211a22,22,0,0,0,1.836-2.352h2.672v.164q-.406.406-1.387,1.207T101.565,29.3Zm15.57,9.7h-2.383V33.9a2.45,2.45,0,0,0-.336-1.418,1.222,1.222,0,0,0-1.07-.473,1.609,1.609,0,0,0-1.445.668,4.143,4.143,0,0,0-.445,2.215V39h-2.383V30.266h1.82l.32,1.117h.133a2.518,2.518,0,0,1,1.1-.957,3.738,3.738,0,0,1,1.59-.324,3.055,3.055,0,0,1,2.313.824,3.308,3.308,0,0,1,.789,2.379Z" transform="translate(5889.292 1774.94)" fill="#002110" opacity="0.9"/>
    <path id="Trazado_17187" data-name="Trazado 17187" d="M38.967,10.586H43.5v5.922a12.775,12.775,0,0,1-2.074.5,13.511,13.511,0,0,1-1.988.145,5.031,5.031,0,0,1-3.949-1.52,6.321,6.321,0,0,1-1.363-4.363,5.755,5.755,0,0,1,1.582-4.312,6.007,6.007,0,0,1,4.387-1.547,8.488,8.488,0,0,1,3.391.7l-.8,1.938a5.747,5.747,0,0,0-2.6-.625,3.213,3.213,0,0,0-2.516,1.055,4.091,4.091,0,0,0-.945,2.836,4.555,4.555,0,0,0,.762,2.84,2.635,2.635,0,0,0,2.215.98,7.834,7.834,0,0,0,1.539-.156V12.6H38.967ZM51.576,17l-.461-1.187h-.062a3.519,3.519,0,0,1-1.238,1.051,4,4,0,0,1-1.66.293,2.685,2.685,0,0,1-1.98-.719,2.76,2.76,0,0,1-.723-2.047,2.3,2.3,0,0,1,.973-2.051,5.636,5.636,0,0,1,2.934-.73l1.516-.047V11.18a1.188,1.188,0,0,0-1.359-1.328,6.2,6.2,0,0,0-2.461.633l-.789-1.609a7.1,7.1,0,0,1,3.344-.789,4.165,4.165,0,0,1,2.7.766,2.83,2.83,0,0,1,.938,2.328V17Zm-.7-4.047-.922.031a2.952,2.952,0,0,0-1.547.375,1.178,1.178,0,0,0-.508,1.047q0,1.008,1.156,1.008a1.831,1.831,0,0,0,1.324-.477,1.674,1.674,0,0,0,.5-1.266Zm10.914,1.453a2.4,2.4,0,0,1-.934,2.047,4.613,4.613,0,0,1-2.793.7,8.772,8.772,0,0,1-1.625-.129,6.147,6.147,0,0,1-1.258-.379V14.68a8.306,8.306,0,0,0,1.5.523,6.058,6.058,0,0,0,1.465.211q1.3,0,1.3-.75a.626.626,0,0,0-.172-.457,2.492,2.492,0,0,0-.594-.4q-.422-.223-1.125-.52a7.067,7.067,0,0,1-1.48-.781,2.2,2.2,0,0,1-.687-.824,2.721,2.721,0,0,1-.215-1.145,2.075,2.075,0,0,1,.9-1.8A4.4,4.4,0,0,1,58.623,8.1a7.262,7.262,0,0,1,3.07.688l-.719,1.719q-.656-.281-1.227-.461a3.852,3.852,0,0,0-1.164-.18q-1.055,0-1.055.57a.67.67,0,0,0,.34.555,9.242,9.242,0,0,0,1.488.7,6.914,6.914,0,0,1,1.5.773,2.288,2.288,0,0,1,.7.828A2.545,2.545,0,0,1,61.787,14.406Zm5.539.852a5.165,5.165,0,0,0,1.5-.273v1.773a5.348,5.348,0,0,1-2.187.4,2.677,2.677,0,0,1-2.082-.723,3.145,3.145,0,0,1-.652-2.168V10.055H62.764V9.047l1.312-.8.688-1.844h1.523V8.266h2.445v1.789H66.287v4.211a.93.93,0,0,0,.285.75A1.125,1.125,0,0,0,67.326,15.258Zm5.164-2.641a3.666,3.666,0,0,0,.426,1.961,1.523,1.523,0,0,0,1.387.664,1.5,1.5,0,0,0,1.371-.66,3.719,3.719,0,0,0,.418-1.965,3.608,3.608,0,0,0-.422-1.945,1.794,1.794,0,0,0-2.758,0A3.6,3.6,0,0,0,72.491,12.617Zm6.039,0A4.694,4.694,0,0,1,77.4,15.953a4.079,4.079,0,0,1-3.133,1.2,4.382,4.382,0,0,1-2.219-.551,3.665,3.665,0,0,1-1.477-1.582,5.316,5.316,0,0,1-.516-2.406,4.668,4.668,0,0,1,1.117-3.328A4.1,4.1,0,0,1,74.319,8.1a4.407,4.407,0,0,1,2.219.547,3.65,3.65,0,0,1,1.477,1.57A5.267,5.267,0,0,1,78.53,12.617Zm8.063,1.789a2.4,2.4,0,0,1-.934,2.047,4.613,4.613,0,0,1-2.793.7,8.772,8.772,0,0,1-1.625-.129,6.147,6.147,0,0,1-1.258-.379V14.68a8.307,8.307,0,0,0,1.5.523,6.058,6.058,0,0,0,1.465.211q1.3,0,1.3-.75a.626.626,0,0,0-.172-.457,2.492,2.492,0,0,0-.594-.4q-.422-.223-1.125-.52a7.067,7.067,0,0,1-1.48-.781,2.2,2.2,0,0,1-.687-.824,2.721,2.721,0,0,1-.215-1.145,2.075,2.075,0,0,1,.9-1.8A4.4,4.4,0,0,1,83.428,8.1a7.262,7.262,0,0,1,3.07.688l-.719,1.719q-.656-.281-1.227-.461a3.852,3.852,0,0,0-1.164-.18q-1.055,0-1.055.57a.67.67,0,0,0,.34.555,9.242,9.242,0,0,0,1.488.7,6.914,6.914,0,0,1,1.5.773,2.287,2.287,0,0,1,.7.828A2.545,2.545,0,0,1,86.592,14.406Zm8.781,2.75a2.837,2.837,0,0,1-2.418-1.2,5.5,5.5,0,0,1-.879-3.312A5.5,5.5,0,0,1,92.971,9.3a2.905,2.905,0,0,1,2.465-1.2,2.849,2.849,0,0,1,2.516,1.281h.078a9.742,9.742,0,0,1-.18-1.742v-2.8h2.391V17H98.412l-.461-1.133h-.1A2.727,2.727,0,0,1,95.373,17.156Zm.836-1.9a1.615,1.615,0,0,0,1.34-.531,3.09,3.09,0,0,0,.465-1.8v-.258a3.571,3.571,0,0,0-.434-2.016,1.61,1.61,0,0,0-1.41-.609,1.4,1.4,0,0,0-1.238.676,3.605,3.605,0,0,0-.441,1.965,3.417,3.417,0,0,0,.445,1.934A1.455,1.455,0,0,0,96.209,15.258ZM106.35,9.8a1.511,1.511,0,0,0-1.187.48,2.224,2.224,0,0,0-.492,1.363h3.344a1.986,1.986,0,0,0-.461-1.363A1.561,1.561,0,0,0,106.35,9.8Zm.336,7.359a4.508,4.508,0,0,1-3.3-1.164,4.408,4.408,0,0,1-1.187-3.3A4.848,4.848,0,0,1,103.3,9.3a3.909,3.909,0,0,1,3.035-1.2,3.847,3.847,0,0,1,2.883,1.055,3.99,3.99,0,0,1,1.031,2.914v1.156h-5.633a2.294,2.294,0,0,0,.6,1.586,2.117,2.117,0,0,0,1.578.57,6.551,6.551,0,0,0,1.492-.164,7.466,7.466,0,0,0,1.469-.523v1.844A5.6,5.6,0,0,1,108.42,17,8.423,8.423,0,0,1,106.686,17.156Zm-78.719,22a2.837,2.837,0,0,1-2.418-1.2,5.5,5.5,0,0,1-.879-3.312,5.5,5.5,0,0,1,.895-3.348,2.905,2.905,0,0,1,2.465-1.2,2.849,2.849,0,0,1,2.516,1.281h.078a9.741,9.741,0,0,1-.18-1.742v-2.8h2.391V39H31.006l-.461-1.133h-.1A2.727,2.727,0,0,1,27.967,39.156Zm.836-1.9a1.615,1.615,0,0,0,1.34-.531,3.09,3.09,0,0,0,.465-1.8v-.258a3.571,3.571,0,0,0-.434-2.016,1.61,1.61,0,0,0-1.41-.609,1.4,1.4,0,0,0-1.238.676,3.605,3.605,0,0,0-.441,1.965,3.417,3.417,0,0,0,.445,1.934A1.455,1.455,0,0,0,28.8,37.258Zm6.422-9.25q0-1.164,1.3-1.164t1.3,1.164a1.135,1.135,0,0,1-.324.863,1.363,1.363,0,0,1-.973.309Q35.225,29.18,35.225,28.008ZM37.709,39H35.326V30.266h2.383ZM46.3,36.406a2.4,2.4,0,0,1-.934,2.047,4.613,4.613,0,0,1-2.793.7,8.772,8.772,0,0,1-1.625-.129,6.146,6.146,0,0,1-1.258-.379V36.68a8.307,8.307,0,0,0,1.5.523,6.058,6.058,0,0,0,1.465.211q1.3,0,1.3-.75a.626.626,0,0,0-.172-.457,2.492,2.492,0,0,0-.594-.4q-.422-.223-1.125-.52a7.067,7.067,0,0,1-1.48-.781,2.2,2.2,0,0,1-.687-.824,2.721,2.721,0,0,1-.215-1.145,2.075,2.075,0,0,1,.9-1.8,4.4,4.4,0,0,1,2.559-.637,7.262,7.262,0,0,1,3.07.688l-.719,1.719q-.656-.281-1.227-.461a3.852,3.852,0,0,0-1.164-.18q-1.055,0-1.055.57a.67.67,0,0,0,.34.555,9.242,9.242,0,0,0,1.488.7,6.914,6.914,0,0,1,1.5.773,2.288,2.288,0,0,1,.7.828A2.545,2.545,0,0,1,46.3,36.406Zm5.539.852a5.165,5.165,0,0,0,1.5-.273v1.773a5.348,5.348,0,0,1-2.187.4,2.677,2.677,0,0,1-2.082-.723,3.145,3.145,0,0,1-.652-2.168V32.055H47.28V31.047l1.313-.8.688-1.844H50.8v1.859h2.445v1.789H50.8v4.211a.93.93,0,0,0,.285.75A1.125,1.125,0,0,0,51.842,37.258ZM59.983,30.1a3.843,3.843,0,0,1,.8.07l-.18,2.234a2.73,2.73,0,0,0-.7-.078,2.527,2.527,0,0,0-1.777.586,2.118,2.118,0,0,0-.637,1.641V39H55.108V30.266h1.8l.352,1.469h.117a3.283,3.283,0,0,1,1.1-1.184A2.707,2.707,0,0,1,59.983,30.1Zm2.289-2.094q0-1.164,1.3-1.164t1.3,1.164a1.135,1.135,0,0,1-.324.863,1.363,1.363,0,0,1-.973.309Q62.272,29.18,62.272,28.008ZM64.756,39H62.373V30.266h2.383Zm7.359-8.9a2.825,2.825,0,0,1,2.422,1.207,5.538,5.538,0,0,1,.875,3.309,5.441,5.441,0,0,1-.9,3.352,3.151,3.151,0,0,1-4.871.07h-.164l-.4.961h-1.82V26.844h2.383v2.828q0,.539-.094,1.727h.094A2.757,2.757,0,0,1,72.116,30.1Zm-.766,1.906a1.5,1.5,0,0,0-1.289.543,3.117,3.117,0,0,0-.422,1.793V34.6a3.68,3.68,0,0,0,.418,2.016,1.492,1.492,0,0,0,1.324.609,1.329,1.329,0,0,0,1.168-.676,3.658,3.658,0,0,0,.434-1.965,3.465,3.465,0,0,0-.437-1.934A1.372,1.372,0,0,0,71.35,32.008ZM83.569,39l-.32-1.117h-.125a2.514,2.514,0,0,1-1.086.941,3.708,3.708,0,0,1-1.6.332,3.05,3.05,0,0,1-2.32-.824,3.316,3.316,0,0,1-.781-2.371v-5.7h2.383v5.1a2.45,2.45,0,0,0,.336,1.418,1.222,1.222,0,0,0,1.07.473,1.609,1.609,0,0,0,1.445-.668,4.143,4.143,0,0,0,.445-2.215V30.266H85.4V39Zm7.875.156q-4.078,0-4.078-4.477a4.775,4.775,0,0,1,1.109-3.4,4.162,4.162,0,0,1,3.18-1.176,6.062,6.062,0,0,1,2.719.594l-.7,1.844q-.562-.227-1.047-.371a3.373,3.373,0,0,0-.969-.145q-1.859,0-1.859,2.641,0,2.562,1.859,2.563a4.239,4.239,0,0,0,1.273-.184,4.6,4.6,0,0,0,1.172-.574v2.039a3.84,3.84,0,0,1-1.168.508A6.568,6.568,0,0,1,91.444,39.156Zm4.578-11.148q0-1.164,1.3-1.164t1.3,1.164a1.135,1.135,0,0,1-.324.863,1.363,1.363,0,0,1-.973.309Q96.022,29.18,96.022,28.008ZM98.506,39H96.123V30.266h2.383Zm4.4-4.383a3.666,3.666,0,0,0,.426,1.961,1.523,1.523,0,0,0,1.387.664,1.5,1.5,0,0,0,1.371-.66,3.719,3.719,0,0,0,.418-1.965,3.608,3.608,0,0,0-.422-1.945,1.794,1.794,0,0,0-2.758,0A3.6,3.6,0,0,0,102.9,34.617Zm6.039,0a4.694,4.694,0,0,1-1.125,3.336,4.079,4.079,0,0,1-3.133,1.2,4.382,4.382,0,0,1-2.219-.551,3.665,3.665,0,0,1-1.477-1.582,5.316,5.316,0,0,1-.516-2.406,4.668,4.668,0,0,1,1.117-3.328,4.1,4.1,0,0,1,3.141-1.187,4.407,4.407,0,0,1,2.219.547,3.65,3.65,0,0,1,1.477,1.57A5.267,5.267,0,0,1,108.944,34.617ZM103.4,29.3v-.211a22,22,0,0,0,1.836-2.352h2.672v.164q-.406.406-1.387,1.207T104.991,29.3Zm15.57,9.7h-2.383V33.9a2.45,2.45,0,0,0-.336-1.418,1.222,1.222,0,0,0-1.07-.473,1.609,1.609,0,0,0-1.445.668,4.143,4.143,0,0,0-.445,2.215V39h-2.383V30.266h1.82l.32,1.117h.133a2.518,2.518,0,0,1,1.1-.957,3.738,3.738,0,0,1,1.59-.324,3.055,3.055,0,0,1,2.313.824,3.308,3.308,0,0,1,.789,2.379Z" transform="translate(6108.338 1774.94)" fill="#002110" opacity="0.9"/>
    <path id="Trazado_17188" data-name="Trazado 17188" d="M19.4,17l-.828-2.719H14.4L13.576,17H10.967L15,5.531h2.961L22.006,17Zm-1.406-4.75q-1.148-3.7-1.293-4.18T16.491,7.3q-.258,1-1.477,4.945Zm8.031,4.906a2.837,2.837,0,0,1-2.418-1.2,5.5,5.5,0,0,1-.879-3.312A5.5,5.5,0,0,1,23.619,9.3a2.905,2.905,0,0,1,2.465-1.2A2.849,2.849,0,0,1,28.6,9.383h.078a9.741,9.741,0,0,1-.18-1.742v-2.8h2.391V17H29.061L28.6,15.867h-.1A2.727,2.727,0,0,1,26.022,17.156Zm.836-1.9a1.615,1.615,0,0,0,1.34-.531,3.09,3.09,0,0,0,.465-1.8v-.258a3.571,3.571,0,0,0-.434-2.016,1.61,1.61,0,0,0-1.41-.609,1.4,1.4,0,0,0-1.238.676,3.605,3.605,0,0,0-.441,1.965,3.417,3.417,0,0,0,.445,1.934A1.455,1.455,0,0,0,26.858,15.258ZM41.2,17H38.819V11.9A2.57,2.57,0,0,0,38.5,10.48a1.113,1.113,0,0,0-1-.473,1.443,1.443,0,0,0-1.328.672,4.407,4.407,0,0,0-.414,2.211V17H33.381V8.266H35.2l.32,1.117h.133a2.421,2.421,0,0,1,1.016-.941,3.3,3.3,0,0,1,1.523-.34A2.744,2.744,0,0,1,40.85,9.383h.211A2.36,2.36,0,0,1,42.1,8.438,3.452,3.452,0,0,1,43.639,8.1a3.046,3.046,0,0,1,2.246.762,3.345,3.345,0,0,1,.762,2.441V17H44.256V11.9a2.57,2.57,0,0,0-.316-1.418,1.113,1.113,0,0,0-1-.473,1.486,1.486,0,0,0-1.309.625,3.546,3.546,0,0,0-.434,1.984ZM48.991,6.008q0-1.164,1.3-1.164t1.3,1.164a1.135,1.135,0,0,1-.324.863,1.363,1.363,0,0,1-.973.309Q48.991,7.18,48.991,6.008ZM51.475,17H49.092V8.266h2.383Zm10.563,0H59.655V11.9a2.45,2.45,0,0,0-.336-1.418,1.222,1.222,0,0,0-1.07-.473,1.609,1.609,0,0,0-1.445.668,4.143,4.143,0,0,0-.445,2.215V17H53.975V8.266H55.8l.32,1.117h.133a2.518,2.518,0,0,1,1.1-.957,3.738,3.738,0,0,1,1.59-.324,3.055,3.055,0,0,1,2.313.824,3.308,3.308,0,0,1,.789,2.379ZM64.389,6.008q0-1.164,1.3-1.164t1.3,1.164a1.135,1.135,0,0,1-.324.863,1.363,1.363,0,0,1-.973.309Q64.389,7.18,64.389,6.008ZM66.873,17H64.491V8.266h2.383Zm8.594-2.594a2.4,2.4,0,0,1-.934,2.047,4.613,4.613,0,0,1-2.793.7,8.772,8.772,0,0,1-1.625-.129,6.147,6.147,0,0,1-1.258-.379V14.68a8.307,8.307,0,0,0,1.5.523,6.058,6.058,0,0,0,1.465.211q1.3,0,1.3-.75a.626.626,0,0,0-.172-.457,2.492,2.492,0,0,0-.594-.4q-.422-.223-1.125-.52a7.067,7.067,0,0,1-1.48-.781,2.2,2.2,0,0,1-.687-.824,2.721,2.721,0,0,1-.215-1.145,2.075,2.075,0,0,1,.9-1.8A4.4,4.4,0,0,1,72.3,8.1a7.262,7.262,0,0,1,3.07.688l-.719,1.719q-.656-.281-1.227-.461a3.852,3.852,0,0,0-1.164-.18q-1.055,0-1.055.57a.67.67,0,0,0,.34.555,9.242,9.242,0,0,0,1.488.7,6.914,6.914,0,0,1,1.5.773,2.287,2.287,0,0,1,.7.828A2.545,2.545,0,0,1,75.467,14.406Zm5.539.852a5.165,5.165,0,0,0,1.5-.273v1.773a5.348,5.348,0,0,1-2.187.4,2.677,2.677,0,0,1-2.082-.723,3.145,3.145,0,0,1-.652-2.168V10.055H76.444V9.047l1.313-.8.688-1.844h1.523V8.266h2.445v1.789H79.967v4.211a.93.93,0,0,0,.285.75A1.125,1.125,0,0,0,81.006,15.258ZM89.147,8.1a3.843,3.843,0,0,1,.8.07l-.18,2.234a2.73,2.73,0,0,0-.7-.078,2.527,2.527,0,0,0-1.777.586,2.118,2.118,0,0,0-.637,1.641V17H84.272V8.266h1.8l.352,1.469h.117a3.283,3.283,0,0,1,1.1-1.184A2.707,2.707,0,0,1,89.147,8.1ZM96.764,17,96.3,15.813h-.062A3.519,3.519,0,0,1,95,16.863a4,4,0,0,1-1.66.293,2.685,2.685,0,0,1-1.98-.719,2.76,2.76,0,0,1-.723-2.047,2.3,2.3,0,0,1,.973-2.051,5.636,5.636,0,0,1,2.934-.73l1.516-.047V11.18A1.188,1.188,0,0,0,94.7,9.852a6.2,6.2,0,0,0-2.461.633l-.789-1.609A7.1,7.1,0,0,1,94.8,8.086a4.165,4.165,0,0,1,2.7.766,2.83,2.83,0,0,1,.938,2.328V17Zm-.7-4.047-.922.031a2.952,2.952,0,0,0-1.547.375,1.178,1.178,0,0,0-.508,1.047q0,1.008,1.156,1.008a1.831,1.831,0,0,0,1.324-.477,1.674,1.674,0,0,0,.5-1.266Zm8.367,4.2q-4.078,0-4.078-4.477a4.775,4.775,0,0,1,1.109-3.4,4.162,4.162,0,0,1,3.18-1.176,6.062,6.062,0,0,1,2.719.594l-.7,1.844q-.562-.227-1.047-.371a3.373,3.373,0,0,0-.969-.145q-1.859,0-1.859,2.641,0,2.562,1.859,2.563a4.239,4.239,0,0,0,1.273-.184,4.6,4.6,0,0,0,1.172-.574v2.039a3.84,3.84,0,0,1-1.168.508A6.568,6.568,0,0,1,104.428,17.156Zm4.578-11.148q0-1.164,1.3-1.164t1.3,1.164a1.135,1.135,0,0,1-.324.863,1.363,1.363,0,0,1-.973.309Q109.006,7.18,109.006,6.008ZM111.491,17h-2.383V8.266h2.383Zm4.4-4.383a3.666,3.666,0,0,0,.426,1.961,1.523,1.523,0,0,0,1.387.664,1.5,1.5,0,0,0,1.371-.66,3.719,3.719,0,0,0,.418-1.965,3.608,3.608,0,0,0-.422-1.945,1.794,1.794,0,0,0-2.758,0A3.6,3.6,0,0,0,115.889,12.617Zm6.039,0a4.694,4.694,0,0,1-1.125,3.336,4.079,4.079,0,0,1-3.133,1.2,4.382,4.382,0,0,1-2.219-.551,3.665,3.665,0,0,1-1.477-1.582,5.316,5.316,0,0,1-.516-2.406,4.668,4.668,0,0,1,1.117-3.328A4.1,4.1,0,0,1,117.717,8.1a4.407,4.407,0,0,1,2.219.547,3.65,3.65,0,0,1,1.477,1.57A5.267,5.267,0,0,1,121.928,12.617ZM116.389,7.3V7.094a22,22,0,0,0,1.836-2.352H120.9v.164q-.406.406-1.387,1.207T117.975,7.3Zm15.57,9.7h-2.383V11.9a2.45,2.45,0,0,0-.336-1.418,1.222,1.222,0,0,0-1.07-.473,1.609,1.609,0,0,0-1.445.668,4.143,4.143,0,0,0-.445,2.215V17H123.9V8.266h1.82l.32,1.117h.133a2.518,2.518,0,0,1,1.1-.957,3.738,3.738,0,0,1,1.59-.324,3.055,3.055,0,0,1,2.313.824,3.308,3.308,0,0,1,.789,2.379Z" transform="translate(5926.846 1917.403)" fill="#002110" opacity="0.9"/>
    <path id="Trazado_17189" data-name="Trazado 17189" d="M30.022,17H27.639V5.578h6.547V7.563H30.022v2.945H33.9v1.977H30.022ZM36.131,6.008q0-1.164,1.3-1.164t1.3,1.164a1.135,1.135,0,0,1-.324.863,1.363,1.363,0,0,1-.973.309Q36.131,7.18,36.131,6.008ZM38.616,17H36.233V8.266h2.383Zm10.563,0H46.8V11.9a2.45,2.45,0,0,0-.336-1.418,1.222,1.222,0,0,0-1.07-.473,1.609,1.609,0,0,0-1.445.668,4.143,4.143,0,0,0-.445,2.215V17H41.116V8.266h1.82l.32,1.117h.133a2.518,2.518,0,0,1,1.1-.957,3.738,3.738,0,0,1,1.59-.324,3.055,3.055,0,0,1,2.313.824,3.308,3.308,0,0,1,.789,2.379Zm8,0-.461-1.187h-.062a3.519,3.519,0,0,1-1.238,1.051,4,4,0,0,1-1.66.293,2.685,2.685,0,0,1-1.98-.719,2.76,2.76,0,0,1-.723-2.047,2.3,2.3,0,0,1,.973-2.051,5.636,5.636,0,0,1,2.934-.73l1.516-.047V11.18a1.188,1.188,0,0,0-1.359-1.328,6.2,6.2,0,0,0-2.461.633l-.789-1.609a7.1,7.1,0,0,1,3.344-.789,4.165,4.165,0,0,1,2.7.766,2.83,2.83,0,0,1,.938,2.328V17Zm-.7-4.047-.922.031a2.952,2.952,0,0,0-1.547.375,1.178,1.178,0,0,0-.508,1.047q0,1.008,1.156,1.008a1.831,1.831,0,0,0,1.324-.477,1.674,1.674,0,0,0,.5-1.266ZM69.358,17H66.975V11.9a2.45,2.45,0,0,0-.336-1.418,1.222,1.222,0,0,0-1.07-.473,1.609,1.609,0,0,0-1.445.668,4.143,4.143,0,0,0-.445,2.215V17H61.3V8.266h1.82l.32,1.117h.133a2.518,2.518,0,0,1,1.1-.957,3.738,3.738,0,0,1,1.59-.324,3.055,3.055,0,0,1,2.313.824,3.308,3.308,0,0,1,.789,2.379Zm6,.156q-4.078,0-4.078-4.477a4.775,4.775,0,0,1,1.109-3.4A4.162,4.162,0,0,1,75.569,8.1a6.062,6.062,0,0,1,2.719.594l-.7,1.844q-.562-.227-1.047-.371a3.373,3.373,0,0,0-.969-.145q-1.859,0-1.859,2.641,0,2.562,1.859,2.563a4.239,4.239,0,0,0,1.273-.184,4.6,4.6,0,0,0,1.172-.574v2.039a3.84,3.84,0,0,1-1.168.508A6.568,6.568,0,0,1,75.358,17.156ZM79.936,6.008q0-1.164,1.3-1.164t1.3,1.164a1.135,1.135,0,0,1-.324.863,1.363,1.363,0,0,1-.973.309Q79.936,7.18,79.936,6.008ZM82.42,17H80.037V8.266H82.42Zm6.117-7.2a1.511,1.511,0,0,0-1.187.48,2.224,2.224,0,0,0-.492,1.363H90.2a1.986,1.986,0,0,0-.461-1.363A1.561,1.561,0,0,0,88.537,9.8Zm.336,7.359a4.508,4.508,0,0,1-3.3-1.164,4.408,4.408,0,0,1-1.187-3.3,4.848,4.848,0,0,1,1.1-3.395,3.909,3.909,0,0,1,3.035-1.2A3.847,3.847,0,0,1,91.4,9.156a3.99,3.99,0,0,1,1.031,2.914v1.156H86.8a2.294,2.294,0,0,0,.6,1.586,2.117,2.117,0,0,0,1.578.57,6.551,6.551,0,0,0,1.492-.164,7.466,7.466,0,0,0,1.469-.523v1.844A5.6,5.6,0,0,1,90.608,17,8.423,8.423,0,0,1,88.873,17.156ZM99.248,8.1a3.843,3.843,0,0,1,.8.07l-.18,2.234a2.73,2.73,0,0,0-.7-.078,2.527,2.527,0,0,0-1.777.586,2.118,2.118,0,0,0-.637,1.641V17H94.373V8.266h1.8l.352,1.469h.117a3.283,3.283,0,0,1,1.1-1.184A2.707,2.707,0,0,1,99.248,8.1Zm3.969,4.516a3.666,3.666,0,0,0,.426,1.961,1.523,1.523,0,0,0,1.387.664,1.5,1.5,0,0,0,1.371-.66,3.719,3.719,0,0,0,.418-1.965,3.608,3.608,0,0,0-.422-1.945,1.794,1.794,0,0,0-2.758,0A3.6,3.6,0,0,0,103.217,12.617Zm6.039,0a4.694,4.694,0,0,1-1.125,3.336,4.079,4.079,0,0,1-3.133,1.2,4.382,4.382,0,0,1-2.219-.551,3.665,3.665,0,0,1-1.477-1.582,5.316,5.316,0,0,1-.516-2.406A4.668,4.668,0,0,1,101.9,9.289,4.1,4.1,0,0,1,105.045,8.1a4.407,4.407,0,0,1,2.219.547,3.65,3.65,0,0,1,1.477,1.57A5.267,5.267,0,0,1,109.256,12.617Zm8.063,1.789a2.4,2.4,0,0,1-.934,2.047,4.613,4.613,0,0,1-2.793.7,8.772,8.772,0,0,1-1.625-.129,6.147,6.147,0,0,1-1.258-.379V14.68a8.307,8.307,0,0,0,1.5.523,6.058,6.058,0,0,0,1.465.211q1.3,0,1.3-.75a.626.626,0,0,0-.172-.457,2.492,2.492,0,0,0-.594-.4q-.422-.223-1.125-.52a7.067,7.067,0,0,1-1.48-.781,2.2,2.2,0,0,1-.687-.824,2.721,2.721,0,0,1-.215-1.145,2.075,2.075,0,0,1,.9-1.8,4.4,4.4,0,0,1,2.559-.637,7.262,7.262,0,0,1,3.07.688l-.719,1.719q-.656-.281-1.227-.461a3.852,3.852,0,0,0-1.164-.18q-1.055,0-1.055.57a.67.67,0,0,0,.34.555,9.242,9.242,0,0,0,1.488.7,6.914,6.914,0,0,1,1.5.773,2.287,2.287,0,0,1,.7.828A2.545,2.545,0,0,1,117.319,14.406Z" transform="translate(6108.064 1917.403)" fill="#002110" opacity="0.9"/>
    <path id="Trazado_17190" data-name="Trazado 17190" d="M52.713,5.578h2.445L51.276,17H48.635L44.76,5.578h2.445l2.148,6.8q.18.6.371,1.4t.238,1.113a20.012,20.012,0,0,1,.586-2.516ZM59.705,9.8a1.511,1.511,0,0,0-1.187.48,2.224,2.224,0,0,0-.492,1.363h3.344a1.986,1.986,0,0,0-.461-1.363A1.561,1.561,0,0,0,59.705,9.8Zm.336,7.359a4.508,4.508,0,0,1-3.3-1.164,4.408,4.408,0,0,1-1.187-3.3,4.848,4.848,0,0,1,1.1-3.395A3.908,3.908,0,0,1,59.69,8.1a3.847,3.847,0,0,1,2.883,1.055A3.99,3.99,0,0,1,63.6,12.07v1.156H57.971a2.294,2.294,0,0,0,.6,1.586,2.117,2.117,0,0,0,1.578.57,6.551,6.551,0,0,0,1.492-.164,7.466,7.466,0,0,0,1.469-.523v1.844A5.6,5.6,0,0,1,61.776,17,8.423,8.423,0,0,1,60.041,17.156ZM73.6,17H71.221V11.9a2.45,2.45,0,0,0-.336-1.418,1.222,1.222,0,0,0-1.07-.473,1.609,1.609,0,0,0-1.445.668,4.143,4.143,0,0,0-.445,2.215V17H65.541V8.266h1.82l.32,1.117h.133a2.518,2.518,0,0,1,1.1-.957A3.738,3.738,0,0,1,70.5,8.1a3.055,3.055,0,0,1,2.313.824A3.308,3.308,0,0,1,73.6,11.3Zm6.133-1.742a5.165,5.165,0,0,0,1.5-.273v1.773a5.348,5.348,0,0,1-2.187.4,2.677,2.677,0,0,1-2.082-.723,3.145,3.145,0,0,1-.652-2.168V10.055H75.174V9.047l1.313-.8.688-1.844H78.7V8.266h2.445v1.789H78.7v4.211a.93.93,0,0,0,.285.75A1.125,1.125,0,0,0,79.737,15.258ZM88.549,17l-.461-1.187h-.062a3.519,3.519,0,0,1-1.238,1.051,4,4,0,0,1-1.66.293,2.685,2.685,0,0,1-1.98-.719,2.76,2.76,0,0,1-.723-2.047A2.3,2.3,0,0,1,83.4,12.34a5.636,5.636,0,0,1,2.934-.73l1.516-.047V11.18a1.188,1.188,0,0,0-1.359-1.328,6.2,6.2,0,0,0-2.461.633l-.789-1.609a7.1,7.1,0,0,1,3.344-.789,4.165,4.165,0,0,1,2.7.766,2.83,2.83,0,0,1,.938,2.328V17Zm-.7-4.047-.922.031a2.952,2.952,0,0,0-1.547.375,1.178,1.178,0,0,0-.508,1.047q0,1.008,1.156,1.008a1.831,1.831,0,0,0,1.324-.477,1.674,1.674,0,0,0,.5-1.266ZM98.76,14.406a2.4,2.4,0,0,1-.934,2.047,4.613,4.613,0,0,1-2.793.7,8.772,8.772,0,0,1-1.625-.129,6.147,6.147,0,0,1-1.258-.379V14.68a8.307,8.307,0,0,0,1.5.523,6.058,6.058,0,0,0,1.465.211q1.3,0,1.3-.75a.626.626,0,0,0-.172-.457,2.492,2.492,0,0,0-.594-.4q-.422-.223-1.125-.52a7.067,7.067,0,0,1-1.48-.781,2.2,2.2,0,0,1-.687-.824,2.721,2.721,0,0,1-.215-1.145,2.075,2.075,0,0,1,.9-1.8A4.4,4.4,0,0,1,95.6,8.1a7.262,7.262,0,0,1,3.07.688l-.719,1.719q-.656-.281-1.227-.461a3.852,3.852,0,0,0-1.164-.18q-1.055,0-1.055.57a.67.67,0,0,0,.34.555,9.242,9.242,0,0,0,1.488.7,6.914,6.914,0,0,1,1.5.773,2.287,2.287,0,0,1,.7.828A2.545,2.545,0,0,1,98.76,14.406Z" transform="translate(6291.575 1917.403)" fill="#002110" opacity="0.9"/>
    <path id="Trazado_17191" data-name="Trazado 17191" d="M55.9,7.43a2.468,2.468,0,0,0-2.117,1.027,4.78,4.78,0,0,0-.75,2.863q0,3.82,2.867,3.82a9.063,9.063,0,0,0,2.914-.6V16.57a8.093,8.093,0,0,1-3.141.586,4.79,4.79,0,0,1-3.812-1.512,6.4,6.4,0,0,1-1.32-4.34,7.087,7.087,0,0,1,.648-3.121,4.687,4.687,0,0,1,1.863-2.055A5.512,5.512,0,0,1,55.9,5.414a7.686,7.686,0,0,1,3.344.8l-.781,1.969a12.932,12.932,0,0,0-1.289-.531A3.846,3.846,0,0,0,55.9,7.43Zm7.055,5.188a3.666,3.666,0,0,0,.426,1.961,1.523,1.523,0,0,0,1.387.664,1.5,1.5,0,0,0,1.371-.66,3.719,3.719,0,0,0,.418-1.965,3.608,3.608,0,0,0-.422-1.945,1.794,1.794,0,0,0-2.758,0A3.6,3.6,0,0,0,62.955,12.617Zm6.039,0a4.694,4.694,0,0,1-1.125,3.336,4.079,4.079,0,0,1-3.133,1.2,4.382,4.382,0,0,1-2.219-.551,3.665,3.665,0,0,1-1.477-1.582,5.316,5.316,0,0,1-.516-2.406,4.668,4.668,0,0,1,1.117-3.328A4.1,4.1,0,0,1,64.783,8.1,4.407,4.407,0,0,1,67,8.648a3.65,3.65,0,0,1,1.477,1.57A5.267,5.267,0,0,1,68.994,12.617Zm8.063,1.789a2.4,2.4,0,0,1-.934,2.047,4.613,4.613,0,0,1-2.793.7,8.772,8.772,0,0,1-1.625-.129,6.147,6.147,0,0,1-1.258-.379V14.68a8.307,8.307,0,0,0,1.5.523,6.058,6.058,0,0,0,1.465.211q1.3,0,1.3-.75a.626.626,0,0,0-.172-.457,2.492,2.492,0,0,0-.594-.4q-.422-.223-1.125-.52a7.067,7.067,0,0,1-1.48-.781,2.2,2.2,0,0,1-.687-.824,2.721,2.721,0,0,1-.215-1.145,2.075,2.075,0,0,1,.9-1.8A4.4,4.4,0,0,1,73.893,8.1a7.262,7.262,0,0,1,3.07.688l-.719,1.719q-.656-.281-1.227-.461a3.852,3.852,0,0,0-1.164-.18q-1.055,0-1.055.57a.67.67,0,0,0,.34.555,9.242,9.242,0,0,0,1.488.7,6.914,6.914,0,0,1,1.5.773,2.287,2.287,0,0,1,.7.828A2.545,2.545,0,0,1,77.057,14.406Zm5.539.852a5.165,5.165,0,0,0,1.5-.273v1.773a5.348,5.348,0,0,1-2.187.4,2.677,2.677,0,0,1-2.082-.723,3.145,3.145,0,0,1-.652-2.168V10.055H78.033V9.047l1.313-.8.688-1.844h1.523V8.266H84v1.789H81.557v4.211a.93.93,0,0,0,.285.75A1.125,1.125,0,0,0,82.6,15.258Zm5.164-2.641a3.666,3.666,0,0,0,.426,1.961,1.523,1.523,0,0,0,1.387.664,1.5,1.5,0,0,0,1.371-.66,3.719,3.719,0,0,0,.418-1.965,3.608,3.608,0,0,0-.422-1.945,1.794,1.794,0,0,0-2.758,0A3.6,3.6,0,0,0,87.76,12.617Zm6.039,0a4.694,4.694,0,0,1-1.125,3.336,4.079,4.079,0,0,1-3.133,1.2,4.382,4.382,0,0,1-2.219-.551,3.665,3.665,0,0,1-1.477-1.582,5.316,5.316,0,0,1-.516-2.406,4.668,4.668,0,0,1,1.117-3.328A4.1,4.1,0,0,1,89.588,8.1a4.407,4.407,0,0,1,2.219.547,3.65,3.65,0,0,1,1.477,1.57A5.267,5.267,0,0,1,93.8,12.617ZM57.823,37.258a5.165,5.165,0,0,0,1.5-.273v1.773a5.348,5.348,0,0,1-2.187.4,2.677,2.677,0,0,1-2.082-.723,3.145,3.145,0,0,1-.652-2.168V32.055H53.26V31.047l1.313-.8.688-1.844h1.523v1.859h2.445v1.789H56.783v4.211a.93.93,0,0,0,.285.75A1.125,1.125,0,0,0,57.823,37.258Zm5.164-2.641a3.666,3.666,0,0,0,.426,1.961,1.523,1.523,0,0,0,1.387.664,1.5,1.5,0,0,0,1.371-.66,3.719,3.719,0,0,0,.418-1.965,3.608,3.608,0,0,0-.422-1.945,1.794,1.794,0,0,0-2.758,0A3.6,3.6,0,0,0,62.987,34.617Zm6.039,0A4.694,4.694,0,0,1,67.9,37.953a4.079,4.079,0,0,1-3.133,1.2,4.382,4.382,0,0,1-2.219-.551,3.665,3.665,0,0,1-1.477-1.582,5.316,5.316,0,0,1-.516-2.406,4.668,4.668,0,0,1,1.117-3.328A4.1,4.1,0,0,1,64.815,30.1a4.407,4.407,0,0,1,2.219.547,3.65,3.65,0,0,1,1.477,1.57A5.267,5.267,0,0,1,69.026,34.617Zm5.648,2.641a5.165,5.165,0,0,0,1.5-.273v1.773a5.348,5.348,0,0,1-2.187.4,2.677,2.677,0,0,1-2.082-.723,3.145,3.145,0,0,1-.652-2.168V32.055H70.112V31.047l1.313-.8.688-1.844h1.523v1.859H76.08v1.789H73.635v4.211a.93.93,0,0,0,.285.75A1.125,1.125,0,0,0,74.674,37.258ZM83.487,39l-.461-1.187h-.062a3.519,3.519,0,0,1-1.238,1.051,4,4,0,0,1-1.66.293,2.685,2.685,0,0,1-1.98-.719,2.76,2.76,0,0,1-.723-2.047,2.3,2.3,0,0,1,.973-2.051,5.636,5.636,0,0,1,2.934-.73l1.516-.047V33.18a1.188,1.188,0,0,0-1.359-1.328,6.2,6.2,0,0,0-2.461.633l-.789-1.609a7.1,7.1,0,0,1,3.344-.789,4.165,4.165,0,0,1,2.7.766,2.83,2.83,0,0,1,.938,2.328V39Zm-.7-4.047-.922.031a2.952,2.952,0,0,0-1.547.375,1.178,1.178,0,0,0-.508,1.047q0,1.008,1.156,1.008a1.831,1.831,0,0,0,1.324-.477,1.674,1.674,0,0,0,.5-1.266ZM89.987,39H87.6V26.844h2.383Z" transform="translate(6328.15 1774.94)" fill="#fff"/>
    <path id="Trazado_17192" data-name="Trazado 17192" d="M51,5.578v7.391a4.261,4.261,0,0,1-.566,2.219A3.686,3.686,0,0,1,48.8,16.648a5.853,5.853,0,0,1-2.531.508,4.847,4.847,0,0,1-3.422-1.129,4,4,0,0,1-1.219-3.09V5.578h2.414V12.57a2.929,2.929,0,0,0,.531,1.938,2.209,2.209,0,0,0,1.758.617,2.159,2.159,0,0,0,1.723-.621,2.944,2.944,0,0,0,.535-1.949V5.578Zm6.289,9.68a5.165,5.165,0,0,0,1.5-.273v1.773a5.348,5.348,0,0,1-2.187.4,2.677,2.677,0,0,1-2.082-.723,3.145,3.145,0,0,1-.652-2.168V10.055H52.725V9.047l1.313-.8.688-1.844h1.523V8.266h2.445v1.789H56.248v4.211a.93.93,0,0,0,.285.75A1.125,1.125,0,0,0,57.287,15.258Zm3.164-9.25q0-1.164,1.3-1.164t1.3,1.164a1.135,1.135,0,0,1-.324.863,1.363,1.363,0,0,1-.973.309Q60.451,7.18,60.451,6.008ZM62.936,17H60.553V8.266h2.383Zm4.883,0H65.436V4.844h2.383Zm2.4-10.992q0-1.164,1.3-1.164t1.3,1.164a1.135,1.135,0,0,1-.324.863,1.363,1.363,0,0,1-.973.309Q70.217,7.18,70.217,6.008ZM72.7,17H70.319V8.266H72.7Zm5.266.156a2.837,2.837,0,0,1-2.418-1.2,5.5,5.5,0,0,1-.879-3.312A5.5,5.5,0,0,1,75.565,9.3,2.905,2.905,0,0,1,78.03,8.1a2.849,2.849,0,0,1,2.516,1.281h.078a9.742,9.742,0,0,1-.18-1.742v-2.8h2.391V17H81.006l-.461-1.133h-.1A2.727,2.727,0,0,1,77.967,17.156Zm.836-1.9a1.615,1.615,0,0,0,1.34-.531,3.09,3.09,0,0,0,.465-1.8v-.258a3.571,3.571,0,0,0-.434-2.016,1.61,1.61,0,0,0-1.41-.609,1.4,1.4,0,0,0-1.238.676,3.605,3.605,0,0,0-.441,1.965,3.417,3.417,0,0,0,.445,1.934A1.455,1.455,0,0,0,78.8,15.258ZM90.873,17l-.461-1.187H90.35a3.519,3.519,0,0,1-1.238,1.051,4,4,0,0,1-1.66.293,2.685,2.685,0,0,1-1.98-.719,2.76,2.76,0,0,1-.723-2.047,2.3,2.3,0,0,1,.973-2.051,5.636,5.636,0,0,1,2.934-.73l1.516-.047V11.18a1.188,1.188,0,0,0-1.359-1.328,6.2,6.2,0,0,0-2.461.633l-.789-1.609A7.1,7.1,0,0,1,88.9,8.086a4.165,4.165,0,0,1,2.7.766,2.83,2.83,0,0,1,.938,2.328V17Zm-.7-4.047-.922.031a2.952,2.952,0,0,0-1.547.375,1.178,1.178,0,0,0-.508,1.047q0,1.008,1.156,1.008a1.831,1.831,0,0,0,1.324-.477,1.674,1.674,0,0,0,.5-1.266Zm7.586,4.2a2.837,2.837,0,0,1-2.418-1.2,5.5,5.5,0,0,1-.879-3.312A5.5,5.5,0,0,1,95.354,9.3a2.905,2.905,0,0,1,2.465-1.2,2.849,2.849,0,0,1,2.516,1.281h.078a9.742,9.742,0,0,1-.18-1.742v-2.8h2.391V17H100.8l-.461-1.133h-.1A2.727,2.727,0,0,1,97.756,17.156Zm.836-1.9a1.615,1.615,0,0,0,1.34-.531,3.09,3.09,0,0,0,.465-1.8v-.258a3.571,3.571,0,0,0-.434-2.016,1.61,1.61,0,0,0-1.41-.609,1.4,1.4,0,0,0-1.238.676,3.605,3.605,0,0,0-.441,1.965,3.417,3.417,0,0,0,.445,1.934A1.455,1.455,0,0,0,98.592,15.258Z" transform="translate(6509.317 1784.94)" fill="#fff"/>
    <path id="Trazado_17193" data-name="Trazado 17193" d="M12,0H131.994a12,12,0,0,1,12,12V50.609a12,12,0,0,1-12,12H12a12,12,0,0,1-12-12V12A12,12,0,0,1,12,0Z" transform="translate(6514.552 1883.477)" fill="#70a83b" stroke="#002110" stroke-width="3"/>
    <path id="Trazado_17194" data-name="Trazado 17194" d="M0,0H54.035" transform="translate(6395.308 1697.82)" fill="none" stroke="#db9600" stroke-width="4"/>
    <path id="Trazado_17195" data-name="Trazado 17195" d="M0,0V34.926" transform="translate(6586.549 1834.025)" fill="none" stroke="#db9600" stroke-width="4"/>
    <path id="Trazado_17172" data-name="Trazado 17172" d="M3666.91,1914.025v-30.667h371.829v30.667" transform="translate(2332 -8)" fill="none" stroke="#002110" stroke-miterlimit="10" stroke-width="2" stroke-dasharray="4" opacity="0.6"/>
    <path id="Trazado_17196" data-name="Trazado 17196" d="M0,0V41.333" transform="translate(6180.26 1834.025)" fill="none" stroke="#002110" stroke-width="2" stroke-dasharray="4" opacity="0.6"/>
    <path id="Trazado_17197" data-name="Trazado 17197" d="M0,0V28.22" transform="translate(6180.26 1879.358)" fill="none" stroke="#002110" stroke-width="2" stroke-dasharray="4" opacity="0.6"/>
    <path id="Trazado_17198" data-name="Trazado 17198" d="M29.4,10.953h.8a2.654,2.654,0,0,0,1.672-.441,1.545,1.545,0,0,0,.555-1.285,1.584,1.584,0,0,0-.465-1.258A2.178,2.178,0,0,0,30.5,7.563H29.4ZM34.87,9.141a3.491,3.491,0,0,1-1.152,2.82,4.928,4.928,0,0,1-3.277.977H29.4V17H26.979V5.578h3.648a4.853,4.853,0,0,1,3.16.895A3.262,3.262,0,0,1,34.87,9.141ZM41.714,8.1a3.843,3.843,0,0,1,.8.07l-.18,2.234a2.73,2.73,0,0,0-.7-.078,2.527,2.527,0,0,0-1.777.586,2.118,2.118,0,0,0-.637,1.641V17H36.839V8.266h1.8l.352,1.469h.117a3.283,3.283,0,0,1,1.1-1.184A2.707,2.707,0,0,1,41.714,8.1ZM47.4,9.8a1.511,1.511,0,0,0-1.187.48,2.224,2.224,0,0,0-.492,1.363h3.344a1.986,1.986,0,0,0-.461-1.363A1.561,1.561,0,0,0,47.4,9.8Zm.336,7.359a4.508,4.508,0,0,1-3.3-1.164,4.408,4.408,0,0,1-1.187-3.3A4.848,4.848,0,0,1,44.35,9.3a3.908,3.908,0,0,1,3.035-1.2,3.847,3.847,0,0,1,2.883,1.055A3.99,3.99,0,0,1,51.3,12.07v1.156H45.667a2.294,2.294,0,0,0,.6,1.586,2.117,2.117,0,0,0,1.578.57,6.551,6.551,0,0,0,1.492-.164,7.466,7.466,0,0,0,1.469-.523v1.844A5.6,5.6,0,0,1,49.471,17,8.423,8.423,0,0,1,47.737,17.156Zm9.047,0q-4.078,0-4.078-4.477a4.775,4.775,0,0,1,1.109-3.4A4.162,4.162,0,0,1,56.995,8.1a6.062,6.062,0,0,1,2.719.594l-.7,1.844q-.562-.227-1.047-.371a3.373,3.373,0,0,0-.969-.145q-1.859,0-1.859,2.641,0,2.562,1.859,2.563a4.239,4.239,0,0,0,1.273-.184,4.6,4.6,0,0,0,1.172-.574v2.039a3.84,3.84,0,0,1-1.168.508A6.568,6.568,0,0,1,56.784,17.156ZM61.362,6.008q0-1.164,1.3-1.164t1.3,1.164a1.135,1.135,0,0,1-.324.863,1.363,1.363,0,0,1-.973.309Q61.362,7.18,61.362,6.008ZM63.846,17H61.464V8.266h2.383Zm4.4-4.383a3.666,3.666,0,0,0,.426,1.961,1.523,1.523,0,0,0,1.387.664,1.5,1.5,0,0,0,1.371-.66,3.719,3.719,0,0,0,.418-1.965,3.608,3.608,0,0,0-.422-1.945,1.794,1.794,0,0,0-2.758,0A3.6,3.6,0,0,0,68.245,12.617Zm6.039,0a4.694,4.694,0,0,1-1.125,3.336,4.079,4.079,0,0,1-3.133,1.2,4.382,4.382,0,0,1-2.219-.551,3.665,3.665,0,0,1-1.477-1.582,5.316,5.316,0,0,1-.516-2.406,4.668,4.668,0,0,1,1.117-3.328A4.1,4.1,0,0,1,70.073,8.1a4.407,4.407,0,0,1,2.219.547,3.65,3.65,0,0,1,1.477,1.57A5.267,5.267,0,0,1,74.284,12.617Zm8.891,4.539a2.837,2.837,0,0,1-2.418-1.2,5.5,5.5,0,0,1-.879-3.312A5.5,5.5,0,0,1,80.772,9.3a2.905,2.905,0,0,1,2.465-1.2,2.849,2.849,0,0,1,2.516,1.281h.078a9.742,9.742,0,0,1-.18-1.742v-2.8h2.391V17H86.214l-.461-1.133h-.1A2.727,2.727,0,0,1,83.175,17.156Zm.836-1.9a1.615,1.615,0,0,0,1.34-.531,3.09,3.09,0,0,0,.465-1.8v-.258a3.571,3.571,0,0,0-.434-2.016,1.61,1.61,0,0,0-1.41-.609,1.4,1.4,0,0,0-1.238.676,3.605,3.605,0,0,0-.441,1.965,3.417,3.417,0,0,0,.445,1.934A1.455,1.455,0,0,0,84.011,15.258ZM94.151,9.8a1.511,1.511,0,0,0-1.187.48,2.224,2.224,0,0,0-.492,1.363h3.344a1.986,1.986,0,0,0-.461-1.363A1.561,1.561,0,0,0,94.151,9.8Zm.336,7.359a4.508,4.508,0,0,1-3.3-1.164A4.408,4.408,0,0,1,90,12.7,4.848,4.848,0,0,1,91.1,9.3a3.909,3.909,0,0,1,3.035-1.2,3.847,3.847,0,0,1,2.883,1.055A3.99,3.99,0,0,1,98.05,12.07v1.156H92.417a2.294,2.294,0,0,0,.6,1.586,2.117,2.117,0,0,0,1.578.57,6.551,6.551,0,0,0,1.492-.164,7.466,7.466,0,0,0,1.469-.523v1.844A5.6,5.6,0,0,1,96.221,17,8.423,8.423,0,0,1,94.487,17.156ZM42.628,39,39.3,30.266h2.492l1.688,4.977a8.88,8.88,0,0,1,.352,1.789h.047a7.78,7.78,0,0,1,.352-1.789l1.68-4.977H48.4L45.073,39Zm10.641-7.2a1.511,1.511,0,0,0-1.187.48,2.224,2.224,0,0,0-.492,1.363h3.344a1.986,1.986,0,0,0-.461-1.363A1.561,1.561,0,0,0,53.268,31.8Zm.336,7.359a4.508,4.508,0,0,1-3.3-1.164,4.408,4.408,0,0,1-1.187-3.3,4.848,4.848,0,0,1,1.1-3.395,3.908,3.908,0,0,1,3.035-1.2,3.847,3.847,0,0,1,2.883,1.055,3.99,3.99,0,0,1,1.031,2.914v1.156H51.534a2.294,2.294,0,0,0,.6,1.586,2.117,2.117,0,0,0,1.578.57,6.551,6.551,0,0,0,1.492-.164,7.467,7.467,0,0,0,1.469-.523v1.844A5.6,5.6,0,0,1,55.339,39,8.423,8.423,0,0,1,53.6,39.156ZM67.167,39H64.784V33.9a2.45,2.45,0,0,0-.336-1.418,1.222,1.222,0,0,0-1.07-.473,1.609,1.609,0,0,0-1.445.668,4.143,4.143,0,0,0-.445,2.215V39H59.1V30.266h1.82l.32,1.117h.133a2.518,2.518,0,0,1,1.1-.957,3.738,3.738,0,0,1,1.59-.324,3.055,3.055,0,0,1,2.313.824,3.308,3.308,0,0,1,.789,2.379ZM73.3,37.258a5.165,5.165,0,0,0,1.5-.273v1.773a5.348,5.348,0,0,1-2.187.4,2.677,2.677,0,0,1-2.082-.723,3.145,3.145,0,0,1-.652-2.168V32.055H68.737V31.047l1.313-.8.688-1.844h1.523v1.859h2.445v1.789H72.261v4.211a.93.93,0,0,0,.285.75A1.125,1.125,0,0,0,73.3,37.258ZM82.112,39l-.461-1.187h-.062a3.519,3.519,0,0,1-1.238,1.051,4,4,0,0,1-1.66.293,2.685,2.685,0,0,1-1.98-.719,2.76,2.76,0,0,1-.723-2.047,2.3,2.3,0,0,1,.973-2.051,5.636,5.636,0,0,1,2.934-.73l1.516-.047V33.18a1.188,1.188,0,0,0-1.359-1.328,6.2,6.2,0,0,0-2.461.633L76.8,30.875a7.1,7.1,0,0,1,3.344-.789,4.165,4.165,0,0,1,2.7.766,2.83,2.83,0,0,1,.938,2.328V39Zm-.7-4.047-.922.031a2.952,2.952,0,0,0-1.547.375,1.178,1.178,0,0,0-.508,1.047q0,1.008,1.156,1.008a1.831,1.831,0,0,0,1.324-.477,1.674,1.674,0,0,0,.5-1.266Z" transform="translate(6524.409 1891.969)" fill="#fff"/>
  </g>
</svg>
